<mxfile host="Electron" agent="Mozilla/5.0 (Windows NT 10.0; Win64; x64) AppleWebKit/537.36 (KHTML, like Gecko) draw.io/27.0.9 Chrome/134.0.6998.205 Electron/35.4.0 Safari/537.36" version="27.0.9">
  <diagram name="PÃ¡gina-1" id="V48NVwy6FmU5hu3yh1xP">
    <mxGraphModel dx="2102" dy="1469" grid="1" gridSize="11" guides="1" tooltips="1" connect="1" arrows="1" fold="1" page="1" pageScale="1" pageWidth="827" pageHeight="1169" math="0" shadow="0">
      <root>
        <mxCell id="0" />
        <mxCell id="1" parent="0" />
        <mxCell id="sR0DKym92BfmkiZwiNyP-13" value="Tipo" style="text;html=1;align=center;verticalAlign=middle;whiteSpace=wrap;rounded=0;" parent="1" vertex="1">
          <mxGeometry x="439.5" y="1086" width="60" height="30" as="geometry" />
        </mxCell>
        <mxCell id="sR0DKym92BfmkiZwiNyP-1" value="" style="shape=image;verticalLabelPosition=bottom;labelBackgroundColor=default;verticalAlign=top;aspect=fixed;imageAspect=0;image=data:image/png,iVBORw0KGgoAAAANSUhEUgAAAoMAAAGTCAYAAABTUBiIAAAAAXNSR0IArs4c6QAAAARnQU1BAACxjwv8YQUAAAAJcEhZcwAADsMAAA7DAcdvqGQAAP+lSURBVHhe7J15WFTV38A/DMMiLiiKGoiiuGcumUlmbmlaZmVqZmW/FCvNPTMtdyvNLE0sXsvct1BRSwwtRcWNxX1Dc0HZXQCVdWBmvu8fgwrDzAhqZXk+z+PzCPfcc777Odx77r12IiIoFAqFQqFQKB5KNOa/UCgUCoVCoVA8PKjFoEKhUCgUCsVDjFoMKhQKhUKhUDzEqMWgQqFQKBQKxUOMXYkfIMlN5NDv29h39io6C2fae3fi/e6NcALS9//E5AVxPP3RBF710Zo3vQeMXNr+LV+sM/DSp6Po+Ii1NW1x29kg409CFq0ltf3HvNnotg7p0b/y0+LfOJZSmkY9hjD4+Zo4FTrREjpiwoL448hlMvXmxrPH45m36f1EebPfW0Z/IpBpP6fQZuhA2lW+C70UCoVCoVAoAORuyDskE5s6CDhI40/2ybWMG3L1QoSs+ugZ8XzhR7kqIiI62THMR7R2ztJ21nnRm/dxT6TLz73Ki51dOem+/Jr5wQIUt11R9EkRsnJyH2lWyUHs7L1k4B85t45dC5sl7/YbJMP9nhVvZzuxc6grw7dnFzrfOjrZP66JOFZ+XZaevSgXL16UixfOysHVw+SdaUckz7y5RXSy9+MnpfXEPXLD/JBCoVAoFApFCbi7S0p25ShbJv+/WmdKly6Nfdk69PryB0Y+6ZjfyJFnJq9n47rfWTSoJvYFz79nytDD/3d+2fA73/V2NT9YgOK2K4p9hca8OnYoHd2FwtfwcrlavgvfLAzg25+CWfJ+bez1CZw9l16olXW0PFK1IhqNC26e1alevTrVa/jQrMcYBndyxc68uSUMscRWH8uKSa0oa35MoVAoFAqFogTc3WLQHOMVflnxG9ft69H/g26UB4yX9vNL8AGS0mI4HZN1q6nhcgQr/Wcw7csf2R6bC0D6qT9YuXgRi5Zs5EhaCvuXTWWc/3YuGQF9EnuXfMPkTz9mUsBWLugg9+Iugrac4GrqWc7EG0wdF7cdOi5s+4EvJk3hs5lL2J1gkqEITs44ad1wczVfnjni81iD/EWYjmvXdVRuN5axPd1Nh41X2D1vPOPn7eaKsfCZ1snlyIErNH6iBnbXjrFp2WIWLVrMspATXIvbQ+DixSz59TBpRgAjaWficXDLJmr7CVJuqmVI4XhoOBcNOhKiggkKOcoVA5CbzIHg1WwIj0NXcMicBKI2BbJqfRi31rH6KxzdHkmcIZOYXesJ2naK6wXPIYeEqE0ErlpPWIHFb27SATatXktIxCGOnk2j2GorFAqFQqH45zG/VFgs9OdkZuv828Rjd8jJX4bKk91v3h6+Sbb8MaiG2OMoHeYmiEFE9OeXSZ/a3vLG6kuStLi7VK7xpvycaBDJi5Cxj2oFh8by5vBe8pi7g2jK95E1mbGy6s1a4vnaSonfPUrqaR2kzvDtkiNXZcGLLmJnV05eC8wUMRSznejl9A/d5JFST8uM0zly9pu2UqZKZ/E/buXmrP6UTPd1EMxuE4uIGBLDJGBYe6nmoJFStV+T+SdMxw0XZkkbRwSHZ+SbGEOhc0wYJGFuB3Fye14+//U3+e233+TXFRPl5feXSXp+i7R9U+WZ8s7SeuZZ0aetl/e7DJeNCToRMUj8yjelcedpsuv4HpnzspfUHrRZbqQclGXvNhWXcp3ko1ljZfiQd6SNZ1lpPOR7mTvqfXn/3W7SoHwtee83001l/cUgGT/kC/k5dJusGttePOv2k8Cj4fLT/xqKc8XOMnT8AHnnne7SrGIl6bYgVgymkyRo/BD54udQ2bZqrLT3rCv91iRI7vmfxM/vezl48bzs/vZVeX7iwWLe6lYoFAqFQvEgcI9XBo2kHFzLjwt/50yO+TENLqWdC9z21LFr1kRWx9WjbbvKVGr8KFUT1/LD6niwK0uZ0nagP8+lOjMJDw9h+YoJdNj/DRMC46nbqjWPNO/FO52bUMvdCSiNazmnW33rdhevHVlb+Grqb1x2f4zHazhR7fHHcL/6B9NmbiLjlpzFQ1OlKZ1e6Eprn1LknF3DR5+sNP3e6zXGTv6AD6Z8Qi+v4phXMOblkWe4fTO6vO+nLJzenj9nDWX4hD9o/PVXvOjhCBi5kphFvRdewvdRX7p3qE3ykSNccm3Ga+90pLrGkXpvfMG3c39i4fDGnN2dyFNfzGPejyuZ3PkGu7YfJ5ccQqd/TrhTOVJPnSbtER+qXlzB91ur8NY7HfAQLY+9N49Fi1Yx87UyRO44QC6QEzqdz8OdKJd6itNpj+BT9SIr5gZy/tBOtp6IJdXBi6cHT+eTjhWLd6tboVAoFArFA0FxVis20FCppR8zVy9jeOM7PC1sSOTA4XgMhvNs9p/OzN/s6TbqQ7rWLrAjT+vNky09can1LH1eqEtqeBQX9UKeXo84t2RscBSbxz1l9tSugbhitQP9uUgOXTZg51KG0nZg5+iEg52RlKMHOac3a3wnNGWp3XkUyzdOp4OrHZlnT+f/3pPnP/me7z95Hi8bGyXtHB+haafnef75F3j5fxP55PWaONw6ak/td79jYqN9rLzQjJcb3NyHqaXpqJXMqLeTL6dMZ/nBaxgNBvSAxsEBB/syuJbVAPaUL18WTWlXymtN55Up40Rejg4xnCficA6PduuHn58ffgO/Z++NTEKHe2OndUDrVIkq7vaAPa5u5cjT5WLEwPmIw+Q82o1+fn74+Q3k+703yAwdTr1n32OAyzK61m9Il1FhODWsdp/3hyoUCoVCofgrucfFYD6OzejRoxnOgDHuZ5Zuvr1H8BZ2GjT2doAdNbuM4pNxk/l8+jRGda1RoJETzqVunYBWq8UOA2eOHqHIhcdbFLcd2JVywZl8WQD0etP+NmcXShX7cpaBtNiLpOUvHu1rvcrLj2txrOZt3rAEONP62dY4XDnL2RTTjjt9TBgxDfrQ8uBkhi2Pzd+Hl0X41E68EVyHQRPG8UFbz7twoBNO9nHs2XkejaMjjo6OOGpTiY21/QCMk5M9cXt2cl6Tf46jltTYWK7TiKG/n2D/gj44bx7Jcz3ncOrmPkaFQqFQKBQPPCVfSwAg3Hw7odFoALQ0atGU0oZY1kxcydmKN69kFUDzCK18a+NgOEfQ/E2mh0PSwtmy5wog3Hxk9/ZbDzVU69Cex5yEKxv/j0V/6gE9scdPkmq83VCkuO3A3rsznZs4IzdSSRUwXrvGDaMjj3bsSC2Ll7MM6PUARgz5iz9j0kLealSHRl0m8UecHuPlCA7EetBrYA9Tg+vbGPukBx4tP2G7lfWVwSggZk8pGy+xae5qzjlrIOsA3829xKtfzOXHGU8RMWYwC84bQH+WkA0HsfOsjispHI9OxKDXcT0+ztTfbTOa/lNgjPwfwb4GnTs34OTM1+nvv4XD0YfY+NU0guIdQIo++mF6DaU9NTp3psHJmbze358th6M5tPErpgXFYwidi3+4I416TmFt4Eh84s4QX9KrrAqFQqFQKP4xSr4YzE3kUPAqQs8aAD3nf53J5GnT+GzcYHq0fJK+gUa8818wrbEreLnNkRYffsOIJ1yJX/YWLXw70/PTI1Rs4k569E6i4o1giGVfcBTJ+WsSbdNRzJ38LFUz/mBU2xZ07j2EwOQKuMSFsv1kJiLZRG/fRlyD4rWLMTThw4Av6OIQxvy5K/m/5fso/fw05o1ujvlNbuOVk+wIWsYfZw1gvMK+tSsIjU5FU7YOjWo5kbTtMzr7VKRyi8/Rj1zDnO6mp4mNmRc5eeYSl/48SUyG+eJKx4WwpXy34QR5qTsJGDOO8ePHM37cx7z3fBtGJTahtRxhfr+3WJbXmBou9pR/rCUNdCF83Gc4y09U4aW32pI48zmefm0Gf9Z8nGoXN/B/IYcJWbuLuPQj/LZiHxfObWfJ76fQxezk5z9OERMVyC9RKSSHryP4RCaNP17J4nc9iPjsVVq1fYcVLm/w/mPn2RS0j4TUQwSvjuTPE5vZsDeejCObWBmZjLbxx6xc/C4eEZ/xaqu2vLPChTfeb42z4QIrhr/FyOn+zF2bRpfpo2hnfn9eoVAoFArFA0vJv0BSbPREfdqMp6f/SbuAWDYPqmJaeRrTuXjsJJcda/BYg6qm27Z3ICvxOMfiwatRIzxczI/eprjt0F3m1JFzpLvWpkk9dyxcx7RNbgpnj57iMpWo/Vg9KpstfjJjj3HerhaPeZUufEChUCgUCoXiAeOuFoN2ha74KQpyF+ZUKBQKhUKh+Mco+W1ihUKhUCgUCsV/hru6MlgsDFlk6Jwo42LxyQyFQqFQKBQKxQPAX7cYVCgUCoVCoVA88KjbxAqFQqFQKBQPMWoxqFAoFAqFQvEQoxaDCoVCoVAoFA8xajGoUCgUCoVC8RCjFoMKhUKhUCgUDzFqMahQKBQKhULxEKMWgwqFQqFQKBQPMWoxqFAoFAqFQvEQoxaDCoVCoVAoFA8xajGoUCgUCoVC8RCjFoMKhUKhUCgUDzFqMahQKBQKhULxEKMWgwqFQqFQKBQPMWoxqFAoFAqFQvEQoxaDCoVCoVAoFA8xajGoUCgUCoVC8RCjFoMKhUKhUCgUDzElXwzqYghb+QP+385m9rf+/LBiK9HXzRs9iOTw56/fMX1if57v0IcvtiaZN3gA0XMpagWT3urCR8E55gdvkxXDtnmj6fXSRHbozA/ePbpDS5k06Sf2phnNDxVfNu6vfPpLUayY9BZdPgrmDqMWIJM/Q5czb863zJ49m9nffssc/+/5acUmouKyzBv/I9wvvfy//4FFqzay61QKevPm/wB3p1dhcvd9zgvPTWKHuav0l4haMYm3unzEnUJQYcKYepSgrwbR7Y05nPiHAuR+xITib+ZeanjuPj5/4TkmFUlgazyoc3Uu+z5/gecm7aCwJjoOLZ3EpJ/2YnGqLBElmFfvMyVfDDrVpE2PpiQuGMP4YDs69+5IA1fzRg8eun1T8FvjzgdTA5jRXcemoAjzJg8gOgxOWUSH7iXmho0o07jiZX+O7VHxpIv5wbslh7D537K3bHOaVrAUJsWUjfsrn87gRFZ0KHtjbnCHUQtQmrodXqX+uQDGzDrEI6+8zf9ef55H2c6opxrQddZ+Ms1P+Zu5Z72+CoMmT9PGtxGVsyP59tUG+Dw7lo2xBvOTLKAnOfFyCcYtPnenV2G0Ndvw2uvtqeNkdkBnwCkrmtC9MdwpBBUmNI5V8TGeJPT4FbLND/5NlCgm9MkkXr5jq/82D4IN7qWGa2vS5rXXaV8kgS3z4M7VWmq2eY3X29ehkCY5Ycz/di9lmzfF4lRZIkowr95n7k50By+qVbanXPWaVNWaH3wQyeXwL5tIdq2MM840HrqOvf/3inmjB5DSeDRsQf0qd3CTsxs1fDxwvUOzEqH/k+RHp7H8w2a4mB+D4svG/ZWvtEdDWtSvcheB60T16pWxdyxP1UfcKF+5Fk+9OYMlH9Zg2+RJrEr+exPPnHvWy8WLZq1a0LT503Tt/xlrdq3glcv+vPn6DI7kmp9TGMOFxUzwP8Admt0Vd6/XbTRV2/BO/3Z42psdKO1Bwxb1KU4IKvIpU5m6NavgZGd+4O+j+DFh4MLiCfgf+Csi89/CA2KDe6nhmqq0eac/7YoksCUe5LlaQ9U279C/nScFNdH/mcyj05bzYTPLM2XJKMG8ep+5txHtbFcUQ+pJQoN+Zs2WwyQXvLScm8SBTatZGxLBoaNnrVxazSX5wC6OXNGRfCCYoOAIYm9dmzWQcmwHkXEZxOz6hdA/M/J/ncrJ0CB+XrOFw7cGvMbRjcsIikwk4+w2li1Zz/4U04A5CVFsClzF+rBzpN/s2ppsFvsGDCkc2xFJXEYMu34J5aYoFvsml6QDm1i9NoSIQ0c5a1lxAAwpJ9gWtIaNUcnozcxssW87O2x6w5DC8dBwLhp0JEQFExRylCsGIDeZA8Gr2RAeR0EXGW5o8ax6jbA/zHxnUTYDcXtXs3TxEoIiLmE0pnB443IWLw5kT0L+lSkL8lmND0sYUjixLYg1G6NILmoQojYFsmp9GOduG9sC5hLYUcrFGTtdOtez8v/cNaZxasc6Vq0MYtuJFG5dV7MWF+SQELWJwFXrCSsweG7SATatXktIxCGOnk2zfgXkL9ELNBU7MWlcN5yi5jI7xBSUxrRT7Fi3ipVB2ziRYtIsM/pnhvT4iKDIUJYv3cKpHAADqSdDCfp5DVsOJxeKi79Wr1ySD29mTeB6dp6+frtv/WWObI/kZiiBgZQT2whas5GoZL2Z9pb9ob9ylO2RcRgyY9i1Pohtp2zvbclNPszmNYGs33ma67dqQAly3VocWekj/+Ad88imHtbGNOdmLubEEb5xHZsL+dhI2qkdrFu1kqBtJ8gPE7Dhe4v6W8JGTBSNzUyifx5Cj4+CiAxdztItp/JvKd+H2CSd83t+JXDNZo4mJXDo8EVy4/ayeulilgRFcMloJOXwRpYvXkzgnoTbdrQat+ZYiWOrsuu5cnQ7kXEGMmN2sT5oGya3WrOBpRi31sdNdCTu/43VgRsI+7OgTJZsbwXzGl7ceEPP5SPbibyZwPorHN0eSZwhk5hd6wnadgqTqNbnamtzhSHlGDsi48iI2cUvoX+SUcJ5zrruln2ov3yE7ZEFYgIDN7SeVL0Wxh/F8ql1is6rtyl2jt0D97YYtIqRlK0T6D0qhDzv2jiFf0ybpwazIcEIhhgWfDCBCA9fmpcL5/Oxy7hgnrXGRHbP7oNvqwFMnzGU98fPZnL/Z2jSYRK7r19h/6J3aduyF+OnT2XM6MH0+WQDKSlbmdB7FCF53tR2CufjNk8xeEMCRkpRtUETark54Ohem6bNGuJZSohdN4HRS87j4m5H5OS2PNF/LYl5lmUzWulbf2U/i95tS8te45k+dQyjB/fhkw1XLfdtNBCz4AMmRHjg27wc4Z+PZVkRxU2kh39JL7+lpHrVwnHPfAKjb27uMVjp26wDM4yph1g+qCMtu0/kO//JzFwahP+7rek4IoDvPp3M/F+X8+nz7RgWkm7bd1Zls8fLtx3G9SMZu/I0ek1FmrYpxdZPP2Th4Txzce44RhHSw/mylx9LU72o5biH+YHRt/bDGWLXMWH0Es67uGMXOZm2T/RnrS2D6LO4fi2djOuX+XNHACNmR1H9rWG87m0PxgRWvd2OEfsq09g7gbnP+zJ0S6b1mDXEsm7CaJacd8HdLpLJbZ+g/9pE8mIW8MGECDx8m1Mu/HPGLrtgeWK6n3pZoHybZ2isucr+8JPkJKzi7XYj2Fe5Md4Jc3nedyhbMgHXRvg2dMXJzYcmzergrklh64TejArJw7u2E+Eft+GpwRswpe5fqJcxiY1j+jHtQBka1Ixn1rNNeWtFHPorUSwY0A7fPvM4mAeQTviXvfBbmopXLUf2zA/kdnpY8kc8l6IWMKBdS3pNnMnkEVNZuOwLej/Tl4VxlqQ3krRxDP2mHaBMg5rEz3qWpm+t4OKlEuS63nIcGS3Wi7QCY9vKIx1XbOlhLXatIFmH+WHgYCbPGs+bLZvQZVo4GRhJWPU27Ubso3JjbxLmPo/v0C1kYs33JahHNmLCaCU2XRv50tDVCTefJjSr447WeH9i8+u3/PjhTxc8y19kVqd6dJgegd7Ll3bG9Ywcu5LTeg0Vm7ah1NZP+XDhYfJsxa05VuLYaE12/RWiFgygXcteTJw5mRFTF7Lsi94803chcUYLNrAU46uPEWGjD7jGjvEvMPD3SrRvW56Q/9XB64kX6f/1Dq5bsf0dKW68GfP18+3DvIN5GPPzuWWvicycPIKpC5fxRe9n6LswzspcjZW5Qs+V/Yt4t21Leo2fztQxo/mg9yBG9y/uPGc97iz78GJ+HfGlz7yD5AHcpU8tYXle5a7n/LtC7gZDgszt4CxV+wdLtvkxEZHsHTK8fmMZE64z/aw/L7PblZFqfpskPXu99K3hK2O2Jkqe5MnpsDC5qDfvQEQyV0lP12ry5upkMYhIzuHPpKVLOem28JIYdDtkqI+rdPrughjEIHpDtuwYXl8ajwkX04h6OT+7nZSp5ieb0kVEsmWTn6fUHrpdckREsn+Xgc06yqi5ARIQECBzBjQXJ8c2MutUkAXZbPet2zFUfFw7yXcXDCIGvRis9R2TKev71hDfMVslMU8k73SYhFlSXBclE5o3kGE7cvJ/3iOj6pWTV1dkWpc7xiA5oUPEx6Of/GrRISK6PR9J/fJdZX6yQUT0cvarp8Wl6TjZnyMiki6BvStJg9F7RWfLd7Zkk2wJ7u8pdYbtNNlJt1OG1fGU/sEmgQrJZ2sM028KoJOoCc2lwbAdJt+JTvaMqiflXl0hmZItvw9sJh1HzZWAgAAJmDNAmjs5SptZMeadiIhezs1sLU7ln5S3P50o48cMlb6dG0oVz9bywU+RkmoQkbxD8nX3XjLneJ6IIVbmtC8jrWacEb2VmM3+faA06zhK5gYESEDAHBnQ3Ekc28ySU0F9pYbvGNlqcrSEhV2Uop6+v3o51xoq2/Pdcov0xfKSs1Z8hu2QzENfS/dec8Sk2hxpX6aVzDijF5Ec2T60tnj6bRKTa4ZL/cZj5LZrZku7MtXEb1O6ZK//6/TK+O1dqdftJ7lkEBFJl33fDZMJa2NELyI52wZLrfzY0UVNkOYNhsntEBwl9cq9Kqb0sOyPGEOObB9SS9y6/iixehHJ2SqDvKtI3/UWkiXjN3m3Xjf5ySSIpO/7ToZNWCsx+hLk+pkDluNILPRhPr7NPLKhh7XYNe9eRDIDX5MKtQfL1nQRkRw58U17Ke/aTRZc0smhr7tLrznHJU8MEjunvZRpNUPO6MWy763pH2Oula2YEMmzFps522VobU/x22Ty0/2Izb0fN5GnPz+Zf0wn4WMaSoXXAiVTRLKD+4tnnWGy02R42Tmsjnj2D5ZsG3FrjrU4zrAhu+RslyG13KTrj7GmeN86SLyr9JX12VLUBtZiPMtGH1cXSrfyzWXKsTwRMUiCf3sp3XyyHM2zYXsLFKrhJYg3ydkmg2t5SL/8ySln+xCp5dZVfjQFsWwd5C1V+q7PX0uYz9W25gqd7BjqI66dvhNTOhmKP8/ZiDtrPtRLjmwbXEs8+v16x1pp06fm2JpXi51j985fcmVQf/wPQmNdca+cf2fd3ovWT9fkauReTmvb894AF5Z1rU/DLqMIc2pINYtbCTRoNOXwrF4BDeDUqBevNM4j5sxFjNijtXfBw6sKGjTYG4/zR2gsru6V8+/l2+PV+mlqXo1k7+mij8wZzkdwOOdRuvXzw8/Pj4Hf7+VGZijD6z1bVDa5Q9/2WuxdPPCqogGNPWKtb28X2r83AJdlXanfsAujwpxoaEFx/elN/HaqKj61HEy/0JSmtIvpmrFVub3v7EaNgwMO9mVwLasB7Clfviya0q6U1wJoKVPGibwcHXk2fHfihHXZSoLN+DB3l/40m347RVWfWphG1VC6tIvpdoXhPBGHc3i0Wz/8/PzwG/g9e29kEjrc26yT29i5taTfxCl89qU/SzcfIuyT0qwa2I2BgZcxapsyauUM6u38kinTl3PwmhGDQQ/OlmLWwPmIw+Q82o1+fn74+Q3k+703yAwdTr1n32OAyzK61m9Il1FhODWsVmiPCdx/vSxhiI0nyaChWk1vnJuOYuWMeuz8cgrTlx/kmtGAwdzW6Dn+Ryixru7cdk1rnq55lci9p9G2/6v0qsafe6O4UaES5TQAZfAdPIepPbyxB+wcHDBtTdZzetNvnKrqw+0QLI0pBK37w1tjh9ZBi1OlKrjbA/auuJXLQ5db9M9r/Z97ibpRgUomQSjjO5g5U3vgbU/xc73245bjiKJ93DlzC2JDD2uxawU7l/K4OgM4Ub9PD5rnxXD2ooamo1Yyo95OvpwyneUHr2E0GNADzhZ8jzX9zeuRrZgAtH9bbJ5iy7ZEqtermX9Mg71Wa2GThRlW49Y8H/VW4rga0TZk19tpcdA6UamKOya3ulEuT0fR8LQR4/Y2+nAsSxnHqyQm6QENDo6OaEuXxcWuuLa3QEnizc4BhwLPFthpHdA6VaKKKYhxdStHni7X4pXcO80V9lp7XDy8MKWTptjznFiNO2s+9MYeOxxuKWI7Hovv079uzi8p97lHI4kH9mNXygknQzwXLt4MDjtcSjmjrehOJaDR0N85sX8BfZw3M/K5nsw5ZX23wS3sylK6lJaK7pWLCm1XCicnA/EXLt669WDnUgpnbUXcKxVpDU5O2MftYed5DY6Ojjg6OqJNjSX2ugXZTjven77TjdBoKL+f2M+CPs5sHvkcPeecMj8bdHnkGi6TlGQhsaz2bd7w7rHpuzwbsnFz61rhR83EwpNnNscoYlIdebkGLiclWXhVihNO9nHs2XkeTb49HLWpxBbbII7U7vESzTUpHAg/hT4rnKmd3iC4ziAmjPuAtp75whgtxMUpA05O9sTt2cl5Tf7YjlpSY2O5TiOG/n6C/Qv64Lx5JM/1nEPREP8r9QLQcyLoF46VeoYeL1UjJ3wqnd4Ips6gCYz7oC03VSuMHaWcnDDEX+C2a1wo5aylonsl+Mv0ysDZ2ZFrByM4dmuffA7Hoo4WefWILi8Xw+UkLIWgNX+UxGp2zs44XjtIxG1ByDkWxVFzQbCRj5esxFFxKWYeFcJa7BYHjQaNQxU8PXIIn9qJN4LrMGjCOD5o63mr1hot+V5rRf8iBrcVE5D1N8Zmri6L5MQrFhceN/feFjK1iI24NVfUzkocH0NjQ3aL6lrhrmK87EtM/roVB74Yjf8Cf74M8+Czr9/Fx764trfAvcRbCSjZXFEyLOtuzYfmtch2PJZItH94zr9JiWS+jQGDUTDoCwuvj13Pd1tSsK/fg94t09i4dAum/Z83OH4ymy79e+KVG8pc/3AcG/VkytpARvrEcSbeghEA5Aapqflpez2cqKTW9H65Wr7QcrtA2tenR++WpG1cypb8Dac3jp8ku0t/enqZWhuMgl5vqg72NTrTucFJZr7eH/8th4k+tJGvpgURb7AgW1LtO/aNyK0CYrVvhxxC5/oT7tiInlPWEjjSh7gz8fln3UbbqCMdvM6wfMZyTucA2VdJycgjIz3TRt/5MhSQowhistet41JY7vwfbfquZmPrsoGGChXKcvXsaa4Y9CTuDuXY9SwyMvL3DBaQz9YYN016C20jOnbw4szyGSw3DcrVlAzyMtLJtK9B584NODnzdfr7b+Fw9CE2fjWNoPj8v7DM0JvFKxhI2BrKCalKmw6PoTkbwoaDdnhWd4WU40QnGtDrrhN/9peicREv1OjcmQYnZ/J6f3+2HI7m0MavmBYUjyF0Lv7hjjTqOYW1gSPxiTtDkRC/n3oZzGc9A8lbPmHArHjaffEt79cSzoZs4KCdJybVokk06NFdjycuVdBqNegyMshLi8O5Yy9apm1k6ZYU04R54zgns7vQv6cXuX+ZXs7U6dKFBucCGPzRSiKij7P9x7EsjS5nupIkgilytDTq2AGvM8uZsfw0phBMISMvg/RMe6v+cACkyOxfoH4UwL5OF7o0OEfA4I9YGRHN8e0/MnZpNOVumr4YuX4h1kocxaUW6aMotvPImh56a7F7c0wzxKDHYMS0RzJkKymvDKKn+3lCNhzEzrM6rqRwPDoRg17H9fg4ciz4PsnTsv5FwtRWTKC3HptpGrQaHRkZeaRdiKNK9973GJsNeMbXjb3+HzE/8hLpl6LYfSS/L0BToQJlr57l9BUD+sTdhB67TlZGBnlW49ZcUXsrcVyBRj2sy65Bii5Ob8aInbaQDcp1shbjNvowXuHwbhf8lnzL4HcG882KhQxtURZs2f7mvGveX36fJYs387mnaN9SIBkLzdXFmCsKnlvcec667kk4P9XZgg9NtUhudW5P/bv1qRl3Peffb8zvG9+RnBjZs+JT6VBJI5pKzeTlvu/IO++8I317vyDNHvGUt9ebdn3pL/4iY19oJR3fHiXjxw6REbPD5LJBRDLXSP96zaX7iGkyZ9Y4GfLpajmbZz6IiGQGymvl3eWJPiNl4pSJ8uE7b8u4X2NFb0iVo6uHy5NlHaT2a7Nl+4X8k/UX5ZexL0irjm/LqPFjZciI2RJmGlDO/vGtvF7XQRwa/E++3xAlCQaRnDOrZWTHulLJpZS4N+4tcyJuWJfNSt+G1KOyeviTUtahtrw2e7vcFMVi35Ipa/rXk+bdR8i0ObNk3JBPZbVFxUWu7Q+Qt1tUE4967eWND8dK7+Z1pcOgObIjVm+57xsnJWhIc3FxbCR+iyMl2Xw7Qfop+XX00+LqUF/+9+NeiTkbKt/08BaHR16Qz0Ki5XzkYnm3sbOUfmKorD1+zbrv7iCb7sgcedG7gng27Sojly2Roc0byAujfpLwM8eLyGdrjCJc2y8Bb7eQah71pP0bH8rY3s2lbodBMmdHrEjOGVk9sqPUreQipdwbS+85EXLD/HzJkLPbF8owX1exL1NfuvQbLKPGjJYhfTvLE806yHs/7jedk7Nfvnm+hrhVf1J6jF4oAQPqSKUm/5NFkSssx4XkyJnVI6Vj3UriUspdGveeI6Yw6i/1mneXEdPmyKxxQ+TT1WfFoqfvk17Dnyov9mUbyovvfyhjxoySQX27SccXB8iMTedu7enN2f+NPF/DTao/2UNGLwyQAXUqSZP/LZJj2QZJ2ThEGleuIa0/WC6n8vRy8Zex8kKrjvL2qPEydsgImR12WUyp+1fqlS3RKwdL21oVpKxbXXn+041yUS9iSDsua4e1kNKOjWTAskNy1XBN9ge8LS2qeUi99m/Ih2N7S/O6HWTQnB0Sq7fsj2sn1snwJ0uLU+N3ZUnEaTm+cZy0d3OQun3nS0RS0aDLjl4pg9vWkgpl3aTu85/Kxov6kuW6lThasDvKYh/mWMujrTvWWtfjQqTFMRcdK7pJSX/xN5n6envp0HOwfDp5rHw4ebVEZ4qI5Mj+b56XGm7V5ckeo2VhwACpU6mJ/G/RMau+t6i/JWzEhNXYzEyRjUMaS+UareWD5ackT+49Ng2XQmVqt3riVtpNHu31tfw0/DFxy98zKLojMudFb6ng2VS6jlwmS4Y2lwYvjJKfwpNsxK05luNYrMp+TU6sGy5PlnaSxu8ukYjTx2XjuPbi5lBX+s6PkKQ8cxtYivE79JG9V8Y3KyuOZStKVU8v8fapL807vSfzD2VYt7152JjPMVmWY7xIvBnS5PjaYdKitKM0GrBMDp0/JuuGPymlnRrLu0si5PTxjTKuvZs41O0r8yPOWZyrLc8VBkk9ulqGP1lWHGq/JrO3X5C8Es5z1nW35EODpB1fK8NalBbHRgNk2aGrYrhbnxYtOTbn1WLn2D1iJ4WW1Q8QWavpXW0K3iGHmNHS0fyoQqFQKBT3gJ7945vT+cw44gJfs/I+1f8A1/fg73+eNn1bok27RnpGBqkXt/BTxFOsmvsKzubtFQ8l5jflHiBMt4Ye0KWqQqFQKP7t3NqC8F9Fz6FvhjM/oSJVverSqNmTPPVMO56qVZXHn2qS/0CPQvGgLgb1iUStCyU6I4nI4N85aWn/gkKhUCgUd0nGuZ1sCo8n42Qo6w9dMj/8H0FLnVffp+XJoTT1qkuTFq3o0O0tPj/+NENev/lUtUIBD+ZtYqOO62k3TI9ha7SUcq1AmX/FZ+8UCoVC8W/AkHWNa5l5GAGNczkqli3et3P/rRh16aTrnShb2vEBvQqk+Cd5MBeDCoVCoVAoFIq/BfUHgkKhUCgUCsVDzF0sBrOI2TaP0b1eYuKOgp98fjDJitnGvNG9eGnijkIfqC4R+ktErZjEW10+ItjSy2fvAf2lKFZMeosuHwUXecGuVbJi2DZvNL1emsiD7wIjqUeD+GpQN96Yc8LiS2f/USzYMnff57zw3CR2ZJk3Ljl35d+/mfuSI8Xg7xpHoVAoFCXjLhaDGly97Dm3PYr49Af/DrPG1Qv7c9uJik+/9cyYPjmRyyV5JkVnwCkrmtC9MdwoyXnFQGdwIis6lL0xN4q+pNIaGle87M+xPSqeB98FGhyr+mA8GcrxK9nmB/95LNhSW7MNr73enjr3YQvRXfn3b8ZSjvwV/F3jKBQKhaJk3MVi0Bm3Gj54uN7Fqf8Azm418PFwva2o4QKLJ/hz4PbXpu5MaQ8atqhPlb9A5dIeDWlRv0rJHOHsRg0fD/4lLqBM5brUrOJ052+A/hNYsKWmahve6d8Oz/vwqN1d+fdvpkiO/EX8XeMoFAqFomTcZV22w858ZjekcjI0iJ/XbOFwcsGbQLkkHdjE6rUhRBw6ytk0C9dHDCkc2xFJXEYMu34J5c8M069zEqLYFLiK9WHnbn97MTeJA5tWszYkgkNHz5KWF8fe1UtZvCSIiEtGjCmH2bh8MYsD95CQ/5Uuu5vCZkbz85AefBQUSejypWw5lQMYSTu1g3WrVhK07QQphb7sZSDlxDaC1mwkKllvtpgxkHoylKCf17DlcHKh2165SQfYtHotIRGHOHo2zfIVIUMKJ7YFsWZjFMl6M2PmJBC1KZBV68M4Z+0bhHZ2heUxpnFqxzpWrQxi24kUbqtxZ/vnJh9g15Er6JIPEBwUTETs7fujhpRj7IiMIyNmF7/8sZOtd7A15JAQtYnAVesJKyD8TR/kxIWzcd3mwjFyD7IXki/0T0yhY1kGq+OY21J/mSPbI006GeLY/fNiFi1adPvf4uXsiDFY7w9b/rUWb3fWldxkDuw6whVdMgeCgwiOiKXQnWxrOWglvwpyK0duYq2v4shpVcfb4xji9rJ66WKWBEVwyWgk5fBGli9eTOCehHw7Gkg5Hkr4RQO6hCiCg0I4esUA5JJ8IJjVG8KJuymW/gpHt0cSZ8gkZtd6grad4vrtIUusizHtGH+EnsqPJYVCofjvc5eLwcIYU7YyofcoQvK8qe0UzsdtnmLwhgSMGIhZ8AETIjzwbV6O8M/HsuxC4cnDeGU/i95tS8te45k+dQyjB/fhkw1XiV03gdFLzuPibkfk5LY80X8tiXkxLPhgAhEevjQvF87nY5dxwc4L33ZG1o8cy8rTejQVm9Km1FY+/XAhh/M/i3sbVxr5NsTVyQ2fJs2o464hYdXbtBuxj8qNvUmY+zy+Q7eQCUA64V/2wm9pKl61HNkzP5DomxvejClsndCbUSF5eNd2IvzjNjw1eAMJRjDELOCDCRF4+DanXPjnjF12oehiMD2cL3v5sTTVi1qOe5gfGH1rL50hdh0TRi/hvIs7dpGTaftEf9YmFumhMMYEVr3djhH7KtPYO4G5z/sydEsm3NH+RhJ3z6aPbysGTJ/B0PfHM3tyf55p0oFJu69zZf8i3m3bkl7jpzN1zGgGv+VPYlMbtjbEsm7CaJacd8HdLpLJbZ+g/9rEfP2FrMM/MHDwZGaNf5OWTbowLTzjnmQvIl+fT9hw1YoMVscpjPFKFAsGtMO3zzwO5gF5B/lteyY1Gz/O44/XR0I/Z+iMcHLKJlrvz6p/jVbi7U66gjFxN7P7+NJqwHRmDH2f8bMn0/+ZJnSYtJt0Gzmot5hfaYX6NsdaX8XJZ+s6Fsbey5d2xvWMHLuS03oNFZu2odTWT/lw4WHyjKkcWj6Iji27M/E7fybPXEqQ/7u07jiCgO8+ZfL8X1n+6fO0GxbC9Xx/tew1kZmTRzB14TK+6P0MfRfGYbwrXYxcCvyIV179lF+umQmtUCgU/1XMv09XLHJCZYiPh/T7NVtEsmXH8PrSeEy46ERERC/nZ7eTMtX8ZFN6tqzvW0N8x2yVxDyRvNNhEmb6UGMhdDuGio9rJ/nugkHEoBdD9u8ysFlHGTU3QAICAmTOgObi5NhGZp0Kkr41fGXM1kTJkzw5HRZm+u5jdrD096wjw3aaJNDtHCZ1PPtLcLaISI6EDvERj36/SraI5GwfKrU9/WRTtohInhz6urv0mnNc8sQgsXPaS5lWM+SMXkQXNUGaNxgmO3LyZdwzSuqVe1VWZIpk7xgu9RuPkXDTcKI/P1valakmfpvSJXt9X6nhO0a2mhSWsLCLUlhjnURNaC4Nhu0QU9c62TOqnpR7dYVkSrb8PrCZdBw1VwICAiRgzgBp7uQobWbFFOpBRCQndIj4ePSTX7NFJO+QfN29l8w5nidiiJU57ctIqxlnRC/FsX+mrOrpKtXeXG36pnHOYfmspYuU67ZQLhl0smOoj7h2+k5MrjHYtHX27wOlWcdRMjcgQAIC5siA5k7i2GaWxBgyJfC1ClJ78FZJFxHJOSHftC8vrt0WyCXdvcheVD6rMlgdx8yWIpKzbbDUuvmzPkbOnM8TEYNc/W2Q1K/whEzYm2HD5rb8ay3eiqOrSOaqnuJa7U1ZbXKUHP6spbiU6yYLL2XayEEL+WXecaEcudd8tqaj+Tgi2cH9xbPOMDGFkk52Dqsjnv2DTd9T1u2Rj+qXl67zk8UgIvqzX8nTLk1l3H6TVdMDe0ulBqNlr04kZ/sQqeXWVX6M1YtIjmwd5C1V+q6/e130KXIx9poFOykUCsV/k3u/Mqg/zh+hsbi6V85/m7k9Xq2fpubVSPae1tL+vQG4LOtK/YZdGBXmRMNqFjZi2Wuxd/HAq4oGNPbI+QgO5zxKt35++Pn5MfD7vdzIDGV4vWd5b4ALy7rWp2GXUYQ5NcRSd8VHS9NRK5lRbydfTpnO8oPXMBoM6NFzetNvnKrqQ6387/VoSpfGxQ5Az/E/Qol1dady/tj2Xq15uuZVIveeRtv+PQa4LKNr/YZ0GRWGU8Nqhd/yrj/Npt9OUdWnVv6ngDSULu1iuk1pOE/E4Rwe7dYPPz8//AZ+z94bmYQO9y7YQ1G0TRm1cgb1dn7JlOnLOXjNiMGgB5yLZX+NRkM5z+pU0ABOjej1SmPyYs5w0Qj2WntcPLwwucZWuBg4H3GYnEe70c/PDz+/gXy/9waZocPx1gDY4VLe1fQdTKf69OnRnLyYs1zU3JvsheUT6zI4WhunKHYODtx6x7m9N7VrajHGBTJk4Bo8Jixi/FOlrdvcln+txlvxdEWjQVPOk+omR9Go1ys0zovhzLmjNnJQXyS/bHnx3vPZmo4lROOAg4M9ZVzLogHsy5enrKY0ruVNntGWKYNTXg46ATutA1qnSlRxtwfscXUrR54uF+Pd6mLvRnUvtbdRoVA8PNx7vbMrhZOTgfgLF28VfDuXUjhrK+JeCWg0lN9P7GdBH2c2j3yOnnNOmXVgAScn7OP2sPO8BkdHRxwdHdGmxhJ7HRoN/Z0T+xfQx3kzI5/ryZxTph1GdkDhRxSL88XJLMKnduKN4DoMmjCOD9p63jKILi8Xw+UkkorMYnaUcnLCEH+Bi7cVppSzloomhRn6+wn2L+iD8+aRPNdzDvki5qMjL9fA5aQkCxOkE072cezZeR5Nvt6O2lRiY61tHMwnK5ypnd4guM4gJoz7gLaeN7Uw3oX97ShbuhTaiu5UthId1mzt5GRP3J6dnNfky+6oJTU29vZ+zwJoNBocqnjikXM/Zbchg1UbFQP9Kf7v3RHsav41C4Y1whFbNrflX2vxdne62pUtTSltRdyrlLaRgyXQk/uRz9Z0tIRpiVw4lO6ctcXmnnVRKBSKhwPrddomgoiY6rZ9fXr0bknaxqVsSTHtH7px/CTZXfrT0yuX0Ln+hDs2oueUtQSO9CHuTLx5Zybk9uLNvkZnOjc4yczX++O/5TDRhzby1bQg4g2hzPUPx7FRT6asDWSkTxxn4vWgqUCFslc5e/oKBn0iu0OPcT0rg4z8PYMmWU2922m1aHQZZOSlceHsQUI2HMTOszqupHA8OhGDXsf1+CQadeyA15nlzFh+mhwg+2oKGXkZpGfaU79Hb1qmbWTplhTTfrgbxzmZ3YX+Pb3IDZ2Lf7gjjXpOYW3gSHzizhBfcFWgbUTHDl6cWT6D5adzgGyupmSQl5FOpn0NOnduwMmZr9PffwuHow+x8atpBMVb+Jx4vk4C6M+GsOGgHZ7VXSHlONGJBvS668THJRbT/sKN1NT8vX3XCY9KonXvl6mWHx2FPlJj1db21OjcmQYnZ/J6f3+2HI7m0MavmBYUn3+FTDDoDaYxjEmEbE3hlUE9cT9/r7IXlM+6DHZWbZRayJb5HRb4UyKLqOn9mXC+GwHz+uJtD4aYYNb9Emy5vyQP6/7Vn7USb2eLr+uNVG5+qvt6eBRJrXvzco2GNnLwlhNt/nF0K0fuNZ+t6hhXeBxAU6ECZa+e5fQVA/rE3YQeu05WRgamtM1vd9sp+b8r+GP+D2K+bzE/Ju5Sl9zTQXz17WbiCv0Rp1AoFP9d7CdPnjzZ/Je2SSf61++Zu2w3cY61aNGyCU2f7UjDK4HM8P+D6DORbD1fl4+/fJdGZfScWDqE8SvPkXLpNEcSPHjzw3486nZ7DWpMO8b6//ueFWF/klOhMU8+4U15bRV829clLWwZc7+ezeKwXJ4dN4VeHmdYOmQ8K8+lcOn0ERI83uTDfo1xc6hCVeM+5o7/jKV7rvNY60pEH76Eo2ttajkdYPF3y9gd50itFi1pUs+Js+vm8P3aZOp0e5unS0Wy4MtZBO6/Rs3HK3B0QyiX6nSl5ysv06rSKVZ+Nok5wQdJzM0kOSEDbSlvmj7fm+6PXiFwhj9/RJ8hcut56n78Je82KoP+xFKGjF/JuZRLnD6SgMebH9KvsVuBVbcW76daUenUSj6bNIfgg4nkZiaTkKGllHdTXur9CnXTwlg292tmLw4j99lxTOlVg0KvvEuP5tfv57JsdxyOtVrwVJv62EUs4MtZgey/VpPHKxxlQ+gl6nR9EYfNI2zaH/I4sXYWG6OzuJJwgr3BgURUGsbsj55ETqzn/75fQdifOVRo/CRPeJdHY2/d1k0796BbvTTCls3l69mLCct9lnFTelHDSUPZMnqOrlnA2qg/id69i+udvmBaT2+cy5cjM/xuZDeSdqyofNoqvrSvW1SGmlWsjNOuAbGrA27ZskX1a2z7v+9YFhaLY51WNLv2Ha+9v5FyHTpTNTGC3bu2seb/gsnoPoAWFxYV7a9rL155uY1l/9ZqQyf3aAvx9hx1jk6xoWu+p06sZdbGaLKuJHBibzCBEZUYNvsjfMvb497yWYs52DDveNH8MvsTMD36V76fezNHnuLZV1/iUQt9FSef0ZSnXGa4BR278qxTeIFxWtLscR9k31zGf7aUPdcfo3WlaA5fcsS1tg+ljyxj7uIwYuy9aN60PGd//oEFW46RVfExmnulseWneazZl4SLd1Wuha5k1a54nGo1p572CIE/LmX7Gaje8mk6v/qyRbtY1wUub5pA/y9jaPHeS9RzLGgphUKh+G+ivk380JPF6t7VmOIdwqEZLU23QBUPJFmre1Ntijchh2bQUjlKoVAoFPeJu7xNrPgvIWJ2K1jxYGJylM3bvQqFQqFQlBS1GHyo0ZMYtY7Q6AySIoP5/eTNfYOKBw19YhTrQqPJSIok+PeTt/YNKhQKhUJxr6jbxA81RnTX07iRawQ0aEu5UqHMrZeqKB4gjLrrpN3IxQhotKVwrVDm9utvFAqFQqG4B9RiUKFQKBQKheIhRt0mVigUCoVCoXiIUYtBhUKhUCgUiocYtRhUKBQKhUKheIhRi0GFQqFQKBSKhxi1GFQoFAqFQqF4iFGLQYVCoVAoFIqHGLUYVCgUCoVCoXiIUYtBhUKhUCgUiocYtRhUKBQKhUKheIhRi0GFQqFQKBSKhxi1GFQoFAqFQqF4iFGLQYVCoVAoFIqHGLUYVCgUCoVCoXiIUYtBhUKhUCgUiocYtRhUKBQKhUKheIhRi0GFQqFQKBSKhxi1GFQoFAqFQqF4iFGLQYVCoVAoFIqHGLUYVCgUCoVCoXiIsRMRMf/lfwJdDGFBv3P4chYG7HFxb0ibFzvSwNW84V9FFjHblhIw7zdKDV7D1HZO5g3+4+g5ETiNn1PaMHRgOyrf458d+ktRBAbMYVnm62z4+kWczRsUIoc/f/2JoP0HCdudje8r1YkIdubjDVNo52LetjC5+z7nlUl5RdvqLxEVGMCcZZm8vuFrXrQtwH+P3H18/sok8j7ewBQzI5bMN8XE4nh379c78ZfoAGBMYIv//3G4xtuM7F4XR/PjRchl3+evMCnvYzZMacc9qlUUYypHN65nZ0w6UulJXn+j1e3cNCQQvvY3opIy0ZSvRavOTcjaHsL+y9kY0VLmkUdpUz6WrdHXyDWfNuyr8vRbvXnS7R4THQA9l6ICCZizjMzXN/D1fU22+1SX/vP1wEjq0fX89H+LOVz/S5YOfxSteZMHEvN511B0HrZYW/iL4+7eyYrZxtKAefxWajBrprbjfq8o7jYVHnycatKmR1MSF4xhfLAdnXv/nQtBAA2uXvac2x5FfPp/c71dEH1yIpeNBX6RG8XSWX+gadr87gtuAXQGJ7KiQ9kbc4OCw1hCt28Kfmvc+WBqADO669h8oByvvd6eOsXIHm3NNpbb6gw4ZUUTujeGG3cS4L+ItiZtXnud9kUMUzLf2ESfTOLNILIw3r349U7cNx3MMCZswH9REnWerF2MhSCAlpptXuP19nXue7EHQONG4249aW0fylf9X+HtgJPk3jxm74lvj1Zc/yUUhy4v0uyRGjzduxO6tWMYsyaLtj06UK9zLxqe+56x352i5ss96NGjB690boZT5BpCLt4vy+kwOGURHbqXmPudbPerLv3n64EGx6o+GE+GcvxKtvnBBxjzedf8Z8u1xcRfGHf3AY2rF/bnthMVn85fsaK4l3R48HHwolple8pVr0nVv/3PGmfcavjg4frfNjEAhgssnuDPgVuzChhiY6k+dgWTWpUt2PKuKe3RkBb1qxQjYHM5/Msmkl0r44wzjYeuY9+ScbzTvx2e9uZti6Kp2sZy29IeNGxRnyp3FuC/iaYqbd7pT7sihimJb2xh4MLiCfjfDKIi492bX+/E/dGhKDdO2PPqsu951bO4PWuo2uYd+rfz5D6oZRmNK83eepkn3fIIG/MGn4am3T6mrUa1Wh48Uj5fXvtH8HDX4ljVi2paAGeqVCmPRluaStWqU716dWo2bMfAr8fRtYLd7X7uidJ4NGxB/b8g2e5bXXoI6kGZynWpWcWJ++XVvwfzedf8Z0u15SZ/XdzdD5zdauDj4Xrfa9RN/qp+74qM6F+ZM/FjPp2xkv0p93Flbmc7nA2pJwkN+pk1Ww6TrCtwIDeJA5tWszYkgkNHz5JmVSQjaad2sG7VSoK2nSDFcPP3dreGNsTtZfXSxSwJiuCS0UjK4Y0sX7yYwD0JGAAMKRwPDeeiQUdCVDBBIUe5YgBykzkQvJoN4XHcEk1/haPbI4kzZBKzaz1B205x/eYxAEMqJ0OD+HnNFg4XVoikA5tYvTaEiENHOWtdISCHhKhNBK5aT9i59Fu/zU06wKbVawmJOMTRs2kYM6P5eUgPPgqKJHT5UracygFjGmfiHXDLjmL7iRSTfhRDbksYUjixLYg1G6NI1pv5MSeBqE2BrFofhknEaxzduIygyEQyzm5j2ZL1pjjSX+bI9kgS8gXRXznK9sg4DJkx7FofxLZTBaQwawsGUk5sI2jNRqKS9WaF0UDqyVCCfl7DlsPJt/1jyU4FjhUkN/kAu45cQZd8gOCgYCJiswodtxabhpRj7IiMIyNmF7+E/klGwZMADHHsXb2UxUuCiLhkxJhymI3LF7M4cE++bnquHN1OZJyBzJhdrA/aRkEzFEXP5SPbibxtmBL6BhtjZhL98xB6fBREZOhylm45RU6h8YrnV4Dc5MNsXhPI+p2nuX7T6MY0Tu1Yx6qVQWwrGI/cQQdreWRI4diOSOIyYtj1Syh/mhu/gO1PN3uPfp6nSmR7/eUjbI/MrwsA5JJ8eDNrAtez8/T1ArFkPf7ujB3uPb5i1nNX8X/7PZZduD3aHcplEfTH9nO8QnOe8DafXK1gwx+GlBNsC1rDxqhkzN2RkxDFpsBVrA87x62QKkndtFaXSlQXbdUDyzXTEub1Ie9O84MFbNYxm7XjOKHhFzHoEogKDiLk6BVMJjtA8OoNhMfdbmyXHww5ceFsXLe5UB5YrkHFt0EhrMVEbjIHdh3hii6ZA8FBBEfEUqhCWqwzt+ddyz8XrWW24s6aHYu1PjAmsnf1YhYtWsySVbuINQDpJ9m83OTrZEvnYE2v2/74K3hgFoO6/Z/z3FPdGfHZTKaPfYtnWg8jJNW81f3GSMrWCfQeFUKed22cwj+mzVOD2ZBgBEMMCz6YQISHL83LhfP52GVcsOg4Iwmr3qbdiH1UbuxNwtzn8R26hUyzVvZevrQzrmfk2JWc1muo2LQNpbZ+yocLD6NLPcTyQR1p2X0i3/lPZubSIPzfbU3HEQF89+lk5v+6nE+fb8ewkHSMV6JYMKAdLXtNZObkEUxduIwvej9D34VxGAFjylYm9B5FSJ43tZ3C+bjNUwzekIARAzELPmBChAe+zcsR/vlYlllWCAyxrJswmiXnXXC3i2Ry2yfovzaRvJgFfDAhAg/f5pQL/5yxyy5gxJVGvg1xdXLDp0kz6lS8xKq32zFiX2Uaeycw93lfhm7JvKPcFkkP58tefixN9aKW4x7mB0ajzz9kiF3HhNFLOO/ijl3kZNo+0Z+1iU5UbdCEWm4OOLrXpmmzhjyScYAFA9rh22ceB/OMXIlawIB2Lek1cSaTR0xl4bIv6P1MXxbGGW/JaGoLkE74l73wW5qKVy1H9swPJPqmAMYUtk7ozaiQPLxrOxH+cRueGrwBU+hYspM5RhJ3z6aPbysGTJ/B0PfHM3tyf55p0oFJu9NtxKaeK/sX8W7blvQaP52pY0YzuM8nbChwcQcAey982xlZP3IsK0/r0VRsSptSW/n0w4Uc1l0hasEA2rXsxcSZkxkxdSHLvujNM30XEldUUDDmt/ftwzyTYUrum/hLNsd0beRLQ1cn3Hya0MzHjkOFxit1B78CGEnaOIZ+0w5QpkFN4mc9S9O3VhCnT7AYj3fSwVoe6a/sZ9G7bWnZazzTp45h9OA+fGJu/Lu2/c349KXPvIOY1Epi45h+TDtQhgY145n1bFPeWhGH0Ub8FRttdd5ZuJRh7iEMe3MakeZFywaSFcf+30MICV7FFxN/5FCOeQsrGK37Iz38S3r5LSXVqxaOe+YTeCvZDMSum8DoJedxcbcjcnJbnui/lvirxa+b1sctQV20VQ+s1ExLPVmqD3Y25of8jCuA7Tpmq3akHlrOoI4t6T7xO/wnz2RpkD/vtu7IiIDv+HTyfH5d/inPtxtGyK0FiJB1+AcGDp7MrPFv0rJJF6aF37Bcg64W3waFsOIbY+JuZvfxpdWA6cwY+j7jZ0+m/zNN6DBpN+nW6kziHUazUMusx501O5ZgfaDxoLH3ReYPH0kwjaluD5T1QRu5hhOVG1LVwgrsrvS6H8gDQY5s+8Bb7EG4+c+urLy6/IZ5w5JhSJC5HZylav9gyTY/JiKSvUOG128sY8J1pp/152V2uzJSzW+TpGevl741fGXM1kTJkzw5HRYmF/XmHYiI5Mmhr7tLrznHJU8MEjunvZRpNUPO6EUkJ1SG+HhIv19No2cH9xfPOsNkp05ERCc7h9URz3zZdHs+kvrlu8r8ZIOI6OXsV0+LS9Nxsj9HRCRdAntXkgaj94pORHK2D5Fabl3lx1i9iOTI1kHeUqXvesmWbNkxvL40HhMuJo30cn52OylTzU82pWfL+r41xHfMVknME8k7HSZhlhWS7N8HSrOOo2RuQIAEBMyRAc2dxLHNLDkV1Fdq+I6RraYOJCzsouhFJGf7UKnt6SebskUk75B83b2XzDmeJ2KIlTnty0irGWfy21mT2xI6iZrQXBoM2yE5+T/vGVVPyr26QjIlW34f2Ew6jporAQEBEjBngDR3cpQ2s2JEJFs2+XlK7aHb888Tydk2WGp59BOTG3Jk+5Ba4tb1RzGJsVUGeVeRvutNUhRsq4uaIM0bDJMd+R3p9oySeuVelRWZItk7hkv9xmPkdujMlnZlqonfpnTJXm/ZTkXJlFU9XaXam6sl2SAiOYfls5YuUq7bQrmUaSM2RSc7hvqIa6fv5IJBxKA3mHdsIjtY+nvWkWGmgBPdzmFSx7O/BGeLSM52GVLLTbr+GGvyzdZB4l2lr+SboSg522RwrZuxfJe+sTVmznYZWttT/DblC1BoPLmzXzN+k3frdZOfLplskb7vOxk2Ya3E5FiLR9s6WM8jEd2OoeLj2km+MxlfLFr/rm2fI9sG1xKPfr+KSa13pV63n8SkVrrs+26YTFgbIxk24q9YpC6Q94ZtlhwR0UXPkxerOksdv/WSZLgmi/3ez88VEZFMWfZKKSn96grJFBERvZz47Alx8nxZpq1aLat/XiDjXnpXFl8r2LkNrNUHXZRMaN5Aht1ONhlVr5y8uiJTJPt3Gdiso4yaGyABAQEyZ0BzcXJsI7NiDMWvm9bGleLXRZv1wErNjLEQHNbqg635oSg26piteU10suej+lK+63xTzdGfla+edpGm4/ab8iA9UHpXaiCj9+pEJFMCX6sgtQdvlXQRkZwT8k378uLabYFcMhStQSWxQSGs+kYkc1VPca32pqw2FUg5/FlLcSnXTRZeyrRRZwrPu0V/LlBbbMadDTsWe30gIpIum9+vJY+8tkouG0zrjrF+/nLOYnsb9VNyJHSIz63acL+xsC79J7BD66A1u+Ruj1b7110SBdAf/4PQWFfcK+ff3rD3ovXTNbkauZfT2va8N8CFZV3r07DLKMKcGlLN4l0QLU1HrWRGvZ18OWU6yw9ew2gw3LrCUFw0Dg442JfBtawGsKd8+bJoSrtSXgugpUwZJ/JydAhgp3VA61SJKu72gD2ubuXI0+Vi1B/nj9BYXN0r5+83sser9dPUvBrJ3tNa2r83AJdlXanfsAujwpxoaFEhA+cjDpPzaDf6+fnh5zeQ7/feIDN0OPWefY8BLsvoWr8hXUaF4dSwWtF9TdqmjFo5g3o7v2TK9OUcvGbEYDBZw6rc5n0A6E+z6bdTVPWphQMAGkqXdjHFiOE8EYdzeLRbP/z8/PAb+D17b2QSOtzbvBcA7BwcCjwJZ4o1p0pVMInhilu5PHS5Jilut9VzetNvnKrqQy2TAGhKl8bFznTs+B+hxLq6czt0WvN0zatE7j2Ntn0x7JSPRqOhnGd1KmgAp0b0eqUxeTFnOHfURmzqwV5rj4uHF1U0oLG/izS20+KgdaJSFXdMZnCjXJ6OfDMUxc4Bh5tGvFvflGTMguNZoaBf9X/uJepGBSqVM9mijO9g5kztgbeTlXi0pYPNPNKDvRZ7Fw+8TMYv+e0Vm3aww+G2oflzbxQ3KlTCpFYZfAfPYWqPakTbiL+S1h7H+u+yeOl7OP38Hv/7LtrClaii2JWuxTOv9qJX7/5MHP829fNz5I5YqQ/605v47VRVfG4nG6VNyYbhfASHcx6lWz8//Pz8GPj9Xm5khjLcW1P8umllXHAuZl20VQ+s10xvC8HhXIL6YB3rdczmvKbX4ODggH0ZV0wmK0/5shpKu5Y35ZK2DGWc8sjR3XxEwQ6X8q6mp+ud6tOnR3PyYs5y0Wheg6RENiiEVd8AGg2acp5UNxVIGvV6hcZ5MZw5f9Z6nbkTBWqLrbizacdirw8AytBx+HvU+uNbfjyp59rmdVxr+xoWd1XYqp9/MXdy09+EI63eG0Gnqg6mYmynoXyLYQztWsa84X3CSOKB/diVcsLJEM+FizfLpx0upZzRVnSnEtBo6O+c2L+APs6bGflcT+acsrR7I4vwqZ14I7gOgyaM44O2njaMagqyQk8Cmb+i4V6wK4WTk4H4CxdvTQh2LqVw1lbE3aQQv5/Yz4I+zmwe+Rw955wy68CEk5M9cXt2cl7jiKOjI46OWlJjY7lOI4b+foL9C/rgvHkkz/WcQxGTZIUztdMbBNcZxIRxH9C22BvnzdGRl2vgclKShcnNCSf7OPbsPI/GMV9GbSqxsSXYo1IMdHm5GC4nkVREADtKOTlhiL/A7dBxoZSzloomQ9/ZThaxo2zpUmgrulOltI3YLIFJ7SgScPfhSbR/3jfm2Dk743jtIBHHbj/FlHMsiqOp1uLRhg4286j4xr9329vh7OzItYMR3FYrh2NRx9DYiL/iS3gTDRU7zSTwy+Yc/vR/zD5WxCI2cWzRmpbFfQeOtfqgyyPXcJmkoskGTk7Yx+1h53lNfj1yRJsaS4lCytq4GItdF63XA+s105KIRqv14f7MDzbntZIHRyE0Gg0OVTzxsNBPSWxQCKu+KYpd2dKU0lbEvXKp+1NnbMSdTTsWe31gwr7BAIY/H8/8WctYvlnDC69Ye1jtn6mfPDiLQdA2HMyvB3aycu7XfLvoDw5sn0Lre14LGjAYBYO+sKP1sev5bksK9vV70LtlGhuXbsH0vMoNjp/Mpkv/nnjlhjLXPxzHRj2ZsjaQkT5xnIkvGjDozxKy4SB2ntVxJYXj0YkY9Dqux8eZir/IrXzWVKhA2atnOX3FgD5xN6HHrpOVkWH6Szy/3a3Ul/zfFf4x/4eil1JEBOzr06N3S9I2LmVL/gM4N46fJLtLf3p65RI6159wx0b0nLKWwJE+xJ2JN+8GsKdG5840ODmT1/v7s+VwNIc2fsW0oHgMoXPxD3ekUc8prA0ciU/cGeL1YKfVotFlkJGXxtmd69hw0A7P6q6QcpzoRAN63XXi41Kty20JbSM6dvDizPIZLD+dA2RzNSWDvIx0Mu1r0LlzA07OfJ3+/ls4HH2IjV9NIyje9NedwSjo9QUSU6TQNFxUjNs+ut1WS6OOHfA6s5wZy0+TA2RfTSEjL4P0THvq9+hNy7SNLN2SYrqyeeM4J7O70L+nF7lW7GQZ4UZqav7V0euERyXRuvfL1GhoIzbzs9aq7W6iqUCFslc5e/oKBn0iu0OPcT0rgwxTwBW9Ilsg3opSID7v2jc2xrTTotXoyMjII+3CBdKMZvlwB7/a1+lClwbnCBj8ESsjojm+/UfGLo3G5WKI5XhM8rChg608umV8G7a6N9vLLcXtqdOlCw3OBTD4o5VERB9n+49jWRpdgUY24k+TfojlX3xFUHThh5EKoTeQV9CWONLwgyUs+p89MbEFpTNgMAhGMebLJxgMRsRgKKoDwB3G1p+17I9k1yfp4HWG5TOWY3LHVVIy8shIz8S+Rmc6NzjJzNf747/lMNGHNvLVtCBMIVW8umlt3Pi4xGLWRdv1wFrNtHTBNMdKfbA5P1jAWh2zOa9pTPFVqB7ejLnbPxU6atDn+9qYRMjWFF4Z1JNHitQgGza4y5iIjzM9NCA3UknN1/V6eBRJrXvzco2aNutMwXnX8s8mTbWNOlqPO1t2LO764BYVeXnkO5RfO5IFrj14ztrD7DbrZ77v7lT37xL7yZMnTzb/5T+FpqwXjZ5shW/TmlSwlEUlQXeBvWt+ZN7SMKLPnOLY8XC2/PoL636ezxcTFlPqna/o3tCTls825ErgDPz/iOZM5FbO1/2YL99tRBn9CZYOGc/KcylcOn2EBI83+bBfY4q8U1VTnnKZ4Sz4chaB+69R8/EKHN0QyqU67agXu5q5y3YT51iLFi0bU93nEYz75jL+s6Xsuf4YrStFc/iSI64eLiT9upDFYTHYezWnafmz/PzDArYcy6LiY83xStvCT/PWsC/JhUcbu3F2zXyW7IrHqVZz6mmPEPjjUrafgeotn6bzqy/T8EogM/z/IPpMJFvP1+XjL9+lURk9J5YOYfzKc6RcOs2RBA/e/LAfjxZRCDRVfGlfN42wZXP5evZiwnKfZdyUXnicWcqQ8Ss5l3KJ00cS8HjzQ/o1dsO+TB5n1s3h+7XJ1OvTB58zi/hyViD7r9Xk8QpH2RB6iTpt6hO7Zp4VuZ/icU/zlb8W76daUenUSj6bNIfgg4nkZiaTkKGllHdTXur9CnXTwlg292tmLw4j99lxTOnlTvzWH5kzbwMRsUKVatV4pHIaof/3HcvCYnGs04rHNJEs+n4Ju+KdqNW8Htojgfy4dDtnqE6Lhg7sX/r9rbZtX+xOR/dTrPxsEnOCD5KYm0lyQgbaUt40fb433R+9QuAMf/6IPkPk1vPU/fhL3m1UBv0Jy3Yqauk8TqydxcboLK4knGBvcCARlYYx+yNfytu7W4nNhuQdX8//fb+CsD9zqND4SZ7wLm+hb8C+ClWN+5g7/jOW7rnOY60rEX34Eo6uVXGK3cCipbuId6pF83pajgT+yFKTM3iqqSdlCu7QMF7jxC8BfLcsjFjHOrR6uim+zz5dQt+U59yvAXy3xMqYzerhdHYdc75fS7LPM9S+EEjArfFqkbl3vk2/Pt34cTq0q0Xylh+Y8VUAwfF1GPTZcHxrupIZvqBoPHbtxSsvt7Gqw4u9u1vMo4Z5x1n/f9+zIuxPcio05sknvLn5FpZC3JXtW9DQYT9Lv19GWKwjdVo9TePHO9CuVjJbfpjBVwHBxNcZxGfDn8StSkuebWg5/gzH5jFg8GzW/FmJPr2foKzZbhtDXARrfvw/fth0nlI16+DjU8V0u9OuNHWefYYyx89S8aVO1LVLJGLN/zFvSSink3Q4VnkEz6thzPthFeFnUjG6eeFTpw5VSt0eQH+HsTXly1n2x8vDGfRKVU6t/IxJc4I5mJhLZnICGdpSeDftSu9X6pEWtoy5X89mcVguz46bQq+KF9j0f3OLVTcfe7ErNc4tKzpu1xdx2DyiWHVR6/0UrSpZqQdde/NKvaI1s4b5q+yAPCv1waFKVcvzQ+3GPF6tcH28fvJXAr6zXMdaPt2JV19+1ELtaAR/buL/5i4mLMYer+ZNKX/2Z35YsIVjWRV5rLkXaVt+Yt6afSS5PMrTrRrhU1HP0TULWBv1J9G7d3G90xdM61mdzGNFa5DWyrzhefouY6Jrdx69soFZG6PJupLAib3BBEZUYtjsj/Atr6WKb3sLdcaN879+X2DercmNbQG3f25RnWvb/u92LWv7It07uluJu+fp3d2yHYu9PiiAfdV6EL6PGiM/pYPV19dorOhVg9zoX/l+7jJ2xzlSq0VLGnuWua+v/fnvfoFEoXjgyWJ172pM8Q7h0IyWxXwpsUJRDHR7mTr5AoOnv0FF82N/Nf/k2IoHk7uMiazVvak2xZuQQzNo+W8vkLo9TPrwKP3nDqKGtbXgP8gDKJJC8fAgUozbvQpFCTBeO84vP4TT4O0eJZp47wf/5NiKB5N7iglTgbS9JeMBJ+vcDjZsCWfH94vI6NT7gVwIohaDCsU/hZ7EqHWERmeQFBnM7ydv7htUKO4NjYMXHT74kF4NLNyj/Iv5J8dWPJjcbUzoE6NYFxpNRlIkwb+fvLVv8N+FnuhlH/FGt1cYl9Sdj15yM2/wwKBuEysU/whGdNfTuJFrBDRoS7lSocwd3qWiUCgUDwlG3XXSbphePabRlsK1QpkCrwj7N2FApzM9bf0goxaDCoVCoVAoFA8x6jaxQqFQKBQKxUOMWgw+CGTFsG3eaHq9NJEdJfva/D9ELvs+f4HnJu0o/NHwB51/ws66GMJW/oD/t7OZ/a0/P6zYSnTh78krio31uNNfimLFpLfo8lEwxf1M7p2xNF4Of/76HdMn9uf5Dn2Y4j+GF56bxA5zgRSF+Sdy72/DSMKWbxk/Yz1/3n7n+X0jK2Yb80b34qWJO/jPmc4a+ktErZjEW10+Ivj+JbTCBmox+CCgccXL/hzbo+JJ/1fctNdSs81rvN6+Dra3BOtJTrz84DwY8U/Y2akmbXo0JXHBGMYH29G5d0cauJo3UhQP63GnMziRFR3K3pgb9xZv+mQSL9/soeh4un1T8FvjzgdTA5jRXcfmA+V47fX21DEXSFGYEuaePjmRW2540DEmsMF/EUl1nqT2X/D6E42rF/bnthMVn/6vfqq2ROgMOGVFE7o3hht/cRz807H2T49/E7UYfBBwdqOGjweu/xpvaKja5h36t/O0+U1Nw4XFTPA/wF/wx/Ld8U/Z2cGLapXtKVe9JlX/nTugHxCsx11pj4a0qG/tE0/FxcCFxRPwP3AzYs3Hy+XwL5tIdq2MM840HrqOfUvG8U7/dniaC6QoTElyz3CBxRP8ueWGB50bJ7B/dRnfv2rrU6R3j7NbDXw8XP+Svh9YSnvQsEV9rL6b+X7xT8faPz1+AR6oL5D8JegS2f97CLtOpOD4iBcVnfPf2W1I4VjYcXIr5XI0ZD8X4g8QFrafs7pHqO+h40jwOjbviybTvQHVy2nITT7A3nMOVOUUm7ccJK1MNaq53v5MiiH1JDt+28b+OD0Vvapi9cFQYxqndobwx96TXNZUoUZlFzSA4UIIAevy6DL8ZepZOzf9PHu2/E5EjBG3UomcS6tI3skgftlmXW6AnIQotoSEcSLVhWo13IpcVQHrcpGbxIHNIew9l4EuOwdndzdK2YH+8hF2njBQ3bMcGnJJOrCZkL3nyNBlk+PsjtOFQEa8Pow1KW5UsRNc6tWmktayLPorR9l5Ipfq5VPZsymUs3ae1KrkbC6hCWtyWiA3+TB/hOzk2FUHPKpXwtnOgp2t9ldUJ7dSdkAOCVFbCAk7QapLNWq4WbRmYSSdyGX+7KrQmxEv17XyRJyB1JM7+G3bfuL0FfGqevvJudykA2wO2cu5DB3ZOc64u5Wy+OZ5XeJ+fg/ZxYkURx7xqsjtUD9G2PFcKuUeJWT/BeIPhBG2/yy6R+rjoTtC8LrN7IvOxL1Bdcppckk+sJdzDlXh1Ga2HEyjTLVq3A71e5TTSjwV166F486Uxye2h7DzRDp5sb+xNqUVo3o/ZvoMWE4CUVtCCDuRiku1Gpi61HPl6E5O5FanfOoeNoWexc6zFpWcM4n+eQSvD1tDilsV7MSFerUrwa3xjBzf+DOBQevZf70iFQ3XMXrVw8PxCkd2nsBQ3ZP8dLMYd1bjTH+FoztPkFu9PKl7NhF61g7PWpWwEv2W+wYwpHJyx29s2x+HvqIXVW8WoGL1byBu71qbdcRmjlrTzYwiuWepNmVG8/OI1xm2JgW3KnaISz1q2kXfjt9DOqrVrIg27RQ7Q/5g78nLaKrUoLKLxRFJOb6Do9nVcc88wOY/jpLjXosqpfUkHwjht8hUytWshmu+LMYifULi3jUEbY3k8NFTpLs1pIZrJic3r2HTnlPExh0jYt8Bzto9w1tdy3PCvPZai/XcZA7/EcLOY1dx8KhOJYd49q79hW1Wc9LAhZAA1uV1YfjL9TCVLXNZLelvIv38Hrb8HkGM0Y1SiedIq5jHySBb41HMfLRSKzRxd9AHG/0bSDmxnZCdJ0jPi+W3tSm0GtWbx0wJbeWcohSJKyzUHpdL/DKycKzVrqQh7dROQv7Yy8nLGqrUqIzJtAZSjoVxPLcSuUdDOKSrRs2KRS8DWxzXWg4WM9YdrfV7n7EeQf8Fru1g/AsD+b1Se9qWD+F/dbx44sX+fLVhJ4vebUvLXuOZPnUMowe/hX9iU4zrRzJ25Wn0moo0bVOKrZ9+yMLDOhJ3z6aPbysGTJ/B0PfHM3tyf55p0oFJu9MBIylbJ9B7VAh53rVxCv+YNk8NZkOCheu+xgRWvd2OEfsq09g7gbnP+zJ0S6Z5K4ukh3/NW34/8KeLJ+UvzqJTvQ5Mj9Dj5dvOitx5gIHYdRMYveQ8Lu52RE5uyxP915JoLpo1uQwxLPhgAhEevjQvF87nY5dxwWjkStQCBrTzpc+8g+RhIGbBB0yI8MC3eTnCPx/LsgtGcG2Eb0NXnNx8aNKsDu5aS7Ks5ljEAga0a0mviTOZPGIqC5d9Qe9n+rIwzlxIG3IWwUjSxjH0m3aAMg1qEj/rWZq+tYIiXVrtz4pOhljWTRjNkvMuuNtFMrntE/Rfm3hvtyUBjClsndCbUSF5eNd2IvzjNjw1eAMJRjDELOCDCRF4+DanXPjnjF12weJ413aM54WBv1OpfVvKh/yPOl5P8GL/r9iwcxHvtm1Jr/HTmTpmNIPf8iexqZH1I8ey8rQeTcWmtCm1lU8/XMhhXSK7Z/fBt9UAps8YyvvjZzO5/zM06TAJU6jfo5wW44li2tU87oD0cL7s5cfSVC9qOe5hfmA0N78Oaohdx4TRSzjv4o5d5GTaPtGftfGXiFowgHYtezFx5mRGTF3Isi9680zfhcQZwbWRLw1dnXDzaUKzOhVJKzReKao2aEItNwcc3WvTtFlDHsk4wIIB7fDtM4+DeSYZLcad3nKcGa9EsWBAO1r2msjMySOYunAZX/R+hr4L44razlrfRjCmbGVC71GE5HlT2ymcj9s8xeANCeiL3b+9jTqiy7e7lRy1mkN3wlI9WEui0ZVGvg1xdXLDp0kT3OKXF47fPp+w7sQq3m43gn2VG+OdMJfnfYdSZEhjKoeWD6Jjy+5M/M6fyTOXEuT/Lq07jiDgu0+ZPP9Xln/6PO2GhZAOGBMs9anBo7E3F+cPZ2QwNK5uD5TFRxvJmhOP0L5rBys2y7Ma68akjYzpN40DZRpQM34WzzZ9ixWJnvi2s5KTFj5MbFlW81YA6YR//RZ+P/yJi2d5Ls7qRL0O04nQe9kerzj5aLRRK7Lutv90wr/shd/SVLxqObJnfiDRtxPayjnmWImrPEv+KBhrzajjriFh1du0G7GPyo29SZj7PL5Dt5BpvML+Re/StmUvxk+fypjRg+nzyQbSijFu/CVbOXjnWN+QZrnfInP4feA/vRhMWT+L768/wUuPu1O1zVDeaHQdWozkw1fa8ub/OuCRB48O/pnw2ETWvF0d90out69klHKnYhk7QINH6/fp1aIUWdqWfLY+hG37/2BivWN8+9VaLmft4rOhv1J74FA6N3+Cl8b/wAeuSxk6aTMZhcUB4xUSs+rxwku+POrbnQ61kzlyJImCn4u3SO4+Ph+4gQZTptGvY2s69RvEizXyJdWUsyI3kBPK9M/DcSqXyqnTaTziU5WLK+YSWOhD9DbkyjvCzq0niE11wOvpwUz/pCMV7TS4t3iLtzt45N86y+PIzq2ciE3FwetpBk//hI4V7SjtUYcaFRyxL1+dxx6rRUW9JVm+Z2uVN3ingweifYz35i1i0aqZvFYmkh2Wrptbk9O8XeYWJo2OpsP4frRu9CT9PvmEl2o7YzDfcGO1P8s65YRO5/NwJ8qlnuJ02iP4VL3IirmBmJuzpOTs+oyhv9Zm4NDONH/iJcb/8AGuS4cyaXMGeUd2svVELKkOXjw9eDqfdKxY9GobKayf9T3Xn3iJx92r0mboG5hC/UNeafsm/+vgQR6PMvjncGIT1/B2dXcqudzupZR7RdO3iDUetH6/Fy1KZaFt+RnrQ7ax/4+J1Dv2LV+tvUzWvcppMZ4opl3N4y6X/TOHsNRrJFN7PUnzzsMY1b1G/rEcQqd/TrhTOVJPnSbtER+qXlzB3DXZtHjrHTp4CNrH3mPeokWsmvkaZSJ3cCC3NB51alDB0Z7y1R/jsVruPFJoPCcq125E9fL2OFbw5rHG9fCs0YK33u6Ax81bxNbizmA5zsS9BW+90wEP0fLYe/NYtGgVM18rQ+QOC1srrPUtOez6bCi/1h7I0M7NeeKl8fzwgStLh07i91Il6N9qHTHZ3WqOWs2hO2CtNqVUpU6NCjjal6f6Y01o0fHtIvH7Rl4iWfVe4CXfR/Ht3oHayUc4kmQ2osaNZq+9Q8fqGhzrvcEX387lp4XDaXx2N4lPfcG8eT+ycnJnbuzazvFcMF6x0meZJxk16Q3c9mwg5IoRyCF8WxZdBrairFWbWYv1TLZMGk10h/H0a92IJ/t9wicv1cbZIGjKWclJC1iV1YzcfZ8zcEMDpkzrR8fWneg36EVuTxvWxytWPt6hVnAX/Z+NnMmQpV6MnNqLJ5t3Ztio7tTIzy1r5xSpvdbi6vyhov4o41Eg1h6jVkUNVxKzqPfCS/g+6kv3DrVJPnKEJHHniTf/RwfTgoGfw2NJXPMWFYox7prs5tZzsHTB8S3H+lulLPdbZA6/D/ynF4OOZcvgeDWRJD2gccDRUUvpsvnJa6/F3sUDryoa0Njf0RAajYZyntWpoAGcGtHrlcbkxZzh3NE/CI11xb1yftTae9H66ZpcjdzL6Zt/1dxE25RRK2dQb+eXTJm+nIPXjBgM5o2Koj+1hW2J1alXM38MjT1arZVKUQDD+QgO5zxKt35++Pn5MfD7vdzIDGW4t5m21uRybs97A1xY1rU+DbuMIsypIdXsAexwcLh5c9CZ9u8NwGVZV+o37MKoMCcamhoVwros9mgdtDhVqoK7PWDvilu5PHS5FoLdmpxm6P/cS9SNClTKv29Xxncwc6b2wNtcLKv9WdIJzkccJufRbvTz88PPbyDf771BZuhwzM1ZMvQc/yOUWFd3bodQa56ueZXIvafRtn+PAS7L6Fq/IV1GheHUsFqR/XLgSNkyjlxNTMIU6o44aktTNr8Y22vtcfHwwhTqdxJWg0ZTDs/qFTCFei9eaZxHzJlzHL1XOS3Gk6EEdi0Qd/rTbPrtFFV9apluCaOhdOn83DacJ+JwDo9264efnx9+A79n741MQod7g50WB60Tlaq4Ywo3N8rl6bAUboXj3DJ2Dg63bpNbjTsna3EGdloHtE6VqGIKflzdypGnM71otyBW+5bj/BEai6t75Xx72+PV+mlqXo1k72l9sfu3jZ31HLWaQ7axXg+KOL1I/GqbjmLljHrs/HIK05cf5JrRgMUhNQ44ONhTxrUsGsC+fHnKakrjWt7kMW2ZMjjl5aATbPZZpuNw3qv1B9/+eBL9tc2su9aW14oUEzMsxbr8yd6oG1SolL/FoYwvg+dMpced+jLDlqy30XNqyzYSq9fj9rSh5c7TRkny0VqtuGgjvqz1PxhdyG+cqupDrfwtKZrSpTGVMGvnFJXJalzVe7aoP4qYXUvTUSuZUW8nX06ZzvKD1zAaDPl3G+zR2rvg4VUFDRrMy6jVcb01JcpB81i31e/95v73+ABR9qXJfN3qAF+M9meB/5eEeXzG1+/6FJ2kbmIHmD2vZfmV3HaULV0KbUV3qpR2wskQz4WLN7PRDpdSzmgrulPJ3LpZ4Uzt9AbBdQYxYdwHtPU0b2AFXS66rGQSr1gKHxtyOzlhH7eHnec1ODo64ujoiDY1ltj0Qk2ty2WERkN/58T+BfRx3szI53oy55T5X6BGaDSU30/sZ0EfZzaPfI6ec06ZtSmBLLawJqcZds7OOF47SMSx29c/co5FcdT8FQVW+7Osk5OTPXF7dnJeY5Lf0VFLamwsJVGhMEYSDxyglJMThvgL3A4hF0o5a6noXgloxNDfT7B/QR+cN4/kuZ5zKOICyvLS5K9pdeALRvsvwP/LMDw++5p3faxGuoWQsfL9T7uylC6lpaJ7FUrfq5xW4unu7KojL9fA5STTArgwTjjZx7Fn53k0+bHmqE0ltkTBVnKsxl2qtTgrPlb71pXCyclA/IWLt+xg51IKZ21F3IsUoDtQNCis1L8CWM2hO3AP9SArfCqd3gimzqAJjPugLcUd0hY2+7RvwIDhzxM/fxbLlm9G88Irtx9ssGYzS7F+2gFnx2scjDh2+8pszjGi8gtT0a4s56RNWQugy9WRlZxI8acN03h3l48Fa0VlNHfRf2peLobLSaaLN2ZYO6eITNbi6roFfxQpUFmET+3EG8F1GDRhHB+0LcEDQdbGLSJgCfmr+rVAsXX9N2K8cpjdLn4s+XYw7wz+hhULh9KibIEGhT6AraFChbJcPXuaKwY9ibtDOXY9i4yMm5s2hBupN78fe53wqCRa936ZGg170LtlGhuXbiHFCHCD4yez6dK/J15m1tWfDWHDQTs8q7tCynGiEw3oddeJj0s1yWLlg9zaBs/g67YX/4/mE3kpnUtRuzliGsym3PY1OtO5wUlmvt4f/y2HiT60ka+mBRF/+7kXsCXX2V+Y6x+OY6OeTFkbyEifOM7EmzJVRPITPYfQuf6EOzai55S1BI70Ie5MPGCHVqtBl5FBXtoF4sp1siqLFClWYnESsipnXGqhdvZ1utClwTkCBn/Eyohojm//kbFLoynnkO/zfDtb7y/Rgk5J1OjcmQYnZ/J6f3+2HI7m0MavmBYUj4MxmV3zZ7PmpPlq8yYGDEbBoC9c5fSx6/luyzXq9+hNy7SNLN2SYoqvG8c5md2F/j29yA2di3+4I416TmFt4Eh84s6Q74ICGLlyeDcufkv4dvA7DP5mBQuHtqBwqBcwqKYCFcpe5ezpKxj0iewOPcb1rAxuh/oNUm9+CPR6OFFJren9cg0a3qucOaEW4kms29XsdArGnbYRHTt4cWb5DJafzgGyuZqSQV5GOpn2NejcuQEnZ75Of/8tHI4+xMavphEU7wBI0b/Ib+adnRatRkdGRh5pFy6QZiwY5yYMRkGvLzCJiNyasq3FnctFa3GWain4C/sqH2t9l3OuT4/eLUnbuJQt+TXhxvGTZHfpT08vTbH7t1VHwFI3phy1nkOFc9J0yu3cs1Wb7LRaNLoMMvLSuHDBtDPrtsx6zoZs4KCdJ6Yho0k06NFdjyeuyMdrTePd9p8Uri1ikqk4fVZ8eSTvlF/LyAWu9HjuZmbZsJmlWE+qSZcuDTgXMJiPVkYQfXw7P45dSnQ5hzvmpOTbrjiymtDS4Blf3Pb689H8SC6lXyJq95H8OcpWDbAvUT5arhXV0JS4/2SadOyA15nlzFh+mhwg+2oKGXkZpGdaO6eoTFbjymDBH/H6wrF29iAhGw5i51kdV1I4Hp2IQa/jenxcfu+W5yVsjetgMXluxbPtWL9Dv/cb+Q+j2ztempV1lLIVq4qnl7f41G8und6bLwfijsrq4U9KWYfa8trs7XIhL7/9kTnyoncF8WzaVUYuWyJDmzeQF0b9JOFJ6RL4Wnlxf6KPjJw4RSZ++I68Pe5XidWbztNf/EXGvtBKOr49SsaPHSIjZofJZUMhUUzk7Jdvnq8hbtWflB6jF0rAgDpSqcn/ZFH4IQka0lxcHBuJ3+JISS5yrkEuhU6VbvXcpLTbo9Lr659k+GNu8lpgpohNuQ2Sc2a1jOxYVyq5lBL3xr1lTsQN886tyxW5QvrXay7dR0yTObPGyZBPV8vZPIOkHV8rw1qUFsdGA2TZoVgJ7F9PmncfIdPmzJJxQz6V1WfzRMQgKRuHSOPKNaT1B8vlVJ5YlOXaiXUy/MnS4tT4XVkScVqObxwn7d0cpG7f+RKRZGYIa3Ieyy7cTkSyo1fK4La1pEJZN6n7/Key8aJe5MbJwnbOstZfiqyxqFOOnFk9UjrWrSQupdylce85EnFDRHK2yoj6nvLC/8VIfkjcJidG9qz4VDpU0oimUjN5ue878s4770jf3i9Is0c85e316SKil4u/jJUXWnWUt0eNl7FDRsjssMtiEJHMNf2lXvPuMmLaHJk1boh8uvqs5IdrAXSyd3wzKetYVipW9RQvbx+p37yTvDf/gMQdXS3DnywrDrVfk9nbL+Sfq5Mjc14U7wqe0rTrSFm2ZKg0b/CCjPopXJLSA+W18u7yRJ+RMnHKRPnwnbdl3K+x+Xrdo5yZayzEk1i3ayHM4+6qGK7tl4C3W0g1j3rS/o0PZWzv5lK3wyCZsyNWJOeMrB7ZUepWcpFS7o2l95wIuSHX5MS64fJkaSdp/O4SiTh9XDaOay9uDnWl7/wIScpLkY1DGkvlGq3lg+Un5YpZnP/5x7fyel0HcWjwP/l+Q5TEpRyXtcNaSGnHRjJg2SG5arASd9bidu9BWTf8SSnt1FjeXRIhp49vlHHt3cShbl+ZH5FkbgDLfYuI6C/KL2NfkFYd35ZR48fKkBGzJeyyQeTaiRL1b62ObN2x1nqOXoi0rJt5TprnnsFyPRARMaRslCGNK0uN1oPkh19WFYnfnP3fyPM13KT6kz1k9MIAGVCnkjT53yIpPGS6nPp1tDzt6iD1//ej7I05K6Hf9BBvh0fkhc9CJPp8pCx+t7E4l35Chq49Lpfu2KdB4v+vm7SberRQXFuzWfi5QMuxnh0tKwe3lVoVyopb3efl040X83PLek6eOR4kQ5q7iGMjP1kcmSxZd5Q1H8MlCZ3aTeq5lRa3R3vJ1z8Nl8fcXhPTtGF9vCRDcfJRRDJt1Yq76f+a7A94W1pU85B67d+QD8f2luZ1O8igOTskVm/tnKJYjCsrted2rH0gy09lyP5vnpcabtXlyR6jZWHAAKlTqYn8b8FuObp6uDxZ1kFqvzZbtt9cMJhhcdw75OCdYt1qv38B/+lvE1/f44//+Tb0bakl7Vo6GRmpXNzyExFPrWLuK9Ze3mCJLFb3rsYU7xAOzWhJ0QfK/2b0+xnfvDNnxsUR+JqL+VHFQ8d19vj7c75NX1pq07iWnkFG6kW2/BTBU6vmUrJQX03valPwDjnEjJb/eKQrFA8IOvZM+pCj/ecyqMa/84aafv94mnc+w7i4QO7LtKFqxX+Kf2dUFwf9Ib4ZPp+EilXxqtuIZk8+xTPtnqJW1cd5qknJr7GKWLu98s9gfvtK8fCiP/QNw+cnULGqF3UbNePJp56h3VO1qPr4U5Q81E23PR+gUFco/jmyzrFjwxbCd3zPooxO9P6XLgRNmPL6/qW2qhX/Jf7NkW0bbR1efb8lJ4c2xatuE1q06kC3tz7n+NNDeP3m41XFQk9i1DpCozNIigzm95M39w3+U2RwbucmwuMzOBm6nkOX/llpFP882jqv8n7Lkwxt6kXdJi1o1aEbb31+nKeHvH7rScJioU8kal0o0RlJRAb/zskie7AUiocLffQyPnqjG6+MS6L7Ry/hZt7g30LGOXZuCic+4ySh6w9xz9OGqhX/Of7Tt4lNGNGlp6N3Kktpx7tZ+xrRXU/jRq4R0KAt5UoFq58X+TswkHXtGpl5Jnmcy1Wk7F/xOnLFvw+jjvR0PU5lS3N3oa7jetoN02tWNFpKuVaw/iUdheIhwaDTmZ7qND/wb8KQxbVrmZimDWfKVSx7b1+xULXiP8dDsBhUKBQKhUKhUFjjbq4fKBQKhUKhUCj+I/yHrwxmEbNtKQHzfqPU4DVMbXeXF8WNSRw5JjRqcvOzVPdIVgzblgYw77dSDF4zlWKLZbzEnhU/E3m16N4Mu7KN6d7v2Vuf7lEoFAqFQqEoLv/hK4MaXL3sObc9ivj0u1/v5kb587+35xBV5GOed4nGFS/7c2yPiqdEYuWd5Jeg07g93o5Ozz3Hc889R7tHopk3dgrrUyvziFoIKhQKhUKhuAv+w4tBZ9xq+ODhei8qXmfzgjWciV7Bj5uvmx+8O5zdqOHjQYnFkiwe6zOJvm2b0ejRR3m0Zjrrv17JldaT+b8PH/vn332oUCgUCoXiX0lJlyT/MuywK/RhbiNpp3awbtVKgradIMX804RmGONWEyTDmfxsBut/XENi0Tu0JoyJ7F29mEWLFrNk1S5iDUD6STYvX8ySoAiSzc+zszN9t/EmxjRO7VjHqpVBbDuRgkWxnLvSt3eVfIdlsHvqQL658DSfBQyloXqKS6FQKBQKxV3yH18MFsRIwqq3aTdiH5Ube5Mw93l8h24h07zZLfQcX7IV9zf9GDDgRZxDf2JxkQ9b56PxoLH3ReYPH0kwjaluD5T1QRu5hhOVG1LVlpWNCax6ux0j9lWmsXcCc5/3ZegW61IBXN8+kYFzEmk/LYCB9dT9YYVCoVAoFHePrWXKfwwjVxKzqPfCS/g+6kv3DrVJPnKEJCvrOzK3s/BoE/7X2oUKXQfQy/MQi3/cQ455u3zKPDmKSW+4sWdDCFeMQE4427K6MLDVzY+aW8F4hcSserzwki+P+nanQ+1kjhxJsnx1ECBtC58ODOBq5y/5zs/n/jzUolAoFAqF4qHlIVoMamk6aiUz6u3kyynTWX7wGkaDAb15MwCMXAr6gT+uxLB8/FjGTv6NFNdSnP/5B4LTzNvepAwdh79HrT++5ceTeq5tXse1tq/hfafVmrYpo1bOoN7OL5kyfTkHrxkxGCxLhfEKwR8P5qeMbnw99507961QKBQKhUJxBx6ixWAW4VM78UZwHQZNGMcHbT2tK2/4k2W/VeWrX+cz48sv+fLLr1gWNI1ns4P5cdVFq5+js28wgOHPxzN/1jKWb9bwwis39/jZICucqZ3eILjOICaM+4C2ntbOMHLpl48ZulRHj1lzeMPrdjtDzAEOXbYmlUKhUCgUCoV1rK08/iMIIvkf0tafJWTDQew8q+NKCsejEzHodVyPjzM/icydP7Cvnh+dC9zh1dTow4CuzoT98CMHrL5mpiIvj3yH8mtHssC1B89Zu0Ms+XIB+rMhbDhoh2d1V0g5TnSiAb3uOvFxqYVOMSauYeSwlcjrc5jdy6OA464TtuhXzrtoMCbvYv7sNZy0di9boVAoFAqFwoz/8GIwnehN6wlPTmH/r4FEpdThpbfakjjzOZ5+bQZ/1nycahc38H/bC74yxsjl8B8YPHwxf8ZGsOfC7VVf7oVDnE13QH98Lu9/MI89SZavxDk+PoiB7Zrx6lu+lr/9mB7NpvXhJKfs59fAKFLqvMRbbROZ+dzTvDbjT2o+Xo2LG/6P7dddbp9jTGbNqA9ZnVQRL9nGZ8OGMGTIEIYMGUS/l9vyZogddZwh78Q6Zn2zmLBkqzsOFQqFQqFQKArxH/4CyT+Ebg+TPjxK/7mDqPEfXmorFAqFQqH4b6CWK/eJrHM72LAlnB3fLyKjU2+1EFQoFAqFQvGvQC1Z7gt6opd9xBvdXmFcUnc+esnNvIFCoVAoFArFA4m6TXzfMKDTgZOTet+LQqFQKBSKfw9qMahQKBQKhULxEKNuEysUCoVCoVA8xKjFoEKhUCgUCsVDzH93MZj5J6HL5zHn29nMnj2bb7/15/sfFrFq4y5OpZh/7i2XfZ+/wHOTdpBlduQ2WcSE/sDHvV7gkz905gf/MrJitjFvdC9emriDv2/Uf5osYrbNY3Svl5i4I1/r3H18/sJzTNph3UN/BfpLUayY9BZdPgq2+l3qeyF33+e88Nwk/l619FyKWsGkt7rwUfBfodXdYUw9StBXg+j2xhxOmKfo30FWDNvmjabXSxO5GXbF5YHKU/0lolZM4q0uH2HTvfeg778eazYyXCT46/F8vTHGyqdKbfPP5LNCce/8dxeDpevS4dX6nAsYw1dh0OTpNvg2qkx25Le82sCHZ8duJPbWu5m11GzzGq+3r2P5RdH5uFZ34NyOKOIy/r5tlhpXL+zPbScqPp2/b9R/Gg2uXvac2x5FfHq+1tqatHntddrXseWh+4/O4ERWdCh7Y25Y/QxhSdEnJ3Lz64Hamm147fX2/L1q6TA4ZREdupeYG/dLq3tH41gVH+NJQo9fIdv84N+BxhUv+3Nsj4rnZtgVlwcqT3UGnLKiCd0bg0333oO+/3qs2MhwYS1zVqRS/8kaaAu2Lyb/TD4rFPfOf3cxCOBUneqV7XHxakarFk1p/nRX+n+2hl0rXuGy/5u8PuMIpm+MaKja5h36t/PE+rPALrhVr0N1NzvzA38pzm418PFw/Y87yhxn3Gr44OFaQGtNVdq80592ntY99FdQ2qMhLeoX4xvTxcVwgcUT/G990lBTtQ3v9G/H36tWaTwatqB+lfum1f2hTGXq1qyC09+bYrdxdqOGjwcFw664PFB5WtqDhi3qc0f33oO+/3os2shIanQp3lwxmxfvaDzL/DP5rFDcO3cX8X8RGdG/Mmfix3w6YyX7U2z9SVsCikwsGip2msS4bk5EzZ1NSIbpt/rLR9gemcCti4W5yRzevIbA9Ts5ff2mLHbYYQcYybiwl43rd3A2/3wTBlJPhhL08xq2HE4udLsoN+kAm1avJSTiEEfPplm8ymRMO8WOdatYGbSNEym3PylnZ5evhCGOvauXsnhJEBGXjBhTDrNx+WIWB+4hwQBgIOV4KOEXDegSoggOCuHoFQOQS/KBYFZvCCfullB6rhzdTmScgcyYXawP2sapgl/muxddDCkc2xFJXEYMu34J5c98G+UkRLEpcBXrw86RfquxkbRTO1i3aiVB205wW207bqptQs/lI9uJTDAABuJ2/8ziRYtYdOvfYpbviLHR3530NcOQwoltQazZGEWy3iyIDKmcDA3i5zVbOJxcyDIkHdjE6rUhRBw6ytk0M8tkRvPzkB58FBRJ6PKlbDmVA/rLHNkeme8/yE0+wK4jV9AlHyA4KJiI2ML3mwypJwkN+pk1Ww5TeOgkDmxazdqQCA4dPYv50DcxpJxgW9AaNkYlY66WZf8UJJfkA7s4ckVH8oFggoIjuC2egZRjO4iMyyBm1y/8sXMrq5cuZklQBJeMRlIOb2T54sUE7imQYzkJRG0KZNX6MM7dHNDOlGHkxBG+cR2bC8WeNd8WIyZtnFuIm+MXwKrNzbiVp/lYzufCdgq9mRy6RPb/tprADWH8eave3DzFWryZYyDlxDaC1mwkKllvpkcOCVGbCFy1nrBbxrasbyHM62BxapC5flZj03qNKYwN35nLd/MMi7bnDjbKJbdKDUod+a2QjQwpxwkNv4hBl0BUcBAhR69gyM/V4NUbCL9dVIvkM+SSfHgzawLXs/P09UJxaS2ujGnH+CP0FIWmFoXiL+aBWQzq9n/Oc091Z8RnM5k+9i2eaT2MkFTzVveL8rR5pjGaq/sJP5nDlagFDGjnS595B8kDjEkbGdNvGgfKNKBm/CyebfoWK+JuprGBy7v8mTJ7FWu+ep3Wby8l0QgYU9g6oTejQvLwru1E+MdteGrwBhKMYIhZwAcTIvDwbU658M8Zu+xCkcnKmLCKt9uNYF/lxngnzOV536FsyTRrZO+Fbzsj60eOZeVpPZqKTWlTaiuffriQw7pUDi0fRMeW3Zn4nT+TZy4lyP9dWnccQcB3nzJ5/q8s//R52g0LId14hagFA2jXshcTZ05mxNSFLPuiN8/0XUjcPepivLKfRe+2pWWv8UyfOobRg/vwyYarxK6bwOgl53FxtyNyclue6L+WRKORhFVv027EPio39iZh7vP4Dt2CudrclNe3D/MO5gF5HPxtO5k1G/P4449TX0L5fOgMwnPKWu7vTvqakx7Ol738WJrqRS3HPcwPjL61f8iYspUJvUcRkudNbadwPm7zFIM3JGDEQMyCD5gQ4YFv83KEfz6WZRfMO3elkW9DXJ3c8GnSDB+7QywY0A7fPvM4mGckcfds+vi2YsD0GQx9fzyzJ/fnmSYdmLQ7HTCSsnUCvUeFkOddG6fwj2nz1GA2mJzCgg8mEOHhS/Ny4Xw+dhlFhgbSw7+kl99SUr1q4bhnPoHRN7UyWPFPgZONieye3QffVgOYPmMo74+fzeT+z9CkwyR2X7/C/kXv0rZlL8ZPn8qY0YN5yz+Rpsb1jBy7ktN6DRWbtqHU1k/5cOFh8gBD7DomjF7CeRd37CIn0/aJ/qzNH1CyDvPDwMFMnjWeN1s2ocu0cDKwHit3iklsnGsbGza/AxbzOb2onfp8soG0azsY/8JAfq/UnrblQ/hfHS+eeLE/X+9ItxFv5qQT/mUv/Jam4lXLkT3zA7nt3ljWTRjNkvMuuNtFMrntE/Rfm2ihj8JYrIOJnjZqkAX9xv6Iv6XYtFFjzKSw6juL8sUZLds+k7uwUTxXDy1nUMeWdJ/4Hf6TZ7I0yJ93W3dkRMB3fDp5Pr8u/5Tn2w0jJB2MV6IK5DNgTGLjmH5MO1CGBjXjmfVsU95aEYfRZlwZuRT4Ea+8+im/XCtsCYXiL0UeCHJk2wfeYg/CzX92ZeXV5TfMG5YM/TmZ2dpZag3dLjlmh9IXvyTOWh8ZtkNnGn9wLfHo96tkS4b89m496fbTJTGIiKTvk++GTZC1MXoR3S4ZWbe8vLggWQwikrN9iPh49JON2SLZO4ZL/cZjJFyXP/T52dKuTDXx25Qu2ev7Sg3fMbI1MU8k77SEhV0UvZk8eYe+lu695sjxPBFD7BxpX6aVzDijF5EcCR3iky+biGQHS3/POjJsp2kg3c5hUsezvwRni4huj3xUv7x0nW+ST3/2K3napamM22/SPj2wt1RqMFr26kQkZ7sMqeUmXX+MFb2I5GwdJN5V+sr6+6CLbsdQ8XHtJN9dMIgY9GLI/l0GNusoo+YGSEBAgMwZ0FycHNvIrBidHPq6u/Sac1zyxCCxc9pLmVYzxKR2qAzx8ZB+v2abOs3ZJoNr3fxZLzFnzkueiBiu/iaD6leQJybslQzJs9GfdX3NpJeoCc2lwbAd+TGjkz2j6km5V1dIpmTLjuH1pfGYcDGZRi/nZ7eTMtX8ZFN6tqzvW0N8x2wVk2nCJOyiuWVEcrYPldqefrLpllqDpZZHPzGpmSmrerpKtTdXS7JBRHIOy2ctXaRct4VyKXOHDK/fWMbcdorMbldGqvltkvTs9dK3hq+M2ZooeZInp8PCpMjQuiiZ0LyBDNuRnwm6PTKqXjl5dUWmiFX/GAr3kblKerpWkzdX58f/4c+kpUs56bbwkhh0O2Soj6t0+u6CGMQgeoNIdnB/8awzTEyhqpOdw+qIZ/9gyZZs+X1gM+k4aq4EBARIwJwB0tzJUdrMipHMwNekQu3BsjVdRCRHTnzTXsq7dpMFl6zHyp1j0kZcmJETasrpX7NFJNuGzc1PNMtTq/lswU5XF3aT8s2nyLE8ETEkiH/70tJ88lHJsxlvhUfXRU2Q5g2GyW33jpJ65V4Vk3sHSrOOo2RuQIAEBMyRAc2dxLHNLIkxmOlbCBt10GYNMtMv03Js2qoxhbHmO+vyWbP93dlIJ3s+qi/lu8435aT+rHz1tIs0HbffVB/SA6V3pQYyeq9JkYL5nPHbu1Kv209yySSg7PtumExYGyP6O8WVPkUuxl4z6aVQ/E08IFcG7dA6aM0u2duj1dq8gXEPGIiNT8KgqUZNby1gh4ND/nZh/Z/sjbpBhUrlTJdNy/gyeM5Uenjf3ATiiGsF094g+zLlcMnJItuo5/gfocS6ulM5v5m9V2uernmVyL2n+X/2zjwsquqN499ZmGFHNiGQRRQRJdRIRTO3n+aWlrmgpqaApSIuoWm5W7lkaaBSaa6Q5oIbKpqKgIlsCrKTKMruwiLrDMyd9/fHDALDzLBoZXU/z9PzJPeec97tvOfMveeewx/yMTy1AzCmazeM9ImAsFuHJmsT+T19cHiLA8I3r8emwNsolTJgWvs5G1cDGho86BroyeRr1w56XB0YtJPpxtfVhbBWBDEB4PChwRfCxMwUPAA8AyPo14pR8xJ0AY8PnrYFrMy4AJcHuh+NBFF3jJ3tAQ8PD8zdFYmyylAsshWgp89hbHEIx+b1mxB4uxRShlH+FR9HA3UuAniw7dwRfGkOji6Yi+MWq7F/VT/ogK+6PpX6NmoFkGTg/IV0mHeygwYAgAsdHW1ZbEqScTk0Gwam7eU682A14C10fBqDyAw+hnzsCe2AMejabSR8IoTo1qGJZZrA0dBotFCdy+VC39IahlwAQidMet8ZtVl3cS/xMkKzDWBa7xQMeKsjnsZEIoM/BB97aiNgTFd0G+mDCGE3KDYtyTiPC+nm6GQn0wpcHehoy/oXo9I/iumBCy5XH5bWhpCJNwnvO9ci6+5DSMEDn6cNCyszcMEFT7FoQ5j7iE4QofvY2fDw8IDH3F2ILKtE6CJbAABHux0MNAFAiK5TJ8ClNguZD7kqfavZbEyqiQs1SJLV2LyZwqr7c1M7CfR0IXiajwKJrA8LBHzo6GmDozbeGgogQcb5C0g374R69+pA5l4G96MTIOo+FrM9PODhMRe7IstQGboITdzbkGbzoCoU9NNWFpvqc0xj06rwnRr5lNu+rTbiQkNDAzxdA+jJkira6XGhY9BO1m/5utAV1kIkln2BU9+fJfgjMhZlhibQlwkIVy9fbJhgC2ournhGsLZ6RdafsvxneEXiTYD+Hy/GcHMN2aDL4aJd74XwHqOreOPLQZKCoDNJ0Hp7AsZ1UDABRxOaglLcjk6Sf1wCQJSE2ERlezRwwAGBwIGWUAgm9wEe1mUyjja0NPkwNjUB4ATv31IQt3cqNC8uwTsTfZGusGapKmoDhk87B/t5q7Fy/iBYqvEMB/Lnp8+hl/gF44vr0gShELycGwi/z4VAIIBAIAC/OBvZ5VWI2jAc087ZY97qlZg/yLIVASlB+g9zsPi6C77duxBOAgB4kfrqEKO2hsHjgoKmkwWOFoRCBrkPHj6/xtHWgibfGDLTeOO3lDjsnaqJi0vewUTfdIUKWgsHejpa4BubwkxHCCGTiwf1ToG2lib4xqaQNf0bUuL2YqrmRSx5ZyJ8FZ0irkUN8xgFBU20UuMfxRsV4OhBR4sPY9P2Kuwsm2w2DlUCIISQl4Mb4ffBlbcn4BcjW1mDXC64GmawtBCp9K202ZhsW1xwtNTYvJkKWtOf9catw7f9b+HrZX7Y67cZERZf4ts5ncBTG2+NKxTX1oB5XCCbUCogFPKQcyMc97lyWwv4KM7OVrEuVE4zebDFOUiqLDalanNMY81U+E6NfKps/9JtpBYONDUFKL0djaR6AZEUmwjxC8QVC8ufxSsTevxuXjh7KxyHd3yL7/dfxq1r6zHgheeCEjCKExWmEJc+98S23MH4+vtPYCf/cUZEsuTGs8fIkY645++FpYejkZZ8DbtXHEKavoY84cnvq4MIBB66TnBD35JgHLpUJFuLU5aM1OqRcJ9ohZrQHfCLEsBp4nqcOLoEnXLuIrdRQpIgM+Q0bnMsYW0AFCWnIZ+RQPwsFznFUhCRTD4A4BrCUO8pMjOegJHk4/fQJDyrqkBFLWTy1ekB2b9lf2v4z/p/KD4Uezm6yKH6wYFnMwIjHFOxdYo7/C4lIC0+GN9sDEIuJxMhp2+DY2kNAxQhOS0fjESMZ7k5z3WpPyxR9v91/6yK3QT31fcx1v9HzLDlAUwWzp08o7Y+5foqwHfCsKFWuBu4BYEZIgDVeFpUgdqKclTyumKCW1+UBB/CJfkHTmXJqage6Y6JVjUI3eGHKIETJq4/gaNLOiHnbq5i7eDw+eCKK1BRW4IHD0rkMjQKKJQVF8tlfYao2AIMcHsPNt0mwK1vCYIPXYKs6TIkp1ZjpPtEWNWEYodfFAROE7H+xFEs6ZSDuwpO4TsNw1CruwjcEgiZWk9RVFGLivJK1f6RP0FpBJWhuFhuyWdRiC0YALf3OsgTSUN/AVxDQ+g9zUTGEwaS/N8RmvQMVRUVqOXZYMQIR6RunQJ3v0tISItH8DcbESRvkBgJGCkASFEQcgVF78/DRNP7Kn0rai4mJeriTAF5XyMAvK5qbK4kc9b3U/X9WdFO0icJ+F3bAwe/98Isr+/wyz5v9NYDoDbeGgrAh9OwobC6G4gtgRmQubcIFbUVKK/kwWbECDimbsUUdz9cSkhDfPA32BiUK3vy3UDfRqjLg2pzEBrrJ1IWm6Q2xzQyrSrfFWiqkI+jwvaFMOgzpE02ktmn3kKyNNooqTZIuXX38mA/ciQc7/nDa+lhRKcl49ruFTiUpg/NZuKqJiMI33x/ETmKYxcLy58Ib926desU//h3wdWzglOf/nDt2RGGygai1lB5D2GHd8H/lyg8ePoEefcT8fvlkzjk/zMi+GOxaf92fOggBCBFacoZ+O8MQES2APb938Y740eiU+El/LTlG/ify4X9vC+xqA8Xaad3YWfADeQKbfGGgwYSju1GwLW74Nj2x4Bh4zGu+xMc3eKHy2l3EXPlPrp8thlznHQhSTmEBasO417RI2TcyYPFh59itrNRg6THRTv9SkTt3YxtR+NQ2vENGCaeRugjewx2zMEx/wD8niOAXe++cLbuhNekN7Fj1Zc4dOMZXh9ggrSERxAYWEA77yz2HYxAFs8KLj3bIfPXn7D3UhKqjF+Hi1UJLv38I47fLIB2d2cYZR7HnoPXkSu0g4sDH3eO7saha3cB6754a/gHeK+NukhLknDqh134JeIPiAyd0edNW7Tjm8F1SBeURARgx7fbcSCiBv9buR6TOppBvzIKezdvw9G4UnR8wxCJp0PxyH4wHLKPYUfA78gR2KF3b2uUXv0BOwMikC2wR/9epdg5+RME6w/FCPN8RP9+HVeP/4BzFePxSe8HSuobiC7Zx7FThb79elpC9/mKBD5s+/WHSfphfLnWF+du56OmshB5FXxo2fbEu27j0e3JUWzxu4y0uzG4cr8LPts8B066EqQcWoBVh++h6FEG7uRZ4MNPZ6O7UeNZA0e3FndP+mLXiUJ0erszso76IyAiGwL7/njLyRhZQdsQnFaFJ3kpiDx3FNEmC7F9qSva8UzR93/d8OToFvhdTsPdmCu43+UzbJ7jBF1JCg4tWIXD94rwKOMO8iw+xKezndGoab4t+vU3QfrhL7HW9xxu59egsjAPFXwt2PYcA7f3HZr6x0Zhs7TaFJzYFoy0qifIS4nEuaPRMFm4HUv7EFJO/YBdv0TgD5EhnPu8Cdt2XPDMzCG9uQOrvjyEG89exwCTNCQ8EsCgc0+MmjAWXUoiELDjW2w/EIGa/63E+kk20NLThSTxOPaeiMUfab/j+rPh+HrjRNhqtlMRK2MwRuOi2pgEV3XZ93u2r9evPA1nd+1AwO85ENj1Rt8ePfG/YSpsrrCCpTztLHbtqOun/TCwKwfRiv250AL23Bs48mtjO9Wm/IoNn6/G19t/wA/+u+C/OxDnkrh4feibeP3t/6mIt8YC8G37ob9JOg5/uRa+524jv6YShXkV4GvZoucYN7zvUIKIgB34dvsBRNT8DyvXT4JNjYK+zg37ARcW/QbBrkkeNASXZwZzZTlIrz00ss5g/+EG+umkKY1NY7O++F835TmmkWYqfTcW8+dNUiKfMYxU5NL3Fs3H++ats5Hxg/P4YccBRGTxYOXSE+0yf8VPey8hqcoYr7tYoeTSz/jx+E0UaHdHv26Em/t2Pu/Pb78zHiM7FeLST1vwjf855NrPw5eL+sBQXV/mSPH4/Gq4b85C74/HwUHQ0BgsLH8eHKr/icPCwvK3UoVjbh2w3jYE8Vv64pUbB6qOwa3DetiGxGNL31dOun8sz274we/+QMzoy0dJaTkqKorx8NLPiO53BDve11S8nYWFheWlo+RlBwsLy98FUcNXUK8asldgr6x4/0Qk8fhu0R7kGZvDqosTevXph7cH94Od+Rvo1+NFX4+wsLCwtAx2MsjC8kogQX7sSYSmVaAg5hx+S61bN/iKIMlH7MlQpFUUIObcb0itWzfI8mLw7fHBJ32R6t0TVl16oHf/oRg7/Sskv7UAUzo29+UuCwsLy8uBfU3MwvJKIIX4WQnKaqQAuOBrGcBQty2no/5JSMV4VlIm24qHy4eWgSFeJfH++UghLi+HRKgHHQH7G52FheWvhZ0MsrCwsLCwsLD8h2F/grKwsLCwsLCw/IdhJ4N/N+IsRBzejR3fb8f27Qr/+R1FXIvPp5Qg5egGrPYPw+N/+XIucfwhrF37MyLrT7xXQg1ufjUa76wNQ5Xipb8acT5uhfyKfT/9jF8uxKOwhkF+RiaeqRO/AZJHsfhl7XSMXHoOyrY+bzNVWbj64zJMGrcGYWLFi/8ymuj6CsWHCmpufoXR76xF2N8tYBPbtYGXUcefgeQRYn9Zi+kjl+Kcus71qsr/D6K1eUz0x1ns3LQG7qOGYup6Pywf9Q7W/u2d4d8LOxn8uxF2xMCJLnh0YAU2x5hg3IQJmDBhAj4YNxgd7l3E5WxlOzoroSYWh7ZdBrenC9r/47wqQWH+4xZ+MCFCxJ7vEanngp6G6hTlo+PAyZgyxB4Ku+X9hYiReWwR/jdoHk48MsUbA/vDgXcb/h7DMMTjEDJbpjDEjBBVaaGIzCproY1aCNcAVrx7uBabi/J/+2KRJrq+CvGhHn7HgZg8ZQjs/24Bm9iuDbyMOv4MxAyEVWkIjcxCmbrO9arK/w+iVXlMfBPrPY7DdP4G+G8ZD/HFW9AfOwVD/vbO8O9F3WjK8lfBfw3mxlxwtY1gaW0Na2tr2HTqhQnLvTDcoGXnMzPZ2bBe8QvW9tdTvPTKwzw4gNV+t+qPlVKH5A8Udt+IwE97QVvxWiO4MB84C+6DLZuenfwXUXzRB2PnxmDIj8ewadb/0NOxG94c4YENP3+P2VbVKG3hCQM6Ft3Qu6vZy++smkaw6WQBg5de8StIE13//vhoDq75QMxyHwzLv1vAJrZrAy+jjj8DHQt0690VZs3J9arK/w+iNXmsJuEMzhcaoL0moOnsjZM3D2LlfHcM/ts7w7+XV+oEkn8WNXhWkIciiSb0tV7ws0oqR0yAH663m4zF73WRHXRecwdxD53Q24GH0qQLOB5yA7cTklGoYQPNu2dwKvQWsmEDe3MtcKQl+CMpG89K8vCEawab9trgAmCKkhGWWA1r00rcungZiSJT2JnpQFJ4CyEXYlCs3xEdDOplF+XF4lJIBFKKtdHBxkj2xETyBInhKaixbofiG+cRmsmBpZ0Jnm+FK8pD7KUQRKQUQ7uDDYyEAFCDglsXERJ5DxXiaog0TWGkpXxSW5n2KxZPWYjjRUYw4xC0HTrDhC9CXuwlhESkoFi7A2xklQIAmNIiFD99iPRcCYytzJ9/0coUJSEiuQYmNYkIiRejQ0djcB/fQXgKA2tL+WH2qEFhwmWEhCfhqYYFrE005acdMChODcOFq3HIkRjDylxXftg8UFNwCxdDInGvQoxqkSZMjbQan5CgCiYF22fOw2/OXyFwUS9oNbzGN8frHbQhtrCGOU+KkvRwhFyOROpjLsxs2kO7LlsyRUi5FoLwlHLUZl/AiaL+8HF7HRoApCXpCA+5jMjUx+Ca2aD980LKUXU/8yAE/idrMXLRu9COOYEzV+OQKX4NXS3EuHPuJC7eTEOlqSOs9bmtiCcJniSGI6XGGu2Kb+B8aCY4lnYweR40qu2tCmX+FUB5nDSv63tw4AOSBvFBOb/j2KmriI1PQEKC7L87Kc9g0N0WhihBengILkem4nGD/qUM6aMYnAy6jOiEO0gv0YN9x3YoT7qAoJAoZFEHdH1NU7m/mSIkRSSjxqQGiSHxEHfoCGPuY9wJTwFjbQl9eYNMcSrCLlxFXE7j+EdNAW5dDEHkvQqIq0XQNDWCii4HqLGRKhRt1yYfKtYhVW5X5b4WIz/uN4RcT0GR4DVYGdf1XbRJFoBBUco1hISnoLw2GxdOFKG/jxte1wCgIq6ayK+GmsIEXA4JR9JTDVhYm0AjNxInzlxFXKYYr3W1gPjOOZy8eBNplaZwtNYHV4n/9YpU5B6mGKlhF3A1LgcSYyuYq/msX5ofieNBVxCTkIj0ciN0szFAZepFHD9/A3fF5ujWQfWZr6pyn9JxQh1q8piy8aM0MRi/Hg3CqbhnMDZm8ExqBQcLAZ7cCUcKYw1LfS4kTxIRnlID63bFuHE+FJkcS9jVJxjlMjY3limjphC3Iu9BwxxIv3gJt0t00aGDgUx2qPGFEn8aN9mnn0FOpPqc25yeLxP1GYBFKeXxP8JzzDi4r9iAlR+/j5EztiHyhfddI9QUJOBySAhCQoJx+Ou12JtUA4CLdq+/Bfuc/fh03m6kaOpB78k1HE0wxpvdDMGV5uHIzMFYfLM9nG3zsGOUK7wvlaM4PhDzhvXF+DU74bduKw4F+WHOgGFY7L8TX6zbg7OBX2DU4IUIKQcABtknV2PZwfvQNuUgZt0gvOl+ArmPYrHXczD6TlqDresWY8O+AHzt9jZm7MuBFACTfRKrlx3EfW1TcGLWYdCb7jiRX4usvfOxOtoCri76iPpqBQIeqLGNgRNcuxlAaNQJPXrZw5STjZOrl+HgfW2YcmKwbtCbcD+RDymkKLqyGm4+Iai17Qxh1GcY2M8Lp/MkeBK3H3MG9cWkVZuwYfkyeE1dgUNX98JzsCum/ngbtQAgLUDw8tnYeEsXjh1zse1/PTH9lxxIpUW4stoNPiG1sO0sRNRnA9HP6zTypACTtRfzV0fDwtUF+lFfYUXAg+Zfb8iR5l3G5XgGnXv1goHiRQAGrgPQUyBF3pGZGLz4Jto72yJvxyi4el9CJQCUR2HzJA8cKraCneAG9hxNQ92CAWneEcwcvBg32zvDNm8HRrl641Jl4/ob0rL7ebByHQzpqSVYcTgDEq4xeg7UwpUvPsW+BHHL4+nZE8Tu9cTgvpOwZus6LN6wDwFfu+HtGfuQIwWgxt7KkSrx7+c4/VR5nEhapKsUT2Ibx0ft7Qu4VtkRzm+8gTe6EkK/8saWKBEMSFn/alLhc7hmPdFLcgYr5h3E0y4doQkuDLvoICX8Key7Gyr1d/mTOOyfMwh9J63Cpg3LscxrKlYcuoq9noPhOvVH3JYFsIr4lwJMFvbOX41oC1e46EfhqxUBUNflWhYPami1D5WgIm8p9XVJKcJWjcbc30wwZFA7hHxkD6s334X7t2Eob5Ms5YjaPAkeh4phZSfAjT1HkVbXuRjlcaW2ukZIURC8HLM33oKuY0fkbvsfek7/BfmWrhgsPYUlKw4jQ8KFcc+B0LryBT7dlwCxMv/v9lOae6RFV7DazQchtbboLIzCZwP7wet0nkr5uBbOsH24B4uWnAOcrcEDoNeJj5jjKWjfzVzx9ucoz33Kx4l8VY1DfR5TPn5IoWXuiB52RtAQmKJzz17o9loFbu31xGDXqfjxtljed/ti0pqtWLd4A/YFfA23t2dgX460zWOZMqT5v2P7VFf099yELd6fYNX2dXB/uweGrv0d5Wp8IVHiz89PlyhW32zOVa/nnwCxtI7ic7R40hcU+piR/4Ghkptfk9vcX6mg7k+thcmjHUOFZDTqKzp74QJdOH+aDnw+mjwPldffI7lLP4xqT6+N8qIF83dRslj+99p4+nb8JPJNriVissl3iC7133KXJCSmG0u7Ursxe6iQISJJJn3zljb1XBlHIiKi8qPkZuJIyyLFRNW/0dxew8hnhz/5+/uTr6cLCQUDaVsWQ6JrC8jOaAztzpYQkYiuzLMlsxmnqJqq6be5vWiYzw7y9/cnf19PchEKaOC2dDo1w4Zcl1+h/Fqi2owIingoqdejCSK65t2ZLD3OUzURVf82l3oN86Ed/v7k7+9Lni5CEgzcRlmVYbSoqzMtj5IrLrlP2wfrUgeP81ROYgrz7kQGw3fSA4aIkTBEJKKrXnZkMfssVRNRxYU55DD2Z3rEEBGV082dC2n1iSyqCFtEXZ2XU32122mwbgfyOF9O1admkI3rcroiU4QiIh6SOk0aUnt7FfXQENDg7Q9JdVjUUvy342mSbzLVEkPZvkNIt/8WuisRU+xqF3JcGCbzFYnpho8D6X/wC1USUW38tzR+ki/JXO5LQ3T705a7qiVTd78odAF1sphNZ6uJiKrpnLsl2S8MJzERkTicFtpbkvu5apkMLY0n0TVaYGdEY3Znk4SIRFfmka3ZDDpVTVStxt6qaepfVXFy91ZLdW0cH5Ksu3S/loiYp3RhXlcyfHM1RVao619qEN+kz7ob0sgfsokhoorLa2nVqRI1/iYSh3lTJ4PhtFOmIDFEJLrqRXZ18larif/qUzTDxpWWX8mnWqqljIgIUtfl1MWDKhrarm0+VLC/Srs29TU93Udj27nQ+qRaImIoz28I6biso8Tatskijl1NLo4LKUzWuUh8w4cc9D+gXyrV5B9GMX5UUHGB5jiMpZ9liYbKb+6khatPUJaEqPqcO1naL6RwWeei8IX2ZOl+jqqpqf8rleaeagpb1JWcl0fJ+idJ6P72waTbwYPUqEtUfpE+sXuNJh95TAwRVYetIA+/e2pjWGnuUzNOKEddHlM1fmQREVH1eQ+y7OxN1+Q+ItFV8rKzoNlnq2VjxgI7Mhqzm2TD0hWaZ2tGM05Vt3EsU03lkYlk0OFDOlYoG1MSvuxL2vpjad+jSrW+UPSnKgupz7lq9PwTYJ8MthJR+EVUf7AMQ0zrTMdFO9fFmKFxDZfLFG5uFRwIXuuJ4aNGYdTo9/DRms8xpWOD46h4nTFn5xo43TyMB73eg2PdI2d+T/gc3gKH8M1YvykQt0ulYBgJAC40NDTA0zWAHhcArx3a6XGhY9BO9gqFrwtdYS1EYgJzPxoJou4YO9sDHh4emLsrEmWVoVhkywWHrwG+0ARmpjwAPBgY6aNWXAMpcx/RCSJ0HzsbHh4e8Ji7C5FllQhd5IAhH3tCO2AMunYbCZ8IIbp1aOk6Dwb3oxMg6j4Wsz084OExF7siy1AZuggdUi8jNNsApu3ldfGsMOCtjngaE4kMCcDj86BtYQUzLsDlcQFwoKFR9/pEgj8iY1FmaCJ/3aYLVy9fbJjQAWmXQ5FtYIr6agfgrY5PEROZAf6Qj+GpHYAxXbthpE8EhN06tHh9GdfcAmZ8wtMn6j6M4aOnz2FscQjH5vWbEHi7FFKGgUSSgfMX0mHeyU7+OoILHR3t56/F+D19cHiLA8I3r8emwNsolTJg1Hxn1Nr7ldPyeAKHDw2+ECZmpuAB4BkYQb9WjBqpBMlq7K1OpMb+JZVx0vmNluraMD4Anm1ndORLkXN0AeYet8Dq/avQT0dd/1KDoDc+9nBG1M97kVTzBMFhGhg5qp1qfwMAjw+etgWsZAqCC4CjofH8dackWU3884fgY09tBIzpim4jfRAh7AZ1Xe7F4qHtPmyEGrs26csCPegKniK/QJ7XBALwdfSgzWmLLBJknL+AdPNOsJOnV66ODrRl719VxpVtC0dKyR+RiC0zhIn8vb6uqxd8N0yArRp/AE39r60s90iScTk0Gwam7eV5iAerAW+h49MYRGYo1xYAoDsMiz62w+XvdyNVUoqLJ0sxaLKt2lymqaR9qBknlKIuj6kcP2wVa5HB0UB9d+WAr8GH0MQMsmHJAEb6tRDXSNs2ljVuqTFcLrj6lrA25AIQwmnS+3CuzcLde4nqfaGkP7ce1Xr+GbRNxv8wUokUHL7iGg0e+DxA8jJ9pDkA/xuggSeZmfI/SJAVkQXHqX1xe91CBGbLG6uKwobh03DOfh5Wr5yPQZZtcKlQCF7ODYTf50IgEEAgEIBfnI3scsUbGyKEkJeDG+H3wZWXEfCLkZ39DHDyxm8pcdg7VRMXl7yDib7pioVVIhTykHMjHPe58joFfBRnZ6NCSwghk4sHD+uSHgfaWprgG5vCpFmVOdDUFKD0djSSnn+lIkJSbBK4QiGY3Aeor1YbWpp8GJuaAHCC928piNs7FZoXl+Cdib5Ib+FHH1yz0Xh/oDbuXrpQ/wqqAUxhFh5UViFqw3BMO2ePeatXYv4gS3mHFKO2hsHjggKlA1pV1AYMn3YO9vNWY+X8QWjO5a26nwMAjT+XfHnb0nOgpcbe6sRSRFWcPGqNrgpI0n/AnMXX4fLtXix0kv/aalP/4qHj9E/wTl4A/AMPI7n9B3AVAoAqfzcPR138A3Dy/g0pcXsxVfMilrwzEb5qArVV8dCEl+TD1thVbxzWfdsft75eBr+9ftgcYYEvv52DTry2ySKurQHzuAAFSjqXqrhSmwobwNHUhKD0NqLrEw1ESbFIFKGuczXuXSo6l1RZ7pFqQShkkPvg4fO8wNHWgibfGKZqkyAPjp6LMCp3D7YFBOIidzTeb+aLGaXt81s7TqjLY6rGD5WVtYw2jWUth6OnAy2+MUzNdNroCyX8qTm35bRSahbNtwcCp3YjscF2R+KMgzj8zAVDlS0OaxEMpAQoHgYjfXQeO47dAwBU3dqJHY8+wNc7dmNLv2gs99qL+wwgyQzB6dscWFobAEXJSMtnIBE/Q25OMYgI1CDISLYsoOG/QAB4NiMwwjEVW6e4w+9SAtLig/HNxiDkagCgpjNcIgJ4NhgxwhGpW6fA3e8SEtLiEfzNRgTlMgjd4YcogRMmrj+Bo0s6IedurmIVDeCAz+dCXFGB2pIcUL/hcEzdiinufriUkIb44G+wMSgXml0nwK1vCYIPXUKRFADKkJxajZHuE2Elj2JF+xGRvI/xYD9yJBzv+cNr6WFEpyXj2u4VOJRmCKcJbuhbEoxDl4pkvxDLkpFaPRLuE61QE7oDflECOE1cjxNHl6BTzl3kSgBp4XXs2X4cqeo2y+LawOPbrzAk3xdz14aisMHYXJN9GT+dyYKWRiZCTt8Gx9IaBihCclo+GIkYzwoNMGyoFe4GbkFghghANZ4WVaC2ohyVkCAz5DRucywhc3ka8hkJxM9ykaN03Woz9xPJ4wQAuDA01MPTzAw8YSTI/z0USc+qUFFRC8jt2ZJ4Aqjpr20iEHjoqsbezSWj+rZ4sBkxQkmcPEB2i3VtGB8AqmKxyX017o/1x48zbMEDg6xzZxCVprp/qYNrOh7zJvFwZE0kOk1ykD09kKjwd26OrFAD2er/LfsLT13814Rih18UBE4Tsf7EUSzplIO7uU2HXxnNxIMqntvuBXzYwP7q8pbs1gaWkD5Bwu/a8Dj4PbxmeeG7X/bBu7ce0CZZ+HAaNhRWdwOxJTADIgDVT4tQUVuB8kpVcZUre7KlED/K4NmPxEjHe/D3WorD0WlIvrYbKw6lQV8D4BoaQu9pJjKeMJDk/47QpGeoqqiQrWlGY/+LlOUe6ooJbn1REnwIl2RBgLLkVFSPdMfEuiSoCuP3sGRWO5xYshcGE95Bc3tOKGu/wFLNOKEMvpPqPKZy/JBXxkhBEgnq0yahYXdtOizJrrdpLGsGKitGXdd4FhWLggFueM+mW/O+aCZWZDSTc5uILNPzT0HxvTFLczBUeHkNjR/+AX382SpaPnciDR+7lE5nq1uBoQZRFoXv/4yGtOeRht0oWvjFSlq5ciV9sWwOvdPFnjzOVVB5wm6a3PUNmnchlxgqo4Stw8iQ1476eAVQQmEMfTfKhoys+9CEZfvI39OeTHp8RD+cPUHL3jIgja4f0e7ILMoM/Y4m2GrQa6O/pJC0+xRzYA45a+rQm94nKLmUSHT3GC0Z1oVMtLXI1NmNfKPLiEpT6OSiPqQjdKY5B6MpIzmYVg4xIo0uM2hPdAGR6C4dWzKMuphok5apM7n5RlMZVdJxdwdyGb+YNvpuo5ULvqBjmbWKWjeAoaLgBeTc3oYGzA+k9FoR3T22hIZ1MSFtLVNydvOl6DLZnZKHZ2jF6P40bKYPrVqxgBZvj6DHDEPFicdoUR890ug8mbZfe0C1xFBJ8gla2FuHBE6eFBD/lBiqprTDXjTIzpD0jLrQqC+C5euqJPTwzAoa3X8YzfRZRSsWLKbtEbK1NZXH3cnBZTwt3uhL21YuoC+OZVItEYmuLKaulqPph6zmfV6RfoLWuA2gN/oMo/FT3Wn+ks9ozc4rlFtLRCSiuO9GkY2RNfWZsIz2+XuSvUkP+mh/ElFpHPnP7E0dLBxoyLRPaYWbC3UZOo98w7JJFPcdjbIxIus+E2jZPn/ytDehHh/tpyQVS0lU3v84lYIWuJC2wIk8DsRQIUMkvuNL79oakmXPMbQk4CB5uzjSaJ+fKfT66RbG00E6E7CI+ugIyXnOQYrOSKbglUPISKMLzdgTTQWMansrR5l/iYiUx0nLdI2ijMSG8ZFN4Z85kaa2E01ZvZE2btxIX69dQCPHrqPbFXFK+9d+VcZugCR5E42fe5bk4avS3zN3BtGxRX1IT6MzTd5+jR7UEjElyXRiYW/SETiRZ0A8PWVUxT8RVR4ndwcXGr94I/luW0kLvjhG6rqcShupUqlMMU5a60MldVQps+tM2hkU2NTX4kha1UuPBHrGZG5pRbadupLL8I9pT3yF2v6rmlKK859JvTtYkMOQafTpCjdy6TKU5vmGUbZEeVw1kV9NA9Vph8lrkB0Z6hlRl1FfUHDdAk7xHfJ915YMLXvSmCUBdNDbhRxH+9Du30Kb+F9V7iHJQzqzYjT1HzaTfFatoAWLt1PE8/Xr6mFyf6CxgzdQoprYqENV+0rHCXWoyWPKxw+iyszL9P2ULqSh4Ugf7TpNsTlFlHxiIfXWEZCTZwBF3DhBi/rokNB5Dh2MzqDk4JU0xEiDuszYQ9EFjHIZmxvLVFB5dDK1M32Tpi5ZQ+vXfEqzZq6ks3VjvQpfMMWJTfypDlU590qYej1fNuzZxG1F/AQZiXdRqmOHHt3M1X+ezsLCwsLSNp7dgJ/ffQyc0Rf8klKUV1Sg+OEl/BzdD0d2vM/m3hYivrEWnya6Y8c8GxVPTVkUqTrmhg7rbRESvwV9m2wN8++CjYm2IjSFQ+/+6MtOBFlYWFj+JCSI/24R9uQZw9yqC5x69UG/twejn5053ujXo36/NxYVVOFe2GlcigrDrv0VGO7GTgRbBVELX/f+82HjgoWFhYXlFYUP+w8+Qd9Ub/S06oIevftj6Njp+Cr5LSyY0lHtF7EsACRpCFg6DWPfX4mC8UsxzkjxBhZVSPJjcTI0DRUFMTj3W+rzdYP/VtjXxCwsLCwsrzxScTnKJULo6QjYpxitgRFDDCGE7My5VUjFz1BSJtt6hsvXgoFhS062+efCTgZZWFhYWFhYWP7DsD+wWFhYWFhYWFj+w7CTwVeBmpv4avQ7WBvWYPNCOZJHsfhl7XSMXHoO6ra1axVK2xPhj7M7sWmNO0YNnYr1fssx+p21UCJSK5HgUewvWDt9JJaee2kaQJp3Cd+v2oJTf9Rv7qoWpTq/+jBZwdi66jucf6B6E2FlVGVdxY/LJmHcmjCIFS/+ybx421LkXfoeq7acQkvd+1fzp/RLFhYWlr8JdjL4KsDviIGTp2CIvVDxCsSMEFVpoYjMKmu6kW9rkBQi/7G8BiXtiW+uh8dxU8zf4I8t48W4eEsfk6cMgRKRWokYjLAKaaGRyCp7IQ0aIEXeaT/sL7BHn84t/N5fic6vJA39BAb3Tvji11JH9LaWL/hpdF01XAMr8O5dQ2xu+V/+JdwLty3Nw2m//Siw74OWuvev5qX1y1eJFsYWCwvLvw92MvgqwDXHwFnuGGzZdIWvjkU39O5q9oKOYvDgwGr43ZI/ZmnSXg0SzpxHoUF7aEITzt4ncfPgSsxyHwwlIrUSHVh0642uzRx/1DrKkML7AAG7Pmj5UVpNdH4VUfCTtAgZOjMRuG002nOVXFeDppENOlkYvGDctI0XbrssBbwPArDrg5Yf1/ZX83L65atEy2OLhYXl3wdv3bp16xT/yPJXI8HjO+FIYaxhKT/gHEwRUq6FIDylHLXZF3CiqD983F6X7aslykPspRBEpBRDu4MNjISyOp4khiOlxhrtim/gfGgmOJZ2MNGsRNqvizFl4XEUGZmBQ9pw6NwOxc/bK0Ni8K84GnQKcc+MYcw8g9TKARaCJ7gTngLG2hJ1ItUUJuBySDiSnmrAwtoEmhwA0hKkh4fgcmQqHnPNYNNe+/kAyRSl4FpIOFLKa5F94QSK+vvA7XXZzmBMcSrCLlxFXI4Exlbm0JV/psUUJSEiuQYmNYkIiRejQ0dj1D0cYnIiceLMVcRlcvD29DFol3IOJy/eRFqlKRyt9cGVPEFieApqrNuh+MZ5hGZyYGlnIt8HsqmNleojEw6pYRdwNS4HEmMrmNcJp4J6ucR4rasFxHdaI1cdSvxkbwMHGyA1nYG1JQ8ZDa9LnqE4/jrC4zIhfq0rLMR3cO7kRdxMq4SpozX0uQwehPjjZO1ILHrPQfYVXLN6SZEfeRxBV2KQkJiOcqNusDGoROrF4zh/4y7E5l3RQbfOSHKUxqKSthsgeZKI8JQaWLcrxo3zocjkWMLORAM5kSdw5mocMjlvY/qYdkg5dxIXb6ah0tQR1vpcMEXJCEushrVpJW5dvIxEkSnszHQgKbyFkAsxKNbviA4G9a2J8mJxKSQCKcXa6GBjBKHK+GJQnBqGC1fjkCMxhpW5mq8G1fRLZe01pgaFtyJxT8McSL+IS7dLoNuhAww0AIBBUVIEkmtMUJMYgnhxB3Q0FgAQIS/2EkIiUlCs3QE2MgMDECM/7jeEXE9BkeA1WBlrgsPkIPLEGVxVGROtyREm4JakIzzkMiJTH4NrZoP22nWJoAC3LoYg8l4FxNUiaJoaQUshLFhYWP5Z/Ht+2P5TkT5B7F5PDHadih9vy0+pLI/C5kkeOFRsBTvBDew5mvb8MGwm+yRWLzuI+9qm4MSsw6A33XEi95Gsjr6TsGbrOizesA8BX7vh7Rn7kCMFDJxc0c1ACKNOPdCrEwfxjdrTgrljD9gZaUBg2hk9e3XDaxW3sNdzMFyn/giZSFIUBC/H7I23oOvYEbnb/oee039BjiQPR2YOxuKb7eFsm4cdo1zhfalSrsJmTPI4hGIrOwhu7MHRtDoNpCi6shpuPiGote0MYdRnGNjPC6fzJHgStx9zBvXFpFWbsGH5MnhN/RynS+TFAPCsXDFYegpLVhxGhoQL454DoXXlC3y6LwHiJ7HY6zkYfSetwdZ1i7FhXwC+dnsbM/blQNrExir0kQLSoitY7eaDkFpbdBZG4bOB/eB1Ok/tq8A2y6VQTyM/2RujJHYvPAe7YuqPt1GreL2rM94aLMWpJStwOEMCrnFPDNS6gi8+3YeE54ed1tMyvbiwcLbFwz2LsOQc4GzNA6CHTvwYHE9pj27mjdOF0ljMV9SqIVI8id0Lz8F9MWnNVqxbvAH7Ar6G29szsC+HAyvXwZCeWoIVhzMg4Rqj50AtXPniU+xLEKM4PhDzhvXF+DU74bduKw4F+WHOgGFY7L8TX6zbg7OBX2DU4IUIKQcABtknV2PZwfvQNuUgZt0gvOl+DEkxSuKrqAhXVrvBJ6QWtp2FiPpsIPp5nUaeMjVU9ktl7Z1AI1NI8/H79qlw7e+JTVu88cmq7Vjn/jZ6DF2L3589Qdz+ORjUdxJWbdqA5cu8MPXz0yhhsnFy9TIcvK8NU04M1g16E+4n8iFFKcJWjcbc30wwZFA7hHxkD6s334X79nvoriomxPI+0JIcYW8Kbt4RzBy8GDfbO8M2bwdGuXrjUiUAJgt7569GtIUrXPSj8NWKADxQZisWFpZ/FOxk8O+Ga4re02diqEX9K9u4rQtwyGoJNkzqA5cRC+Ez3ka+uaoIoZu+QpRQH8XpGSh5rRPMH/6CHcer0Xv6LAy1IPBf/xg/7t+PI1snQzcmDLdqdGBhbwNDAQ/trF/H650d0K9Re0K07+wE63Y8CAxt8bqzAyxtemP6zKF4fkvlJaxdloahq2ZjgFMfzP78c4zrrAmGeYL8KgeMHueK7q7jMbRzIe7cKQBTE4etCw7BaskGTOrjghELfTDeRl6Z6Dq+9D6LznO9McLlTYxb9RPmGxyC99rfoPXmh/hoqAVq0R1ev0YhO/84phvKZQAAcKFvagLt508htGBqrAsOAK5pb0yfNRQWxMfrH/+I/fuPYOtkXcSE3UKNoo1V6UMiXP/SG2c7z4X3CBe8OW4VfppvgEPea3GxooEYTWijXI3qUPCTnSle6z0dM4dayH2veN0YAn1TmNQ3Ci1TYyg+uJPRCr10+8Bn7TQY3TiNkCdSACJEXa3CyLn9FQ63VxGLR7Mb3dUYLkx7T8esoRYg/uv4+Mf92H9kKybrxiDsVg3A1YepiTbqzWgKY10OAC6Mek3GrGHW4AocMO3r77Hj531Y5JyJ3/P74esff8Tuw+swouw6riXXAKJQbPoqCkL9YqRnlOC1TuZ4+MsuXGk/tUl8TUz+Et5nO2Ou9wi4vDkOq36aD4ND3ljbxDBq+qXS9nbgaHaDWRLXAgM+mYTeWlXg9/0Sp0KuIu7yGjgkfY9vThLe+PAjDLWoBbp74deobOQfnw6t0E34KkoI/eJ0ZJS8hk7mD/HLjqPIfnIK23Y9w5vj3oCp+UB4T3PCM/TGksWDYaAqJrimLc8RdsbgPslHlcNojHPtDtfxQ9G58A7uFDBA7R2EX0lBdrEGrN7ywqbPh8FYacyxsLD8k2Ang68CHA1o1L2XkmTg/IV0mHeykx+1xIWOjnyAZO4jOkGE7mNnw8PDAx5zdyGyrBKhi2wBDh8afCFMzEzBA8AzMIJ+rRg1yn61N2xPBRwNjeevyiR/RCK2zBAm8teruq5e8N0wAbbCnvA5vAUO4ZuxflMgbpdKwTASSDLO40K6OTrZyQ+L4upARz5ASZIvIzTbAKbt5RMznhUGvNURT2MikSEBeHwetC2sYMYFuLzWhSeHrwG+0ARmpjwAPBgY6aNWLNs0tKHOKvWhZFwOzYaBaXv5BIwHqwFvoePTGERm1D3ZbD1q5VILBxrNOaolSFqnl+6wRfjY7jK+350KSelFnCwdhMm2Cmst1cWiWjjga/AhNDGDzBwGMNKvhVhpoDaECw0NDfB0DaDHBcBrh3Z6XOgYtJPFKV8XusJaiMQE5n40EkTdMXa2Bzw8PDB3VyTKKkOxyJarEF9SJF8ORbaBKerDcQDe6vgUMZEZz5/GA+r7pbr2GsMFl6sPS2tDcAEInSbhfedaZN19CCl44PO0YWFlBi644HEZ3I9OgKj7WMz28ICHx1zsiixDZegi2GrqQVfwFPkFEpldBALwdfQa/BhRQStyBL+nDw5vcUD45vXYFHgbpVIGjASA5hB87KmNgDFd0W2kDyKE3dBBITRYWFj+eShmK5a/HTFqaxg8LihoPBgBAIQQ8nJwI/w+uAIBBAIBBPxiZGeXK974UuFoakJQehvRSfXPskRJsUgsjsKG4dNwzn4eVq+cj0F1X3OIa1HDPEZBQVMNOFpCCJlcPHhYd40DbS1N8I1NYdKiaJSNeI2+Um3lvukq9RFrQShkkPvg4XPbc7S1oMk3hmmzwr24XG2BgyaNNv2Cl9NKvXiO8Fw0Crl7tiEg8CK4o99H0+9//qRYbKpQ680oFIKXcwPh97kyuQQC8Iuz0VQ0DrSEQjC5D1AfjtrQ0uTD2NREITmq6Zctbk8Bjh50tPgwNm2vNBELhTzk3AjHfa7cvgI+irOzUa43Duu+7Y9bXy+D314/bI6wwJffzkEn+aSsqQmVxEQzVEVtwPBp52A/bzVWzh9U/6GWFHDy/g0pcXsxVfMilrwzEb7prdv2iIWF5dVDWQ5i+csh2XnYAMB3wrChVrgbuAWBGSIA1XhaVIHainJU8mwwYoQjUrdOgbvfJSSkxSP4m40IytUAQE2fNNUdsM3hg88Vo6KiFiUPHqBE2qA9OYyUIJE0SOpEz4cQnv1IjHS8B3+vpTgcnYbka7ux4lAatB+G4PRtDiytDYCiZKTlM5CIn6HQoA+GWt1F4JZAyFR4iqKKWlSUV4LXdQLc+pYg+NAlFEkBoAzJqdUY6T4RVvJoVHcoDtfQEHpPM5HxhIEk/3eEJj1DVUUFagGAmligQV31OqvSR1+zKya49UVJ8CFckgmHsuRUVI90x0QrLsrjA/H1N0FIU7JVYdvlakATP8nvq7tV8ToMYaj3FJkZT8BI8vF7aBKeVVWgQr5mkIhk5Xnq9VKG8XtLMKvdCSzZa4AJ7zR+QQwAUBuLDdpWQlNzyHwDcGFoqIenmRl4wkiQ/3sokp5VoUKuEDWISVmpxv6tm/TwbEZghGMqtk5xh9+lBKTFB+ObjUGQi9agDA9dJ7ihb0kwDl0qkvWfsmSkVo+E+0SrxslRTb8UNdNeI6gMxXWHnD6LQmzBALi910HeVp0dAIAHmxEj4Ji6FVPc/XApIQ3xwd9gY1AuNKRPkPC7NjwOfg+vWV747pd98O4t9xFXXUy0NEdk4vaF07jNsYSsa6chn5FA/CwXOflXsMMvCgKniVh/4iiWdMrB3VwJpIXXsWf7caSymy6ysPwzIZa/F6aEkk8spN46AnLyDKD4pwxRaRz5z+xNHSwcaMi0T2mFmwt1GTqPfMOyiUR36diSYdTFRJu0TJ3JzTeayqiUUk4uoj46QnKec5CiM5IpeOUQMtLoQjP2RFNBbREFL3Cm9jYDaP6hGEpo1F45ZV7+nqZ00SANx49o1+lYyilKphMLe5OOwIk8A+LpKUNUnXaYvAbZkaGeEXUZ9QUFP5QQieLou1E2ZGTdhyYs20f+nvZk0uMj2p9UTaVx/jSzdweycBhC0z5dQW4uXWjoPF8Ky5aQ5OEZWjG6Pw2b6UOrViygxdsj6DHDUHHiMVrUR480Ok+m7dceUK2irYiIxHfI911bMrTsSWOWBNBBbxdyHO1DP18Jo5OL+pCO0JnmHIymjORgWjnEiDS6zKA9N9Ob2FipPkREkod0ZsVo6j9sJvmsWkELFm+niMcMEdVS7BoXMjKyoHE/5ClK1Ta5ogsa18E08FNgKj1JPkELe+uQwMmTAuKfEtPoejrVkpju+L5LtoaW1HPMEgo46E0ujqPJ5+coupscRAtctEng5EEHYgqJUamXKhjK/WEsDd6QqNwPRCpikagsVaHtBkVKU07Soj46JHSeQwejMyg5eCUNMdKgLjP2UHQBQ+I7vvSurSFZ9hxDSwIOkreLI432+ZlCr5+mZW8ZkEbXj2h3ZBZlhn5HE2w16LXRX1JI2n2KOTCHnDV16E3vE5RcSiS6e4yWDOtCJtpaZOrsRr7RpSriS0IPz6yg0f2H0UyfVbRiwWLaHvG4kczPUdMvm7ZXpliaqPIoTW5nSm9OXUJr1q+hT2fNpJVns0nCFFPisUXUR0+DOk/eTtce1FlcRHePLaFhXUxIW8uUnN18KbqMiMSRtKqXHgn0jMnc0opsO3Ull+Ef0574CiKVMXGFwk60MEcEplNF3Hc0ysaIrPtMoGX7/MnT3oR6fLSfkoqOk7uDC41fvJF8t62kBV8co8xaItGVxdTVcjT9kCXvRywsLP8o2LOJWVhagThyA9Y98MKmacaKl/5liHFj7adIdN+BeTbKnx6ytJKqY3DrsB62IfHY0vcFdtN+dgN+fvcxcEZf8EtKUV5RgeKHl/BzdD8c2fG+wpZFLCwsLM3DZnkWlhYhRWnyGfwU5YiZE/7FE8Gqewg7fQlRYbuwv2I43NiJ4EtE9pr7xX5+SxD/3SLsyTOGuVUXOPXqg35vD0Y/O3O80a+H/OMWFhYWltbBZnoWlhbBhYbVUMz/dBIcm+4m/K9BkhaApdPG4v2VBRi/dByMFG9gaRuSfMSeDEVaRQFizv2G1Lp1g62GD/sPPkHfVG/0tOqCHr37Y+jY6fgq+S0smNJR/rU4CwsLS+tgXxOzsLA0ghGLZV/IKl5gaTtSMZ6VlMm2ceHyoWVg+PzUnbYiFZejXCKEno6A/VXPwsLyQrCTQRYWFhYWFhaW/zDsD0oWFhYWFhYWlv8w7GTw76byD4QG/gjf77dj+/ffw3fHD9j762UkP2myta0SJEg5ugGr/cPwuJVLkGpufoXR76xFmJI98/50RNm4eWIvfvjpEM7czELxvRSkK57+9ZdQhayrP2LZpHFYEyaW/anmJr4a/Q7W/i2GeUlI83Dp+1XYcuoPhSPvXgHaaF/Jo1j8snY6Ri49h1dhK7uX3X9epn4vs66WIkk5ig2r/RHW2kSEGtz8ajTeWRuGl2TKFvF32OjPoCrrKn5cNgnj1oRBnsH+k6jyJ/PwHL5d9S2Cs1oynirQxlzVFkTZN3Fi7w/46dAZ3Mwqxr2UdPzVQyI7Gfy70emCoeO74O7O5fj2dyF69+sGrYSNeKfbACy//Fjx7sbUxOLQtsvg9nRB+xZ4UlKY/3zSyO84EJOnDIH9X/wxhLT4CpaPnoVDpTZ4o6cZis/MQ69eC3CxzQvqXwQuDKx4uHctFrnl8tUS/I4YOHkKhvzVhnmJSPNOw29/Aez7dMYLbGDy59BG+4oZIarSQhGZVdZ042RFJIXIb/WkpHW87P7TKv2a4WXW1TJqEHtoGy5ze8KlZYmogX/46DhwMqYMscdLMmWL+OttBAASFOY/fqntcQ2swLt3DbG55a0+ZebfhHJ/Mnhwwhe/FHdFH5s2LNBtY65qHVIUX1mO0bMOodTmDfQ0K8aZeb3Qa8FF/OVDouLGgyx/A5J02uSqSXbe10hERCTJoM39BKThvFLxzkZI7v5KO08+VL5BriKSLNrjuZwuVCte+CthKG/nMDJ6/yDVb8lbQRHL59KOhy3S4uUjukpedhY0++zfapiXSknID/TznX+PPjJqKX51TzL44BeqVLzUCAll7fGk5X9voLeBlurXEl5mXS1Acpd+3XmSWtaFXxX//MU2IiJJ1h7yXH6BXq7mIrrqZUcWs8++5Hr/aSjxJ/OYgnftpxRR4ztfKZg82jnMiN4/2GCT+ooIWj53Rwv708uDt27dunWKE0SWllCDZwV5KJJoQl+rDb86GkJF+H3fj7htOR1eo2zB5+qg8KofjqdZY43POIApQlJEMmpMapAYEg9xh44w5pfgj6RsPCvJwxOuGWzaaz9/zFtTmIDLIeFIeqoBC2sTaFal4dfFU7DweBGMzDggbQd0bleMO+EpYKwtoS8v2KQcB4C0BOnhIbgcmYrHjdqpQcGtiwiJvIcKcTVEmqYw0pKdz6saQlXiMXy/+xqedR+BoQ7twIMAlmbtQCZWsJKXF+XF4lJIBFKKtdHBxkj1EwNldhGoKi9FSXo4Qi5HIvUxF2Y27aHNBcA8QIj/SdSOXIT3HPgAJHh8JxwpjDUsdfLw+7FTuBobj4SEBNl/d1LwzKA7bA2hvD5FmBxEnjiDq3GZEL/WFRbiOzh38iJuplXC1NEa+lwJniSGI6XGGu2Kb+B8aCY4lnYwUblzsIr7Nerb4bw9HWPapSi0w6AoOQyJ1dYwrbyFi5cTITK1g5mOBIW3QnAhphj6HTvA4Hkoi5AXewkhESko1u4AGyOZFZmiJEQk18CkJhEh8WJ06GgMAVOM1LALuBqXA4mxFczVfibbwL76XEDyBInhKaixbofiG+cRmsmBpZ1J/cbJTBFSroUgPKUctdkXcKKoP3zcXpftpyfKQ+ylEESkFEO7gw2MhJVI+3Uxpiw8jiIjM3BIGw6dTcBvch8AMChKikByjQlqEkMQL+6Aju3KkRyWiGprU1TeuojLiSKY2plBR1KIWyEXEFOsj44dDMAHAMnjRv1H8iQR4Sk1sG5XjBvnQ5HJsYRdnRNV9qFm9GuVXZupS6kNlFGDwluRuKdhDqRfxKXbJdDt0AEGMoGa2syYj5I/kpD9rAR5TxT7QQ0KEy4jJDwJTzUsYG3CIF2Jf/D4DsJTGFhb6svsUlOIhMshCE96Cg0La5hoyvKCtCQd4SGXEZn6GFwzG7SXN1RTcAsXQyJxr0KMapEmTI205CeFK0GJjRb3L8eZM1cRlynGa10tIL5zDicv3kRapSkcrfXBVZZn+Mp9qioOKtN+xeIpC3G8yAhmHIK2Q2eY8FXlKhUo9SGDByH+OFk7Eovec5DFpjIUbaqR20xeUuZrqMz5THEqwi5cRVyOBMZW5uq/lFfTH5SOQapyN5T783nMi0vxrLgAaekK/b7FeVAhV8kEVBqbAIPi1DBcuBqHHIkxrMx1VfuiIVSFxGPfY/e1Z+g+Yigc2vEAgSXM2hFMrKxQN6S2Kk7aiuLskKV5ym7/QB6jR9AHMz3oo4kjacT07+hG0QtM4xWeDDJF58nTToNem3qMmMextG92d9IyGU7zlk2ivpbt6YODyXT4Q2casfE6Jd/wpfesOtO8ixVExFD+2c9omvfPdD0pmvzGWZLt1EDKLsujpAPTydp8Av0Qk0h30yPp548cSdNsNskeiKkoV5uroh0J3f/Zgzx23aaH93+n7z8YRWtuqzy0rDHlUbRxSHvi89rR65PW06m0hsd2Sehh0Cpa8PWvFHr1CK0YYkldZh+nPCWmVWqXgCcqyjOUe/hDch6xka4n3yDf96yo87yLVEFEJAqlBZ3kTwaZxxTz80fkqGkm+3f1afr84510LS6BEhIiae90O9Lp6kUhRbWq61MC82g/jTPsTAvDxUREVHriQ3rNwp3OVcra66ZpTCO8V5HnrFk0vpcxmYzdS9lKdK6TT9X9qtspotsBc6intj4NX7qNVixaQLMGWpKe8wLatcOHPvlkDo11bEd2H1+QPbGVPKSgVQvo619D6eqRFTTEsgvNPp5DhbH7aHZ3LTIZPo+WTepLlu0/oIOZl2nVhFn07cU4ij2zjobb96L5p3KVP61WsC/zOIZ+/qgbaRqPIO9VnjRr1njqZWxCY/dmy8qX3aRN49+jz45FU9zFrfSBnSbpyH/5Sx4G0aoFX9OvoVfpyIohZNllNh3PK6O8pAM03dqcJvwQQ4n3npJI2X05hRS7bzZ11zKh4fOW0aS+lmT67pf045yepK0/nJZuW0GLFsyigZZ65LxgF+3w+YQ+mTOWHNvZ0ccXyuRy1/Ufhh7H/EwfddMk4xHetMpzFs0a34uMTcbS3myGiFHVh9TrxzxthV1JfV3KbaWkJiaPrm/7gGwEXcjNZw6NGzmUnEw1qF3fNXS99HETm7X/4CAlq+oHTD6d/Wwaef98nZKi/WicpS1NDUynnEb+eUz5MT/TR46aZCZ/ssXkn6XPpnnTz9eTKNpvHFnaTqXAbIaY3MP0ofMI2ng9mW74vkdWnefRxQoiyf2fycNjF91+eJ9+//4DGrXmturjE1XaiKFH+8eRYeeFJOs6pXTiw9fIwv0cVSrLM0rzb5naOKjIS6ID063JfMIPFJN4j57WtjzXkVofiih0QSe1TwZV2lRlvlDu63ilOZ+hp5dX0YRZ39LFuFg6s2442feaT6dyVSiisj+oGIPU5W6V/lRhr5wnLc+DimOBGjsS85Qur5pAs769SHGxZ2jdcHvqNf8UqTKBIuVRG2lIez7x2r1Ok9afokZDYivGxBeFnQy2luJztHjSFxT6/FxXhkpufk1uc3+lgrY6SJJOm1yFZDr0U9q2dQ3NHT+Mxs7/gaLkE0xxmDd1MhhOOx8wRIyEmNp4+nb8JPJNriVissl3iC7133KXJBUXaI7DWPr5kaxc+c2dtHD1CcqSEImueVNnSw86L88YoqteZGchnwyqKidS0Q5V06kZNuS6/Arl1xLVZkRQRN3Zvi1B/JAuf/MhvWHCJ46mFQ37PJgeSoio+jea22sY+ezwJ39/f/L1dCGhYCBty1Ju2CZ2UVleTPHfjqdJvslUSwxl+w4h3f5b6K5EYTJICq+NJVl097484V2YR10N36TVkRWyVxKq6lNG9Tlyt7R/nnTF4QvJ3tKdzlUTkegaLbAzojG7s0lCRKIr88jWbAadUpXZ1d2vrh3xDVratR2N2SM7K1iS+Q29pd2TVsbJ3qGUH3UjE8dlFCkmqv5tLvUa5kM7/P3J39+XPF2EJBi4jbIYMYV5dyKD4TtJZvJKClvUlZyXR5GsRQnd3z6YdDt40PnyRlLXo/BaXnRtAdkZjaHd2RIiEtGVebZkNuMUVZOYYle7kOPCMNnSCRLTDR8H0v/gF6qkavptbi8a5rOD/P39yd/Xk1yEAhq4LYtIdI28O1uSx/lqInX3icPIu5MBDd/5gBhiSMIQiW8spa7txtCeQoaIJJT5zVuk3XMlyUxUTkfdTMhxWSSJFfsPiejaAjsyGrObZGpcoXm2ZjTjVDWRqr7ajH6ts6v6ulTaQBmVR2iiQQf68JgsTkQJX1JfbX0au+8RMU1sprofVFyYQw5jfyZZSimnmzsX0uoTWSRp5B+ixq85K+jCHAca+/Mj2aS3/CbtXLiaTmRJqDb+Wxo/yZdkZvSlIbr9actdCVWfmkE2rsvpiiwRUUTEQ1LeDdXZiKj6nDtZ2tdNBsUUvtCeLN3PUbWyPKPSp2rigER0zbszWXqcl03aVOYqZblOnQ+bmwyqtqn6fKHoaxU5vzqMFnV1puVRsjpIcp+2D9alDh7nSWmoqrKdqjFIoirG1PlTjb1akQcb5yrVdqwOW0RdnZdTvQm202DdDuShvLMqRfzwMn3z4RtkwueQptUw+jxYHsetipMXQ9mLLRY1iMIvovqDZRhiWmc6Ltq5LsYMjWu4XKZwc6vgQK/7WMxfuh4/nLyMs7vmoq+RvA0eHzxtC1iZcQEuD1x+T/gc3gKH8M1YvykQt0ulYBgJJH9EIrbMECbyR9q6rl7w3TABtkp2D+ZoaDx/jK2ynFB5O4AmhnzsCe2AMejabSR8IoTo1kFJI8qQSCARWGPYskDEpEZiz0fmuP3NNMz0TQdzPxoJou4YO9sDHh4emLsrEmWVoVhkqyJMFexCKssL0NPnMLY4hGPz+k0IvF0KKcNA6fdlHA1o1BmGZ4vOHfmQ5hzFgrnHYbF6P1b10wHAb3l9zcHhQ4MvhImZKXgAeAZG0K8VyzYnVkZr76+DqwENDR50DfTABcBr1w56XB0YtJMpy9fVhbBWBDExuB+dAFH3sZjt4QEPj7nYFVmGytBFsOUCPD4P2hZWMOMCXErF5dBsGJi2l29QzYPVgLfQ8WkMIjNUWKOhfQFw+BrgC01gZsoDwIOBkT5qxTWQSjJw/kI6zDvZyY9Y40JHR1v2+o+5j+gEEbqPnQ0PDw94zN2FyLJKhC6yra+42ft44PO0YWFlBi644HEBroYGNHi6MNDjAuChXTs9cHUMIDMRH7q6QtSKxCCF/gNwwNfgQ2hiBpkaBjDSr4W4Rgqo6KtQp58kuXV2VVeXWhsogwsuVx+W1obgAhA6TcL7zrXIuvsQ0iY2U9UPJPgjMhZlhibyJSi6cPXyxYYJtko2MudAoy4gJH8gMrYMhiby18W6rvDy3YAJtjzwe/rg8BYHhG9ej02Bt1EqZcBIAM0hH8NTOwBjunbDSJ8ICLt1UNJGMzZqjhbmX7VxoECrcl2rfdgANTZVj6Kvled8SfJlhGYbwLS9vD6eFQa81RFPYyKhLFRV9QeVYxBPRYyp86c6e7U4DyrkKpV2JCRfDkW2gSnqTTAAb3V8ipjIjBaNCRKJBALrYVgWGIPUyD34yPw2vpk2E77pTOvi5AV5+TX+y5FKpODwFVcD8MDnAZKmff7PoSoKG4ZPwzn7eVi9cj4GWcrcyNHUhKD0NqKT6jcUESXFIrGZvRNUlitW3g4gBZy88VtKHPZO1cTFJe9gom/687LqKD72Ew4/khmKZ9obHv5nsW2cBmIjYmSnXuTcQPh9LgQCAQQCAfjF2cguV6xFBSrLVyFqw3BMO2ePeatXYv4gy5YHviQdP8xZjOsu32LvQif517mtr48DoPHnfvSnfP33MtoRCnnIuRGO+1yZDQUCPoqzs9HEDRwtCIUMch88fJ70ONpa0OQbw9SkOYs0hxi1NQweFxQoSahCCHk5uBF+H1y5nwX8YmQ3CZSW3vcnoqKvqtWv1XZVU9eL2oCjBx0tPoxN2yuJcVX9gANNTQFKb0ejPqWIkBSbqH4bF44mNAWluB2dVL8lkigJsYkiVEVtwPBp52A/bzVWzh+EOjNK4QTv31IQt3cqNC8uwTsTfZHONKjzOepshLqeo9B1VPQclT5tBSpzleKNeDEfqrEpWpUvlOd8jpYQQiYXDx4+j1Roa2mCb2wKpaGqwnYqxyCRqhhT588XsJcqVNpRDC2hEEzuA9SbQBtamnwYm5oo6TOKFOPYT4chGxJ5MO3tAf+z2zBOIxYRMdWtjJMXo3lZWRqh+fZA4NRuJDbYekiccRCHn7lgqEHDO1uDFAxDYBilWUwG1XdSSWYITt/mwNLaAChKRlo+A4n4GQo0+2Gk4z34ey3F4eg0JF/bjRWH0qCvAXD4fHDFFaioLcGDByXy+mQ18uxHKi2n/VB5O7k5+Qjd4YcogRMmrj+Bo0s6IeduLiAtxPU923E8VXXKp8qr8N8ajqLnE2cppFIt9HR1Ac9mBEY4pmLrFHf4XUpAWnwwvtkYhFzZTz/lNLCLyvKcTIScvg2OpTUMUITktHwwEjGe5ebIkh9Rg7wv+3/ZP6sQu8kdq++Phf+PM2DLA5isczgTlaamPiVwDWGo9xSZGU/ASPLxe2gSnlVVoKIWAKjpVhMNdGqKmvubaYfqFZOPAA30prrBjwebESPgmLoVU9z9cCkhDfHB32BjUK78Fzhk9QAArysmuPVFSfAhXJI7tCw5FdUj3THRSlVqaWhfANREG1n9fCcMG2qFu4FbEJghAlCNp0UVqK0oRyXPBiNGOCJ16xS4+11CQlo8gr/ZiKBcDYDDB58rRkVFLUpyCP2Gq7hP1lLj8V4eB41NVO+L5yaqu7eBl5qqIatLVV/NLbBQo18r7dpWW6mCylBct6/FsyjEFgyA23sd5INFA5tJVPWrfNiPHAnHe/7wWnoY0WnJuLZ7BQ6l6UOjoX8ePECJVO5vAsCzx8iRjrjn74Wlh6ORlnwNu1ccQpo+B5khp3GbYwmZGdOQz0ggfpaLzDO+8IsSwGniepw4ugSdcu4it+nsQL2NAHANDaH3NBMZTxhI8n9HaNIzVFVUoLaufAvyb25Osco4ADjg87kQV1SgtuQBcvSHK89VytzSjA/ly70US8lQaVONZvIFFPqHSGnO53WdALe+JQg+dEme08uQnFqNke4ToSxUVdlO5dilKncXGqj2p1p7tTQPyv7x/FaVdtRE1wlu6FsSjEOXimS5uSwZqdUj4T7RCtxmx0RC5VV/bA2XlwUAqRRSrZ5wddFUPaYpi5MXRfG9MUtzMFR4eQ2NH/4BffzZKlo+dyINH7uUTmcrX6nSLBWZFH7wU3qrHZcE3T6iXReSqOG3KExxIh1b1If0NDrT5O3X6EEtEYni6LtRNmRk3YcmLNtH/p72ZNLjI9qfVE3VaYfJa5AdGeoZUZdRX1CwfC0fUxRMC5zbk82A+XQoJoFOLOxNOgIn8gyIp6cMKS+nsp0iOu7uQC7jF9NG3220csEXdCyzlkh0hRZ3taTRP2SpWLdDVHTAi0ZOnkDjp3jQ3PnzyGPSuzThsyC6J19vIbp7jJYM60Im2lpk6uxGvtGNVtM+R6ldVJYXUdx3o8jGyJr6TFhG+/w9yd6kB320P4pSgxaQi7aAnDwOUEx+ESWfWEi9dQTk5BlAkeeWkZOmNjlNWU0bN26kjV+vpQUjx9K62xUq6ktSFFOOmO74vku2hpbUc8wSCjjoTS6Oo8nn5ysUdmIR9dERkvOcgxSdkUzBK4eQkUYXmrEnWska1FJKOanuflXthNL108voLQMN6vrRborMyqTQ7yaQrcZrNPrLEEq7H0MH5jiTps6b5H0imUpJRHePLaFhXUxIW8uUnN18KbqMoeLEY7Sojx5pdJ5M2689kC3UlzykMytGU/9hM8ln1QpasHg7RTxfT6sAU9LIvvH3k+jkoj6kI3SmOQejKSM5mFYOMSKNLjNoT3QBUWkc+c/sTR0sHGjItE9phZsLdRk6j3zDsolEd+nYkmHUxUSbtEydyc03WvbxC1NEwQucqb3NAJofmE61yu5jiinx2CLqo6dBnSdvp2sPaonK0+nssrfIQKMrfbQ7krIyQ+m7Cbak8dpo+jIkje7HHKA5zpqk86Y3HYu82aj/3E86SYv66JDQeQ4djM6g5OCVNMRIg7rM2EPRD2JU9KFq9fq1xq5E6utSZgPF8nVUHqXJ7UzpzalLaM36NfTprJm08mw2SZTZTGW/SiKiako77EWD7AxJz6gLjfpCvi64kX9S6UnyCVrYW4cETp4UEP+UmOo0Ouw1iOwM9cioyyj6Qr52ShT3HY2yMSLrPhNo2T5/8rQ3oR4f7aeYX9zJwWU8Ld7oS9tWLqAvjmWq/oBEnY3Ed8j3XVsytOxJY5YE0EFvF3Ic7UO7fwttmmdU5MVdp39VHQcFtVQUvICc29vQgPmBlF6rKlepQIUPy1KDaIGLNgmcPOhAjGwdXBNU2FRlXtr9G4X+qujrSuU5n4gkD8/QitH9adhMH1q1YgEt3h5BKkNVhe1Uj11qYkydP5Xaq5zSz7YwDx6LpJsNc5VskFRhRwk9PLOCRvcfRjN9VtGKBYtpe8RjmS+aHROL6IDXSJo8YTxN8ZhL8+d50KR3J9BnQffk64VbGScvAHs2cVsRP0FG4l2U6tihRzfz+q0wWFhYWP6pVB2DW4f1sA2Jx5a+r9yW5SwsLH8SSh7ksrQIoSkcevdHX3YiyMLC8q9B9vqbfUTAwvLfgp0MsrCwsLAAknzEngxFWkUBYs79htS//DwsFhaWvwv2NTELCwsLCyAV41lJmWybIi4fWgaG6k+SYGFh+dfATgZZWFhYWFhYWP7DsK+JWVhYWFhYWFj+w7CTwVcMyaNY/LJ2OkYuPad+g1Y5oj/OYuemNXAfNRRT1/th+ah3sDaswSaI/zVqbuKr0cpt0Frbtgil7Ynwx9md2LTGHaOGTsV6v+UY/c5aKBGp1fwpOvxZMFkI3roK351/ADU7aDahKusqflw2CePWhEGsePFP5K9tV4JHsb9g7fSRWHqurZ580Tqalq+5+VXTWBX9gbM7N2GN+ygMnboefstH4Z21YWhrOL8UO0seIfaXtZg+cinUqS7OisDhn/zw/fbt+N7vJ/xyJQ3PFG96lXieTypQnBiEb+aNxTTflKYbK1dl4eqPyzBp3BqEtdmIfx5/Wp5qod9V0qR8DW5+NbpJPL/ccbUKWVd/xLJJ47DmBZz1p9lUDjsZfMUQM0JUpYUiMqus6ebCiohvYr3HcZjO3wD/LeMhvngL+mOnYIi9UPHO/w78jhg4WbkNWmVbdUgKkf9YXoOS9sQ318PjuCnmb/DHlvFiXLylj8lThkCJSK3mpenwpyBBYf7j53Ix907A99dSOPa2lh8R1vi6KrgGVuDdu4bY3PIG2zr/+fy17YrBCKuQFhqJrLLmLKKKF62jaXl+x4EKsSrGzfUeOG46Hxv8t2C8+CJu6Y/FlCH2aGs4K7Vzwz7VEsQMhFVpCI3MgjrVhR0HYkLPfOxdvgrnOCPgNswRbT4b4K/geT7RgsC8E6SpoUh+Uq14F8A1gBXvHq7F5qL8zw/WVvOn5akW+l0lTcrz0XHg5Mbx/NLHVS4MrHi4dy0Wuc+d1bJc2JA/zaZy2MngK4aORTf07mrWIsfUJJzB+UIDtNcENJ29cfLmQayc747Bls2dO/kvhmuOgbOU26A1tlUNgwcHVsPvlvxQoibt1SDhzHkUGrSHJjTh7H0SNw+uxCz3wVAiUqt5OTr8OTAPDmC13y35cU1SFGXoYGbgNoxuL5O28XXVaBrZoJOFwV+u41/brg4suvVGV7MXae1F62hanms+sHGs1iTgzPlCGMiSDLxP3sTBlfPhPthS+RnALaCpnRX6VEvQsUC33l3REtU1rDqgPU8f1h3NG5wn/YrSIJ/otu+CjmZC5ecnaxrBppMFDFqg/9/Bn5anWuF3pTQpz4X5wFmN4vnlj6uaMLLpBIsGzmppLmzIn2ZTOX9WvSythSlCytUgHA+ORaFEofuL8hB7/iiOnIrAPfmZhKWJwQgIikF+RSauBhzEqbgiSCHB4zvXEJMneykneZKIazE5YCqzcP1UEK6mN35BIsqLxfmjR3Aq4l79ubOSJ0i8FoMcphJZ108h6Gq60tcqNYW3cP3OE4gLb+Fc0DlEZzd+hM4UpyI06Fccv5SAwgZPxpmiJITF5KAi6zrOhP6BiucXchB57BAOHAxC9CMppEUJCA48gANHb0CmjgRPEq8hJodBZdZ1nAq6CgV15DS2AdB626puqxJpvy7AhKVBiAkNxKFL6RA1aq8UicEBCIrJR0XmVQQcPIW4IikgeYw712LkesioKUzAxeNHcSo8A8/qfuZJS5AedhJHDgfhakpR41er6nRgipEaGoRfj19CQmNjIyksBjkVWbh+JhR/PDd2Y5icSBw7dAAHg6LxSCpFUUIwAg8cwNEbeTIZWhATlWm/YsGEpQiKCUXgoUtIF3HRftRE9ChMQB6jcP1AII4EqvM1wOEoDoEMilNDEfTrcVxKKGzyelGaH4ljB/Zj/4GDOHI9GwyA8tSLCDxwEEHRhQp3q/K7snYbIM5H3IVjOHo6An88d5oKO6vxJVOUgqtBxxEcW4imrlTebxRRV4fSfq2AyvINY7U0EcEBQYjJr0Dm1QAcPBUHWTjfwbUYeWwAAGpQmHARx4+eQnjGM0ib7csN7aysTwHSknSEnTyCw0FXkVLUyHooSrmKoOPBiC2UKJ8oqUCda9XFV03BLZw/dgIh0fFIzCxReCpTg8Jb13HniRiFt84h6Fw0GqfC1tbbOH/V2UmUE4Xgkxcb928Op4n+yn1fg4Jb53HsRAii4xORWaLkuZKq2AaDoqQwxORUIOv6GYTKghsl6WE4eeQwgq6moLF72pCnWiKfWr+LkBd7HkePnEJEw87cCNXlG8ZzS8ZVKMnfzeZQcJ7HX9NcqT5fqLXpS4SdDL4KlEdh8yQPHCq2gp3gBvYcTXu+RoTJPonVyw7ivrYpODHrMOhNd5zIl0LL3BE97IygITBF55690O21Ctza64nBrlPx420xnsTuhefgvpi0ZivWLd6AfQFfw+3tGdiXIwXAIPvkaiw7eB/aphzErBuEN91PIPdRLPZ6DkbfSWuwdd1ibNgXgK/d3saMfTkNEqAU+b9vx1TX/vDctAXen6zC9nXueLvHUKz9vVz2ROjKarj5hKDWtjOEUZ9hYD8vnM6T4EncfswZ1BeTVm3ChuXL4DX1c5wukVfLs4LrYClOLVmBwxkScI17YqDWFXzx6T4kiJ8gdq8nBvedhDVb12Hxhn0I+NoNb8/Yh5yGeUMqv891Kn68LT9gs7W2zX2kti0DJ1d0MxDCqFMP9OrEQXyj9rRg7tgDdkYaEJh2Rs9e3fBaxS3s9RwM16k/QiaSFAXByzF74y3oOnZE7rb/oef0X5AjycORmYOx+GZ7ONvmYccoV3hfqmxWB2nRFax280FIrS06C6Pw2cB+8DqdB8mTOOyfMwh9J63Cpg3LscxrKj5/buzG8KxcMVh6CktWHEaGhAvjngOhdeULfLovAeInLYkJAAZOcO1mAKFRJ/ToZQ/jElm553o3vO7SH8OGqvD183NRGyAtwpXVbvAJqYVtZyGiPhuIfl6nkddAAK6FM2wf7sGiJecAZ9lrab1OfMQcT0H7buYNa1Pu93xlA1ADSsOwavRc/GYyBIPaheAjeyu8+a47vjkd3tTOJ1NU+rI8ajMmeRxCsZUdBDf24Gjac0+q6DdN5VJdh/J+raiaqvJSua+f+0zLHI497GCkIYBp557o1e01VNzaC8/Brpj6423Zub3SAgQvn42Nt3Th2DEX2/7XE9N/Bfqo6stK/NuoT9mbgpt3BDMHL8bN9s6wzduBUa7ekJmvHFGbJ8HjUDGs7AS4seconqv+IqiJLyZrL+avjoaFqwv0o77CioAHDc6Qzcfv26fCtb8nNm3xxiertmOd+9voMXQtZKmwlfUqy18gVCX8hLle67Bt1Yfo22MkNkYp+1WnyvcMsvbOx+poC7i66CPqqxUIeKAQECpi+9vQLMTtn4NBfSdh1aYNWL7MC1M/P4mUIzMxePFNtHe2Rd6OUXD1vgSZe1qfp6RogXzq/M5k4+TqZTh4XxumnBisG/Qm3E/kK0zYVZWXysfJ+nhWP67Wqszf+Zaqc2iTkFfIlabctuX+l47i+XQsfzViil3tQo4Lw0gk//cNHwfS/+AXqqRq+m1uLxrms4P8/f3J39eTXIQCGrgti4iIqs97kGVnb7omK0gkukpedhY0+2w1EYno2gI7Mhqzm7IlsjMS59ma0YxT1UTVv9HcXsPIZ4c/+fv7k6+nCwkFA2lbFkOiawvIzmgM7ZYVoivzbMlsximqbiAxUSUdmWhAHT48RoUMEYkS6Mu+2qQ/dh89qgyjRV2daXmU/GRFyX3aPliXOnicp3ISU5h3JzIYvpMeMESMROEAy+pz5G5pTwvDZWXF4QvJ3tKdzlUTkegaLbAzojG7s2VnlV6ZR7ZmM+hUY8EUbNBG26prS3SNvDtbksd5ecON2iMiqqbzHpbU2fuavE0i0VUvsrOYTWeriajiAs1xGEs/P5LpXn5zJy1cfYKyRPH07fhJ5JtcS8Rkk+8QXeq/5S5JmtEhbFFXcl4eJT/HUkL3tw8m3Q4edL6cSBzmTZ0MhtNOmbGVn1sqp/qcO1naLySZ6cUUvtCeLN3PkUzllsSEiK55dyZLj/PP/95Ib8Xr6nxNIgpd0IksZp+laiKqDltEXZ2XU31IbafBuh3I43y5vCU55RfpE7vXaPIR2bmg1WEryMPvnsKZoGr8rtBuQ57uG0vtXNZTUi0RMXnkN0SHXNYlUi0psXOtCl+KY2m1iyMtDJNHhvgG+Tjo0we/VBJVq+s3DVBbh+p+3aLyTXxGRNXnycOyM3nXJxm66mX33EYVF+aQw9ifSRbO5XRz50JafSKLJK3wr2Kfqo3/lsZP8iWZ+XxpiG5/2nJXQuLY1eTiuJDqRfchB/0PSC66Spi8HTRU05zcZY03QV18VZ+aQTauy+lKfi1RbQZFRNSdRyun8ghNNOhAHx6TnQssSviS+mrr09h9j6iyLfU2yieVdHSyIXX2uiKLAVEKfTekHRmM3UuPGCJR6ALqVOcrlb6vpFMzbMh1+RWSNRVBEfLz6utQF9skDiPvTgY0fOcDYoghCVNL8d+Op0m+yVRLDGX7DiHd/lvorqSteaq6WfnU+b36t7nUa5gP7fD3J39/X/J0EZJg4DZqHPKqyyvGMzU3rqrK3xL1OZREobSgU4OxuWEuVJUv1Ob+lw/7ZPDvRpKB8xfSYd7JDhoAAC50dLRlj7GZ+4hOEKH72Nnw8PCAx9xdiCyrROgiW8VaZHA0oPF8UQwHfA0+hCZmMOUB4BnASL8W4hopmPvRSBB1x9jZHvDw8MDcXZEoqwzFIlsuOHwN8IUmMJMVgoGRPmrFNU0WrHK5XOhbWsOQC0DohEnvO6M26y7uJV5GaLYBTNvL11fwrDDgrY54GhOJDAnA4/OgbWEFMy7A5bUi/Dh8aPCFMDEzhUwdI+jXimUb5Da6r4EN2mrblrYFRZsrh6Oh8XytkuSPSMSWGcJEX6a7rqsXfDdMgK2wJ3wOb4FD+Gas3xSI26VSMIxEvQ6SZFwOzYaBaXv5ehcerAa8hY5PYxApMzZ42hawkhm7za8BWhoTijTUu+1IkHw5FNkGpqgPqQF4q+NTxERmNP6VrDsMiz62w+XvdyNVUoqLJ0sxaLJt47Vt6vyuBoGeLgRP81EgAcDVgEDAh46e3A+KduYr96Uk4zwupJujk53Mk+DqQEdb9tpHkqy+39Shrg51/bol5dEin3GgUd/B8EdkLMoMTSALZ124evliwwQFm7cSfk8fHN7igPDN67Ep8DZKpQwYiQQZ5y8g3bwT6kXXQQPR24j6+OIP+Rie2gEY07UbRvpEQNitg4JuXHC5+rC0NoQsFU7C+861yLp7D4ltqbdJPuFAu52B7MhTYVdMneCC2qxMPFTofKp9r40hH3tCO2AMunYbCZ8IIbp1aKyB2tgGD3yeNiyszMAFFzwuHz19DmOLQzg2r9+EwNulkDIMJG3OU/xm5FPndwb3oxMg6j4Wsz084OExF7siy1AZugj1Ia+uPBTiWQUNfKIyf79YwCvNF2pz/59AW8cHlpeGGLU1DB4XFCh5/CuEkJeDG+H3wRUIIBAIIOAXIztb1bqIFiIUgpdzA+H3ubI6BQLwi7PR9mo50NPRAt/YFGY6QgiZXDx4WKcNB9pamuAbm8KkBdHGAdD4U056gS87/wbbNgNHUxOC0tuITqpfOixKikVicRQ2DJ+Gc/bzsHrlfAyyrDOWGh04WhAKGeQ+ePj8GkdbC5p8Y5i2xNiNkKWYxqZvu+VbQst8zYGWUAgm9wHqQ0obWpp8GJuaKCQwHhw9F2FU7h5sCwjERe5ovN9kpXnb/K43bh2+7X8LXy/zw16/zYiw+BLfzumkfNJTpcKX4lrUMI9RUNDEk+BotbDfqKmjRf1aXflWw4GmpgClt6NRH84iJMUmQtRi/zalKmoDhk87B/t5q7Fy/iDUm68GzOMC2aTlZSDNx624HLXxBTjB+7cUxO2dCs2LS/DORF+kN1rQpQBHDzpafBibmkHnZdYrh8vlQsPMEhZNwlqV76WAkzd+S4nD3qmauLjkHUz0TW9UtFWxjSpEbRiOaefsMW/1SswfZCnvg23NU2hWPnV+Fwp5yLkRjvtceV8W8FGcnd1oray68q1FZf4Woe05VFW+UGfTPwHFkGL5q+E7YdhQK9wN3ILADBGAajwtqkBtRTkqeTYYMcIRqVunwN3vEhLS4hH8zUYE5cp/4jBSkETSYLGp7ID5uvCjJo9uZNd5NiMwwjEVW6e4w+9SAtLig/HNxiDkaigtBOWH1BDKiovlT4eeISq2AAPc3oNNtwlw61uC4EOXUCQFgDIkp1ZjpPtEWMmjTXl9ALiGMNR7isyMJ2Ak+fg9NAnPqipQUQsA1PRJFCkbXBrYoM22VdMWhw8+V4yKilqUPHiAEmljmwMAIyVIJA0yO9HzYZBnPxIjHe/B32spDkenIfnabqw4lAbthyE4fZsDS2sDoCgZafkMJOJnyC2wUKNDV0xw64uS4EO4JDM2ypJTUT3SHRPrjd1AtnLEB36Nb4LSmuwRxzU0hN7TTGQ8YSDJ/x2hSc9QVVEhW+/SopjggM/nQlxRgdqSB3hQIm2kd5PrzwzU+FpWv6wNHrpOcEPfkmAculQk80tZMlKrR8J9olXTBGb8HpbMaocTS/bCYMI70FO8rtbvDdttjPRJAn7X9sDB770wy+s7/LLPG70bVt7AzpJM5b4sNOiDoVZ3EbglEDJXPkVRRS0qyivB69p8vwEAvtMw1XWo69ctKA80jlUZDKQkQeNwrgt4HuxHjoTjPX94LT2M6LRkXNu9AofS9KGhti8r2LlRn8rE7QuncZtjCZn50pDPSCB+VgiDPkNgdTcQWwIzIBO9CBW1FSivBCAtxPU923E8VckObAwDKTGQNBpRJcg+tROXiszUxldN6A74RQngNHE9Thxdgk45d5GrODJTGYrrznF+FoXYggFwe88G3dpUr2I+ITASRlZeWoCQK0V4f95EvMaV+0oed6p9L0LoDj9ECZwwcf0JHF3SCTl3c5/XjpbEtlwmAIAkEyGnb4NjaQ0DFCE5LR+MRIxnhQZtzFM1zcjHh9OwoSr8zoPNiBFwTN2KKe5+uJSQhvjgb7AxKFf+JK258rI76uNZjppxVVX+1tdoJodC7itCk1yYefuC0nyhNvfXS/vyUHxvzPI3UBpH/jN7UwcLBxoy7VNa4eZCXYbOI9+wbCLRXTq2ZBh1MdEmLVNncvONpjIiqsy8TN9P6UIaGo700a7TFJtTRMknFlJvHQE5eQZQxI0TtKiPDgmd59DB6AxKDl5JQ4w0qMuMPRRdwJDo7jFaMqwLmWhrkamzG/lGlxGVptDJRX1IR+hMcw5GU0ZyMK0cYkQaXWbQnuiCBgJX0tHJ7cj0zam0ZM16WvPpLJq58qxsbSIRSR6eoRWj+9OwmT60asUCWrw9gh4zDBUnHqNFffRIo/Nk2n7tgWxNSiPEdMf3XbI1tKSeY5ZQwEFvcnEcTT4/X6GwE4uoj46QnOccpOiMZApeOYSMNLrQjD3RVFC3PoQpaWSD+KdMG2xbSikn1bRVW0TBC5ypvc0Amn8ohhIatVdOmZe/pyldNEjD8SPadTqWcoqS6cTC3qQjcCLPgHh6yhBVpx0mr0F2ZKhnRF1GfUHBDyVEojj6bpQNGVn3oQnL9pG/pz2Z9PiI9idVq9dB8pDOrBhN/YfNJJ9VK2jB4u0U8ZghpjiRji3qQ3oanWny9mv0oJaIamNpjYsRGVmMox/yFFYQiu+Q77u2ZGjZk8YsCaCD3i7kONqHfr4S1sKYYKgoeAE5t7ehAfMDKfWJot6Nr6fXqvJ1FN1NDqIFLtokcPKgAzGFxJCEHp5ZQaP7D6OZPqtoxYLFtD1Cti5QGUzuDzR28AZKbBpgMpT6nagsVbHdesSRq6iXnoD0jM3J0sqWOnV1oeEf76FbOUrsrMaXpXH+NLN3B7JwGELTPl1Bbi5daOg8XwrLlqjoNw2EkKOuDqX9uoXlQ5PuNPZZeSZd/n4KddHQIMePdtHp2BwqSj5BC3vrkMDJkwLinxJD1ZR22IsG2RmSnlEXGvVFMMmWfLXCv0yDPhWYThVx39EoGyOy7jOBlu3zJ097E+rx0X5Kqi6lOP+Z1LuDBTkMmUafrnAjly5DaZ5vGGVXXqHFXS1p9A9Zjdb0ibJu0C9fDCUTLpdMer1HM2bNolmzZpDb6F70muVMOlVORGriq/K4Ozm4jKfFG31p28oF9MWxzMZ5q/IoTW5nSm9OXUJr1q+hT2fNpJVnZWuNW11vk/xVQw8vbKApQ4bSRK8vaN2KT2ndsTTZerGyVApa4ELaAifyOBBDhQyp8H0lHXd3IJfxi2mj7zZaueALOpbZuGOoiu34smJKPLaI+uhpUOfJ2+maLLgp7rtRZGNkTX0mLKN9/p5kb9KDPtqf1KY81RL5iNT4XSKiu8eW0LAuJqStZUrObr7UNORVlQ+lpDuN47m8mXE1/imjPH+TmhwadZdSgxaQi7aAnDwOUExhbeNcWKE6X6i16UuGPZuYpQ1U4ZhbB6y3DUH8lr4QKF5meYURI3LDOjzw2oRpxorX/h2Ib6zFp4nu2DHPpumTwzby7IYf/O4PxIy+fJSUlqOiohgPL/2M6H5HsON9TcXbWf4rVB2DW4f1sA2Jx5a+/8xMyMY2C9jXxCxthUjZq0KWVxppKZLP/IQox5mY8K+bCFbhXthpXIoKw679FRju9vImgpDE47tFe5BnbA6rLk7o1acf3h7cD3bmb6BfjwbvYFn+g8heq/9jUyEb2yxyXlq+ZPmvIEF+7EmEplWgIOYcfkutWzfI8srD1YDV0Pn4dJJjm48Se2WRpCFg6TSMfX8lCsYvxTgjxRteAL49PvikL1K9e8KqSw/07j8UY6d/heS3FmBKR+XL7Fn+A0jyEXsyFGkVBYg59xtS69YN/pNgY5tFDvuamKWVSCF+VoKyGikALvhaBjDUbebTfBaWvwJGDDGEEP5pY5gU4vJySIR60BGwv6P/80jFeFZSJttyisuHloEh/rmpkI3t/zrsZJCFhYWFhYWF5T8M+xOAhYWFhYWFheU/DPtkkOWFkDyKxVF/XwRUTsHpb9+V7ZTP8hdTiT9CTyE06SmqpQRwOOByNaBjbIseA4egt5W2YoEm1ERtwvjVFVh65msMaf72plT+gatBV5BUXANNh7HwHNWp6UkWzENc3XcKSVVCGHcbjBnDHRXvaIrkEWKP+sM3oBJTTn+LdzVrcPOr97G29jOcXj8YbRG1VUgLcCeJ4NTDovEmvFVZuHrIHz9e0ILX8Q0Y/K9bhMnCwvJfgn0yyPJCiBkhqtJCEZlVxn5I8rehgy5DP0DXe/5Yvi0er70/Ex9NGYXuuAaffo4Ysy2u2U1K+bYD4TZlKDq3dVKj0wX/e88ayduWYsGcL3GuVPEGoDLsG3w8bym2xltgXEsmggAgZiCsSkNoZBbKpADAR8eBkzFliP1f8hFMTawfPprpi9j6AwdkcA1gxbuHa7G5KH++IW8h8h+zvYCFheWfBzsZZHkhdCy6oXdXMzaQ/naEsLZuD56gHcxfM0K79nbo9+EWHPzUBlfXrcWRQvWTFK75W5jp8T9YvcjHF7p26NT7ddhXnMSOQ/cb7OAvOyEiKCAB2q/xYWRhAZ2G19ShY4Fuvbui/lQ5LswHzoL7YEsVx2W9TJ7h4t7juJv2C3ZffNb4kqYRbDpZwOC5XAweHFgNv1uKs0YWFhaWVx92DH9lKMf9G2dx9PhFJBbkIT7hIWpyInHs0AEcDIrGI6kURQnBCDxwAEdv5NUPtKI8xJ4/iiOnInBPxfGqNYW3cP3OE4gLb+Fc0DlEZ1cBYJATeQyHDhxEUPQjSKVFSAgOxIEDR3Ejr34YF+XF4vzRIzgVca/ReY9gipByNQjHg2NRKFE4OluZTJInSLwWgxymElnXTyHoajoUhtd6pCVIDzuJI4eDcDWl6LmuyvVQXwZMEZLCYpBTkYXrZ0LxR4Xszyr1qilEwsXjOHoqHBnPGkyglOkEBkVJYYjJqUDW9TMIrau8ATUFt3D+2AmERMcjMbOk/ukpU4zU0CD8evwSEgrF9QXU2UlagqTLoUhv2owcxSPMOdDS1gRHXI5nVfLHV2rslHwtGjl1f1B1XzNwjcdgvpspfv/BH1EN1Urdj4uGUzDSSFFGEfJiz+PokVOIaBTADIpSriLoeDBiCyWNNJM8voNrMfV9QFqSjrCTR3A46CpSippKKs2PxLED+7H/wEEcuZ4NBkB56kUEHjiIoOhCxdufI805hiBahHX/q8Cp3ceRrzif5nDkclUi7dcFmLA0CDGhgTh0KR2iFsjFwsLC8qrATgZfBcqj8O10D/z0hzYs2z3EtuEOGLopGhIrVwyWnsKSFYeRIeHCuOdAaF35Ap/uS0AtACb7JFYvO4j72qbgxKzDoDfdcaLRiCVF/u/bMdW1Pzw3bYH3J6uwfZ073u4xFGt/r4KV62BITy3BisMZkHCN0XOgFq588Sn2JdQCYJB9cjWWHbwPbVMOYtYNwpvuJ2QDYnkUNk/ywKFiK9gJbmDP0bTnB2krk+lYUjT2eg5G30lrsHXdYmzYF4Cv3d7GjH05TV8tS/NwZOZgLL7ZHs62edgxyhXel8rV6FGuokwlpE/isH/OIPSdtAqbNizHMq+p+Pz0U5V6SQuCsXz2RtzSdUTH3G34X8/p+CVHqlSnE7mPELd/Dgb1nYRVmzZg+TIvTP38NEoaqMJk7cX81dGwcHWBftRXWBHwAFIA0qIrWO3mg5BaW3QWRuGzgf3gdToPkiexau0kfXQUS9//AF+cUfIOtg5JFZ6VlqPi2WP8EeaPxdtjYT19IabY8lTbqTgehz4Zgt6Td+FWrSofNPeiWQ5HE/0XzIFLdgD8Tj6R+7cC1/Ym4w0P18ZrSplsnFy9DAfva8OUE4N1g96E+4l8SFGOqM2T4HGoGFZ2AtzYcxRpEgCQ4knsXngOdsXUH29DJuoRzBy8GDfbO8M2bwdGuXpDUVSuhTNsH+7BoiXnAGdr8ADodeIj5ngK2nczb3zzcyRIPngFph96wNPzXWiG/owD6aondAZOruhmIIRRpx7oZW8KbgvkYmFhYXlVYCeDfzs1uPnVXJx2XI+Ns4dhwPDZmPeujfyJAxf6pibQfv5YRAumxrryayKEbvoKUUJ9FKdnoOS1TjB/+At2HM2urxpcWAz4BJN6a6GK3xdfngrB1bjLWOOQhO+/OYHH0IepiXb9UxctUxjryv8lCsWmr6Ig1C9GekYJXutkjoe/7MDRbBHiti7AIasl2DCpD1xGLITPeBv5KzvlMu26Yobps4bCgvh4/eMfsX//EWydrIuYsFto8lJN+gT5VQ4YPc4V3V3HY2jnQty58whm6vSQKCtTADJ9Ex9+NBQWtUB3r18RlZ2P4xPjVehVjktrlyFt6CrMHuCEPrM/x+fjOkOTqVaq047j1Xjzw48wVFY5fo3KRv7x6TBsoErtnXBcSclGsYYV3vLahM+HGYMDEa5/6Y2znefCe4QL3hy3Cj/NN8Ah77X4Tau3WjtxX5uDI2lJ2D+1XYNWGkNlSTjp9y22bPoKX23+AWGVThjW30b2oYVS2xaAjHphyswhsKrLBiruUz0VagzfwR1eo6Q4t3MfMhhAmn8cv1a+i5ldGn9SIgrdhK+ihNAvTkdGyWvoZP4Qv+w4isyYrVhwyApLNkxCH5cRWOgzHjY8AODCtPd0zBxa/zGH9Ek+qhxGY5xrd7iOH4rOhXdwp0BRUl308VmLaUY3cDpENkEVRV1F1ci56K+ncGsdldewL7EHPhqgDcMxnphkGY8Du29ApHgfAEAHFvY2MBTw0M76dbxuZwxui+RiYWFheTVgJ4N/N5J0XLqaD2uHjvIBjgsen9/khV8TmPuIThCh+9jZ8PDwgMfcXYgsq0ToIlvFO8HlcqFvaQ1DLgChEya974zarLt42OSxXD3M/WgkiLpj7GwPeHh4YO6uSJRVhmJRh7s4fyEd5p3sIDusiAsdHfmEUo1MHL4G+EITmJnyAPBgYKSPWnFN0yeD/J7wObwFDuGbsX5TIG6XSsEwsueOKvXgqi4DHh88bQtYmXEBLg+kUq9MRMaWwdBEX9YpdF3h5bsBE6weqtQJ4IHP04aFlRm44IKn0Js0h3wMT+0AjOnaDSN9IiDs1gE8STIuh2bDwLS93N88WA14Cx2fxiAyQ9KMnXgwsrZqsE6tKRyjvpi9Zj2+3OyHQxfjEfG5Do7MHYu5Rx9Dqsa24AvAqws6dfe1BG57TFg4HR3idmNn2DMk778C0xnj0b6R3AzuRydA1H0sZnt4wMNjLnZFlqEy1AvikAtIN+8EO/lpWFwdnQY/iDjQ0KifVPJ7+uDwFgeEb16PTYG3USploFRU3WFY9LEdLn+/G6mSUlw8WYpBk21VrDuU4lHQT7j8JAuBq1ZgxboLKDLQwv1ff8K5ho9+1dBiuVhYWFheAdQMKyx/DWLUiKtQmF/3Sk0R2SjYaP8fIgBCCHk5uBF+H1yBAAKBAAJ+MbKzVSwcfA4Hejpa4BubygZnDhRrl1cvBC/nBsLvc2V1CwTgF2cju1yM2hoGjwsKnr8arqetMjWgKgobhk/DOft5WL1yPgZZqgrRBnqIWlpGjV4VmtAUlOJ2dFL900pREmIT0WadpHCC928piNs7FZoXl+Cdib5Il2pBKGSQ++Dhc/txtLWgyTeGqYkauduEAJ0njIMLtwi3otIhaaltW3qfGjTfmodPXB/jyOZF+CatN9z7N910SCjkIedGOO5z5XYV8FGcnY3i2howjwtQ0DTAmlAVtQHDp52D/bzVWDl/EFSLyoOj5yKMyt2DbQGBuMgdjffrv0ppDPMHAi6Y45uze7Bl82Zs3vwNAoI24n/V57D7yEMV/bQxLZeLhYWF5e+HTVF/N3xHvO1qhEi/pdgT8wjlj2Lx+52i5wMO19AQek8zkfGEgST/d4QmPUNVRQVqeTYYMcIRqVunwN3vEhLS4hH8zUYE5So7XJxQVlx3hvAzRMUWYIDbe+jA5cLQUA9PMzPwhJEg//dQJD2rQkVFLXg2IzDCMRVbp7jD71IC0uKD8c3GIORqOWHYUCvcDdyCwAwRgGo8LapAbUU5KtXJRE2HUGVbXEoyQ3D6NgeW1gZAUTLS8hlIxM+Qm1OsUg/z++rKyGa3dS2p1EvTHiNHOuKevxeWHo5GWvI17F5xCGmGnVTrJKtc5SH1otAd8IsSwGniepw4ugSdcu4il7pigltflAQfwqUimSZlyamoHumOiVZc9XaqyUDQN9/j4vOvPBojkSjOnhjkXQlFCplj4NDXwVVr23rU+aA8PhBffxOEtAbf7jyHGEhqJbJJLq8LZi0YC0HYRUjHzUAXHgBIwEgJjISBFDzYjBgBx9StmOLuh0sJaYgP/gYbgwrRY9hQWN0NxJbADIgAVD8tQkVtBcrla+6ISP77RYLMkNO4zbGETNQ05DMSiJ/lIkfZObHG72HJrHY4sWQvDCa8A5VviMN/wk0HD4xocAPXZio8x2gi4qfdeP7BMF9BbTYAAOsxSURBVBGoLrY4fPC5YlRU1KLkQSZuX1AllwSF1/dg+/FUFa+cWVhYWP4GiOVvh3kUShvGOpCRjhF1n/Qt/bzodTKafJQqiYjEd8j3XVsytOxJY5YE0EFvF3Ic7UM/RxUQie7SsSXDqIuJNmmZOpObbzSVKVZOlXR0cjsyfXMqLVmzntZ8OotmrjxL2RLZVfEdX3rX1pAse46hJQEHydvFkUb7/ExRBQyJ7h6jJcO6kIm2Fpk6u5FvtLz20jjyn9mbOlg40JBpn9IKNxfqMnQe+YZlK5epNIVOLupDOkJnmnMwmjKSg2nlECPS6DKD9kQXNJKWRHH03SgbMrLuQxOW7SN/T3sy6fER7U8qUq2HijJ7f4+lY4v6kJ5GZ5q8/Ro9qJU3oUqv6jQ67DWI7Az1yKjLKPoi+CFJZAWa6sQUU+KxRdRHT4M6T95O1+oqb0DlcXdycBlPizf60raVC+iLY5lUS0QkeUhnVoym/sNmks+qFbRg8XaKeMwQNWMnJv8AjX/NhjzOliu0VEGZ1/bRQlcD4ul2pZGzvchn+TJaMGMEvdlrKH28O04WFyrstD+pmsQ3llJXsxl0qlrdfeUUu8aFjIwsaNwPeQoiZNK1vd7katGHvPaF0t1yIhLdpJUTP6dIERGVZ1Dofm/qo8slrV4f0+4r6UQkorvHltCwLiakrWVKzm6+JHNFKcX5z6TeHSzIYcg0+nSFG7l0GUrzfEMp6c4JWthbhwROnhQQ/5Sq4r6jUTZGZN1nAi3b50+e9ibU46P9lFTdWLw6mNwfaOzgDZTY1F1ExNCjmz/SR07tyGnWDxSWJX5+RZx1lTa+a0k8rh718viBfv8jmYIWuJC2wIk8DsRQYW0RBS9wpvY2A2h+YDpVqJRLRFcWdyXL0T9QlrwPsrCwsPzdsCeQvHJIELfKBSPurkTO0ckv4YSFKhxz64D1tiGI39IXAsXL/xj+LXq8mtRELkPPD8uwPf0njGhmN2dx5Aase+CFTdOMFS+98ohvrMWnie7YMc+GfS3CwsLCIofNh68iRKh/sfniECl/JftP49+ix6tExYNkZJZKQWIxBM594KxslcFzpChNPoOfohwxc8I/aSJYhXthp3EpKgy79ldguBs7EWRhYWFpCJsTXzEq7oXjfFQuKlJDcSr+keLlViJBfuxJhKZVoCDmHH5LrVtv90/j36LHq8YzXNkwCm/2eQ9LTmpj4dfT8ZrajMCFhtVQzP90EhybeXr4SiFJQ8DSaRj7/koUjF+KcUaKN7CwsLD8t2FfE79iMFWlKK2shRQAV1MfxnovMupKIX5WgrIaKQAu+FoGMNRtvNfbP4N/ix6vIgxEFWJo6Gqr2GblXwIjhhhCCP/VSrKwsLC0DXYyyMLCwsLCwsLyH0btSyEWFhYWFhYWFpZ/N+xkkIWFhYWFhYXlP8y/dzJY+QdCA3+E7/fbsX37dnz/vR92/bQfR4KvI71IcXPellKFrKs/YtmkcVgTJla8+EoiLU5E0DfzMHaaL1LaqrZKqpAV+hM+mzQan19uoT2kxUgM+gbzxk6DbysFkqQcxYbV/gh7/F/6fESCR7G/YO30kVh67kW3KX4J8Sv6A2d3bsIa91EYOvVrXClouS+qskLx02eTMPrzy2hj6y+Vqqyr+HHZJIxbE/ZKyPMq0tRGNbj51Wi8szYMyvYd/9OpysLVH5dh0rg1aGsI/1dode6vuYmvRr+DtWF/i2dlvIh/X6Qsy794MqjTBUM/6Ip7/svxTQTQ462BcHVqj+qY7/GBYyf8b0UwspUf5KAGLgyseLh3LRa55f+MpZZcgTk6SVMRmvwE1YoXXwIG1hq4FxaLnIoW2oMrgHknKVJDk/GkVQLVIPbQNlzm9oRL40Nu/+WIwQirkBYaiayylk+8lPOi8SvGzfUeOG46Hxv8t2C8+DyCossUb1KNgTU07oUhNqfiJW6c1Ha4Blbg3buG2NzyV0KeV5GmNuKj48DJmDLEHi/yaVub4RrAincP12Jz0aYQbiuSQuT/w36EtiT3Swrz8VwtfkcMnDwFQ+z/Fs/KeBH/vkhZln/xZBAAhNawbs+DtlUv9O/dEy5vjYH7l8dx/Zf38djvQ0zZcqf+HNoWoQkjm06wMPgHmU23Pbp0NINQdsTxS0YbRtb2sDZqTeW6aN+lI8xaKxCTjWzrFfhlbX+Vx4j9O9GBRbfe6KrqHN1W8YLxW5OAM+cLYdBeE9B0hvfJSPzwfjvFu1SibWQNe2sj+Wnbfz+aRjboZGHwL0+CL0ZTG3FhPnAW3Adb/j1fn2sawaaTBdoawm2DwYMDq+H3/BzCfwjN5X7mAQ6s9qs/XpFrjoGz3DHY8m/xrIwX8e+LlGUBb926desU//h3UZF2Fj/s2IuzMU9g4NgdFtqqoriFUAkiD/oj7rXp8BplC9lmJBxod+oLo8QfsPN4Ed6Y+z66CgBAhLzYSwiJSEGxdgfYGKn4dcQ8QIj/SdSOXIT3HPgApChJD0fI5UikPubCzKY9tLkAUIOCWxcREnkPFf9n77yjorq6Nv5MY+gdUbooAkpQP2KJMbZXY4tJjAU1sQEmsSAaYvS1BU2iMRoNakje2HtEsCtioalIU5CqEUWpNnqbYebO/v6YQWGYO4AlUTO/tbJWxrn33L33efY+h7nn3iOuhUjbAqY6Kvypu4+rsbchaAvcOBOOa6X6sLExggAAmGKkxaSjzrwOqWFJuJt/FTExScgWt4OLlRjXTx7GmStZqLZwhZ2hPANEBYkID4tBRokubOxNIQQgyQzBhotmmDzVCbnhF5BeawLbtvqKeDyn/Uwezv4WjOrBfnhfJxHhkbfBs3WAqWKLEFnpDUSHnUNs5kNwLe3RRpcLSDIRsuEizCZPhVNuOC6k18LEti3kb4thUJwWg/Q6c9SlhiFZbIP2ZnyU/pWG3PJSFDxqaCMLlXdwOfws4nNkMNUpxO1SM0gyQ3HsgvrYQVSAxPAwxGSUQNfGHmwSAABxYRLOhl1ERrEW2tmaQZvDIC82RP01ZKW4ER2Gc7GZeMi1hH0bXfkg26ifkyG2aQ8zLYApzkBkWDQyKiXIPR2C4j7+8HxLwNoOU5yGmPQ6mNelIixZDJv2Zk13ammxfpUoS8WJPw8i9EgSys3MwJTLYOtsBV0Oe97U3U/BubBopD0WwMrOXB6js78huHow/N7XQWJ4JG7zbOHwVCwq/WJDldalj1IRnVEHO+MSXD4VgWyONRzNtZVPVcDgblgQDkuGwe8jZ/DZ9KqGyjuXEX42HjkyU+gU3kapmQSZocdwISkb4nYusBJfx8nDZ3AlqxoWrnaQS409Zo1hy8GWnq8ql7RYdM6mg6Yxkj68jugMBnbWeii4FIwjFxKRnJKClJQUpKRcR0a5EdwdTFoUS1lhLA6FnkdCSipuVJqis70RqjPP4NCpy7glbovONvrKp4C5G4agwxIM8/sIcgm3VDdSPEqNRkadHYxLLuNURDY41o54Kg8GJZlROH0hCXlSM0WNrEbWn/MwYe4hFJtagkO6cO5oDm4LfGvIy9UJAKYEmVGncSEpD1IzW7RVvHqLtfZXZ+HPeRMw91AxTC05IF1ndDQHHl6PRgZjB2s14wmkj5AanYE6O2OUXD6FiGwOrB3N8SSMKvWlGlXtN+lfFbBp6+m5H0A3QX09ZorTEZVaCzuLalw9cw6pIgs4WupBev8qwk4noMSwPWyM+M+oGxbUjfdg70e2MeJFol7BfyPipO/x/jujMe+7tVi96DO813cuwkqUj3pRGKPfe+7gPk5CXGYdwOTi8LIF2HVHFxacBAT0fxteIYUteLGxDAUHpmDAvCto4+6Agk3D0ds3HNVgkLNtFpbFW6G3hyHivl+EPXebtiYrvIQNE3ujj89qrPH9Aks3BMDrva4Y9O0llD9Kwo4Z/dFr3FKsXrkQC2Z/ho2F3SA7Mh+L9t+ElGuGbv10cH7xV9ieIgHAIPfwMizYdQe6FhwkBPTH214hKFRclmpS8L8vZyNg/VJ82qsrhq2KQ9Vz2v8UBg8vbsSKDQdw6KcJ6DtlNwplgKzgAKYMmIcrbdzhULAJw3v7IrxacQrVIOV/X2J2wHos/bQXug5bhbiKR0jaMQP9e43D0tUrsXDBbEz872FkqLRRNZVx6/CZ9//wl641jO+txxDnQVgdL4Vt7wFqYgcwuYexbMEu3NG1ACchAP3f9kJIffCUKItaihFfnoX5wP4wDpsKJ9u38YHXBtzuouYasgIcmDIA8660gbtDATYN7w3f8GrImvTzRPz3aCkq437EOO/dKLF1hNblLTiYpVj0o7KdSjxK2oEZ/Xth3NLVWLlwAWZP/C+Olipbrgxb/6tApy1cuzrCVKAFi47d0L2zNXSILW9kKDqxENNXXYW+a3vkr/8Pun22D3mKcDIPL2Ljig04cOgnTOg7BbvlYlHhl0pLWLQejLT4bfAZ0Avjlq9FwLyV2L7nB3i+Nxnb6y/cDGr12oRKxK37DN7/+wu61sa4t34InAetRrzUFr0HyHBk/iLsvykF16wb+umcx+KvtkOepmwxU4YlB1t6vkxVLh3FY5U6l7ZQBzI8StwGnwG9MfH3a5BAgmunI1Hd3h3/93//BxeKwPe+axAnMmpxLLlW7nC4twV+808C7nbgATDowEfCoQy06dxW+fCmtFQ3skdI3OaDAb3GYfnaAMxbuR17fvDEe5O3y3UpK8b5ZZ7wD5PAoaMQcd/0wzuzj6JABhi59UZnIyFMO3RFdycLcFvom5yXrRNAVnweyzz9ESZxQEdhHL7p9w5mHy14cqzq2m8Et96dYSQ0RYeu3eFkViqPT++J+P0a+3iS/yAR23wGoNe45VgbMA8rt+/BD57vYfL2PMhaVUdVt6/yUCVapi2empovRknyXswc3Aujl2/GxoC12B26ETP6Dsa8oM1YHLAFx/cuxvABcxFW/uy6UUbdeF+pph+lLGPEi+YVmQyKcXnHNiSUP5EvRDd3Y2tYpdJxLwouDA30wYUINbWAKGI1vo8TwrDkBm6WtkOHtvewb9NB5Kro0MbI8KiwBs4jPkTvLr0xelBH3L9+HUWMBNejzyMjtwQC23cxe/V/Mdis6a9qXKu++GJcD+jU8NHruyMIu5CEc8udkfbLTzhM/4dPpw6ClQToMvtPxOUW4tAUO1iY6z69zaZjATN9xSdRBFZ/HwehYQlu3CxFuw5tcW/fJhx84oQDJvx+HGcik3FxdRek/LQKwQ+lz2X/UxgI3aZjTeAmbFk9DvrxUbhWB8geFaLGeQQ+7N0FvUcPQsf713G96OlCTYcJv+P4mUgkX1yNLik/YVUI4f8+nYpBcqfxZ1wuCg9NgkSljY0MkFN3Bd9/eRSuK1Zh+uC+GDJ9Jj6wV9jNNWSPHUSIWP094oSGKLlxE6XtOqDtvX3YdDC3/ugGFOPI+l9R/vaH+D+LtujnOwlu5UCP+fMwwEjNNWSPUFjjjBEf9kaX3qMxqON9XL9eBLJ4u2k/j7+NtXN2w3b+Sozr6YGhc/0x2l5x60ZlOw9g+vanmDrIChJ0wew/45BbeAifmdQbwgabfpWPAyBsg45udjDmacHE4S24O7cDly1vKsPx7YIsDFo6HX3demL6f/+LDztqg1Gs42GEbpi+JhCbtqzGOP14RMnFosKvIqgyRbXWf8V5y0mYNsgKxH8Ln/++AzsOrMV4/QREtfD2XnN6bUjdle/x5VFXrFg1HYP7DsH0mR/gqdQsYN7groaOhRmepilLzJrUGtU52OLzuRZ4u0kujUWySp3fbaEOuLDo8RmmDLJS3CIWoKvXInwxwANv2RRiz9pTMP1qO9YMM21FLPXR0/9bTDK9jKNhjyADIIq7gJphX6JPS9aDtFQ3XAv0+GwaBlkR+G99jt937MCBteOhnxCFq3WA6OJ38D3eEV/6DoXH2x9i6f9mwWi3L749Q7BysoeJFg/Gdm/hLUczcFvs29+hExEufueL4x2/hO9QD7z94VL8b5YRdvt+izNV9ceoqP3VbeFkbwItnjHs3noLjhbt0OOzKRhkpagzKnNsEw7VeuCzaYNgRXy89fnv2LHjANaO10dC1FXUtaaOsrT/dLxip8XaYq35XJh2H49pg+3A1XLGpB9+waat2+Hnno1Lhe/gh99/xx/7AzC04iIiM42eUTdPgv8EdeN9yMMa1n48q6NijGi+uLeaV2QyyAFfwFdaS8QDn69uAvI8MMjNLwLDtUF7Bw7uxKdA1GUUpnt7w9v7S/waW4HqCD84NBsdPrr578ca52j8uGI19l4rg4xhIIU2Bn7uA909I+HSeRj8Y4TobMOyDoPLBdfQGnYmXABCuI37GO6SHNy6JwN4fPB0rWBryQW4PLWdxdyJR4qoC0ZN94a3tze+/DUWFdUR8FM4wdE1hpE2AAjhMnEMPCQ5yL7HfX77AQBaMDKRryvi6RtCV1SDWhnA7+aP/WucEf3jCqzeew1lMgZM/VNtHF0Yyw2C0GUixnhIkJN9DzLwwOfpwsrWElxwweOyxbgp0hvhuFBoB+f2Clu5LdQQcwfxKSJ0GTUd3t7e8P7yV8RWVCPCz0H5SABaMNDXwuPCIkgBcAVa0OLrwaC5JQ38bvDfvwbO0T9ixeq9uFYmA1MfDKV+lt08hdM32qKDo+LmAVcPevXtq2mHx+dB18oW8mbUqaWelse2KQxr3thkxyKxwgTmiltN+r1nI3DlGDgoukXLyES+roenD0NdEWrkYmH1Sxl2rfPAF/AhNLeEBQ8AzwimhhKI65ofYIBm9NoIKW6EX0ChnTOeSo2P5qXGHrOmtUZVDqIV50NeQxvmErHpvGMrdMCBQFB/E4wHh47twZfl4eCcL3HIahl2LH0Heq2KJQD9wfD73BHnfvkDmdIynDlchv7jHVq2JrEVugGHDwFfCHNLC8jlYQpDiRh1MinSz0Ug18gCbRQX5dn2xbvtHyMh9maTOLTct79BJ9J0nIvIhZFFG0W8eLDt+y7aP05A7E25Uaprv4qc4AhQ37XsOcYFhy8AX2gOS3mSwcjUEBJxHWStqKPq2m+OlsdfHVwIBALw9I1gwAXAM4axARd6RsbyW7x8fegLJRCJ6YXpBlAz3t9OVd+PrZgLPCsvo81nQAt9Pp+HIW0F8gkhhwvjHnPhO7LpepEXgjQDocfSoPPeGHxow4VQyEPe5Wjc4WpBS0sLWlp8lOTmovnfJWsQt3IIJp10wsxlSzCrv7UioDLAzRdnM5KwbaI2zsx/H2MDbyifrBKOgR50+GawYHtilgNA6dlHIgBCIXh5lxF9h6vwQQv8klzkqnKCywVXYAlrK9ELtx/ggAMCAaiJW4khk07CaeYyLJnVH9YsLgFccLkCWFpbqRAkW4xVIK6DuOY+Ch+pKHRQEzsIIeTl4XL0HXAVsdPilyBXZfAM8GHAOvS5+gMWbNyGjT/GwOq7dZjRQVEN2K5RE4eVQybhpNNMLFsyC/3ZgwGIJahjHqKoSEU5aU07zdKK2KqALW+qtLWhVXYN8WlPf5ETpSUiVcWbcTicZ4hPa7TeClquV0BcJ0bN/UK0XGrynGCLWVPTVedgy89XBZvOHzyHDqS48dsMzLvogXXb5sJNsY6pNbEEeHD18cPw/C1Yv2cvznBH4OOWPjDVGt2wwoGOUAgm/y7u1accRxc62nyYWZg3iUVrfHvpOuHoQChkkH/33pPJB0dXB9p8M1iYqzDsSe1X8V1DninH2PSl4qRnal9Oa+KvIsCKmv8iaJ1uVPFkvLfUa10/vgT+nqu0AH7n2Th+NRr7N63DLzvO4WrkCvR97rmgFIzyr8fMfYT/1wfr8wfgh1++gCOPB/uhQ+GauRYTvDYiPCULySd+wqrQ/KeLOhtBICK5oKTZCDt6DRxrOxihGOlZhWCkYpTnZyNi00bEablh7IoQHJzfAXm38pUbegJVlKBEUSzK4xJR1NcTH9kouobkxUEOFyYmBnicfROPGCkKL0UgrbwGVVUS8OyHYqhrJtZO8MLG8BRkJZ/AT6tCka9wghgpGBkAyFAUdh7FH8/EWIs7L8B+kpevhglGBIIU2WFHcY1jDTsjoDg9C4WMFOLyfOSVyABiIJUbBFlRGM4Xf4yZY9spBKmIL9TFOK/BBeXwXd9Db9NYbPx6CxIeVOJB4iVcL66vwuyxA88eQ4e6InPtBHhtDEdKVjJO/LQKofXBa4QMj1IuQdd7F36ZPQ2zf96H7b49FE84s19Dmh2Go9c4sJYHA1mFDKTicuTnKRbGNuhnvttgDLK9hb1r9uKmCEDtYxRXSVBVWd1sO83vLtkS/TaNrRwGMpJCygAAe95oOw3DMNfbCJr9NfbHZyE98g8s2p0FQ4G8EDdUdH1fN+dXQ9RpnZoMug20pAJ5LAhoTq+N4MP1vd4wjd2Ir7ck4EHlAyReuo6nUjOBicFjZN98BEZaiEsRaSivqUKVhD1mTZUmUpGDRa04v54G/rPp/G6uWh08jZGiRXknAgBqElfDa9kdjAr6HZMdeACTg5PH4loRSwVmH2H+NGOEzN8GozHvq39jgMIeuYRbrhuAmq65IwKBB5cxnuhVegK7w4vlx1SkI7N2GLzG2oLL4YPPFaOqSoLSu9m4drqlvv0NOuG5YIxnL5Se2I1wRcMV6ZmoHeaFsbaKaqqq9rfjgsPngyuuQpWkFHfvlj7RCjWTYyqSTK4JNn2pqKPq23/av01pJk8bnctej1Gv6wZXoXo/nn5SfPuMulE+R4HK8d6+c7P92Hgu8BKgN5WqbIrc7kfvGPPIoPMH9MVXC2mh/0yaPGowfeCzhk7drm1wsIhuBc+nwZ3MSVfHgtw9Aym+osHXT6igzNA55KGrRW7eOynhfg0l/Tyc7E3tqOeYBbQ9yIeczLvS1B0JdMjLmTxGz6NVgetpyZzFFJwtUW6MiIiqD44nY4u3aeL85bRi+Vc0bcoSOp4rJaYklYL9epKBoCON3xBJdxWni68H0gcOJmTdbSTN37OLfD1caYT/VoorYkh0K5jmD+5E5ro6ZOHuSYEKJ6T3TtPKCQNp0NjZtDhgEX0VEExZ1UREoue0v4zSQ+ZST30tcvPeTldupNGxJQPJVNCJpmxLotyEn2m4vSnZ9RxDC7YHkY+TOXWduoPSqu7R6ZUTaOCgsTR7cQAt+iqAgrOqiZgSSg32o54GAuo4fgNF3pWosTFN2RgiYuhBxEoa5WxKeqZdaNy6reT3limNP1hN1EzsSHSLgucPpk7muqRj4U6egfGkUgIkptil3clAy4DM2lqTrUMHcvEYQp9vSaYqdde4m0A/D7cnU7ueNGbBdgrycSLzrlNp26VElf1clhREU3rYkJXzQJr01SLy9OhEg2YGUtSteBXtTKHNoXvJr6cBCTqOpw2Rd0lVb7VcvypiW51N536ZQJ0EAnKd+isdTSwgRk3e1Gbtp9n9HcnEwJQ6DV9MJ+5JqSw9hOb21CctN2/afuUGpR1bQgNNBdRpyjZKylUdnx1pDfP0Kaq0XpZxmPx66pHQfQbtir9J6ScU7U/eQvFFjHITVJEZSnM8dEnLzZt2JtynmiQWvaoygXlAEStHkbOpHpl2GUfrtvrRW6bjSS41MV0P/IAcTKyp28j5tGeXL3m4jiD/rXFUxLDHrDHVLDnYwvNV5hKx6Jw9xxrHqJCK00Nobg890nLzoT2xJ2mBmzbpuk2gZatW0apVP9C3c4bRqIBrJGpNLBUw+b/RqAErKVW1eOVUZFLoHA/S1XIj750JdL8mqYW6KaOMw37UU09I7jN2UfzNdDqhqFWTt8RTESOle8cW0Yg+g2mK/1JaNGcebYh5SAwREVNMJ+a4Uxv7vjRr7w2qao1vL10nRCS9R8cWjaA+g6eQ/9JFNGfeBop5KNc7e+0nYopP0Bz3NmTfdxbtzXxE6SFzqYeeFrn57KHkxyzjSVkGHfbrSXpCd5qxK55upp+gJQNNSdBpMm2JL2LRl2pUtq/cv03Tll1bD5uey1aPIy4epQXvGpHAZSr9EZtD2RE/0xgHAbUb8R2FZd2hhJ0zyF1bj9723UXH9jyjblTANt4Tsfcj21zgRcOh5n9K0PASqQn2hM0KB4Qlr0GvF/yo+L8eaRKWegzFrSV5ODheV/nbZ6QclzduxJ1+k9GLX4qyyipUldxD+NZ4vHNgEz5me4uJhjcaadJSeAy9hSV5B/HCpPYvQ3z5W3yV6oVNM+1Zf1V53dHo5N/Nqzzev6k59/pA9PJ//v0X0/CW1otAmvwz/LYUwKytLTq5dUfPd97DgHcc0fb/3kHXpndDNPxreHqLTUNrqMHtqKMIj4vCrzuqMMTzzZ0IytHo5F/NKzzev9l594ojLUzE4YgsVBUl4OTZzCfrCDS8CKpwO/oU4vKrkBlxBMkPXkxw+U6f4ItemfDtZotOXXugz6BR+Oz7dLw7Z8KTJwY1/Muouo3oU3HIr8pExJFkvCCp/TuQZmHP15Mw6uMlKBr9NT40VT7gDUKjk381r/p4r7lN/A8iE5ejtKIOMgBcvg6MTNS8uVxDK2FQU1aGaokMABfahmYwUPMm/FYjE6OyUgqhgR60NH9S/bthalBWVg251LRhaGbwz+zb+7rCiCGGEMI3/Y8pjU7+1bzq471mMqhBgwYNGjRo0PAvRvObhgYNGjRo0KBBw78YzWTwOZCVpCL0p5kYNSkQGSreD6xBgwYNGjRo0PCqo5kMPgdcrbboIMtERPoj1Cp/qUGDBg0aNGjQ8BqgmQw+D/pt0Km9JYTN7jWpQYMGDRo0aNDwavJmTwbr7uPqxet4JL6PqydDcTI+FzX13zHFSItKQF5VDi4eO4fo88HYvXMXQuMfQCYrRsqJvdi58yAuFzzdz05UkIhTBw/gSMztp3tEcjjy7Q9FeYg7cRhnUu5D/OQMGUpvROHwgf0IvZCBYuWt8TRo0KBBgwYNGv5h3tjJoKzwEjZM7I0+PquxxvcLLN0QAK/3umLQt5dQ/igJO2b0R69xS7F65UIsmP0ZNhZ2g+zIfCzafxNSrhm69dPB+cVfYXuKBACD3MPLsGDXHehacJAQ0B9ve4WgUPGeIKpJwf++nI2A9Uvxaa+uGLYqDlWQoeDAFAyYdwVt3B1QsGk4evuGo1rZUA0aNGjQoEGDhn+QN3YyyLXqiy/G9YBODR+9vjuCsAtJOLfcGWm//ITD9H/4dOogWEmALrP/RFxuIQ5NsYOFua78Vz4A0LGAmb7ikygCq7+Pg9CwBDdulqJdh7a4t28TDubWvzXSARN+P44zkcm4uLoLUn5aheCHUjwqrIHziA/Ru0tvjB7UEfevX0eR5tdBDRo0aNCgQcMrxBs7GQQAcLngGlrDzoQLQAi3cR/DXZKDW/dkAI8Pnq4VbC25AJenNhDMnXikiLpg1HRveHt748tfY1FRHQE/B/lZHF1jGGkDgBAuE8fAQ5KD7HtcdPPfjzXO0fhxxWrsvVYGGcNA89CxBg0aNGjQoOFVQt0c6I2DY6AHHb4ZLNqwuM0BlHeNJAIgFIKXdxnRd7jQ0tKClpYW+CW5yH2ycLABXC64AktYW4kQt3IIJp10wsxlSzCrv/W/K9gaNGjQoEGDhteCN35+QhUlT/YALI9LRFFfT3xko3C70YbRXJiYGOBx9k08YqQovBSBtPIaVFVJwLMfiqGumVg7wQsbw1OQlXwCP60KRb5A0QwjBSMDABmKws6j+OOZGGtxB2FHr4FjbQcjFCM9qxCMVIzy/DzI7l/Elg2HkCl6cnENGjRo0KBBg4Z/BF5AQECA8j++KUgyQrD+RBZqHhUgI/YkDsabY+6Gr9GTMnDkt1+xL+YviEzc0fNtBxhzebBsK8OVTUvx3e7LKH+rL8yzUvBAywgduw3FmFHOKI3Zg03rNmBnTB3+s2QFxtkLwTXQhzT1ELaFJOKvrEu4WD4EP6waCwdtYxhWx2Hbj+txMKkM7f/PBKlHI/DAaSRGiPdj6jcX0G78BLxt/MbPxzVo0KBBgwYNrzBv9N7ENcGesFnhgLDkNeilpfytBg0aNGjQoEGDhjf7ZykipVvBGjRo0KBBgwYNGhryxk4GpYWJOByRhaqiBJw8m/lk3aAGDRo0aNCgQYOGp7yxt4ll4nKUVtRBBoDL14GRiT74ygdp0KBBgwYNGjT8y3ljJ4MaNGjQoEGDBg0amueNvU2sQYMGDRo0aNCgoXk0k0ENGjRo0KBBg4Z/MZrJoAYNGjRo0KBBw7+YN3fNYPVfiDgSgbTHtZARwOHwINAxgKlVR3Tv8w5czFr7OEkNci7sRtDvp6Ez+xBWDhAqH/CPI/rrOLaGJuFazCXU9l2M9f8djHaa6f7fSk3OBewO+h2ndWbj0MoBePVU8s9Td+V7fPytBN8cXYEBug2+kD5A4sEgBO6pxoSj6/CBdoPvnpk6XPn+Y3wr+QZHVwxA/eUa5Urvj2EXdxLaC49iRSODnoGX4oMMJakncCQ6B5Vkjp4TJqHPky01GRTEheB0YhGqucZw7DMU3WsicSrpIWplAF+/Hbo4GyA37S+U1Sm/ZouHtu9+hok9TRv969+KrASpR7bit50pcPlxN/y6tLYuv2LU5ODC7iD8floHsw+txABG6bNQtR6Bl6UdDRpaxps7VdDrhEGfuOB20EL8FAN0fbcferu1QW3CL/jEtQP+s+gEchnlk9TBhZEtD7cjE5Ff+QrOn8VXsML7ECxmrUTQmtEQnwpFfIXyQRpeNlwjW/BuRyIxv1LzfksW+O37YfyEgXBSnimLGQhrshARm4OK53oVlBT3Cx9C3gQf7fuNx4SBTk8n5sq5cuYqDEdNwMAmBj0DL8yHhnBh6j4KY/vyEPGTFz6eEoTMuvrveLDuPQZ9yo8hQjAMH3RvB9t3PTFEHIKFCw+hpv8YDOo3AuM638avizbjRvuPMGbMGIz5eCi6CxNwKOxe40v93XC10LaDDJkR6XhUq/zlawjXCLa824hMzEclqfisSo/1vBTtaNDQMt7cySAACO1g14YHXdvu6NOjGzzeHQmv7w7h4r6P8XDjp5iw5jqe1NRm0YapfQdYGb2aIatLOYZT943QRhvQdvfF4djf8LGx8lEaXjbapvboYGX0hifW88Ft2w/TvAbAmqf0hZ4VOvdwgeVzBo+5uxPLNl5V5DYXbftNg9cAa9RfrkmuXNmFJbO8MKCJQc/AC/KhKVwYdf8MH/U0hSRmISYtjkDpk+/4sLFxhFU7Y4XueGhnZQG+VlvY2sh/adO2tIQxlw89cxvY2dnBrn1nDPhyHZaMNHnSyj+DPtp0ag9LIUf5i9cTbVPYd7DCk2FC+bMKPT7hpWlHg4bmeaVkV5V1HIHLv8HiNfuRVPyC/jRqUmO4MBvyLZaMEiJx0waEVdX/uwgFiadw8MARxNyubHzKEzjgKLXHlGQiIvRPHApPwX1xgy/qinD1VDBCwuKRnJqNUhXu1N2/iovXH0F8/ypOhp5EfG7Nk++Y4jREJeShKucijkX8BbmZDEoyIxD65yGEp9xH/eXKUk9gT2gCCquycWHPLhxJKpb/KiIqQOKpgzhwJAZPXapD0dVTCA4JQ3xyKrIbGMbmi2pbVMerrugqTgWHICw+GanZpYpfZxTIHiAhdBd27tiJXQcicVsEyErTcGrvTuw+loxiGSArvYGowwewP/QCMoqf/nTLFKcjIu4eGHEBEk+GIiz1ERhFDE8GH0VcXsPgq44TmrOvHlkpbkQdxoH9obiQUQy2H5DZbOU0EgmD4vQIxN1jIC5IxMnQMKQ+YgDU4f7Vkwg+GoenpstQeiMKhw/sR+iFDDRoUn58yhkcOngE0TfLG9ktKkjEqYMHcCTmNup7QvooFZEJeWCqc3DxSCgu3Ch/egKbf0wx0qISkFeVg4vHIvDXk9wAmLxYBO/eiV2h8Xggk6E45QT27tyJg5cL5OdLHyE1MgF5TDVyLh5B6IUbaHDFxkgf4npkAgqeXhjFGRcQeugEEu9LlVJWtc7Y/KvO+hNzxnyN0IQI7N0djhsiQPrwOiIT5HaqzhUpHl6PRMJTg4C6+0g5cwgHj0TjZvnTaLP1uXof2PTIoDgtCgl5Vci5eAwRDQPOAsdiDH5a/z4eb5yCz/fcfdp3yoWpOaRpSEo3gcfbDsrfKCHFo9RIJOQxqM65iCOhF9BQSmp9a7Hu6+uqCHlxJ3D4TMP6wxIjlbWtHhkKY4Oxc8cO7Nx1ABdzGQCVyDyzFzt3hSL+ftOsV92vdbh/9SKuPxLj/tWTCD0ZjwYlmlWb4HAa97/S54Z6lPMs2mlhLdOgoYW8MpNBcdL3eP+d0Zj33VqsXvQZ3us7F2Elyke9KIzR7z13cB8nIS6zDmBycXjZAuy6owsLTgIC+r8Nr5DCZpJLhuLzy+DpHwaJQ0cI475Bv3dm42iBDGBysG3WMsRb9YaHYRy+X7QHdxvPilB4aQMm9u4Dn9Vr4PvFUmwI8MJ7XQfh20vleJS0AzP698K4pauxcuECzJ74XxwtLsb5ZZ7wD5PAoaMQcd/0wzuzj6JABui0dUVXR1MItCzQsVt3dLbWAeUexrIFu3BH1wKchAD0f9sLIYUS5GybhWXxVujtYYi47xdhz12ZGl+kqm15rDpekpxtmLUsHla9PWAY9z0W7bnbOIZcS3TrLsWxRTOx63EntNcGuCadoJcRjcdOXWBSdABTBszDlTbucCjYhOG9fRFeLUNJ8l7MHNwLo5dvxsaAtdgduhEz+g7GvKDNWBywBcf3LsbwAXMRVglAxh4npjn7AEBWgANTBmDelTZwdyjApuG94RterXwUZAWqbFU+qATJe2dicK/RWL55IwLW7kboxhnoO3gegjYvRsCW49i7eDgGzA1DJWQoODAFA+ZdQRt3BxRsGo7evuGoBgBZEU4snI5VV/Xh2j4f6//TDZ/ty4MMDHIPL8OCXXega8FBQkB/vO0VjLT4bfAZ0Avjlq9FwLyV2L7nB3i+Nxnb82Ss/skeJWHHjP7oNW4pVq9ciAWzJ+K/R5/+9sSz7Y0BsiOYv2g/bkq5MOvWDzrnF+Or7SkQP0rENp8B6DVuOdYGzMPK7Xvwg+d7mLw9r0l8ZYpje0/8HdckAFCJuB/HwXt3CWwdtXB5y0FkSRUHq8zLfDxIVOOfkRt6dzaC0LQDunbvAE7yNvgM6I2Jv1+DBCpypV0Vrm7zwYDeE/G73CDIik5g4fRVuKrvivb56/Gfbp9hX55MTZ+r8YFNj9JHSNoxA/17jcPS1SuxcMFsTPzv0Qa/9rHBh9207dg91wJhcz/FqgRl0amBapCXdBZhYSdx4Ifl+CNZpHxEY2SPkLjNBwN6jcPytQGYt3I79vzgifcmb0eeTJ1vrdG9AqpByv++xOyA9Vj6aS90HbYKcRWqY/RYZW1rqDQurNwdcG+LH+afBNzteAAM0IGfgEMZbdC5beNhT2W/Vhbi0oaJ6N3HB6vX+OKLpRsQ4PUeug76Fpcq2bTZ/JjxKLGxHp9JOy2tZRo0tAZ6JRDRhVkOxAMI9f9xDOiTvRXKB7YO6W1a21ebHH0jSaT0VeXOD0mb34HmRomp9uyX1H2wP20KCqKgoEDy8RCSVr/1lMMonSSKoDkdrGj68Vqi2ijyc3GnhXFi+XfSO7RhgD7ZeJ+iytojNNm+Ny08X0gSktDNmBi6J1Vqi6rpwFgjsvk0mO4zRCRKoe966ZLhqO30gBFTlG8HMhqyme4yRIyUodooP3JxX0hPL7eBBujbkPepSiIiqj3lTdYdfSlSRERUS2e/7E6D/TdRUFAQBQX6kIdQi/qtv0FHJttT74XnqVBCJLkZQzH3pOp9IRW2sMTrRuhksu+9kM7LG6eYmHvUxG0S05VvupDJsN8olyGiqnP07dIjVEpEkuR1NHpcIKVLiJjcQBqo34fW3JISkZguf+1CxiO3yGMlzaaf3tWlbkuS5P1aeZA8zV1pQaxYbZxqj7TAPkkyrRs9jgLlRlDgQH3qs+ZWk+PYbRVRxJwOZDX9ONUSEYkv09cuxjRyy32Sm/4TvavbjZYkyRVZedCTzF0XUKxYQsnrRtO4wHSSEEO5gQNJv88auiUlqjo9g5xHbaUHDBFRJV3ZPJeWheSQtPYsfdl9MPlvCqKgoCAK9PEgoVY/Wp9TQ5FzHMl05B+UKyUi0Xma6WBJk4/UqvVPHOVLHYyG0GZ5R5Oy/GtPepG101yKFhMRiSl6rhNZe52kWiISRc4hR9OR9If8gnR+pgNZTj4ij4ESoguzydFqOh2vJRInLiMP17kUpUhQ8WV/cjb8hPZVE6vOchgRu38kokjfjmTtfUpxbRFdmO34tD+a5AoRiS7QbEdFXlMVnZ7hTKO2PpD7X3mFNs9dRiE5UtY+V+uDGj2SOIp8OxjRkM13iSGGpMoBb0IJbft8Lp0REZE4i37/oC1pO3nTkSKGynZ60xfHn0a7es/HpKMnt4GISJrxHb0ttKaPVh2g4OA/aduSD2nGzrKnTbMhiqQ5jqY08o9ckod6JjlYTqYjtc351lLdE1H1QRpv0pFmn5fXMlHGzzTQ2IhGbXtATJMYsdW2nIZWy69x5gtybDeeDjxkiKiWohZ508bbypmsJperD9BYIxv6NFjugyjlO+qla0ijtj+galZtEoki5lAHhb6JlD831uOzaqdFtUyDhlbwivwyyAFfwFf6eZwHPr+Vtz5aDIPc/CIwXBu0d+DgTnwKRF1GYbq3N7y9v8SvsRWojvCDg5roSNPPISLXCBZtFCs/eLbo+257PE6IxU3+QHzuo4s9I13QeZg/YoSdYdNkgQjA5XJhaG0HEy4AoRvGfewOSc4t3JMBPD4Pula2sOQCXJ4M6ecikGtkgaeX64t32z9GQuxN1P8h+QTmDuJTROgyajq8vb3h/eWviK2oRoSfMwZ+7gPdPSPh0nkY/GOE6GzDU++LVNkWYo2X838+h4/uHox06Yxh/jEQdrZpui4GWujxuTfc47ZiW1odHp2IgmDYcBgD4Hfzx/41zoj+cQVW772GMhkDRgoAXAgEAvD0jWDABcAzhrEBF3pGxvItBvn60BdKIBJL1MaJP7AF9vG7wX//GjhH/4gVq/fiWpkMjNwIpcPYbFWCK4BAwIO+kQHkphvDgKsHI2P5Wi6+vj6EEhHExEc3//1Y4xyNH1esxt5rZZAxDKSQ4q/YRFSYmMOQCwD66D07ECvHOAB34pEi6oJR073h7e2NL3+NRUV1BPwceOAL+BCaW8KCB4BnBFNDCcR1MvX+8fjg6VrBVt7RrbptwOELwBeaw1J+QRiZGkIilm8HqQxHIFBsDSnFzVOncaNtBzgK5N9x9fSgywEAhlVnDlx5vVDpXxM4EAiaeUKVI8CTQ6R/ITaxAibmhnL/9XtjduBKjHHgsfS5Oh+kavUoBQ98ni6sbC3BBRe81gRcywUzdu7G58I/8fnUzciS/8ykHo4eHN/7BOPGecJr+VJMcVEYrA4OHwK+EOaWFpCH2hSGEjHqZM341mLd119HF8ZG8sdnhS4TMcZDgpzse5Apx4jYalvT2936g/3wueM5/PJHJqRlZ3C4rD/GOzTJeJZ+BQAuuFxDWNuZQF6ix+Fjdwlybt1BNqs2lVtXpqEen107LaplGjS0gmal+/eghT6fz8OQtgL5hJDDhXGPufAdqa984ItBmoHQY2nQeW8MPrThQijkIe9yNO5wtaClpQUtLT5KcnOf3sJQAUdHCCGTj7v36mcAHOjqaINvZgFzAG6+Z5GRtA0Ttc9g/vtjEXiDbeVZPRwY6OmAb2aBJ2+NaPCdjlAIJv8unl5OFzrafJhZmKvoRCGEvDxcjr4DrpbCJ34JcnPLATdfnM1IwraJ2jgz/32MDbyh3pemjbPGqxxu8D2bgaRtE6F9Zj7eHxsIVW7z2n+GL94vwJ6gvdif3gaf9JY/V1cTtxJDJp2E08xlWDKrP6xVXFs96uOElthXE4eVQybhpNNMLFsyC/1ZjHh+W5WpQdzKIZh00gkzly3BrP7Win7lQFtbC2XX4pH25GknEdISUyESCsHLu4zoO1xFP2iBX5KLXHXCbaF/qpH/cdboKennfDOVWFIH5mERilRMpNl0ps6954ajDW2tMlyLT3v6cJkoDYmpItY+Z/dBvR5bE3lVcM2GYO3BH+GRshhTN6Q1/aNQHVo90LfX87xG52X6xgWXK4CltZWKdthqmwpV8Fzh4zcc+VvWY8/eM+CO+Fjlwxls/doEjgH0dPgws2gDnRekzWfVTotqmQYNrYBN9n87/M6zcfxqNPZvWodfdpzD1cgV6Pvcc0EpGOUEYe4j/L8+WJ8/AD/88gUceTzYDx0K18y1mOC1EeEpWUg+8RNWheaj6d/NBCICEcBzGQPPXqU4sTsc8mddKpCeWYthXmNhWxeBTRvjoOU2FitCDmJ+hzzcym+S7QAIFSUlil9PyhGXWIS+nh/BRtErT18ByYPLGE/0Kj2B3eGKh0Mq0pFZOwxeY23lncjIQFKpfFEyzx5Dh7oic+0EeG0MR0pWMk78tAqh+QwiNm1EnJYbxq4IwcH5HZB3K1+9LypsYYsXE7EJG+O04DZ2BUIOzkeHvFtQ6TbXAqNnjgPvwHLEdhgHZx4ASJEddhTXONawMwKK07NQyEghLs9HXolMHvcG0xBqZJN8ZQE1E6e6FtgnzQ7D0WscWMuNQFYhA6m4HPl5DRewtsDWBrYRUYMZlMLWRqYTIM1G2NFr4FjbwQjFSM8qBCMVozy/EE7DhsH1dhBmf70f8VnpiPxjEXZnGULbfiiGumZi7QQvbAxPQVbyCfy0KhT5AoCa/Egmv2az/pHyu+iewjUxgcHjbNx8xEBaeAkRaeWoqaqSr31qesEGMVDiSV/y4TZ4EGxv7cWavTchAlD7uBhVkipUVrPrTKDycvUx5YDP50JcVQVJ6V3cLZX3RyOnGuZKg3MJAHhOGDbMFbeDZuPr/fHISo/EH4t2I8uQw9Ln92HUcyCrD+r0KE+tBloAUJm8Fz/8FIqsRg8q1CMFI2loN6DVeRZ27ZgKXk5uo19hGYYByQgyRdvEMJARA6ZJ3ABUJmPvDz8hVOVFqemvu9R8rnFbqvsnXzOQKoyTFYXhfPHHmDm2XdMYsda2ptUaAMw+mo9pxiGYv80IY943UP662VwGVaCkRBGB8jgkFvWF50f2aK9Gm1Dk/1PXG39+Ghf1+lcXX9W1TIb7F7dgw6FMNLMaVIOGpijfN35jqMqmyO1+9I4xjww6f0BffLWQFvrPpMmjBtMHPmvo1O2Gq5lEdCt4Pg3uZE66Ohbk7hlI8U2WK1ZQZugc8tDVIjfvnZRwnyHpvWO0aEQfGjzFn5YumkPzNsTQQ4aIqg+Rl7MHjZ63igLXL6E5i4MpW6LcXjUdHG9MFm9PpPnLV9Dyr6bRlCXHKVfKUElqMPn1NCBBx/G0IfIuyU+V0r1ji2hEn8E0xX8pLZozjzbEPCSGiKqzz9EvEzqRQOBKU389SokFDJHoFgXPH0ydzHVJx8KdPAPjqYKq6ZCXM3mMnkerAtfTkjmLKVhhmGpf2GxRHa/qQ17k7DGa5q0KpPVL5tDi4GzF8SqQptPq0V/S8QZxFiX9TMPtTcmu5xhasD2IfJzMqevUHRR//TgteNeIBC5T6Y/YHMqO+JnGOAio3YjvKCzrDiXsnEHu2nr0tm8IpZepiVNL7BMl0c/D7cnUrieNWbCdgnycyLzrVNqR1nj1G5utccmhNMdDl7TcvGlnwm3KPL6A3jUSkMvUPyg2J5sifh5DDoJ2NOK7MMq6k0A7Z7iTtt7b5BtyjaJ+Hk72pnbUc8wC2h7kQ07mXWnqjjQiqqWs/bOpv6MJGZh2ouGLTzxZgyq6FUzzB3cic10dsnD3pMD4CirLOEx+PfVI6D6DdsXfpPQTS2igqYA6Td5C8XcTVPq37VIiBfv1JANBRxq/IZLuNgkMEYmvU+AHDmRi3Y1Gzt9Du3w9yHWEP209H0WH/XqSntCdZuyKp5vpJ2jJQFMSdJpMW+KLGjXBlKZTyNwepKflRj57kukxU0ZJQVOoh40VOQ+cRF8t8iSPToNoZmAU5UpV60ytf0USKj4xh9zb2FPfWbspISWE5vbQIy03H9qT/JgqlXMlr5jSQ+ZSDz0tcvPZQ8mPGaLaLNo/uz85mhiQaafhtPiEfD0WW5+n1arzgUWPTAmlBvtRTwMBdRy/gSLvSohIQonLPcjU1Io+/K2gUdxImktxfwbQMNvO9NmmU5T6uOECw1q6/suntOBkLRFJqSDuT1r5gTXxeLb0wYp9FHHpPG2f25uMuNrkNnUjHU8tbrQeVJK4nDxMTcnqw9+ooNG6xTLKOOxHPfWE5D5jF8XfTKcTSwaSqaATTd4ST0UMi29USTdarPt0KpPeo9MrJ9DAQWNp9uIAWvRVAAVnVROpjBGx1DY2GMr/bRQNWJnaNNcVsPZr8UEab2xBb0+cT8tXLKevpk2hJcflayfZaiBVZFLoHA/S1XIj750JdL+s4ec4upnaWI8MPYN2WGuZiM7PcyHrEb9RjmYBoYZW8ubuQPLKU4NgTxuscAhD8ppe0FL+WoMGDf9KxLErEXB3NlZPMlP+6uUhjsXKgLuYvXoS/sar/g2Icfnbr5DqtQkz7Vt5I6wmGJ42K+AQlow1vTQVWsObTSuzQ8OLhEjNrTQNGjT8y5ChLP0Y/hfniilj/r4pmawsHcf+FwfXKWPenIlgzW1EHQ1HXNSv2FE1BJ6tnQgC8tvTSrfxNWh4U3mWDNHw3EhRmHgYEVlVKEo4ibOZ9esGNWjQ8O+FC4HtIMz6ahxcm+xV9vLgCmwxaNZXGPd3XvQlI83ag68njcLHS4ow+usP0erdl6WFSDwcgayqIiScPIvM+nWDGjS8oWhuE/8jyCAuL0VFnQwAF3wdI5joN/P6Cw0aNGjQ0GIYsRgQCp/tlSsyMcpLKyAv0XzoGJlAU6I1vMloJoMaNGjQoEGDBg3/YjS3iTVo0KBBgwYNGv7FaCaDGjRo0KBBgwYN/2Le0MmgDCWpx7Bt0y/4ZeNexD5s9DpWFMQdxJZNv+CXX3fiePLDBt89B3VX8P2I9/FtlKoXt745yEpSEfrTTIyaFIgMVS+U/idh7uHkuqVYdyKndbsxPAeiv45j8+rl8Bo+CBN/OI+if8k689fD7xrkRPwP34wbgf+eEyt/+YpThyvfj8D730ahuYpSd+V7jHj/W7yY0iPFg8R9+PazYfj65Cv26uKaHFz4fQHGfbgcUc12Z1M/njtOshJkXb6Cv0plAGQofVTS6AXgrUb6AIn7vsVnw77GqxbqZ0WacRArlwUhqtGY2xJarvfWI8OjK3sRuGEDNqj6b+OfSCxrrb1vHm/oZJALU/dRGNuXh4ifvPDxlCBkPtlbigfr3mPQp/wYIgTD8EH3No1PfVb47dFv/AQMdGrJE3lS3C98+Fo+QczVaosOskxEpD9CrfKX/zDM3RAE7iuBS097xd63LxnxFazwPgSLWSsRtGY0xKdCEV+hfNAbyGvkt5GdALejEpFX9TosjW5YF/ho3288Jgx0QnMVhd++H8ZPGIgWlZ5mEYMR1iArIhY5Fa9YheIawZZ3G5GJ+ahstjub+vF8cZIiY0cAVqz0Qm/Xd+D13VqsO9jKLQCVETMQ1mQhIjYHr1qon406JO5ej3PcbvBouqdqU6T3Ufhk0thyvbceKbJPBiMB7dHt7R5wfngQi1ZeANOtBzzc2qEi4gDO5L4RHfBctKDHXle4MOr+GT7qaQpJzEJMWhyB0iff8WFj4wirdsYvLgDctug3zQsDrJt/do25uxPLNl59uvfp64R+G3RqbwmhfJvaVwgZSrJ08Om+DfhA1QakL4G6lGM4dd8IbbQBbXdfHI79DR8bKx/15vH6+K0LUzsn2Jm+cmJVSeO6wEXbftPgNcC62adhuW37YZrXALSg9LQAPVh17gGXvymHWoW2Kew7WMGoRaY19eN546Tz3nzsC0/GtX3e6MA1x8hx7z3fxEXPCp17uKjcL/m1hMlFrt0i7Pu2D1Rt/NcYBnd3LsPGq/WjYMv1/ixovzcXa/0+xsD3+uBteyNwBWZweqcv+g2ZgKU/z0HPv+XXg1cbXkBAQIDyP/5TVGUdx2+btuF4wiMYuXaBle7zFnERUiLuY/C0NggL+BUpDp9gTFf5BFB8/QTO64zAB871KmBQkhmF0xeSkCc1g21b/Se/LtUVXcWZsFjcrhKjVqQNC1MdNLVMiofXo5HB2MHakAvpo1REZ9TBzrgEl09FIJtjDUdzbVRn/Yl5E+biULEpLDkEXeeOMOcDooJEhIfFIKNEFzb2phACYIrTEJNeB/O6VIQli2HT3gxaEKEgMRxhMRko0bWBvamiHNUV4eqZMMTeroK4VgRtC1PocGQovRGNsHOxyHzIhaV9G+iyFB7VPqo+X5IZgg0XzTB5qhNywy8gvdakUbyg0kYGxWkxSK8zR11qGJLFNmhvpvqt/pV3LiP8bDxyZKbQKbyNUjMJMkOP4UJSNsTtXGAlvo6Th8/gSlY1LFztYMgFADHKyktQlHWjcVyUqLt/FbG3BWiLGzgTfg2l+jawMZLva6o63qp1UZZ6An8eDMWRpHKYmTEol9nC2UoXHFEBEsPDEJNRAl0be8jNqEPR1TMIi72NKnEtRNoWMNWRK4gpyUTU6QtIypPCzLbtk9dXqLalKWznK/PP+M2mK3a7VduiSk9smq/3WAGTh7O/BaN6sB/e10lEeORt8GwdYKoIpqz0BqLDziE28yG4lvZoo8sFIMWj1Ghk1NnBuOQyTkVkg2PtCHNtpbYVqIstZKW4ER2Gc7GZeMi1hH0bXcVe4sVIi0lHnXkdUsOSUVoVj+8mN64LxiXXEZ3BwM7aUPFHax3up5xDWHQaHgusYGeuLa9D0oe4Hp0Bxs4ahtw63L8ai9uCtsCNMwi/Vgp9Gxs8NUeVv3KY4gxEhkUjo1KC3NMhKO7jD8+3FBph6S+VqNKC9BFSozNQZ2eMksunEJHNgbWjOVhCylJDAOZuGIIOSzDM7yM8Kd1KsPrRKE5q9KPKfsggLUhFZp0jHIxEqJAYwK5Th6eaYEqQGXUaF5LyIDWzRVu1AWJQnBGJsOgMVEpycTqkGH38PSEPtWq/G56bFxuCYxeSkC1uBxcrMa6fPIwzV7JQbeEKOzVjD6BGj01QpyNVtZyP0r/SkFteioJHSmNN3X2knAtDdNpjCKzsYK5dg6w/52HC3EMoNrUEh3Th3NEceKik9ybnyZNbnYZVw0O7jo4w4AAAoTppH36J1MfY+aPhwge4ph3Q0ULehqpxuFntiguRdDYMFzOKodXOFmYKO8EyfqpGdb+r7csXjfL+dP8UosTv6B0jrnw3c3BI22U2nS5WPqq1lNC2z+fSmdoSuuDfjfSM+9DK+CoiIirb6U1fHFfsN8s8pnNLx9C0dWcoKfEYBQxxou6zjlA+QyS9s5W8vX+la/fu0KVfPqHhy6813eOSeUgJW6eSq7YlTT9eTQ8TttLUztpkNtSXlvpMo2mju5OZ+SjalstQVUEa7fzMjtqO+Y0SUm/TY4mU7oUupTk//EkRFw7QooHW1Gn6QUqN307Tu+iQ+ZCZtGBcL7Ju8wnteXSPQpfOoR/+jKALBxbRQOtONP1QATHSO7TV25t+vXaP7lz6hT4ZvpyuSRjK3/8puQ9dRRfTL1PgR7bUceYZknvfGNU+sp9ffXA8mXQcST6fjqKhA1zJVKsNDfjhClUSEUlV2HgwleK3T6cuOuY0ZOYCGtfLmtp8sodKlA2hCrqy9lMa9812OnfxLP0+tQvpGY+ng9VEzIMd9KFJR5obLSYiorKQT6mdlRfJt2NVcc1DBY32XyViqODievrEXos6efrTjA+H0SA3CxIY96LlF8voYaKKeD9m14XowS1K/G0MtbX7jHYkXqcbhdUkvRdKS+f8QH9GXKADiwaSdafpdKigju5s9SbvX6/RvTuX6JdPhtPyaxIiYujxuaU0Zto6OpOUSMcChpBT91l0JF+i2pYmwWI7v7HX/5zfDKuuVNvN4nerNK/kOhGR+CLN72RGQ+avpq/nzqHJvS3JcvQuKmCImPz99Kn7UFp1MZ0uB35Eth1n0pkKeS531jajob5LyWfaNBrd3YzMR22jXOXQqo1tBRGTT/s/daehqy5S+uVA+si2I808U0XMw0TaPr0L6ZgPoZkLxlEv6zb04cZLDerCLboRu5WmumqT5fTjVEtExBTS8W8mke/Wi5QWv5E+tHagiXtzSfIwgbZOdSVty+l0vLqALq7/hOy1OpGn/wz6cNggcrMQkHGv5SQ3R4W/ioJQcWU1jf7oGwqOT6Izaz8hR209+mRfdSt0JkeVFg6mxtHWqZ1J22wo+S71oWnTRlN3M3MatS1XKUcVqMlnUcQc6mA1nepLtzJsfjAN41RLRCz6UWX/obz7ajXBPD5HS8dMo3VnkijxWAANcepOs47kq/aNKujK6tH00TfBFJ90htZ+4kjaep/Qvmr1fjeCeUA7PjShjnOjSUxEVBZCn7azIq+T6sceNj02gVGjo7KHlNiklu+idJaxgik8Tt9M8qWtF9MofuOHZO0wkfbmVlBB2k76zK4tjfktgVJvP6TChMZ6V30eo1bDLYOhB7+9T9oWU+hoIw2pGocPUd79BPXaLY2kJYNG0Q/xD6kochH1trAij5HTaW1kGev42QSV/Z5H99X15UvgFZkMiujCLAfiAYrJIAgcA/pkL/v24y1DMRkUEZE4i37/oC1pO3nTkSKm0WSwNsqPXNwXUpx8nkHSOxtogL4NeZ+qpNojk8m+90I6XyghktykmBj5pvVNEF2g2Y5WNP14LRGJKHKOI5mO/INypUQkOk8zHSxp8hHFd74dydr7lLzI156lL7sPJv9NQRQUFESBPh4k1OpH63NqKcq3AxkN2Ux3GSJGylDt2S+p+2B/2hQUREFBgeTjISStfuspp/oITbbvTQvPF5KEJHQzJobuSSWUvG40jQtMJwkxlBs4kPT7rKFbKoxX7SP7+fLJ4Gw6X0lEJKKMnweSsdEo2vZAjY21UeTbwYiGbL5LDDEkVaFncew31PXd7ylTYaM4biF1NpFPBqn2JHlZOz2ZDIqj55KTtXwyyHrNJteopgNjjcjm02C6zxCRKIW+66VLhqO20wNG3DTeanRBRFR7ypusO/pSpIiIqJbOftmdBvtvoqCgIAoK9CEPoRb1W3+Djky2p94Lz5M8vDEUc09KVBtFfi7utPBp47RhgD7ZeJ+iSmpqSxPUnq/MP+F3jmpdqbVbhS1sfatS8089foL4Is3vZEwfbLsvn0xEyicTJ2qJJMnraPS4QEqXEDG5gTRQvw+tuSUlEkXSHEdTGvlHLsnTdyY5WE6mIyonIGpiK06mdaPHUaD8AhQ4UJ/6rLlFUiISR/lSB6MhtFnuKDHKdYFEdGG2I1kpBseq0zPIedRWesAQEVXSlc1zaVlIjty+C7PJsX6CVH2AxhrZ0KfBCn9TvqNeuoY0avsDErP5K06kZR6uNDdKJHdJfJn8nQ3lk0G1/aUMuxZEkXPI0XQk/SEviHR+pgNZTj6i8FWpFbY+Z5qZDKrzQzlOtar0w24/uyZqKcrPhdwXxsknZiSlOxsGkL6NNynSpRHixGXk4TqXnproT86G8smgOr8bU0snvazJqX4yKI6muU7W5HWymbFHwq7HJqjRESNWruVsY0UVnZ7hTKO2PpBPnCqv0Oa5yygkR55jvh2tyftUfUc21Dv7eaw522JYJoOs4zCjVruPt48iY48VlCaRT6I3DtQjj4BUkqgZP5Vh73c1ffkSYP3R8u+FA76Ar3TrlQc+X/mez3Og5YIZO3fjc+Gf+HzqZmRJ6r+QIv1cBHKNLNBGsViBZ9sX77Z/jITYm+AP/Bw+unsw0qUzhvnHQNjZRvWaBo4Agid3BuT+CM0tYcEDwDOCqaEE4rqmi1SZO/FIEXXBqOne8Pb2xpe/xqKiOgJ+Dlzw+DzoWtnCkgtweYQ78SkQdRmF6d7e8Pb+Er/GVqA6wg8OugPxuY8u9ox0Qedh/ogRdoYNj49u/vuxxjkaP65Yjb3XyiBjGJULnrVV+qj+fI6uMYy0AUAIl4lj4CHJQfY9CbuNXB74PF1Y2VqCCy54TZQnxY3wCyi0c0Z7RYC5PD6alwCj5prKxwJcLheG1nYw4QIQumHcx+6Q5NzCPRmU4i1Tq4smcWTuID5FhC6jpsPb2xveX/6K2IpqRPg5Y+DnPtDdMxIunYfBP0aIzjY8SNPPISLXCBZPG0ffd9vjcUIsbkqVbWnqSHPnK/P3++2gUlfUjN3Pp3ll4+rRgpGJEbgAePqG0BXVoFYG8Lv5Y/8aZ0T/uAKr915DmYwBIwXA4UPAF8Lc0gLy9DWFoUQs341CBayx5XaD//41cI7+EStW78W1MhkYRhFBHh88XSvYyh1VcauOA8GTgiLFX7GJqDAxVyyJ0Efv2YFYOcYBPAAcgaDBEg0uuFxDWNuZQG7OOHzsLkHOrXvgsvgrvXkKp2+0RQdHxb1krh70FEt0WqUzNVrg8AXgC81hKS+IMDI1hERcp+Ihutblc0PU+QHlOGmr0A/Y7WfVRF06zkXkwsiijWJc4MG277to/zgBsU0CJMXNU6dxo20HPDVRD3ITn93vxqgZe/hq9NgEdh3JoFzLWcYK6V+ITayAibnitq9+b8wOXIkxDqoStYHe1ZzHmrPPibpxWJ12tQz0ofW4EEVSAFwBtLT40DPQBaeZ8bPBldX0u5q+fAm0SmYvDy30+XwehrQVyCeEHC6Me8yF70h95QOfC67ZEKw9+CM8UhZj6ob6J8E40BEKweTfxb2nMx3oaPNhZmEOwA2+ZzOQtG0itM/Mx/tjA3Hjud4noIRQCF7eZUTf4UJLSwtaWlrgl+Qit1L5QEAo5CHvcjTucOXHaWnxUZKbi0oZ4OZ7FhlJ2zBR+wzmvz8WgTcqEbdyCCaddMLMZUswq781a2fLVPpY0+LzweWCK7CEtRWX3Ublc1QgrhOj5n4hHrFoXbHkowEEUheXhoeqhAMDPR3wzSzQ9OE39bpocjiEEPLycDn6DriKftTilyA3txxw88XZjCRsm6iNM/Pfx9jAG+DoCCFk8nH3aePQ1dEG38wC5k0bb8Lznf93+F2pUlc3tVpnN2vfqtR8SxKTA45CNzVxKzFk0kk4zVyGJbP6w1rF9VtPg9iK4rByyCScdJqJZUtmof8zX4ADbW0tlF2LR9qTp85ESEtMRbNvJOEYQE+HDzOLNhCx+SuWoI55iKKipkNV63TGroXWwNrnygcqo8aPJqjUD7/19nN0IBQyyL97r8EfyjrQ5pvBommAIJbUgXlYJJ88KNEqv5sWQzS7l1jNc+ixgY6ansUyVnC0oa1VhmvxaU8flhSlITG1GdWqOe/l5GzrxuGGGHwYgHV9ruKHBRuxbeOPiLH6DutmdACPLSYqaFW/v0TY7Pvb4XeejeNXo7F/0zr8suMcrkauQN/nngtKwUikjd4FpdV5FnbtmApeTq7ir1IeXMZ4olfpCewOL5b/W0U6MmuHwWusLeoiNmFjnBbcxq5AyMH56JB3C/kqEhkgED1NT2oyoZF/D3DA53MhrqqCpPQu8gyHYKhrJtZO8MLG8BRkJZ/AT6tCka/4y/HpboE82A8dCtfMtZjgtRHhKVlIPvETVoXmQyCKwKaNcdByG4sVIQcxv0Mebt27ibCj18CxtoMRipGeVQhGKkZ5fl4Dm+SIVPkoylZ7PjFSMDIAkKEo7DyKP56Jse0E7DbKz1JTsPhwfa83TGM34ustCXhQ+QCJl66juD6OXBOYGDxG9s1HYKSFuBSRhvKaKlRJ1MRF6QpyCBUlJYq+L0dcYhH6en4EG0UmNIy3Ol1wAYCRgaQKffHsMXSoKzLXToDXxnCkZCXjxE+rEJrPIGLTRsRpuWHsihAcnN8BebfywXMZA89epTixO1zhYwXSM2sxzGssbJvY0pSWnN+Yv9tvgUpdFXVs3u5n1rzKxCT51K9hKIlAkCI77CiucaxhZwQUp2ehkJFCXJ6PvBKm6S9WJJ9AqkZ1bNveCcPRaxxYyy+ArEIGUnE58vNKFKc1bLNxXbhbKpPHgQCAB6dhw+B6Owizv96P+Kx0RP6xCLuzDOUaJ4WP9VAFSkoUHpTHIbGoLzw/aos7LP4WWQ3CINtb2LtmL26KANQ+RnGVBFWV1a3TmRotqCiILPpW0+dQ+MrSF3y3wax+AEpxUqWfImt2+0GqNcFzwRjPXig9sRvhimJVkZ6J2mFeGNskQHy4DR4E21t7sWbvTchNLEaVpAqV1c343QguTEwM8Dj7Jh4xUhReikBaeQ2qquS3u5qGWl53pdnN6FEZlTqyUUwaGtRyKctYUaSNYcNccTtoNr7eH4+s9Ej8sWg3sgwFAIcPPleMqioJSu/eRalMoQcCwHNiOY/DnrOPC3FxywYcymxmogmAYRgQwzSaF/Dsh7KPw00D+kS7skcpuKTrjV2/zMa02T9j33Zf9DBQE5Mm46/6fm96aXVj6HOifN/4jUGaS3F/BtAw28702aZTlPq44cKLWrr+y6e04GT9vXcp3Tu2iEb0GUxT/JfSojnzaEPMQ2KIqPqQFzl7jKZ5qwJp/ZI5tDg4W8UDJKWUHjKXeuhpkZvPHoq5HEJ+PfVI6D6DdsXfpPQTS2igqYA6Td5C8UUSKj4xh9zb2FPfWXvphoRIdCuY5g/uROa6OmTh7kmB8WVUkhpMfj0NSNBxPG2IvKu4pohuBc+nwZ3MSVfHgtw9Aym+goiqD5GXsweNnreKAtcvoTmLgylbIqKkn4eTvakd9RyzgLYH+ZCTeVeauiNN2XoWH9nPl947TSsnDKRBY2fT4oBF9FVAMGXJl+WotrGshFKD/aingYA6jt9AkXebRFAO84AiVo4iZ1M9Mu0yjtZt9aO3TBVrBklM1wM/IAcTa+o2cj7t2eVLHq4jyH9rHBUxKq6pcrlpNR0cb0wWb0+k+ctX0PKvptGUJccpV8qwxFuNLrLP0S8TOpFA4EpTfz1KiQUMkegWBc8fTJ3MdUnHwp08A+OpgqrpkJczeYyeR6sC19OSOYspOFvR+r1jtGhEHxo8xZ+WLppD8zbE0EOGzZamqD5f+Sj6h/xm0xWb3Wy2sPStSs0ruU1llB4yl3rqa5Gb93a6ciONji0ZSKaCTjRlWxLlJvxMw+1Nya7nGFqwPYh8nMyp69Rf6eifftRTT0juM3ZR/M10OqE4Z/KWeCpqEl+22BKRKIl+Hm5PpnY9acyC7RTk40TmXafStkuJFOzXkwwEHWn8hkiSpwPToC7spoSUEJrbQ4+03HxoT/JjYqiWsvbPpv6OJmRg2omGLz5B96RETGk6hcztQXpabuSzJ5keVx6k8cYW9PbE+bR8xXL6atoUWnJcsc4tSZW/OyitlqgsKYim9LAhK+eBNOmrReTp0YkGzQykqFwpS38px0GBKi2UZdBhv56kJ3SnGbvi6Wb6CVoy0JQEnSbTlvgi5RbY+7wik0LneJCulht570yQr9FUgs2PiLTrSnFi0Y8q+6mMMg6r0UTdPTq2aAT1GTyF/JcuojnzNlAMa4DKKCloCvWwsSLngZPoq0We5NFpEM0MjKJcKYvfKhBfD6QPHEzIuttImr9nF/l6uNII/610PkrN2HM3QaUed6SpWINWzaIjRlUtZx8rqDaL9s/uT44mBmTaaTgtPqFYc88U04k57tTGvi/N2ptJj9KV9M5yHquGy87TPBdrGvGbfB2taiR078qf9O3QtsTjd6Dx649RsnwRLhGpGocriJrRrjh2KXU30CIDs7ZkbetAHVw8aMjnWyi5Sk1MmqC638syDrP3ZdNC9NxwSPWfZxo0/ONIk5bCY+gtLMk7iPG6yt8+CzUI9rTBCocwJK/ppfJVLW8m/1a//w5esdjWBMPTZgUcwpKxptc/bo2G1xWNjlpE+eWN2HinHyb34qO0rBJVVSW4F74V8e8cwKaPX9IrYF4Syr9ja9DwCtH41vuLgIjt9tSbzb/V77+DVyu28luhr4w5Gl5TNDpqFmkyfvbbggKztrDt5IbuPd/BewPegWPb/8M7XZve3H/V0UwGNbyaVN1G9Kk45FdlIuJIMh40WTvRWqQoTDyMiKwqFCWcxNnM+jVebzr/Vr//Dl6x2EoLkXg4AllVRUg4eRaZ9eu9NGhoDRodtQy+Ez75ohcyfbvBtlNX9OgzCKM++x7p787BhPpXYrxGaG4Ta3g1YWpQVlYNiQwAVxuGZgbPt/UTZBCXl6KiTgaAC76OEUzU7hLwpvBv9fvv4BWLrUyM8tIK+StwuHzoGJmo3ylEgwZVaHTUSmQQV1ZCKjSAntbr+/uaZjKoQYMGDRo0aNDwL+b1ncZq0KBBgwYNGjRoeG40k0ENz0ZNDi78vgDjPlyOKLHyl8pI8SBxH779bBi+Pil/D1Tdle8x4v1vEVWjfGzLkJVk4fKVv1Aqk2++/qikJS8cZkf6IBH7vv0Mw74+2fyLfF95pMg4uBLLgqLwsLXLfequ4PsR7+PbZ+2YvxPpAyTu+xafDfsaClm9PFqod1lJKkJ/molRkwKRoeq1h68w0oyDWLksCFGtFk09TfP8dUf013FsXr0cXsMHYeIP51H0rKHR8OIR/YXjm1djuddwDJr4A86/CZ3zd9Y0JTSTwReF9D4Kn7mIvoZwjWDLu43IxHxUNrvQQAxGWIOsiFjkVMhjxG/fD+MnDITTsywElGZgR8AKrPTqDdd3vPDd2nU4mPZ8I6+YEaImKwKxORX/7EMAL4K6ROxefw7cbh4qdhhRQUPt8tuj3/gJGPhMHfM3I2YgrMlCRGwOFLJ6ebRQ71yttuggy0RE+iPUKn/5SlOHxN3rcY7bDR4tEo0qmub5a434ClZ4H4LFrJUIWjMa4lOhiK9QPkjDP4MYV1Z445DFLKwMWoPR4lMIfRM65++saUo8a9ZraASDuzuXYePVJ5vnvPlom8K+gxWMWqQgPVh17gEXy6cHc9v2wzSvAbB+poeudPDe/H0IT76Gfd4dwDUfiXHvPd/kRc+qM3q4WL4RCcHk5sJu0T5828dA+SsVKGmX2xb9pnlhwLN1zN+LnhU693BBA1m9PFqqd/026NTeEsJm99R+xWBykWu3CPu+7YOWqEY1TfP8daYu5RhO3TdCG21A290Xh2N/w8fGykdp+EeoS8GxU/dhJO8c+B6OxW9vQuf8nTVNCV5AQECA8j++UdTdR8q5MESnPYbAyg7mgnzEhhzDhaRsiNu5wEp8HScPn8GVrGpYuNopNoIXoSAxHGExGSjRtYG9qRCAFI9So5FRZwfjkss4FZENjrUjzLWrkfXnPEyYewjFppbgkC6cO5qDW3oD0WHnEJv5EFxLe7TRZe/dyjuXEX42HjkyU+gU3kapmQSZoc9ioypUHyd9lIrojDrYGZfg8qkIZHOs4WjO/pJMUUEiwsNikFGiCxt7UwgBMHfDEHRYgmF+H8GZ5WkzpjgDkWHRyKiUIPd0CIr7+MPzLQEgfYjr0Rlg7Kzl/tQV4eqZMMTeroK4VgRtC1PocACICpAYHoaYjBLo2tjDVAhAJkVBaibqHB1gJKqAxMAOnTqY44n1TAkyo07jQlIepGa2aKvuUTimGBmRYYjOqIQk9zRCivvA3/Mt+RZQqq7d8NS8WIQcu4CkbDHauVhBfP0kDp+5gqxqC7jaGYIrfYTU6AzU2Rmj5PIpRGRzYO1Yb6cMpTeiEXYuFpkPubC0bwOVEqm7j6uxtyFoC9w4E45rpfqwsTGS28cUIy0mHXXmdUgNS4bYpj3M+KX4Ky0X5aUFeMS1hH0b3acTXOVc0K5RoV1jlFyPRgZjB2u50FScx2m5/ajD/auxuC13AOHXSqFvYwMjbt4z5iEAMCjOiERYdAYqJbk4HVKMPv6eeEveaSznNKXufgrOhUUj7bEAVnbm0FZM4JiSTESdvoCkPCnMbNs+eZKyid5lpbgRHYZzsZl42CDWkswQbLhohslTnZAbfgHptSawbauPJypk0ydLf6q6BlOchpj0OpjXpSIsWQyb9maNX3jNFCM9KhW1dhaovnoG51JFsHC0hJ70Pq6GnUZCiSHa2xgpbJKh9K805JaXouBR476sK7qKM2GxuF0lRq1IGxamOvJtcZVgzXOW2tHgTOTFhuDYhSRki9vBxUqM6ycP48yVLFRbuMLOkNuqWlV3/ypibwvQFjdwJvwaSvVtYGMkt0N1zBiUZEbh9IUk5EnNnvRTWeoJ/HkwFEeSymFmxqBcZgtnK11wVNaEOhRdPYOw2NuoEtdCpG0BUx0OwNI2wKA4LQbpdeaoSw1DstgG7c2e9p6sMBaHQs8jISUVNypN0dneCNWZZ3Do1GXcErdFZxtV+7RW4s7lcJyNz4HMVAeFt0thJslEqLr6hJdd45RobS3TYsnFslSc+PMgQo8kodzMDEy5DLbOVtDlqM59Ng2rbJtVJ40c+ZtrWnM59IJQ3pLkTYIpPE7fTPKlrRfTKH7jh2TtMJH25jLEPNhBH5p0pLnRYiIiKgv5lNpZedHJWiKS3qPQpXPohz8j6MKBRTTQuhNNP5hKcVunUmdtMxrqu5R8pk2j0d3NyHzUNsplqqggbSd9ZteWxvyWQKm3H5M4fz996j6UVl1Mp8uBH5Ftx5l0pkrZOiKiCrqy9lMa9812OnfxLP0+tQvpGcu3X2u1jYcKqMkGNSqPy6P7CVtpamdtMhvqS0t9ptG00d3JzHwUbctt0oJ8a7LQpTTnhz8p4sIBWjTQmjpNP0QFDJEoYg51sJpOx1XsZkREVHFlNY3+6BsKjk+iM2s/IUdtPfpkXzUxDxNo61RX0rZUnCu9Q1u9venXa/fozqVf6JPhy+mahEh6L5SWzvmB/oy4QAcWDSTrTtPpYGocbZ3ambTNhpLvUh+aNm00dTczp1HbcokhIubxOVo6ZhqtO5NEiccCaIhTd5p1JL9pbIiIKq7Q6tEf0TfB8ZR0Zi194qhNep/so2pSfe1DBcqtMPRgx4dk0nEuybupjEI+bUdWXiep+mGCGjsZyt//KbkPXUUX0y9T4Ee21HHmGVKWCFNwkdZ/Yk9anTzJf8aHNGyQG1kIjKnX8otU9jCRtk/vQjrmQ2jmgnHUy7oNfbIrnfZ/6k5DV12k9MuB9JFtR5qpEJ7qXKhorN1bNyh261Ry1bak6YpOVX2epEX2E1NAF9d/QvZancjTfwZ9OGwQuVkIyLjXcrpY8awar6Arq0fTR98EU3zSGVr7iSNp631C++SdxnKOMgwVHv+GJvlupYtp8bTxQ2tymLiXchmGHp9bSmOmraMzSYl0LGAIOXWfRUfy5S000juTzxrr6oPjyaTjSPL5dBQNHeBKplptaMAPV6hSjT4lLe7PCnqYuJ2md9Eh8yEzacG4XmTd5hPaU9LAu+JrtGdGN9I1HEJfr19EfnOmUT9rA3Kf8ytt8v+CvpgxilyNHenz0xVEarQovbOVvL1/pWv37tClXz6h4cuvqdwakS3P1dWORjAPaMeHJtRxbjTJ0yiEPm1nRV4nq+lhi2sVQwUX19Mn9lrUydOfZnw4jAa5WZDAuBctv1imOmaPH9O5pWNo2rozlJR4jAKGOFH3WUconyESPbhFib+NobZ2n9GOxOt0o7CapSbU0Z2t3uT96zW6d+cS/fLJcFp+TULEsLQteUiJ26dTFx1zGjJzAY3rZU1tPtlDDbqPiCopPuAdMjAeS/vLFP8kOke+IxZQjKrt6Squ0NpPx9E328/RxbO/09QuemQ8/iBVq6lP8hRT5U/TuLK1ob7GKbXS2lq25zF7Looe0K3E32hMWzv6bEciXb9RSNUsuV+nUsNseS5RrZOGnfN317SW5tAL4A2eDFbR6RnONGrrA7kwK6/Q5rnLKCRHSlR7krysnZ50mDh6LjlZyzus9uyX1H2wP20KCqKgoEDy8RCSVr/1lFMTSXMcTWnkH4p9Ps/PJAfLyXSklohEkeTb0Zq8T8kHUEnyOho9LpDSJURMbiAN1O9Da2413TFRHPsNdX33e8pUfCWOW0idTRR78T6LjUoCYT9ORJFzHMl05B+KPVTP00wHS5p8RMWsrvYsfdl9MPlvCqKgoCAK9PEgoVY/Wp/DqJ8MihNpmYcrzY0SKT5fJn9nQ8UgQSS6MJsc68+tPUKT7XvTwvOFJCEJ3YyJoXvSWjr7ZXca7L+JgoKCKCjQhzyEWtRvfQ6JIueQo+lI+kNuPJ2f6UCWk49QLdVSlJ8LuS+Mkw8qJKU7GwaQvo03napsaBwRkZgSl3mQ69woklsopsv+zmT4yT6qJvZrK1N70ousneoLpZii5zqRtaLYstspoeR1o2lcYDpJiKHcwIGk32cNqZAIVR8YS0Y2n1LwfYaIRJTyXS/SNRxF2x8wJI7ypQ5GQ2jzXYaIkRIjSaZ1o8dRoFx4FDhQn/qsuUVSdbmgpF0SXaDZjlaKySDbeaIW20/VB2iskQ19GnyfGCISpXxHvXQNadT2B8Q8g8Zvxi8jD9e59FRW/uRsKC+cbOco5wVVnaYZzqNoq2Jf0sorm2nushDKqYoiPxd3Whgnt4ekd2jDAH2y8T5FlcqTQdZY108GZ9P5SiIiEWX8PJCMjUbRtgfVavXZ8v4UU5RvBzIaspnkhyo7SCS+/DW5GI+kLfcZIpJS9k/vkm63JZQkIiKqpIOe5uS6IJbEarRYe2Qy2fdeSOcLJUSSmxQTo9hXttGF1OS5mtrRmFo66WVNTvWTQXE0zXWyJq+TtUTUilpF1XRgrBHZfBos37dYlELf9dIlw1Hb6QHTNGa1UX7k4r6Qnnb3Bhqgb0PeimJRe8qbrDv6UqSIiFhrwg06Mtmeei88T/IwxVDMPan6tsVR5NvBiIZsvksMMaSi+4gqz9AXju1o/AH5nuC1UYvIe+PtpvEnMcV+05Xe/T5T8Z2Y4hZ2JpPxB0k+jLDVJzZ/XlSNa0qralmt+lyk2lPkbd2RfOWdw5r7N0JVaFht20110oS/saa1PIeeH5U3dt4IpH8hNrECJuaKn8P1e2N24EqMcVC3ForBnfgUiLqMwnRvb3h7f4lfYytQHeEHBx4fAr4Q5pYW4AHgGZnCUCKWv5hTCX43f+xf44zoH1dg9d5rKJMxYJo83yDFjfALKLRzRv3Lyrk8Pviq7sE0Qo2NjXpT3XEc8AV8CM0tYSF3BqaGEohVOMPciUeKqAtGTfeGt7c3vvw1FhXVEfBrfLEmSG+ewukbbdHBUfE7N1cPerpPneMIBE9vm2kPxOc+utgz0gWdh/kjRtgZNriD+BQRuoyaDm9vb3h/+StiK6oR4ecADl8AvtAclnLjYWRqCIm4DjJpOs5F5MLIog3kIeXBtu+7aP84AbE3lTpAehOnTt9A2w6O8tsU4EJPT1d+C4xhv3ZrYLUTfHTz3481ztH4ccVq7L1WBhnDoIlEAIDLBdfQGnYmXABCuI37GO6SHNy6JwN4fPB0rWBryQW4PHD53eC/fw2co3/EitV7ca1MBoaRti4XOAII6juG9Txhy+0HF1yuIaztTMAFIHQbh4/dJci5dU/Ngzps2p0Ncdhp3GjbAU9lpQe5rNjOUc4LQPpXLBIrTGCuuA2u33s2AleOgU3WOUTkGsGijSIuPFv0fbc9HifEQlk+YIu1Ao6uMYy0AUAIl4lj4CHJQfbtVPX6bGl/AuDxedC1soX80Ka5yBUIIODpw8iAC4AHY2MDcPWMYMwHAD709YWQiMQgNVrUHvg5fHT3YKRLZwzzj4Gws43C7qeoy/NnrR2NaXmtAgAulwtDazvI08UN4z52hyTnFuTp0jBmMqSfi0CukQWedndfvNv+MRJibzbVMmtNcMbAz32gu2ckXDoPg3+MEJ1tqJm2eeDzdGFlawkuuFDRfYD+YPh97ohzv/yBTGkZzhwuQ//xDk3iD+kNhF8ohJ1ze8V3XPD4fJW38hvB6s+LqnEqaEUtk6W3IhfV5L7zf5pqmJppu7nc+vtq2ovKoZbx4lt8VeBoQ1urDNfi0/DksQ5RGhJT5c9rcwClTW8JBEAo5CHvcjTucLWgpaUFLS0+SnJzUdnw0GaoiVuJIZNOwmnmMiyZ1R/WLFEW14lRc78Qj1gU9Lw2tvQ4tQiF4OVdRvQdrqINLfBLcpHbXCNiCeqYhygqapK5TZEBbr5nkZG0DRO1z2D++2MReIMPIS8Pl6PvgKu4rha/BLnqLszRgVDIIP/uvSfFnKOrA22+GSzMlTtBDEkdg4dFRU0LP4StuLY8axt3k5rHTQEANYhbOQSTTjph5rIlmNXfusWJyDHQgw7fDBaqnvisicPKIZNw0mkmli2Zhf71wmsmF1hhPa/kme0HxwB6OnyYWbQB9xk0XiKpA/OwCKpkxXaOcq9xtLWhVXYN8WlPH/gSpSUijSuEkMnH3XtP1ANdHW3wzSzQRD5ssVYFlwuuwBLW1nqt0Gcrr/HMsGtRBjf4ns1A0raJ0D4zH++PDcQN5Tc4qcvz1tSOpkJoPo2ahQMDPR3wzSxUPFXPgY5QCCb/Lp52ty50tPkwszBXoWe2mlAOuPnibEYStk3Uxpn572Ns4M1Wtq0KHlx9/DA8fwvW79mLM9wR+FjlUwVi1IlrcL/wEctEhK0+sfnD2jkq2ng+1NUyjk4rclFN7per0PBNrda13Swvsaa1Koeek2dx/fWA54Rhw1xxO2g2vt4fj6z0SPyxaDeyDAUA1wQmBo+RffMRGGkhLkWkobymClUSHuyHDoVr5lpM8NqI8JQsJJ/4CatC8yEANU02kncyOHzwuWJUVUlQejcb104fxTWONeyMgOL0LBQyUojL85HXaI9HPlzf6w3T2I34eksCHlQ+QOKl6yiuP+SZbGyI+uOoqTMq85tnPxRDXTOxdoIXNoanICv5BH5aFYp8gcL/+hgowXcbjEG2t7B3zV7cFAGofYziKgmqKqvlB5B8I3QAgCgCmzbGQcttLFaEHMT8Dnm4VWSNoUNdkbl2Arw2hiMlKxknflqF0HyBKuNBRADPBWM8e6H0xG6EKwJZkZ6J2mFeGGurJHW+GwYPssWtvWuwV24gHhdXQVJViWqePfu1leCamMDgcTZuPmIgLbyEiLRy1FRVQQKVQZbbKc1G2NFr4FjbwQjFSM8qBCMVozw/T/lwAABVlKBeOuVxiSjq64mPbBT+NIi/NDsMR69xYC0XHrIKGUjF5cgvNGPPhUbavYtSmVwHBDU5pHuvVfaDKlDy1AEkFvWF50c24LZa4/fRdfAg2N7aizV7b0Iuq2JUSapQWc12jnJeADynYRjmehtBs7/G/vgspEf+gUW7s2DiNgaevUpxYne4Ig8rkJ5Zi2FeY2HLbax31ljnlQAAiJGCkQGADEVh51H88UyMtencvD5b0p/111CVsPVQg34E5P/ToG3FR7VaFEVswsY4LbiNXYGQg/PRIe8W8pUGLHV5rrZ2NIILExMDPM6+iUeMFIWXIpBWXoOqKgmgMo1U1yo5hIqS+j2iyxGXWIS+nh/habrUn8iDyxhP9Co9gd3hxfLjK9KRWTsMXmNt5QMjIwNJpWAAgLUmMIjYtBFxWm4YuyIEB+d3QN6toubbVuuDArOPMH+aMULmb4PRmPdVP+XNd8V7vU0Ru/FrbEl4gMoHibh0XXFNdfWJ1Z8mncPeBlR2jlpdtrSW8VyayUUwkJEUUnnnsOY+o0LDRR2ba1u9DwD+pprWzPj7olG+b/xGUZtF+2f3J0cTAzLtNJwWn6hf8yKm64EfkIOJNXUbOZ/27PIlD9cR5L81jooYEd0Knk+DO5mTro4FuXsGUnxFGWUc9qOeekJyn7GL4m+m04klA8lU0Ikmb4mnIkkxnZjjTm3s+9KsvTeoKulnGm5vSnY9x9CC7UHk42ROXafuoDTlhRTMA4pYOYqcTfXItMs4WrfVj94yVawZbLWNSm0TEZHq48oyDpNfTz0Sus+gXfE3Kf3EEhpoKqBOk7dQfFHTtQiiW8E0f3AnMtfVIQt3TwqMryCqyKTQOR6kq+VG3jsT5Gt0lChLCqIpPWzIynkgTfpqEXl6dKJBMwMpIu06hcztQXpabuSzJ5keVx4iL2cPGj1vFQWuX0JzFgdTtoSIRLcoeP5g6mSuSzoW7uQZGE8VZRl02K8n6QndacaueLqZfoKWDDQlQafJtCW+iEh6j44tGkF9Bk8h/6WLaM68DRTzUIVxRERlSRQ0pQfZWDnTwElf0SJPD+o0aCYFRuWqvrby+URE4usU+IEDmVh3o5Hz99AuXw9yHeFPW89HqbHzLiX9PJzsTe2o55gFtD3Ih5zMu9LUHWnKrVP1wfFkbPE2TZy/nFYs/4qmTVlCx3OlxJSkUrBfTzIQdKTxGyLproSIREn083B7MrXrSWMWbKcgHycy7zqVdqTVsucC00C7uxMoJWQu9dDTIjefPZT8mGE5T9Ri+6n6II03tqC3J86n5SuW01fTptCS4/J1t8+m8TJKCppCPWysyHngJPpqkSd5dBpEMwOjKFfKdk5TarP20+z+jmRiYEqdhi+mE/fkFknvHaNFI/rQ4Cn+tHTRHJq3IYYeMtRU7zXssZbeO00rJwykQWNn0+KARfRVQDBlyZfKsuqz5f05hTaH7iW/ngYk6DieNkTebfpQR+UNOr7gXTISuNDUP2IpJzuCfh7jQIJ2I+i7sCy6k7CTZrhrk97bvhSS/oC1L6sPeZGzx2iatyqQ1i+ZQ4uDs5teS02eR+VKVdcOFYivB9IHDiZk3W0kzd+zi3w9XGmE/1Y6HxXSilpVTQfHG5PF2xNp/vIVtPyraTRlyXHKlTJUkhqsImZSundsEY3oM5im+C+lRXPm0YYY+Rq96uxz9MuETiQQuNLUX49SYgHDUhOq6ZCXM3mMnkerAtfTkjmLKThbwt42U0KpwX7U00BAHcdvoMi7qiL6FCb/Nxo1YCWlqjmMeRBBK0c5k6meKXUZt462+r1Fpoo1g6z1Ka6IxR8VsLWhtsYVKbfSulqmLhers+ncLxOok0BArlN/paOJBcSwjHVsGlbdNptOlPhbaxrL+PsS0OxN/AohTVoKj6G3sCTvIMbrKn+r4d9ITbAnbFY4ICx5DXo1fr/B60FNMDxtVsAhLBlrXksHNLw+1CDY0wYrHMKQvKaX0utAXk/El7/FV6le2DTTvoW38aRIWuqBobeWIO/geLxKw8hrX8vqeUNrWsv0peFvQunWjgYNRI1un7x+yJcDaP7k1PB3IE+X111sNbgddRThcVH4dUcVhni2dCKooOESnFeJ176W1fNm1rRWaUzDS6TqNqJPxSG/KhMRR5LxoOlSDA3/MqSFiTgckYWqogScPJv5ZK3Na4O0EImHI5BVVYSEk2eR+do5oOH1QYrCxMOIyKpCUcJJnM2sXzf4GiLNwp6vJ2HUx0tQNPprfGiqfAA7VbejcSouH1WZETiS/ED563+M176W1fMG1zTNbeJXBaYGZWXVkMgAcLVhaGbwct4yruG1QSYuR2mF/DUNXL4OjEwa7GLxOiATo7y0Qv76JS4fOkYmT97yr0HDi0UGcXkpKuRiA1/HCCavs9gYMcQQQtjkXTLqYWrKUFYtkdcMbUOYGbwao8hrX8vqeYNrmmYyqEGDBg0aNGjQ8C9Gc5tYgwYNGjRo0KDhX8y/ZjIofZCIfd9+hmFfn4QIAOqu4PsR7+PbqBrlQ1uIDCVZl3Hlr1LIAMhKH6FE+YWsfzfSDBxcuQxBUQ9fyHqZJjF7I5Ei4+BKLAuKwsPWBu25NdQyZI+uYG/gBmzYoOq/jfgzsUz5lNYjK0Fq6E+YOWoSAjNUvf20Dle+H4H3v41CI2+Zezi5binWnchR8fLu1sDS/htDDXIu/I4F4z7E8iix8pdvEC/WT9Ffx7F59XJ4DR+EiT+cR1GLc7QGORH/wzfjRuC/557fjpdCTQ4u/L4A4z5cjhcQqlcf6QMk7vsWnw37GidfmQFFhL+Ob8bq5V4YPmgifjhfpHzAy6cmBxH/+wbjRvwX/6RU/zWTQTEjRE1WBGJzKuQTJX579Bs/AQOdnm1NhTRjBwJWrIRXb1e84/Ud1q47iLTnGw2fm7rE3Vh/jotuHvI3oT8vTWL2JlKXiN3rz4HbzUPFLgUqkN5HYf2s8Tk11FKk2ScRnAC07/Y2ejg/xMFFK3GB6YYeHm5oVxGBA2dylU9pPVwttO0gQ2ZEOh7VKn8JAHy07zceEwY6NVrLytwNQeC+Erj0tH/ONUCq22elYT+8FnBhZMvD7chE5Fe+yStzXqCf4itY4X0IFrNWImjNaIhPhSK+QvkgdozsBLgdlYi8que042XBNYIt7zYiE/PxvKF6LRAzENZkISI2BxWvSOqKr6yA9yELzFoZhDWjxTgVGq98yN+AEewEtxGVmId/UqotGf7eCPSsOqOHi+VTh7lt0W+aFwZYt3KFbj0672H+vnAkX9sH7w5cmI8ch/daNIq9LBjk5tph0b5v0Uflq+pbT5OYvYEwubmwW7QP37YoaAzu7lyGjVcV25g9r4ZaivZ7mLvWDx8PfA993raHEVcAM6d30LffEExY+jPm9Hy+aZgcfbTp1B6WQrZdTblo228avAZYN9gfVYaSLB18um8DPlC5VVZrUNU+G0r98FqgDVP7DrAyet44veq8OD/rUo7h1H0jtNEGtN19cTj2N3xsrHwUG7owtXOCnSmbnl8BtE1h38EKLyBUrwd6VujcwwXPXSpeGHVIOXYK943aQBvacPc9jNjfPlY+6OWjawo7Jzv801LlBQQEBCj/4xsFU4yMyDBEZ1RCknsaIcV94O/5FgSQ4uH1aGQwdrA25AKoQ9HVMwiLvY0qcS1E2hYw1eEAEKEgMRxhMRko0bWBval8xieTFiA1sw6ODkYQVUhgYNcJHcy15deUleJGdBjOxWbiIdcS9m10wQXAFKchJr0O5nWpCEsWw6a9mZoXozIoTo9Caq0dLKqv4sy5VIgsHGGpJ8X9q2E4nVACw/Y2MFLMA2SlfyEttxylBY/AtbRHG115xtUVXcWZsFjcrhKjVqQNC1OdFmxizhYzAKICJIaHISajBLo29lCEQyVMXixCjl1AUrYY7VysIL5+EofPXEFWtQVc7QzBlT5CanQG6uyMUXL5FCKyObB2NIc8ijKU3ohG2LlYZD7kwtK+DRQusVN3H1djb0PQFrhxJhzXSvVhY2Mkt5spRlpMOurM65AalgyxTXuY8UvxV1ouyksL8KhBP9W3lXIuDNFpjyGwsoO5dg2y/pyHCXMPodjUEhzShXNHY5Q00pCq8+TRlpXeQHTYOcRmPmzUPy2B164jHA0U+4NWJ2HfL5HQHzsfo134ANcUHTpaAGquwRSnIyq1FnYW1bh65hxSRRZwtNSD9P5VhJ1OQIlhe9gY8QFJJkI2XITZ5Klwyg3HhfRamNi2ffK0nPThdURnMLCzNlTESYyy8hIUZd1okBtSPEqNRkadHYxLLuNURDY41o6oTw11NG6frZ1qFf1gDr7KPGVQnBaD9Dpz1KWGIVlsg/ZmWqwaVpkrLLmsHhbtMncRFnQYkmF++MiZDzDFSI9KRa2dBaqvnsG5VBEsHC2hJ72Pq2GnkVBiiPY2RopfXFnaBLvmVNcutrgqLFepIZY4sqHsJ2u77JSlnsCfB0NxJKkcZmYMymW2cLbSBYel74A63E85h7DoNDwWWMHOXBscJg9nfwtG9WA/vK+TiPDI2+DZOsBUYXprbapHVJCI8LAYZJTowsbeFEIA0kepiM6og51xCS6fikA2xxqOLRA9czcMQYclGOb3EZz57GNH81TizuVwnI3PgcxUB4W3S2EmyUSouvqL1tXzJ6jUmxp9gkFxRiTCojNQKcnF6ZBi9PH3xFuCZ+mDOty/Govb8iKP8Gul0LexgZG8yKvWKVOCzKjTuJCUB6mZLdrq8wGUIfXEnzgYegRJ5WYwY8ohs3WGlS5HZf+irghXz4Qh9nYVxLUiaFuYQocjv2ZJZhROX0hCntQMtm3rn5JmsYUFJu8sfguuxmC/96GTGI7I2zzYOpgq5gfqYvvieAlNvkJUxuHHcd7YXWILR63L2HIwS76uSfYIidt8MKD3RPx+TQKAQc62WVgWb4XeHoaI+34R9tyVAUwuDi9bgF13dGHBSUBA/7fhFZKPB4nb4DOgF8YtX4uAeSuxfc8P8HxvMrbnyQBZAQ5MGYB5V9rA3aEAm4b3hm94JR4l7cCM/r0wbulqrFy4ALMn/hdHS5UNViArQfLemRjcazSWb96IgLW7EbpxBvoOnoegzYsRsOU49i4ejgFzw1AJQFZwAFMGzMOVNu5wKNiE4b19EV4NMDnbMGtZPKx6e8Aw7nss2nO3+du9bDEDwOQexrIFu3BH1wKchAD0f9sLIYXsLfJse2OA7AjmL9qPm1IuzLr1g875xfhqewrEjxKxzWcAeo1bjrUB87By+x784PkeJm/PgwwyFByYggHzrqCNuwMKNg1Hb99wKHY1Voms8BI2TOyNPj6rscb3CyzdEACv97pi0LeXUP4oCTtm9EevcUuxeuVCLJg9Ef89nKGin+RXkBWdwMLpq3BV3xXt89fjP90+w748GYzceqOzkRCmHbqiewcOkhtpiP08tv55kai+hgwlyXsxc3AvjF6+GRsD1mJ36EbM6DsY84I2Y3HAFhzfuxjDB8xFWP3G51SDlP99idkB67H0017oOmwV4qpkeJS4DT4DemPi79fke5Kqyo3gNMRv88GAXuOwfG0A5q3cjj0/eOK9yduRxy4TAErt1+cnSzuN+sHJAnwWWxJ2zED/XuOwdPVKLFwwGxP/exSPWTSsMldU5nJzHdcy7cpKkrF35mD0Gr0cmzcGYO3uUGyc0ReD5wVh8+IAbDm+F4uHD8DcsEq1bbJp7ln6R6WGKh8hSUUc2UqXKlS2qxwQJXTauqKroykEWhbo2K07OlvrgFj6DrIinFg4Hauu6sO1fT7W/6cbPtuXp6h1DB5e3IgVGw7g0E8T0HfKbhSy+dqMTQCD3MPLsGDXHehacJAQ0B9vewUjLV7NeNAanklv8pq97jNv/O8vXVgb38P6Ic4YtDoeUjX1V/IM9RysepOy6hOoRNyP4+C9uwS2jlq4vOUgshQDSqv7QFaISxsmoncfH6xe44svlm5AgNd76DroW1wqV63T4uLzWObpjzCJAzoK4/BNv3cw+2gBZNBBW9eucDQVQMuiI7p17wxrHVLRvyEolORg26xliLfqDQ/DOHy/aA/uygDIinF+mSf8wyRw6ChE3Df98M7soyiQqral2ZxhHuLixhXYcOAQfprQF1N2Fz7TWPjMKO9P9+YgpsRlHuQ6N4pEis+X/Z3J8JN98j0bRRdotqMVTT9eS0S1dGSyPfVeeJ4KJUSSmzEUc09KtWe/pO6D/WlTUBAFBQWSj4eQtPqtpxxGRJFzHMl05B+UKyUi0Xma6WBJk4/UEkmSad3ocRSYLiFicilwoD71WXOLpCSmKN8OZDRkM91liBip8r6aSogv09cuxjRyy31iiEia/RO9q9uNliTJvak86EnmrgsoVkwkSV5Ho8cFkvySgTRQvw+tuSWl2iOTyb73Qjovd4piYur3ZmZDXcxq6eyX3Wmw/yYKCgqioEAf8hBqUb/1OcqNNKL2pBdZO82laDERkZii5zqRtddJqiUiUeQccjQdSX/Ig0jnZzqQ5eQjVEsSSl43msYFppOEGMoNHEj6fdbQLfXGU/WBsWRk8ykF32eISEQp3/UiXcNRtP0BQ+IoX+pgNIQ2y4NPDGs/VdHpGc40ausDYoiIKq/Q5rnLKCRHSiSKJN+O1uR9SrHJdCMNsZ/H1j/PAvPgN3pf24KmHG280TX7NcR0+WsXMh65Rb5/tDSbfnpXl7otSZL3ceVB8jR3pQWxYvmemyYdafb5SiIiEmX8TAONjWjUtgfEkIguzHYkq+nHqZaIPTdqImmOoymN/EO+V6fo/ExysJxMR5T35W5C4/ZJpKYdpX5gtaU2inw7GNGQzXeJIYakDLuGVeYKq0bUoUa7ogia06FeL0Tiy1+Ti/FI2iLvGMr+6V3S7baE5CleSQc9zcl1QSyJWdtk1xxrTNT0D6uGxMpxVHJZGSU/WdtthtpT3mTd0ZciRUSkpv5UnZ5BzqO20gN5EOjK5rm0LCSHpOKLNL+TMX2wTV5DRZFzqIPVdDqhzld11J6lL7sPJv9NQRQUFESBPh4k1OpH63Nq2MeDZhBFyG06Xktqxg51iCn2m6707veZT/bGjVvYmUwUexOz11/2eLLDpjcRiz6JxInLyMN1LkXJBxQSX/YnZ8NPaF/1M/ZB9QEaa2RDnwYr+jTlO+qla0ijtj8gpolOaynKz4XcF8aRmIiIpHRnwwDSt/GmU5VERLV0ytuaOvpGymshW//eCKXJ9r1p4flCkpCEbsbE0D0pUW2UH7m4L6Q4eeMkvbOBBujbkPepylbnjPjifOpk/AFtU4xdkXM6kNX0E888Fj4Lb+4vg9KbOHX6Btp2cJTfJgQXenq6T2+RcgQQPFlqpY2Bn/tAd89IuHQeBv8YITrbAHfiUyDqMgrTvb3h7f0lfo2tQHWEHxy4HPAFfAjNLWHBA8AzgqmhBOI6GcDvBv/9a+Ac/SNWrN6La2UyMIz8TyEenwddK1tYcgEur5nQcwUQCHjQNzIAFwDP2BgGXD0YGcuN5uvrQygRQUwAv5s/9q9xRvSPK7B67zWUyRgwUkB74Ofw0d2DkS6dMcw/BsLONurXY6mLGXMH8SkidBk1Hd7e3vD+8lfEVlQjws9BuZUWw+ELwBeaw1IeRBiZGkIiroMMfHTz3481ztH4ccVq7L1WBhnDNP+0KpcLrqE17Ey4AIRwG/cx3CU5uHVPBvD44OlawVYefHDZ+kn6F2ITK2BirriNot8bswNXYoyDisg11JCa89j650XCfg0uBAIBePpGMJALCcYGXOgZGctvZ/D1oS+UQCRWrFzm6MLYSH57S+gyEWM8JMjJvgcZOBA8cZZhzw0eHwK+EOaWFpCnhikMJWL5S1rV0rB9AJyWtqPGFi4PfJ4urGwtwQUXPGLXsMpcYdOIWlquXa5AAAFPH0byjoGxsQG4ekaQpzgf+vpCSERiEFubrJpTU7vU9A+7hpTi2EzpUoa93VbAWn9s8FdsIipMzCFfqaGP3rMDsXKMg6LWacHIxEheQ/UNoSuqQa1aX9lh7sQjRdQFo6Z7w9vbG1/+GouK6gj4OfDYx4PW8Cx6k95A+IVC2Dm3V/jLBY/Pb8FSILZ4qqnnrHoTqtYnpLh56jRutO0AR/mAAq6eHnQVxj1LHwBccLmGsLYzAReA0G0cPnaXIOfWPciUdSpLx7mIXBhZtFHEhgfbvu+i/eMExN5seiHW/nX+Dz730cWekS7oPMwfMcLOsOFJkX4uArlGFmijGBp4tn3xbvvHSIi9CamyLS3JGS0jmBjJa4G+oS5ENbXPPhY+Ay0x8TVFDEkdg4dFRS0InAxw88XZjCRsm6iNM/Pfx9jAGxAKeci7HI07XC1oaWlBS4uPktxc1N9RU0lNHFYOmYSTTjOxbMks9Ld++SGuiVuJIZNOwmnmMiyZ1R/1l5TBDb5nM5C0bSK0z8zH+2MDcUPt62/UxUwIIS8Pl6PvgKuliAe/BLm5aqMBKMpSo4ekmn3PeQ3iVg7BpJNOmLlsCWb1t34moXIM9KDDN4OFqseE2fqJow1trTJci0/Dk8cTRGlITG3mXQhqzmPrnxfJy7kGF1yuAJbWVk3i/0y58ZJouS3sGlaZK5UsGlHLi9FuY1jaVKO5lsfkKS9HQy+qXba+q4K2thbKrsUj7WkQkJaYquJ1WBxwFLv2PpNNQiF4eZcRfYeriKkW+CW5aLYEthS2mqQWMerENbhf+IhlCRBb/WWLpxpnWPVWolqfAMSSOjAPi1DUdEB5tj5QhmMAPR0+zCxUvEGDowOhkEH+3XtPxjOOrg60+WawMG9yNHv/lgNuvmeRkbQNE7XPYP77YxF4QwYdoRBM/l3ce9o4dLT5MLMwb2pLa+FwFP3EkvsvgZfV7j8P3w2DB9ni1t412HtTBKAWj4urIKmqVNxvl280LU8SESI2bUSclhvGrgjBwfkdkHerCPZDh8I1cy0meG1EeEoWkk/8hFWh+RAAoCaZJ29Pmh2Go9c4sLYzAorTkVXIQCouR35eifyoZidC9ZD82CeH05NrPP1IAKTIDjuKaxxryC+ZhUJGCnF5PrKPBWJjnBbcxq5AyMH56JB3C/kqkvIJ6mLGs8fQoa7IXDsBXhvDkZKVjBM/rUJovuJPPha4JiYweJyNm48YSAsvISKtHDVVVfJ1Z02DKPdZmo2wo9fAsbaDEYqRnlUIRipGeX6e8uFNoIqSJ/telscloqivJz6yUci8wSbprP1UaIZhw1xxO2g2vt4fj6z0SPyxaDeyDAUAhw8+V4yqKglK795FqayBhnhOLOdxWPsn73EhLm7ZgEOZTYctVhgGDDFgGk3q2TWQVyIDKW1cL5dOIyE1kBkDKSMPoKwoDOeLP8bMse3ArT9H7qya3KCmg1ILN6dX1jtrO436IQ+GQ9hskbfzxFU1GhZFbGqSK/dusmhEkcsqUatdeU4/DX3DGvSkY558Vnxkb7NIm0Vz2s/QP+o11CiOzdLQz+baVQMjA0mlYKCu77ThNGwYXG8HYfbX+xGflY7IPxZhd5YhBFDovqHdLfJVNTz7oRjqmom1E7ywMTwFWckn8NOqUOQLVJWyFsaLFLFSV5PU6Y3vivd6myJ249fYkvAAlQ8Scel68ZM+Zq2/rPFUU8/ZapzuPdX6zC+C2+BBsL21F2v23oQIQO3jYlRJqlBZ/Wx9AACgCpQ8LfJILOoLz49sFJOZhvnugjGevVB6YjfCi+XHV6RnonaYF8bayo9mZASpVF5MWfuXicCmjXHQchuLFSEHMb9DHm7lE1zGeKJX6QnsDlfEuyIdmbXD4DXWtqktzaEoBI2l+nxjYatRvm/8RlGWREFTepCNlTMNnPQVLfL0oE6DZlJgRBqlh8ylHnpa5Oazh5IfV9IhL2fyGD2PVgWupyVzFlNwtoSIRHQreD4N7mROujoW5O4ZSPEVRGUZh8mvpx4J3WfQrviblH5iCQ00FVCnyVso/m4C/TzcnkztetKYBdspyMeJzLtOoc2he8mvpwEJOo6nDZF3SaJsayMq6cbxBfSukYBcpv5BsTnZFPHzGHIQtKMR34VR1p0E2jnDnbT13ibfkHR6kPQzDbc3JbueY2jB9iDycTKnrlN3UMI+L3L2GE3zVgXS+iVzaHFwdjPXVROzqFwi0S0Knj+YOpnrko6FO3kGxlOF8vnKiK9T4AcOZGLdjUbO30O7fD3IdYQ/bT0fRYf9epKe0J1m7Iqnm+knaMlAUxJ0mkxb4u9S0s/Dyd7UjnqOWUDbg3zIybwrTd2Rptx6I6oPjidji7dp4vzltGL5VzRtyhI6nislpiSVgv16koGgI43fEEl3JUQkSlLRT1NpR1otUW0W7Z/dnxxNDMi003BafEKx1pIpphNz3KmNfV+atTuBUhppiGE9T8TSP2ll52meizWN+C2nmXVBciT3rtCf3w6ltjw+dRi/no4lK9buqLlG/PXjtOBdIxK4TKU/YnMoO+JnGvP/7Z15fEz3/v9fmUz2jSxodoIkmpvySy1VtV1ay9VWLaG3lITeIrE0Vbl22lJdaND0fqu0tfWKoNZYI0krshGVjQohSGxZZJGZzJx5/f6YQTKZMwnaW/Q8Hw9/cD7nc97755jzOeftbcZnBn3IuLwLTPt+IgMtbfh8eCyzSy5x3+JR7NN3OKfMXsjI9xYyJq+apMCy7FhO7WxD84AJ3JB5i4LB3ChnzvZp7GJjwcCJPzD1bDZ3z+lDR7P2HLMmlcWi+2b057/ALGPzqOr4YeMZqgzJUl7K0zHT2MXOjG1HruDRi7rIF4nh6q0GcsVYjIiiEIndFOZuC2OQtTkDQr9n2vlc7pr5Ih3M/Pj2N8ksyI/nF8O8afbMIH4Yl8cLad9zYqAlbZ4PZ2z2dZE5s0RjznDtMu6fi2kGYmjsam7baMCOolTU1/OaIBqbxsxYnX+IX45qTzMzf7791U9MvyqI+o6sYd7mKezVpjntHNtz4OzdvKQuZ3bsVHaxNWdA6DoeP5PFnTpdx67NYKEhXRuRiSQV52I4o197Oltb0SUwmFGpFcbXA/GgJytyuS0siNbmAQz9Po3X7jxMvJHC9XguHuJLRxtHPjvic3477W901O0ZFK2/KcVG7GkEg/EmFvNZJMuZET2Wnd1d6dvnTb4XGcyg9n05KSqB51IfwgfVWziymQufHz2D8xfN53vjxnLOrkKqBZF8V1/izshB7N5vLCPmRjJs+gom3RBIVjP/0Jcc1d6MZv5v86uf0qkNsYb+ZfVWhvgGcej0JYxaPodhs2OYryJJNS/tjOSg7v04NmIuI8Omc0XSDQpisohRns3YqV1oax7A0HXHeSZrp24tHMu1GYVGbPv7IvUmlnhquBMTDPdF3ojLXIau4m/xS0hISDylqJExNwivnJuDy1tGwlr/8JPOnRgEuy+Cd1wmlklF/nfl6X1MLPHXg2zyI0kJCQmJpxK9bSFPF1rdpJ+wfn+km0GJpwJ1UTq2x+ehqjgNew7m3ts3KCEhIfFXoep8IvamXEFVbjx2ZF7XP/xkoy5C+vZ45FUVI23PQeRKRf53RXpMLPFUoFHeRllFLTQAZHIrODS/+yV4CQkJib8Gwp1ylFertHXQ0h5Odk1pKfKEoFHidlmF9vNSMjmsHJrf644k8ehIN4MSEhISEhISEn9hpMfEEhISEhISEhJ/YaSbwYeg9vhHGPTyAiTc0T+iR+1xfDToZSxodGDTUF9Px6YFb2HA+3sMfFD1T+ZOAY78ZyZGvDofCUr9gw1poMsj20qD0rxjOP5bGTQANGU3UWr0A9tNQH0d6ZsW4K0B72PPAxn8DgqO/AczR7yK+U0xxu+BOgdbFs9DdMKNht+Ra4Qmx/PDoCxA0uZvsOrLFVixQu/Pyi3IKNc/4eG5U3AE/5k5Aq/OT8D/yOoPzkPH1F8dBX7btRpL54dgYN/R+Phwsf6AJ5Km5l5Txz1OPFg+qnE9fRMWvDUA7+sS45F11pQi79hx/FamAaBB2c1S7TcrH5qGMj5NSDeDTUR9rQg3dKusvHVPjBzVB+0a244hb42eI0ehT6MDm4ZSsMCdvHgkF1Q88IL/hyNzgIfpeRxNv4LKJmw8aKDLI9pKnfMdFi5ajJBu/ngh5EN89vkWZBn7wHZTUAqwuJOH+OQCVDyQwWVw8DDF+aPpuNIUY/wO1Kavx/JDMnQMMvAl/gaoca3o/k1jk+P5YbBojZ7Dg3D9+0h8kuaMV4cNw7Bhw/DGq73hfn4/DhU+qpPuI3PwgOn5o0i/Uvn4vkv50DH110Z5fBFCt7pg8uJoLBuqxN5tqfpDnhAeLveaOu5x4sHyUQnB4g7y4pNRoEuMR9NZjZzvFmLR4hB0838BIR9+hs+3ZBnorPUgNJTxaaLxdUMCEC7i+3krcULXg0fWqifGhfSGm4F2tfWQtULPcSHo3ejApmHj2gGd/Vo+nk6zdISXjyscmihcA10e1VZWL2HGpgPIPLkJoT4yOA8egZceqojUwcYVHTr7oWUTdbqPJRy9fODaVGM8MgIKCz0RuWkButvpH2uIcPF7zFt54l5LqSbH88MifwatnGSQWTvCzdMTnp6e8PLphGGzpqC/Q6NdVJuMpaMXfFy1fWgfWx46pv7K1OLUzr245tAClrBEYPh2JH/9uv6gJ4KHzb2mjnuceLB8tIFrh87wq5MYj6qz1UszsOlAJk5uCoWPzBmDR7yER1sSGsr4NGG6cOHChfr/+NRQew0nks/DrBVwZv8BnCyzhbu7g65NlQZlZxIRdygZuTdkaOnVAtYyABBQkpWE7Fpn1J6OQ2ZZFVI/HIOpW0vg2NIEtPZF22al+DUxB4Knm645OlB77RQOxSUi65YZXD2dYWkCAGrc+DUROYIn3OxlqL12AsnnzdAKZ7D/wEmU2brD3UHX/kdThjOJcTiUnIsbspbwamF9P4mEEuQcjUNiTiVUhfsQW9IdEcF/0+ohlCI3YR+OZFyG2skDrRp5vUpxNR0H4pKQU2oNdy9HWABQ3zyNxJxaeDYrxbG98cg3cUMbZ0v9U+ugwNX0A4hLykGptTu8HLUpJlyMQ/R2FQZMew2+YmKI6lLfVkAtik/sR1zyeVQpa6CwdIGjlYnotTXqqzidW4s23g5QVKhg59kePnV0EEpzkbDvCDIuq+Hk0aqRt9AElOQcRVxiDipVhdgXW4LuEcH4mxlEr98A4SLiordDNWAaXvOVG4m3hhiLE6EkC0nZtXCuPY24TCXcWztBXvYbsgpvo+zqTchaeqFFnYn141I4819MHzUVW0sc0dKEsPZtC2fcaFo8G4tRY7ASaRtW4udmIzH9tfbat7xrf0XGpQB09jUDoMbN04nIqfVEs9Jj2BufDxO3NjAegleRfiAOSTmlsHb3gtYNAi7GRWO7agCmveYr+ja5Qd2M+Ke2+AT2xyXjfJUSNQpLuDhaweTPiCkAQCUuHDuAg6kF0Dhaoeh8GZxUudi28wgy8pV4xs8Vyl/3YPv+48irdoG/p73WRwbtVR/hcjJijc2jvonTiTmo9WyG0mN7EZ9vArc2zjDsplpcO5GM89riiwMny2Dr7g5tGOvVWKU7WjuZi9Sycpze/V9s2bYDGbed4CTchsbDF67WJgZrmXjdEFCam4B9RzJwWe0Ej1Z3vzYgIosexnJSNC+EEmQlZaPWuRan4zJRVpWKD8c0lnu1uHbqEOISs3DLzBWezpba7sLquuOM2RYPGE+Gxv5v81EoycHRuETkVKpQuC8WJd0jEPw3Mz2dAdQW48T+OCSfr4KyRgFLF0dolwRD19ZAffU0cmvbwNtBgQqVHTzb+9TRQSweDCMqo8iaqnc2LifHYueRDOQrn4GfqxK/7tmO/cfzUO3iD097mfE1WCy+fmf+iDkfCzRFv2DF6G7oPmEploX/C3NXLETIS8+h74JfUAkNrv44Fr2nH0eLQG9cXTUQ3cIPoFpzExnfTUSvriMwd+lizJo5BaMXHIdHtw5wsHCEz3Od4GOSibUTeqPb6P/gpAoANCjePQvjl5yArX9rXFn+d3R8axMuq28ife0E9O42Gv85qUTRLyswult3TFi6DOH/mosVC0Pw0nN9seCXSkBzFT+O7Y3px1sg0PsqVg3shvAD2g7KqEzBJyNCsb7UA23Mj2HNlrx7P3VrSg5jXnAE4lTeaGuRgg96voApP10VeYQsoHD7PMz84QKsXUyQtrAXng+JQVbqWkzo3RUj5n+GhdMXY92GjxH80hisu2x4FgiF2D5vJn64YA0XkzQs7PU8QmKLRK6ph5gumrq2UgEQULB2MualuqJbkD1SPorEhosakWtfwfV0YzpoUHJ4HoIj4qDybguLlA/Q84Up+OmqmMSVSPlkBELXl8KjjTmOrdmCvLsGN3j9puguEm/6w6AxEie3cTPjO0zs1RUj5i7F4lkzMWX0v7E950eM7T0dx1sEwvvqKgzsFg5t6BiOyyt2AejWwQEWjj54rlM7OJWlNzGejcRokyBqi0/hUFwc4uJ2Y/PHC7A2q/a+77uOwPzPFmL64nXY8HEwXhqzDuIhuB3zZv6AC9YuMElbiF7PhyC2SGRwPUR004j7RyhYi8nzUuHaLQj2KR8hcsNFaP6smKpMwedvheL/frOGW7NLWN7fF32XpkLt0Q29NTswI3IzzqplcOrYE1aHZ+O9daegegB7mRqZR3lTGyddR8zHZwunY/G6Dfg4+CWMWXe5oayaIvyyYjS6dZ+ApcvC8a+5K7Aw5CU813cBfrltoMb++yeUiNYyK7Tyfw5tHM1g7tIWHTt1gJsVDdSyWBRpROqGpgSH5wUjIk4F77YWSPmgJ16Y8hOuqg3LUlZfGSM5KV67NTcz8N3EXug6Yi6WLp6FmVNGY8FxD+O5pynG7lnjseSELfxbX8Hyv3fEW5suQ62zfbfR/8FJpRHbVj5gPBkaG5OF1P9ZPgKVKZ9gROh6lHq0gfmxNdiiSwxNXZ1VAIQCrJ08D6mu3RBkn4KPIjdAuyQYuPaV68Zrilg8iIgsJqPhNTUWDVU3hUe33tDsmIHIzWehljmhY08rHJ79HtadUuKmsfVLJL7+EPT70z1NVP84nA7u/2TMNYGkgqc+7Epr+yFcd13JzM+HckRUNlUUWBjVh7bdl/GcmqQygeE+Duy/+iIFClQLpOJoONu6hXKvrmei4sgUtnEdz101JKv2caLvEH57XduDsvL4ak6dF8sCNUnFEU5p48rxu2pIVvPH4Q50/2cMteKc4oddrWk/ZB2vKzP5+dARjMpWkUIho/rYsvuyc1RTyfR5QfSfmkAFSVLJYxG+tH9jE6tZw4RpfgyclUIlSVLNCyt609Y9lHsr79vgHjUH+W6nfoxYFc3o6GhGTQiihXlPLi+4w6Nhbeg4+BsWqkkqDnOSd0uO2WG4QWTNwXfZqV8EV0VHMzo6ihOCLGjeczkLBFIRH0afu3ZpgDFd9G1Vwx1jvNht1mEWqUjV2SQmXVIbubZCXIeaBE7zC+SsFK2VqL7AFb1t6R66l4bMpEyfxyD/qUzQCknlsQj62r/BTdXGdW+AIp5hPnf1UYnHWwOMxImgZEK4Dx36r+ZFgRTUAlWZn3PoiChqQyeKfWy7c9k5tZG4VPBoeFu6he7lXTc1KZ4VYjHaBISrXNXXgo4DP+Kuffu4b+9P/P7fgzhhvc4DiqMMa+PIwd8Uans5H55E75ZjaDgEa3jw3U7sF7GK0dHRjI6awCALc/ZcXkBSwfgwH7qO33VPt3qI6aYW90/NjjH06jaLh7WByKSkS1T/KTGlZPIHz/HFj3J1NlcyZVYHNtf1oK3ZE0K3dlOZqNQeS5zajm4he1hj1F4NEZ+HVBwNYxvHwfxGm2Q8PMmbLcfsMGzr6h853MGd/4y5Rm0Yf8iu1vYcsu46hQY1trFaVsO9oW5sG35UWztEa1m14bqRMI1+gbN4310r2NvWnaF7Kw3W+4YYyUnR2k0qE8Lp49Cfq7XJSoHGc69q30T6DvmW2vCs5PHVUzkvVtu3vF6OGrFtdZPjyUjs3fkf5aMynfOC/Dn1fmIwwteeb2yqJvV1rtnBMV7dOOtwEVVU8WxSEi+pjVzbSE0xGg/6GJNRNA4NGJs13BPixnZTE7Uxrkzk1HZuDNlTQ9LI+qUSj6/fm6f2l0EAgEwGmb0bPJvLAFggYMTrCFQV4NwlGTpGbMYy30R8smgpNp4sh0YQdL+4mUJuag1Xj5aQQQZTAxYyMTO795Oy+rdkpFc0h7Pu+ZpttymIWjwM3qYATMxgVue3Z5lMBns3T2jFCcCI1wOhKjiHS7KOiNi8DL6Jn2DR0o04Wa6BIKgB9Vns3XcGrXza6B5ty2BjY617bJCNQ/GFcHBpAe2WClN49HgRrW+lIflsw22ywoVUnFI8iyHjQxEaGop3v0pGRXU8pnmbQm4mh4VzS7iYAjB1gKO9CsraBv+9ASDgQuopKJ4dgvGhoQgNfRdfJVegOn4avA3YqR7GdIG+rSzR550JsN4wGH4dBiAiyQId3GHk2iaiOqizDyG+0AEuLXQbT0w90OPF1riVloyGZlLj7N59ONPKB210j1xkNjawNsGj6Q65kXhriGicaABTuSmsXT3QUgbITGWQd4zA5mW+SPxkEZZuPIlyjQBB3Uhc6tGkeLYQidEmYwLzZzqi/8CBGDjoNbw9/98Y1VpnZBM5zOQWcG7pAq37HGGvUmo/LquPcAGppxR4dsh4hIaGIvTdr5BcUY34ad76IxsgqpupuH8s+7yDCdYbMNivAwZEJMGigzv4Z8SU+gwOHCmCp29rXb7LYCqX388fMR7BXvqYyM0gt3BGS22SwcHRHiql9kPvDZFBJrOHm2dzaMN4BF4PVKHg3CVo9Gus5veqZdYG6gaRfSgehQ4uuO+uHnix9S2kJZ+FWl8WfbvrEM1JsdoNAKZymFq7wkObrAYfw93PPTV+S05HRXNn3eNiW3SbEoXFw7yhXUru56i4bS8gv6nxZCz2TP9H+Xh2L/adaQWf+4kBG21iAPo6W/bBOxOssWGwHzoMiECSRQe4w8i1RWuKupF4qI8xGcXjsIGxG0F8/YLcSHz9zjyo1E80JnY2sJI7waWFAimL++PNPe0wad4cTO7l9tCGMLG0hHn5SaRm3d0SDCiy0nG60TfPTWBnYwW5kwtaKFKwuP+b2NNuEubNmYxebnelUUJVK+BGcXGDIIWJFSwsBFy5eOneMRNrK1jKneDibEAbCwuYXj6GxAsymJubw9zcHPLSQhRW6g80joWFKS4fS8QFmXYOc3M5SgsL0fg0RnRpgAYICMfBnAysHW2J/TNexvCoMw91bRMrC1gIV3Dx0j0rwdrKEnInFxgyk1JVC+FGMYoNCPkw19dy5xHirU6cGDjpTspi9H9zD9pNmoc5k3vhbug8bFyKnlcqFqMPiWUP/L2HGW7m5+sfaQQLWJhexrHEC5Dp4thcXorCJgSyqG4Kcf9oEIDwgznIWDsalvtn4OXhUThr/mfElBK1yju4VnRT5OZLu0DVe2uTfAh7ic3ziJjYwcZKDicXA2+7/261zFDdOAsrCwsIVy7ivrusYWUph5OLc0NZmkRTaveDYgJLS3OUn0zF/fBUICv9dOOfEatjW6smx9ODxJ4xHjS+6qBUoVa4gWJDiaGPBggIP4icjLUYbbkfM14ejqgz8oe4tsmDxYMxGUXjUH+gDhPoZ1bjqXXn94qvxvnjZn5MYEXpvT61t1PSUdwjGK+1uoC4n07CxM0TDihBdl4RBLUSt69cvntWPSeZyOWQKatQpSrDxYtl9RqBm7YbgAH+5xE95X1sTs1D9tFvELk+D/Zm9+e5PxVRUVqqK+a3kZJejB7Br6HVhTj8dNIEbp4OQEk28ooEqJW3caXYFf36euDcxmXYeFYBoAa3SqqgqqpEtakfhgV3Rdnu9ThQop2xIjsXNQNCMNyjoVtNvV7BK/65+GxUCFYeOIW8zN34dMk2XDED2GB1EWsEbgqvV16Bf+5nGBWyEgdO5SFz96dYsu2K9tc+EqRIi3R5gLgugJ6tFIhftRIp5gEYvigWW2b44PK5YqPXFtPB1G8YgruWYff6A9CaqQLZuTUYEDIcDc0kR0C/vvA4txHLNp6FAkDNrRJUqapQWd2I7g3Q2YIA1PmNxJs+huPEXSfv/aZBauTH/YSTJm7Qhk4eigQ1lLevoMjpZZG4NIFcLoOyqgqqsou4WKZpUjxbXxKJ0cu3cO3nNVixNdfIoiVAw7pya9Fc34tVMecBsOENjlgcmXrhlVf8kfvZKISsPIBTeZnY/ekSbLui9YLW5gbPFNXN3kTcP4r4VViZYo6A4YsQu2UGfC6fQ3HbPyGm5P54qZsjkle+jzVp11F5PR2//Fpyz26y5s1hdysfZ28KUBf9gvis27hTVQVVI/bSR3QeGEwyUVsDAFiB0vvFF+nFPRD8mrtu0alTY5pQywQNoVZrvxInXssM1w2/YcHoWrYb6w/o7FWRjdyaAQgZ7tFQFlEM56Ro7b5cqjutbhwbyz1TtBswAP7nozHl/c1IzcvG0W8isT7P/n5trZsRBm3rhdZNjSejtfx/k4/ygH7o63EOG5dthHZJuIWSKhWqKnV74urqrIjHqpUpMA8YjkWxWzDD5zLOFbsZubaYDqZNiIf7GJNRPA71JgEAyNC8uR1u5Z/FTUGNol/ikXX7DqqqVIDB1NLGpDq/kfj6PdF/bvw0Ub1lJJu5PM/RM+Zz0fz3OG7sHO7S7XfJ+GIgvRw92WXYTK6LnsB2zs/x7bW/8HTMNHaxM2PbkSt49KKKJCmU7GZYYAt69ZjM9WmnGDu1M23MAzhhQyZvCWRN3mZO6dWGze0c2X7gbO6+pCaFMmbHTmVnG3MGTNjAzFuV3DKyGV2eH80Z8xdx/nvjOHbOLt0egQx+MdCLjp5dOGzmOkZPaEfn597md1k1ZHkGo8d2prurL/u8+R4jg4PYvu8kRiUUkupL3Bk5iN37jWXE3EiGTV/BpBuG9itoUZyL4Yx+7elsbUWXwGBGpVawPGc7p3WxoUXgRP6QepbZu+ewj6MZ249Zw9RiQ3MpeC5mBvu1d6a1lQsDg6OYWkGyIpfbwoJobR7A0O/TtHtr9BHTJT6rga22hvgyaOh0LolazjlhsxmTrxK9dmM6qC/tZOSg7uw3NoJzI8M4fUUSxc1Uzozosezs7krfPm/yvchgBrXvy0lRCSxUG75+QyqYuy2MQdbmDAj9nmnX7hiOt++y9E8kWS0SJwJLT8dwWhc7mrUdyRVHL1JFUpHxBQd6OdKzyzDOXBfNCe2c+dzb3zGrRiQuKbBkdxgDW3ixx+SNzL2Z3bR4Fo3Rch6e7ke3QV9r98nqoyhg4ncfsE8LU5q1Gcips+dwzpw5nD1zIl9u346he64yZ/s0drGxYODEH5h6Npu75/Sho1l7jlmTSsMheI4xM/qxvbM1rVwCGRyVSm0IbmNYkDXNA0L5fZp2P5U+BnUTqwffZbF6awh9g4Zy+pIoLp8Txtkx+VSRf0JMkcL1eC4e4ktHG0c+O+Jzfjvtb3TU7Rmk8ldG/cObzd06cvCMDfwhPIj+gyL4bUqxqL0MIjbP4QRun9aFNhaBnPhDKs9m7+acPo40az+Ga1KL9Wchq7dwZDMXPj96Bucvms/3xo3lnF2FVAulBmuseC2rZv6hLzmqvRnN/N/mVz+l86pguJaR1SJ1Q81LOyM5qHs/jo2Yy8iw6VyRdIOCmCwNEMtJ8dq99pd0xkzrQjuzthy54ii1UzeWezXM2zyFvdo0p51jew6cvZvapURvXKWIbUnRGmkYQ2PL/6f5WJ4RzbGd3enq24dvvhfJ4KD27DspivFZv+rpvJUhvkEcOn0Jo5bPYdjsGGqXBEPXbkwHkXjQF06HmIwJhWqRODSM8tco/sO7Od06DuaMDT8wPMifgyK+5eGEWPH162Kawfj6LsvgLsxH4qnuTXwnJhjui7wRl7kMXRt+LeB/zB3EBLtjkXccMpd1xZ8ujsRjihQnEk1BjYy5QXjl3Bxc3jIS1vqH/2zuxCDYfRG84zKx7M8vvo/IY5aTT5VtJR4X9H8VfbogxX/e/hPQivO4SCPxuCLFiUST0H90+Fihle1pCePHKyefLttKPB48tTeD6qJ0bI/PQ1VxGvYczL23b/DPQY2i9O2Iz6tCcdoeHMy9u/dEQqIuUpxINI2q84nYm3IFVbnx2JF5Xf/wn4u6COnb45FXVYy0PQeR++cW30fkMcvJp8q2Eo8TT+1jYo3yNsoqtJ89kMmt4NDc+BfG/1g0UN4uQ0WtBoAMcisHNDferkDiL4kUJxJNQ7hTjvJqlba+WdrDya5h34M/DY0St8sqtJ8ikclh5dC8ke4sjzOPWU4+VbaVeJx4am8GJSQkJCQkJCQkGuepfUwsISEhISEhISHRONLN4F1qj+OjQS9jQcId/SOPIWrkbFmMedEJuPGAW0Zqj3+EQS8vwOOmpuK3XVi9dD5CBvbF6I8Po7jJet1BQfz/4YMRg/DvQ0r9g78jalxP34QFbw3A+3u0X9R7KFs+lnGmROb6BVjwbTLKdHa/U3AE/5k5Aq/OT8AfadVHRn0d6ZsW4K0B70PnlieKR7OzBlcPfIm5y3bgt7sfKr5TgCP/mYkRr85HgsiEDxW3D4wCv+1ajaXzQzCw72h8fLhYf4A4dwoQ/38fYMSgf+MPTelGeDTfPGnU4vhHg/DyggQ0FhYPHj8N64vE44d0M3gXeWv0HDkKfdo9RntvxKhNx/rlhyDrGGSwK4U+6mtF924a5a17YuSoPnis1FQex6LQrXCZvBjRy4ZCuXcbUiv0B4nj4GmG8wnpuFz1R+54UEKwuIO8+GQUVGiN2VRb1rX/g8WZGteKbvzxG9YVSVjzZTLsgjpq220BkDl4wPT8UaRfqXxs31cFACgFWNzJQ3xyAXRueaJ4JDtrruKnld+huF0XtL37hRGZAzxMz+No+hVU3puwfhw1NW4fBeXxRQjd6oLJi6OxbKgSe7el6g8xggM8zc4jIf0y/tCUboRH8s0TQd24kKN1z5EY1acdGguLB44fA/VF4vFDcs1dZK3Qc1wIersZaN76mCEUFsIzchMWdLfTP9QQ4SK+n7cSJ3S/HMha9cS4kN54nNSsPbUTe685oIUlYBkYju3JX+P1ZvqjxLCGo2c7eDo22qX1EbGBa4fO8Gt5P2WaZEs9+z9InAkXv8e8lSdwv3naH4P6t2t4dslGvNfp/tfqLB294OPq8PgXCBtXdOjshzpueaJ4JDtX5MD0jQ346o067Q0tHeHl4wqHOhPqx1GT4vaRqMWpnXtxzaEFLGGJwPDtSP76df1B4lg7wrOdJ/7wlG6ER/LNE0D9uJChVc9xCOntpusPLc6Dxo+h+iLx+GG6cOHChfr/+NQglCA74TRqPF1QfWI/Dp1WwKVNS9ior+FE3D6kldqjtbvDvUbhN35NRI7gCTd7GYBaFJ/Yj7jk86hS1kBh6QJHKw1KshNwusYTLtUnsP/QaShc2qCljRrXTsRhX1op7Fu7w0H3dpem7AwS4w4hOfcGZC290MLaQFmpvYYTyedh1go4s/8ATpbZwt3dQds+SChBVlI2ap1rcTouE0r31nCSl+G3rELcLruKm7KW8Gphfa9Y1V47hUNxici6ZQZXT2dY3snDf6ePwtStJXBsaQJa+6Jts1L8mpgDwdNN1xDdwHkmAKBB2ZlExB1KRu4NGVp6tYAh8QFAcTUdB+KSkFNqDXcvR1gAUN88jcScWng2K8WxvfHIN3FDG2dL/VNRfno3/rtlG3Zk3IaTk4DbGg/4ulrDRHEV6QfikJRTCmt3Lzje+19oLa6dOoS4xCzcMnOFp7MlTITLOPh1DKr7TcPLVuk4cPQ8TD284aj7tUTMD7XFJ7A/Lhnnq5SoUVjCxdFK15m1PkJJDo7GJSKnUoXCfbEo6R6B4L+ZAeob9WzZYD6Li9iib39n1IszMTtV5/0X00dNxdYSR7Q0Iax928JZVoYziXE4lJyLG3V9X1uME/vjkHy+CsoaBSxdHGGlr4joGAHlJaW4dekMrqid4NHq7lv3Ai7GRWO7agCmvear/TehFLkJ+3Ak4zLUTh5oZeQ1RmVRBg7G/YycEnM84+EESxMBl5NjsfNIBvKVz8DPVYlf92zH/uN5qHbxh6e9DNAY1k8oyUJSdi2ca08jLlMJ99ZOMIeAkpyjiEvMQaWqEPtiS9A9Ihh/MxP3t+F5FLiafgBxSTkotXaHl6MFAOGB8hwQUJqbgH1HMnC5ng0NxESDGGtoZzH5746/Z0eTl/DW4GbI0bOjcDEO0dtVGDDtNbifMxBHqB+3Qkk2Ek7XwNOlGif2H8JphQvatLSB+toJxO1LQ6l9a7jrlDUuGwCU4/Tu/2LLth3IuO0EJ+E2NB6+cLU2MVgnAG0NPHUoDolZt2Dm6glnSxMIlw/i65hq9Jv2MqzSD+DoeVN4eDvqPvj8aLUJ6ps4nZiDWs9mKD22F/H5JnBr44yG1elBfVOXSlw4dgAHUwugcbRC0fkyOKlysW3nEWTkK/GMnyuUv+7B9v3HkVftAn9Pe20ui9a9+9ReO4Hk82ZohTPYf+Akymzd4e6g64EmkkP6a0lZVSo+HFM/LpqV/orEHAGebjpZDNVaQK/u1eLaiWSc1y5gOHCyDLbu7rgrjnh9kXjcEIvkJx5NaSY2TuqHrkPnY/XKhfhs/TasnNgD/aZHY/XshVizayNmD+yNqXGVgOYm0tdOQO9uo/GfkyoAAgrWTsa8VFd0C7JHykeR2HDhFjI3TkK/rkMxf/VKLPxsPbatnIge/aYjevVsLFyzCxtnD0TvqXGoBKC5+iPG9p6O4y0C4X11FQZ2C8cBXcvFezIW/YIVo7uh+4SlWBb+L8xdsRAhLz2Hvgt+we2bGfhuYi90HTEXSxfPwswpo/Hv7Tn4cWxvTD/eAoHeV7FqYDeEH6gGoEHx7lkYv+QEbP1b48ryv6PjW5twWeOAgG4d4GDhCJ/nOsHHJBNrJ/RGt9H/wUkVjJynwdUfx6L39ONoEeiNq6sGolv4AV0P4boIKNw+DzN/uABrFxOkLeyF50NikJW6FhN6d8WI+Z9h4fTFWLfhYwS/NAbrLjd8jmfVyh/PtXGEmbkL2nbshA5uVmDhdsyb+QMuWLvAJG0hej0fgtgiDaApxu5Z47HkhC38W1/B8r93xFubLusecwi48fNKLFrxI7Z+Ogo9xq5HkUbcD0LBWkyelwrXbkGwT/kIkRsuGnwcW5nyCUaErkepRxuYH1uDLXnahuWam+n1bGl4vvr2b+dUVifOlLiZbsRODgHo1sEBFo4+eK5TO7jIrhr2vVCAtZPnIdW1G4LsU/BR5AZc1FdEbIymBIfnBSMiTgXvthZI+aAnXpjyE67qnw9AU3IY84IjEKfyRluLFHzQ8wVM+emqQZuVJ8zFoHcPwrlPLzSLexvtPJ7HP0JW4PyzvaHZMQORm89CLXNCx55WODz7Paw7pQI0hvSrxM2M7zCxV1eMmLsUi2fNxJTR/8ZPZZVI+WQEQteXwqONOY6t2QKdW0T8rTE8z61CbJ83Ez9csIaLSRoW9noeITE5OPEAeW7MhoZjwjiG5a87whQe3YzYUR+9OHIqqxu3GpRmbsSkfl0xdP5qrFz4GdZvW4mJPfphevRqzF64Brs2zsbA3lMRV9kU2QDACq38n0MbRzOYu7RFx04d4GZFA3UiVpufxbsxa/wSnLD1R+sry/H3jm9h0906IdzAzysXYcWPW/HpqB4Yu74IGjxKbYrFleta/buOmI/PFk7H4nUb8HHwSxiz7m4dEadp+gOoTMHnb4Xi/36zhluzS1je3xd9l6ZC7dENvTU7MCNyM86qZXDq2BNWh2fjvXWnoAIgiNW9e2hQ9MsKjO7WHROWLkP4v+ZixcIQvPRcXyz4pVIkh6qhMbCWLDjuUScufGCSuRYTenfD6P+c1PahFqm16rp1T1mEX1aMRrfuE7B0WTj+NXcFFoa8hOf6LsAvlcZzQ+IxRL8/3dOE8tj79Gs2mGuuCSTVzP/0RVp3nMMMBUlWckuwM/1nJlNJkoojnNLGleN31ZCs4Y4xXuw26zCLVKTqbBKTLqlJ5TG+79eMg9do+yyq8z/li9YdOUc7ISu3BNPZfyaTlaQq83MOHRHFbBUpFEaxj213LjvXsHlr9Y/D6eD+T8ZcE0gqeOrDrrS2H8J11wUqE8Lp49Cfqy8KpKCmoMrk50NHMEo7KaP62LL7snNUV+3jRN8h/Pa6trti5fHVnDovlgVqUnE0nG3dQrlX18pQcWQK27iO564akqLnqZj5+VCOiMqmigILo/rQtvsyNhC/5iDf7dSPEauiGR0dzagJQbQw78nlBXd4NKwNHQd/o+vfeZiTvFtyzA7D/RRr9obSrW04jypIsoYH3+3EfhGrGB0dzeioCQyyMGfP5QWs2jeRvkO+pVbcSh5fPZXzYguoVv7MGe2b8R9rtX5RHA2jj+t47q4R90PNjjH06jaLh7UOZlLSJV1vzzoo0zkvyJ9TE7T+pfIYI3zt+camalLPlmLz6du/fpwpjNhJwaPhbekWupc1JCnm+5odHOPVjbMOF1FFFc8mJfGSviIiY2oSptEvcBZTlNph6gsr2NvWnaF7K0kqGB/mQ9fxu1jDGiZM82PgrBRtrlDNCyt609Y9lHsr61+KvMV1Q5oxaFEWVSSFqyvZxyaIC0+rSNZwT4gb201N1M6jTOTUdm4M2VMjrh+VTAj3oUP/1dSmgUBl+jwG+U/lfbdE0Nf+DW6qFvc3DcxTc/BdduoXwVXR0YyOjuKEIAua91zOgpqm57kxG4rFRH3q2tmY/HUxYkeSinht/O+q0c5fL470awCVPPa+H5sNXqPtJ67O56cvWrPjnAxqy+QWBjv7c2aysomykWQN94a6sW34Ue0conWigvsm+nLIt9e1fWErj3P11HmMLVBT+fMMtm/2D67V1cWjYT50Hb+bNXzU2iRQcTSMbRwH8xtdn/rDk7zZcsyOe/a5z8P4RsnkD57jix/l6nytZMqsDmyu6yFdsyeEbu2mMlHrOCZObUe3kD2sMVL36lPNH4c70P2fMVp/KU7xw67WtB+yjteVYjnEhmtJg7hQ8MiUNvd0Fa21+vFT/SOHO7jznzG62nvqQ3a1tueQdddZbSQ3JB4/ntpfBgFAZmYGM1NbONjJAJiiWTM7yGwc0EwOAHLY2lpApVBqNwebmMHs3u/XlujzzgRYbxgMvw4DEJFkgQ7upoDMDGZmprB1sIMMgGmzZrCT2cBBOyHktrawUCmgJCDvGIHNy3yR+MkiLN14EuUaAYLu14t6yGSQ2bvBs7kMgAUCRryOQFUBzl3SAKZymFq7wqOlDJCZQibviIjNy+Cb+AkWLd2Ik+UaCIIa6t+SkV7RHM6657623aYgavEweBvY02FiZnbvZ3rx8+ToGLEZy3wT8cmipdh4shwaQYC++MKFVJxSPIsh40MRGhqKd79KRkV1PKZ5m0JuJoeFc0u4mAIwdYCjvQrK2ib8l1C4gNRTCjw7ZDxCQ0MR+u5XSK6oRvw0d/yWnI6K5s66x9u26DYlCouHeev2uJjDobl2f4+prT2sFXdQoxH3g2WfdzDBegMG+3XAgIgkWHRwb7BXRn12L/adaQWfNrpnHjIb2Fjff8hX15ZNmQ/QjzOTpttJxPew7IN3Jlhjw2A/dBgQgSSLDnDXv7DBMWpkH4pHoYMLWujGm3r0wIutbyEt+Wx9X6uzcSi+EA4uLXQ6mcKjx4tofSsNyWf1o8IcdrbmuFVUDDUAmZk5zOU2sKtjN4OI6QfAVG4Ka1cPaNNAg7N79+FMKx/cd4sN7k4v5u+G8xAXUk9B8ewQjA8NRWjou/gquQLV8dPgLW9qnhu3obypMVEHY/L/XtSNW0AGMzMzmNo6QFsmm6GZnQw2Ds20Y+S2sLVQQaHkQ8smWifc85GcXoHmzrrHkrbdMCVqMYbdLVzmDmjuoK3dtvbWUNypgQaPWptkMJGbQW7hjJbapIODoz1USm2DAmM0SX/1GRw4UgRP39Y6X8tgKpcb3H5SD9G6560/EjKZDPZuntqXMSwCMOL1QKgKzuGSTDyHGqwl+pPCBGb3CpPaaK3Vjx+ZzB5uns2hFWcEXg9UoeDceZw2khv6ZpP482kYExIANEBAOA7mZGDtaEvsn/Eyhked0R9klDspi9H/zT1oN2ke5kzuBbcmWtrEzgZWcie4GHpN+E4KFvd/E3vaTcK8OZPRSzepiaUlzMtPIjXr/qsGiqx0nG7kUxvi591ByuL+eHNPO0yaNweTe9XZoF4XCwuYXj6GxAsymJubw9zcHPLSQhRW6g98ECxgYXoZxxIvQKab01xeisLCKlhamqP8ZCrui6tAVvppNFTTBCa6rq1iftAgAOEHc5CxdjQs98/Ay8OjcEbQm0apQq1wA8XFjZeuJs33KIj4XhuqB5GTsRajLfdjxsvDEaV/YYNjNLCysIBw5SIu3VXPxBpWlnI4uTjX97eJFSwsBFy5eOleETextoKl3AkuzvqRYYdXF36O7ic+xsyVa7HykyS4fvg5JvroVgQTAHrvZlLrKMP6GUCpqoVwoxiG3CLmb0NYWJji8rFEXJDp4sxcjtLCQu3j3yZhYtSGeIiYaLL8Ynb8A2mybPqI1YkqS1ial+Nkatb9l6QUWUg3VLhMTO4Gyp9Wm5qmvxK1yju4VnRT5OZSe1tYz1WkkbrXmMAmsLOxgtzJBS0UTc8h45g8QK3Vw8QONlZyOLm0hI2R3HhYyST+OJ5un1DbzPte4vFuc/d6f733t/tjFYhftRIp5gEYvigWW2b44PK5K7oxDSa8P8e9CdXIj/sJJ03c4OkAlGTnoUhQQ3n7Ci4b6CXJitJ7vZNvp6SjuEcwXnPXuaaOvOr8OPx00gRu2kmRVyRArbyNYssXMMD/PKKnvI/NqXnIPvoNItfnwd4MMJHLIVNWoUpVhosXy+o1tzdtN8DweSb5iPvpJEzcPOGAEmTnFUFQK3H7ymWdJFpMvV7BK/65+GxUCFYeOIW8zN34dMk2XDED2EBNI43VBQ2oVkMAAFMvvPKKP3I/G4WQlQdwKi8Tuz9dgm1XLNFuwAD4n4/GlPc3IzUvG0e/icT6PHuY6Rq316uwJGjED/k7o7AyxRwBwxchdssM+Fw+hyt6NxfygH7o63EOG5dtxFkFgJpbKKlSoapSt1Goji0V8asMztfA/vXizJidTCCXy6CsqoKq7CLyT+4z6Psr+TuxamUKzAOGY1HsFszwuYxz+ooo4g2MIfyGBaNr2W6sP1CiXbgqspFbMwAhwz0gA0Dq4t3UD8OCu6Js93ocKNEKXJGdi5oBIRjuoV9CNLh56hdYh/6AL6eMw5QvNmFdeGdo33uXoXlzO9zKP4ubghpFv8Qj6/YdVFWpRGP7yuVSQCeLFjkC+vWFx7mNWLbxLLRuKUGVqgqV1eL+vpt39+cxhdcrr8A/9zOMClmJA6fykLn7UyzZdkUbT03Kc1OjNqwViQl97tnZSLzWrxvidtRNqJ0TaBBHF8s09eJWO1zv7/XspNO9ybJpETSEWq298xWtE5btMGCAP85HT8H7m1ORl30U30SuR569mda+DVKagPrRa5OBpKujb30e2Ddyf7zUzRHJK9/HmrTrqLyejl9+1cUGAFnz5rC7lY+zNwWoi35BfNZt3Kmqgkq07t17E6MOREXp3R7Jt5GSXowewa+h1QXjOVR3LTEUF/dj3tRIrb07Tx17sQKl9xcwpBf3QPBrXuhgJDdkmmv4ec0KbM1t9PZS4n+F/nPjp4bKM9w180U6mPnx7W+SWZAfzy+GedPsmUH8MC6PF9K+58RAS9o8H87Y0xeZHTuVnW3MGTBhAzNvVXJriC+Dhk7nkqjlnBM2mzH5ZTyzayZfdDCj39vfMLkgn/FfDKO32TMc9GEc8y6k8fuJgbS0eZ7hsdm8nvEFB3o50rPLMM5cF80J7Zz53NvfMUtvY0r1lpFs5vI8R8+Yz0Xz3+O4sXO4q1BNofQ0Y6Z1oZ1ZW45ccZQXVSQVGfxioBcdPbtw2Mx1jJ7Qjs7Pvc3vsmpYk7eZU3q1YXM7R7YfOJu7dRvHhJLdDAtsQa8ek7k+7RRjp3amjXkAJ2zI5C2BIucpmPHFQHo5erLLsJlcFz2B7Zyf49vfZdUXnqTiXAxn9GtPZ2srugQGMyq1guU52zmtiw0tAifyh9SzzN49h30czdh+zBqmFmv3J96lOv8QvxzVnmZm/nz7q5+YflUgFecYM6Mf2ztb08olkMFRqawgSdYwb/MU9mrTnHaO7Tlw9m5eUpczO3Yqu9iaMyB0HY+fyeLOOX3oaNaeY9dmsDDNsB/SNoXQN2gopy+J4vI5YZwdk09VPcm0lGdEc2xnd7r69uGb70UyOKg9+06KYnzWr/VsWbjF8Hx17b8x92a9OEs6FmvETiqW7A5jYAsv9pi8kWeqRHyftokhvkEcOn0Jo5bPYdjsGObrK1K9VWSMmpd2RnJQ934cGzGXkWHTuSLpBgWSFbnbGBZkTfOAUH6fdo2C+hJ3Rg5i935jGTE3kmHTVzDpRn1falEyeW4n2pnb0amVGz28fegX1J/vrMlkFUnlr1H8h3dzunUczBkbfmB4kD8HRXzLlItpBvQby9XbNnJaFzuatR3JFUcv6nxUzozosezs7krfPm/yvchgBrXvy0lRCTyXasjfa/lLeoyBeRQ8FzOD/do709rKhYHBUUytqHygPC83YsPqrYZjoi76dr7TxLohasdz2dwWFkRr8wCGfp/Ga4JQL45yb2bXi9uLubs480UHmvm9zW+SC5gf/wWHeZvxmUEfMi7vAtO+n8hASxs+Hx7LkwlNka2a+Ye+5Kj2ZjTzf5tf/ZRObUo3rBMkyZo8bp7Si22a29Gx/UDO3n2J6vJsxk7tQlvzAIauO84zWTs5p48jzdqP5dqMwkeqTSzP4fZpXWhjEciJP6TybPZu3dxjuCa1uN75D+sb4Xo8Fw/xpaONI58d8Tm/nfY3Our2DFL5K6P+4c3mbh05eMYG/hAeRP9BEfw2pdhI3atLNbeMbEaX50dzxvxFnP/eOI6ds0u359hwjVj7S3rDtYR142I9007FcmpnG5oHTOCGzFsUDNZaUiirHz+3KrdwZDMXPj96Bucvms/3xo3lnF2Fuv2S4rlBxWFO93PjoK+1+xAl/nyk3sR/MndiguG+yBtxmcvQ9e6HYyUknlhu49jKlbjQcwy6ystQXlmFqtJLOPBtKl74cRVeb/j9DgmJpxg1MuYG4ZVzc3B5y0g8+pf27iAm2B2LvOOQuayr7lM7fyJ3YhDsvgjecZlYJi1gTzT6z3gk/teQej/fS0g8uagzv8C0NVfh1MoD7QM6ocsLL6H3C23Q6v+9gOcMPfGSkHja0X+s+ohol4zfb75HQ6vbYyOOxEMj3Qz+iaiL0rE9Pg9VxWnYczD33r5BCYknFXm7N/CvrrkI7+iB9s91Rve+Q/DWR9l4MWwUWjf2Kq2ExFNG1flE7E25gqrceOzIvK5/+AFRoyh9O+LzqlCctgcHc+/uG/yTUBchfXs88qqKkbbnIHKlBeyJRnpM/CeiUd5GWYX2kwYyuRUcmktfZ5d4StAoUVmphoWdDcyl/3JK/EUR7pSjvFqlrfGW9nCyM9BSpMlooLxdhopaDQAZ5FYOaG6kC9AfjkaJ22UV0Iojh5VDc/yZ4kg8GtLNoISEhISEhITEXxjp/+wSEhISEhISEn9hpJtBCQkJCQkJCYm/ME/vzaCyAEmb/w8rv1yBFV+uxP9tOoy82/qD/jzUOVuweF40Em48fZtulZnrsWDBt0guM6ZbLY5/NAgvL0jAHf1DTxRqXE/fhAVvDcD7e7QfUK09/hEGvbwACQ+pmKY0D8eO/4YyDQBNGW6WNtK2oi7q60jftABvDXgfOnEk7hTgyH9mYsSr85Gg1D/4v0SB33atxtL5IRjYdzQ+PlysP0CiDorfdmH10vkIGdgXoz8+jGJj5eQJQH09HZsWvIUB7+9pvJOHARqcX3scHw16GQsettBAg9K8Yzj+Wxm0peYmHqTU/GE8sl6/D0/zGm2Ip/dm0KI1eg7riKK1szB3jwleCe4Hfwf9QX8WtUhfvxyHZB0RZKjt3OOG+hqKmpwQCiSt+RLJdkHo2NyYbnK07jkSo/q0w6Nsqf7zUUKwuIO8+GQUVGhtJG/dEyNH9UG7h1FMnYPvFi7C4pBu8H8hBB9+9jm2ZBloWyGGUoDFnTzEJxdAJ46EzAEepudxNP0KKv/EHdLK44sQutUFkxdHY9lQJfZuS9UfInEX5XEsCt0Kl8mLEb1sKJR7tyG1Qn/Qk4VSsMCdvHgkF1Q81FvADc6Xt0bPkaPQ56EKDaDO+Q4LFy1GSDd/vBDyIT77fAsepNT8YTyiXr8PT9ga/TvwdGtp5gH3Fqaw92yNVo/TW05CIQo9I7FpQXddm67HGQEXv5+HlSfu9y82ivo3XHt2CTa+16mRD6zK0KrnOIT0dtM1dH9SsYFrh87wa3k/lWStemJcSG+4PZRiVnhpxiYcyDyJTaE+kDkPxoiXHqAo2riiQ2c/1BFHwtIRXj6ucPhTbVKLUzv34ppDC1jCEoHh25H89ev6gyR01J7aib3XHNDCErAMDMf25K/xejP9UU8WNq4d0Nmv5UMvug3Ol7VCz3Eh6P1whQawegkzNh1A5slNCPWRwXnwCDxIqfnDeFS9fg+eqDX698F04cKFC/X/8c+iKm8Xvl61FrvSbsLB/1m4Wmubej80rETahpX4uXkwpr/WXvSzLUJpLhL2HUHGZTWcPFrdfz2+thgn9sch+XwVlDUKWLo4wkpPJMXVdByIS0JOqTXcvRxhVp6FfVvjcOzkKWRfM4OX5Tns3BGPE4WAV7tWsDLRoOy3LBTeLsPVmzK09GoBaxkAoQTZCadR4+mC6hP7cei0Ai5tWsJGfQ0n4vYhrdQerd0d7uuguIr0A3FIyimFtbsXHC0AQI2bpxORU+uJZqXHsDc+HyZubeB8t+uDwXOA2uIT2B+XjPNVStQoLOHiaKVrp16NvP9Ox6ipW1Hi2BImtIZvW2fIocDV9AOIS8pBqbU7vO5OBEAoL0HprUs4c6W+LYWSLCRl18K59jTiMpVwb+0E2Y1fkZgjwNPNXlvgaq/h1KE4JGbdgpmrJ5wt7xpbQGluAvYdycBltRM8Wt3/BI+47I0cF0qRm7APRzIuQ+3kgVZ3BVXfxOnEHNR6NkPpsb2IzzeBWxtnGGqcIZTk4GhcInIqVSjcF4uS7hEI/psZoL6BXxNzIHi6wV5mJI4M+UOjxtXTuaht4w0HRQVUdp5o73P3+hqUnUlE3KFk5N6oEztaaVCScxRxiTmoVBViX2wJukcE429m2mMPZ79aXDuRjPNmrYAz+3HgZBls3d3hcO/j0WLzCijJSkJ2rTNqT8chU+mO1k7mAARcTo7FziMZyFc+Az9XJX7dsx37j+eh2sUfnvYyqG+eRmJOLTybleLY3njkm7ihzb0Avo+Y3GK5LFyMQ/R2FQZMew2+d/9NZOx9jOkvoqPBuCrH6d3/xZZtO5Bx2wlOwm1oPHzham3SoH5YwEi8GJxbWzuykrJR61yL03GZULq3hpM5AE0Rkrduw+G0Uzh9phKOHbzgUJ2L/Vv34tg5JVr5ucPWBBAuJyN25xFk5CvxjJ8rlL/uwfb9x5FX7QJ/T3vImpgTtddOIPm8GVrhDPYfOIkyW3e464LFUP6bi8RP+end+O+WbdiRcRtOTgJuazzg62oNE0P58jCxYFCWe0rgRPJ5aF1+ACfLbOHu7gBZYzaCSD5rL4ico3FIzKmEqnAfYku6IyL4b9o+v0Zq6T1Ez1fjxq+JyBE84aYtNCg+sR9xyedRpayBwtIFjtpCY/AaGvVVnM6tRRtvBygqVLDzbA+fu7mmKcOZxDgcSs7FDVlLeLWwhnaZMmw7zfU0bN92CKmnfsWZMju0a90MlVn7sC0uBQV0h98zliK1y1AeyfT0EvelaK7URc8vzWoeco2GgJLsBJyu8YRL9QnsP3QaCpc2aGmjxrUTcdiXVgr71u5wuCubwXhoZI0W8VWT9HxU9PvT/Vko0j/kCw4ybVd0mNDSbwr3leiPekCEq1zV15KtQvZQr32kDoG3Ds3lsHGfc39GOncu7M92nSZzxxWBVF/gt6Gh/OrkJV745Uu+MXA+T9ZrLKrmpW1zGfbxfxl/5EdG9nFj+/FbeVUgy44v5kvNLNnjs3yqy3bwXwOmcfdVJUmBVzb/k4GvLOHP2ccY9ZoH207az4qSk9wwsSOt7fvz/eWRnBY2jj3d7BgY9hVXRfyL/5o4hP7N2vCdfdpOlepL2zg37GP+N/4If4zsQ7f247n18jWmffs2O1g68ZXwuZwwbhyHdnKi85C1LBREzrkqUH3hW4aGfsWTly7wly/f4MD5J+v0T63i1azv+ZZnKw77Oo2nz9+iSn2J2+aG8eP/xvPIj5Hs49ae47depSBqSxVvpK/j+Get6Nx/EmeO6Eq3FkP51eFv+ba/JVuO38UakkLRLn7wZji//TmLqStfpZv3aG4sFEjhFg/NHcZxn+9nRvpOLuzfjp0m76DWRcZkFz8u3DrEucPG8fP9GUzfuZD923Xi5B1XqLqRxm/f7kBLp1cYPncCx40byk5OzhyytlDbT7MOFceXcuhrHzAmNYP7P3uDbSxt+Mamago30vjt2/60bDmeu2ooGkeG/LHldIqR6xuOnSqtNDy+dChf+yCGqRn7+dkbbWhp8wY3VfPh7Sdc5c/L36CXeXsGR0zkqwP6MsDFjM26zufPFUbmVd1g+rrxfNbKmf0nzeSIrm5s8cYGlt6b9zq/e7U5205NpJIky2P5z2dcGbKnmjfSvuXbHSzp9Eo4504Yx3FDO9HJeQjXFta3vmG5xeJPe64iPow+rjqfNDKWbET/csM63hKJK4EKXj+Xzq+HtaLnW98x/dczLKoWqR+1huNFPGbTuW78s7Ry7s9JM0ewq1sLvrHhnrVZmbqQL9g14/DN5bp/UfBQ+CDOTKrb9Vbg9e9eZfO2U5modQpj//kMXUP2sLpJOSHw6s/L+YaXOdsHR3DiqwPYN8CFZs26cv7P5Qby/w1uuCUSPwKpuH6O6V8PYyvPt/hd+q88U1RtMF/E65eYfw3Vojd411zC1Z+5/A0vmrcPZsTEVzmgbwBdzJqx6/yfWWHERjViNfmqQFYc59Khr/GDmFRm7P+Mb7SxpM0bm7R9ikVraR3EzhduMO3bt+lv2ZLjtYWGF74NZehXJ3npwi/88o2BnK8tNAaucZnXjOWacIWb/xnIV5b8zOxjUXzNoy0n7a8wajtSyfPfvs4Wln248m4eKY4yctwXzFGK1C7BQB4N/YqH6+kl5sumrNHifnnQNbpKKOHJDRPZ0dqe/d9fzshpYRzX0412gWH8alUE//WviRzi34xt3tnHCrHrNrJGG/bVVQpN0PP34DG5GVTwyGRvmgK6m0EQJnZ8Y2PDNt0PRGM3gzUJnOYXyFkpSu3f1Re4orct3UP3srJmB8d4deOsw0VUUcWzSUm8VLejds1BvtupHyNWRTM6OppRE4JoYd6TywsEkmqe+3ogWzwzkFPCJvOrbN38VDHz86EcEZVNFQUWRvWhbfdlPKcmlcfep1+zwVxzTXt+/qcv0rrjHGYoSLKSW4Kd6T8zmUrW8OC7ndgvYhWjo6MZHTWBQRbm7Lm8gFQcZVgbRw7+RtsoXHF4Er1bjuGOGvFzanaMoVe3WTxcpCJVZ5mUdKl+43DFUYa3dWPoXq0Faw6+y079IrgqOprR0VGcEGRB857LWVBtxJZUMiHchw79V/OiQApqQevzKW3oOn4Xa1jFfRN9OeTb69pCWHmcq6fOY2yBmjUJ0+gXOIv3p13B3rbuDN1b2ajsho/XMGGaHwNnpWhvRqjmhRW9aeseyr2VpOJoGNs4DuY32s7vPDzJmy3H7KgfP8p0zgvy59QEhe7vxxjha883NlWTJBVHprDN3RsPg3Ek7g/x6xuJnfR5DPKfyvviRNDXXnsz+Cj2Y/WPHO7gzn/GXKNAUnHqQ3a1tueQdddZbWReKhMY7uPA/qsvUqBAdb3VrYZ7QtzY7u7NoDKRU9u5MWRPDUkFj4a1oePgb6hV/zAnebfkmB31s9eg3MZyWf9msJGx9zCiv9BAR+NxRdZwb6gb24YfpYJG6seZbQbjxdjcyoRw+jj052ptcun9x6WS+//Vhs+M/JE3BK3ukaEreb6eo8maPSF0a3f3RkfJxKnt6Karm+IxWZdq/jjcge7/jOE1rbH4YVdr2g9Zx+tCw/w3FpckWbM3lG5tw3lUayzRfHnwWGgoS12qfxxOB/d/MkarBE992JXW9kO47rpgxEZi8p1l+rwg+k9N0PqcSh6L8KW97mZQtJbeE0lp9HwqjnBKG1fdTVMNd4zxYrdZh6k1RRKTLqmNXMNIrqky+fnQEYzKVpFCIaP62LL7snNUN2I7Ko/zg2ebc8DX2v8oVB1awLk7yoyuewZrRV29jPnSYG2tK5CYXwoeao2m8hjf92vGwWu09UCd/ylftO7IOdpFmpVbgunsP5PJSiPXFV2jjcRDdWN6/j487PaF3xkTyM3k9R7vAaaQy3/v30Hro84+hPhCB7i00O1NMPVAjxdb41ZaMs7K++CdCdbYMNgPHQZEIMmiA9zrbGEQLqTilOJZDBkfitDQULz7VTIqquMxzVsGwBRtJ67G/IDj2HyxE17zv/sQQo6OEZuxzDcRnyxaio0ny6ERBKgByMzMYGZqCwc77fnNmtlBZuOAZnLteba2FlAplKBwAamnFHh2yHiEhoYi9N2vkFxRjfhp3oCJHGZyCzi3dIEpAFMHR9irlKhViZ9j2ecdTLDegMF+HTAgIgkWHdyN7OETcCH1FBTPDsH40FCEhr6Lr5IrUB0/De65RmypBkzlprB29UBLGSAzlQEwgZnZ3UezvyE5vQLNnXWPW2y7YUrUYgzzJrIPxaPQwQX3p+2BF1vfQlryWcgbkd2gbupsHIovhINLC91YU3j0eBGtb6Uh+awaJnIzyC2c0dLFFIApHBztoVJqu8TcRX12L/adaQWfNrrnpTIb2NTZ0mBiZnb/cb6lgTiCuD/Ery8WO2qc3bsPZ1r54L44NtCKo34k+wEyyGT2cPNsDhkAi4AReD1QhYJz53HayLxqmEJuag1Xj5aQQQbTJlcZbR2wcG4JrfoOcLRXQVlbf7u9Ib/SWC7rbYo3mvf1xorpfwkafR01xuNKH9H64fv3hvHCRuY2lcPU2hUe2uTS25Nmi37T3kGbQ1/im1w1yvdvR3mvkfAWT/IGiMdkfWQyGezdPNFcayyMeD0QqoJzuKTRz3+N0bhsYC0jNe9hYqFhLaqDTAaZvRs8tUogYMTrCFQV4NwlfW3rICbfFCX27juDVj5tdI+EZbCxsdatc+K11PuuSOqzRs4HYGKGuyUUsESfdybAesNg+HUYgIgkC3Rwh5FrGMk1eUdEbF4G38RPsGjpRpws10AQtF4xajvzzngnNBAp365FVu1N7E4ww4CBzYyue9DPI1l9vYzmaiNrtKhfpnnjYdZoyMxgZmYKWwc7yACYNmsGO5kNHLSLNOS2trBQKaBUG7mu2BqtMRIP1o3o+TvR5DL9x2KO7u9MR/9WZtpAN5GhWeepCB9sqz/wd0KDohMZMLGygIVwBRcv3S0/JrC2soTcyQXOAALCDyInYy1GW+7HjJeHI+pMnffuLSxgevkYEi/IYG5uDnNzc8hLC1FYqT2sLkhCgf9odD25EFM3FuoK5x2kLO6PN/e0w6R5czC5l9tDOMACFqaXcSzxAmS665rLS1F498IGET9HgwCEH8xBxtrRsNw/Ay8Pj0JdNfWxsDDF5WOJuCDTzWMuR2lhIaqM2bIxJU0sYWlejpOpWbj3mooiC+mnlbCysIBw5SLuT2sNK0s5nFycgUZkN6ibxgoWFgKuXLx0b9ExsbaCpdwJLo0KqkOpQq1wA8XFDZathmgMxZFc1B/iiMeOUlUL4UYxGopj8kj2a4CJHWys5HByaQkbI/M2akUT6B4A3OdB+iAZ8utZ86bHn9G8Nyb8Pf1bNNTR5AHjSqx+3DYQL2fNH2xuPUz9J2DawCtYs3wDNu6XYdDrhl5i0N5i1HPDgzilASaws7GC3MkFDV/GNB6XDYY/YP16kFhoDBM7G1jJneDSQmbERmLylUJVK+BGcXHDG1wjtfR+FVAaPb8+GiAgHAdzMrB2tCX2z3gZw6PONOEaBriTgsX938SedpMwb85k9HJrqtFM0fqtf+HlqxsQvXEzslu8gW4WMFq7GsNorja2Rov6Rav947VGG4kHg2uIsUL9cDy4nn8Q8g5TsOtEIjav+hxffncIJ44uQo9HvhcUIGgIQV0/ldSFO7D6QAlM/YYhuGsZdq8/gBINAFQgO7cGA0KGw6M2HqtWpsA8YDgWxW7BDJ/LOHfl/jymXq/gFf9cfDYqBCsPnEJe5m58umQbrpgBuHMCq1ddxxsfr8I3y15A6qwpWHtBANT5iPvpJEzcPOGAEmTnFUFQK3H7ymWABFmn0FBbaO7+XfdXwNQLr7zij9zPRiFk5QGcysvE7k+XYNsVMwBs8L91kKCRcxTxq7AyxRwBwxchdssM+Fw+hzpqAiZyyGVKVFWpUHbxMuz7vwL/3M8wKmQlDpzKQ+buT7Fk2xVYGrOlLsr0Ox/yrsKm7TBggD/OR0/B+5tTkZd9FN9ErkeevSX8hgWja9lurD9QotWtIhu5NQMQMtwDtY3IblA3+mFYcFeU7V6PA1pBUZGdi5oBIRjuIQPYwIIN5JYH9ENfj3PYuGwjzioA1NxCSZUKVZXVd0/APc8pDMRRsZuoP0SvLxo7xQjo1xce5zZi2caz0IpTgipVFSqrTR/JftqLV6D0bgP62ylIL+6B4Ne80MHIvFp3a+O5ITI0b26HW/lncVNQo+iXeGTdvoOqKhUAQ+o3nMeQX4vbNhJ/2i0x2nBrQqzew6D+7g11NG0krgAIGkKt1hZx0fohGIqXto3OXbdWNMQJr80Yh2axM7DWYRheNvB6pKx5c9jdysfZmwLURb8gPus27lRVQQWDTmmQE7p/RUVpqa4G3UZKejF6BL8G9wb5bzwuZQAgaEC1GgKM17yHigVR+bWwohT3XZ6O4h7BeM1dJm4jMfmuPYd+fT1wbuMybNQWCtwqqYKqqhLVMIXXK4Zr6b33s+QBRs7HvfjTaqJA/KqVSDEPwPBFsdgywweXzxUbvUZDt2rnU+fH4aeTJnDzdABKspFXJECtvI0rl0u1o4zYTuYyFJNGmOLH+cnwGeGr/SVbtHZd1p2ln+P39TKaq42s0cbi5qHWaGhriN4ifV92QrtIG7uu2BptLB4MrSENCvXvgP5z46cGRQGPbZrNvs4yypw78bUx4zhu3DiOCR7ETs+4cewO7d4U9aWdjBzUnf3GRnBuZBinr0jS7q2p3soQ3yAOnb6EUcvnMGx2DPP1Nm0qzsVwRr/2dLa2oktgMKNSK8jKU/xmpB//36R9vCKQFac+Y7/mpmzWZQo3nLrGjC8G0svRk12GzeS66Als5/wc3/56F3fNfJEOZn58+5tkFuTH84th3jR7ZhA/jMvjhbTvOTHQkjbPhzM2u5xUnGPMjH5s72xNK5dABkelsoLlzNk+jV1sLBg48Qemns3m7jl96GjWnmPWpLL4jqFzyOqtIfQNGsrpS6K4fE4YZ8fk13sJg0IJd4cFsoVXD07eeIYqKnguZgb7tXemtZULA4OjmKrb2mnYlgJLT8dwWhc7mrUdyRVHL1JFgWXZsZza2YbmARO4IfMWhZo8bp7Si22a29Gx/UDO3n13/5qal3ZGclD3fhwbMZeRYdO5IukGtS4yLrvocfUl7owcxO79xjJibiTDpq9g0g2BLM/h9mldaGMRyIk/pPJs9m7O6eNIs/ZjuCa1uM7MZHlGNMd2dqerbx+++V4kg4Pas++kKMZn/crYqZ1pYx7ACRsyeatSJI4M+dDo9S8ajp3vskiWMyN6LDu7u9K3z5t8LzKYQe37clJUAgvVD28/Vm/hyGYufH70DM5fNJ/vjRvLObu0e11E/SKU8nTMNHaxM2PbkSt49GLDnc7KX6P4D+/mdOs4mDM2/MDwIH8OiviWhxNiOa2LDS0CJ/KH1LPM3j2HfRzN2H7MGqYW39+fJCa34fgjWZHLbWFBtDYPYOj3abwmGBlbFzH9xXQUiytWM//QlxzV3oxm/m/zq5/SeVUQqR9idUdkbqH0NGOmdaGdWVuOXHGUBsytRbjCr4f05uLTIgOUvzLqH95s7taRg2ds4A/hQfQfFMFvDycYicm6OVHNLSOb0eX50ZwxfxHnvzeOY+fsYqHaUP5TPH5IVucf4pej2tPMzJ9vf/UT07XGapgvDxwLYrLU0WLLSDZzeZ6jZ8znovnvcdzYOdxVqNugJWajlGJR+Vieweixnenu6ss+b77HyOAgtu87iVEJhaSRWnoPsfPjs5gdO5WdbcwZMGEDM29VcmuIL4OGTueSqOWcEzabMdpCY/Aa5TnbxXPtYhq/GOhFR88uHDZzHaMntKPzc2O5ettGo7a7izp7KYe+u0urP0lSYbh2rf2lYR4JZXp6CSK+bNoabdAvD7NGf5fKM7tm8kUHM/q9/Q2TC/IZ/8Uweps9w0EfxjHvQhq/nxhIS5vnGR6bzXJD121sjRYM+6pJev4OmNDYbb6EhMRflzsxCHZfBO+4TCzreu/jG38dnib9lcew4L3TCFk1CV76v37+LtxBTLA7FnnHIXNZ1/ufannCuBMTDPdF3ojLXIYn3eUSEg/CH1IWJCQknga0j7v/uv9dfPL1v3M+AT8dSEHCV9+hqn/wH3QjqIU0/gjxiUCrhJFH7hISTyd/YGmQkJB4YlEXIX17PPKqipG25yBy726i+qvwVOivRt6G9/HmkNcxp3go3n/VUX/A74QaRenbEZ9XheK0PTiYe3ff4JOFuigd2+PzUFWchj0Hc+/tG5SQ+CsgPSaWkJBoiEaJ22UVqNUAkMlh5dDcQIeOp5inRn8BSqX2TcU/Dg2Ut8tQoTUW5FYOaP4EGkujvI2yCu0nc2RyKzg0v9+pR0LiaUe6GZSQkJCQkJCQ+AsjPSaWkJCQkJCQkPgLI90M1kOJzPULsODbZJQZ2S9Se/wjDHp5ARLu6B/533On4Aj+M3MEXp2fAKX+QaPcQcGR/2DmiFcxP+HBzvwjUF9Px6YFb2HA+3ug0D9Yh4fXV0JCQkJCQsIQT/3NoPpaEW4YubGrhyIJa75Mhl1QR21LJRHkrXti5Kg+aGehf+R/j8zBA6bnjyL9SuUDvgEng4OHKc4fTceVygc7849AKVjgTl48kgsqjG4+f3h9JSQkJCQkJAxh5JbnKUC4iO/nrcSJez3OjKP+7RqeXbIR73Wy1j9UD1mrnhgX0htuf+Se7CZi6egFH1eHh3CkJRy9fODq8OBn/hHYuHZAZz9DbbLq8/D6SkhISEhISBji6V1Tq/Pw37BheH9bGuI3rseBM7qHj4qrSN+7BT/uSML5eq0CBVTI3dCqPAmHTl2r8whSQElWAtIuV6Hg552I/60KUN/Ar0fTcLVOe8Daa6ewf+sW7Eg8i9t1f9oSSpEbvw3/3XoAp67VfbBZi+ITexETG4fUzNPIN/hcWoOyMwnY/uNmbDuSgxKRdoQmJvdal+sQUJobj23/3YoD9XTRxwT1TtWU4UzCdvy4eRuO5JRoW0EBgFCCrIQ0XK4qwM874/FblfaflUUZ2BezBT8l/VZfZwBCaS7it/0XWw+cQj219RFKkHNkG7buTsc1tb4eClxN34stP+5AUh1nNdS3Pvq+EC4nI2b99/hhWyquazQoObUbG7//HluOXdXqaEi/2mKc2BuD2LhUZJ7Ov79tQNSfEhISEhISTyZP780gHBDQrQMcLBzh81wntHORQyjcjnkzf8AFaxeYpC1Er+dDEFukATQlODwvGBFxKni3tUDKBz3xwpSfcFV9ExnfTUSvriMwd+lizJo5BaPeW46VE3qj2+j/4KQKADQo3j0L45ecgK1/a1xZ/nd0fGsTLmsATclhzAuOQJzKG20tUvBBzxcw5aer0EBAwdrJmJfqim5B9kj5KBIbLurfDGpw9cex6D39OFoEeuPqqoHoFn5A15PSCGK66E+vj+YqfhzbG9OPt0Cg91WsGtgN4QeqobmZge8m9kLXEXOxdPEszJwyGv/+qQzlCXMx6N2DcO7TC83i3kY7j+fxj5DPkVCpQcnheQiOiIPKuy0sUj5Azxem4CdDAlSm4JMRoVhf6oE25sewZkve/YbsQiG2z5uJHy5Yw8UkDQt7PY+Q2CKjj5DFfFHk1g29NTswI3IzzqplcOrYE1aHZ+O9daegNKTf9lNYO3keUl27Icg+BR9FbsBFo/6UkJCQkJB4gtHvT/c0oTgazrZuodxbQ5I1PPhuJ/aLWMXo6GhGR01gkIU5ey4vYE3CNPoFzmKKUnue+sIK9rZ1Z+jeSlKZwHAfB/ZffZECBaoFUnFkCtu4jueuGpJV+zjRdwi/va5tbFp5fDWnzotlgbqGCdP8GDgrhdpp1bywojdt3UO5t7KGO8Z4sduswyxSkaqzSUy6pOt/eQ8VMz8fyhFR2VRRYGFUH9p2X8Zz+sOoYHyYD13H72INaVwXfRTxDPNx5fhdNaQqk58PHcGobBUpFDKqjy27LztHNUllQjh9HPpz9UWBFNQUeIvrhjRj0KIsqkgKV1eyj00QF55WkTUJnOYXyFn3BeCK3rZ0D93L+hIomT4viP5TE6jQ/f1YhC/t39jEapI1B99lp34RXBUdzejoKE4IsqB5z+UsEOrrWw9RX5A1e0Lo1m4qE5XaayVObUe3kD2sMaRfzQ6O8erGWYeLqKKKZ5OSeMmoP+uLISEhISEh8STxFP8yqIdwAamnFHh2yHiEhoYi9N2vkFxRjfhp7sg+FI9CBxe00O0BNPXogRdb30Ja8lmoYQq5qTVcPVpCBhlMZYCJmdm9j5Gqf0tGekVzONtrTWnbbQqiFg+DN7NxKL4QDi4toJ3WFB49XkTrW2lIPitHn3cmwHrDYPh1GICIJAt0cNffgChHx4jNWOabiE8WLcXGk+XQCML9X84Mom5EFyPIOyJi8zL4Jn6CRUs34mS5BoKgO8NUDlNrV3i0lAEyU8hgDjtbc9wqKoYagMzMHOZyG9hZm0CdfQjxhQ5wuS8AerzYGrfSknG2rgDqs9i77wxa+bSBGQBABhsba2gfAAu4kHoKimeHYHxoKEJD38VXyRWojp8GbyMRK+oLfdPqo6+fZR+8M8EaGwb7ocOACCRZdIC7UX8atayEhISEhMRjjZGl9WnDAhaml3Es8QJk5uYwNzeHubwUhYVVsLKwgHDlIi7dXdNNrGFlKYeTi3OjBjKxtIR5+UmkZt1/S0WRlY7TSitYWAi4cvHSvZswE2srWMqd4OIMICAcB3MysHa0JfbPeBnDo87cO1/LHaQs7o8397TDpHlzMLmXW6OyACYPr8udFCzu/yb2tJuEeXMmo5ebsdF2eHXh5+h+4mPMXLkWKz9JguuHn2OijylMrCxgIVzBxfsCwNrKEnInFzjXm1IJVa2AG8XaG0p9LCxMcflYIi7IdL4yl6O0sBD1tnnqIeoLBQDdbWa9N5DFvreuAQLCDyInYy1GW+7HjJeHI+qsuRF/GrOVhISEhITE481TvYqZyOWQKatQpSrDxcv2eOUVf+R+NgohKw/gVF4mdn+6BNuuWMJvWDC6lu3G+gMl2v1fFdnIrRmAkOEeOgPpNauntoE9AJi2G4AB/ucRPeV9bE7NQ/bRbxC5Pg/2ln4YFtwVZbvX40CJdldZRXYuagaEYLhHLeJXrUSKeQCGL4rFlhk+uHzuSp0LAFDnI+6nkzBx84QDSpCdVwRBrcTtK5frj9M+6tc1iDdtgi71ztSdC6jz4/DTSRO4eToAJdnIKxKgVt7GlculuqF1m7drcPPUL7AO/QFfThmHKV9swrrwzrADYOo3DMFdy7B7/QFo1a5Adm4NBoQMh0ddAeQB6NfXA+c2LsPGswoANbhVUgVVVSWqYQqvV16Bf+5nGBWyEgdO5SFz96dYsu0KzOrpWx9RX5gBsubNYXcrH2dvClAX/YL4rNu4U1UF1d2T6+qniMeqlSkwDxiORbFbMMPnMs4VtzXiTxk0137GmhVbkWvsI4kSEhISEhKPI/rPjZ8mhJLdDAtsQa8ek7nxjIpUnGPMjH5s72xNK5dABkelsoIkqealnZEc1L0fx0bMZWTYdK5IukFBKOXpmGnsYmfGtiNX8OhFFYWybMZO7Uwb8wBO2JDJWwJZk7eZU3q1YXM7R7YfOJu77+7/U1/izshB7N5vLCPmRjJs+gom3RBIVnNriC+Dhk7nkqjlnBM2mzH5qvrCU8GMLwbSy9GTXYbN5LroCWzn/Bzf/i6r3qiK3G0MC7KmeUAov0+7RkFMl3pnkWQFc7eFMcjanAGh3zPtUhq/GOhFR88uHDZzHaMntKPzc29z7S/pjJnWhXZmbTlyxVFeVJGkkslzO9HO3I5Ordzo4e1Dv6D+fGdNJqtIqi/tZOSg7uw3NoJzI8M4fUUSbzQUgCzPYPTYznR39WWfN99jZHAQ2/edxKiEQpIKnouZwX7tnWlt5cLA4CimVhjStz6ivlD+yqh/eLO5W0cOnrGBP4QH0X9QBL85GN9Qv+qtDPEN4tDpSxi1fA7DZscwX2XMn6Ti8HT6uQ3i1wUNNnVKSEhISEg81ki9iSUegts4tnIlLvQcg67yMpRXVqGq9BIOfJuKF35chdct9cdLSEhISEhIPK40fHIoIdEI6swvMG3NVTi18kD7gE7o8sJL6P1CG7T6fy/gOe3bIBISEhISEhJPCNIvgxIPTtUprJk+FZ/syYdpSzc4O7WCd8chmD5vAroY6+MnISEhISEh8dgh3QxKPDwaJSor1bCws4G5dA8oISEhISHxRCLdDEpISEhISEhI/IWRfs+RkJCQkJCQkPgLI90MSkhISEhISEj8hZFuBiUkJCQkJCQk/sJIN4MSEhISEhISEn9hpJtBCQkJCQkJCYm/MNLNoISEhISEhITEXxjpZlBCQkJCQkJC4i/M/wfFPl1bjYFHkAAAAABJRU5ErkJggg==;" parent="1" vertex="1">
          <mxGeometry x="123" y="121" width="643" height="403" as="geometry" />
        </mxCell>
        <mxCell id="sR0DKym92BfmkiZwiNyP-2" value="Alumno" style="whiteSpace=wrap;html=1;align=center;fillColor=#f0a30a;strokeColor=#BD7000;fontColor=#000000;" parent="1" vertex="1">
          <mxGeometry x="344.5" y="836" width="100" height="40" as="geometry" />
        </mxCell>
        <mxCell id="sR0DKym92BfmkiZwiNyP-3" value="Grupo" style="whiteSpace=wrap;html=1;align=center;fillColor=#f0a30a;strokeColor=#BD7000;fontColor=#000000;" parent="1" vertex="1">
          <mxGeometry x="654.5" y="836" width="100" height="40" as="geometry" />
        </mxCell>
        <mxCell id="sR0DKym92BfmkiZwiNyP-4" value="TeÃ³rico" style="whiteSpace=wrap;html=1;align=center;fillColor=#f0a30a;strokeColor=#BD7000;fontColor=#000000;" parent="1" vertex="1">
          <mxGeometry x="209" y="1177" width="100" height="40" as="geometry" />
        </mxCell>
        <mxCell id="sR0DKym92BfmkiZwiNyP-5" value="PrÃ¡ctico" style="whiteSpace=wrap;html=1;align=center;fillColor=#f0a30a;strokeColor=#BD7000;fontColor=#000000;" parent="1" vertex="1">
          <mxGeometry x="499.5" y="1177" width="100" height="40" as="geometry" />
        </mxCell>
        <mxCell id="sR0DKym92BfmkiZwiNyP-6" value="Prueba" style="whiteSpace=wrap;html=1;align=center;fillColor=#f0a30a;strokeColor=#BD7000;fontColor=#000000;" parent="1" vertex="1">
          <mxGeometry x="342.5" y="1012" width="100" height="40" as="geometry" />
        </mxCell>
        <mxCell id="sR0DKym92BfmkiZwiNyP-7" value="" style="triangle;whiteSpace=wrap;html=1;rotation=90;fillColor=#f0a30a;strokeColor=#BD7000;fontColor=#000000;" parent="1" vertex="1">
          <mxGeometry x="377.5" y="1077" width="30" height="60" as="geometry" />
        </mxCell>
        <mxCell id="sR0DKym92BfmkiZwiNyP-8" value="" style="endArrow=none;html=1;rounded=0;exitX=0.5;exitY=1;exitDx=0;exitDy=0;entryX=0.5;entryY=0;entryDx=0;entryDy=0;" parent="1" source="sR0DKym92BfmkiZwiNyP-7" edge="1">
          <mxGeometry relative="1" as="geometry">
            <mxPoint x="532.5" y="1122" as="sourcePoint" />
            <mxPoint x="252.5" y="1180" as="targetPoint" />
          </mxGeometry>
        </mxCell>
        <mxCell id="sR0DKym92BfmkiZwiNyP-9" value="" style="endArrow=none;html=1;rounded=0;exitX=0.5;exitY=0;exitDx=0;exitDy=0;entryX=0.5;entryY=0;entryDx=0;entryDy=0;" parent="1" source="sR0DKym92BfmkiZwiNyP-7" edge="1">
          <mxGeometry relative="1" as="geometry">
            <mxPoint x="532.5" y="1122" as="sourcePoint" />
            <mxPoint x="542.5" y="1180" as="targetPoint" />
          </mxGeometry>
        </mxCell>
        <mxCell id="sR0DKym92BfmkiZwiNyP-10" value="" style="endArrow=none;html=1;rounded=0;exitX=0;exitY=0.5;exitDx=0;exitDy=0;entryX=0.5;entryY=1;entryDx=0;entryDy=0;" parent="1" source="DgEYZhZc2xWZN-XAUSVm-3" target="sR0DKym92BfmkiZwiNyP-6" edge="1">
          <mxGeometry relative="1" as="geometry">
            <mxPoint x="392.5" y="1067" as="sourcePoint" />
            <mxPoint x="692.5" y="1122" as="targetPoint" />
          </mxGeometry>
        </mxCell>
        <mxCell id="sR0DKym92BfmkiZwiNyP-11" value="" style="ellipse;whiteSpace=wrap;html=1;aspect=fixed;" parent="1" vertex="1">
          <mxGeometry x="439.5" y="1096" width="10" height="10" as="geometry" />
        </mxCell>
        <mxCell id="sR0DKym92BfmkiZwiNyP-12" value="" style="endArrow=none;html=1;rounded=0;exitX=0;exitY=0.5;exitDx=0;exitDy=0;entryX=0.3;entryY=0.167;entryDx=0;entryDy=0;entryPerimeter=0;" parent="1" source="sR0DKym92BfmkiZwiNyP-11" target="sR0DKym92BfmkiZwiNyP-7" edge="1">
          <mxGeometry relative="1" as="geometry">
            <mxPoint x="532.5" y="1122" as="sourcePoint" />
            <mxPoint x="692.5" y="1122" as="targetPoint" />
          </mxGeometry>
        </mxCell>
        <mxCell id="sR0DKym92BfmkiZwiNyP-14" value="" style="endArrow=none;html=1;rounded=0;" parent="1" edge="1">
          <mxGeometry relative="1" as="geometry">
            <mxPoint x="302.5" y="1122" as="sourcePoint" />
            <mxPoint x="482.5" y="1122" as="targetPoint" />
            <Array as="points">
              <mxPoint x="392.5" y="1152" />
            </Array>
          </mxGeometry>
        </mxCell>
        <mxCell id="_eZaiT229mg_16XrYwer-16" value="Pertenece" style="shape=rhombus;perimeter=rhombusPerimeter;whiteSpace=wrap;html=1;align=center;fillColor=#76608a;fontColor=#ffffff;strokeColor=#432D57;" parent="1" vertex="1">
          <mxGeometry x="514.5" y="847" width="90" height="40" as="geometry" />
        </mxCell>
        <mxCell id="_eZaiT229mg_16XrYwer-17" value="" style="endArrow=none;html=1;rounded=0;exitX=0;exitY=0.5;exitDx=0;exitDy=0;entryX=1;entryY=0.75;entryDx=0;entryDy=0;" parent="1" source="_eZaiT229mg_16XrYwer-16" target="sR0DKym92BfmkiZwiNyP-2" edge="1">
          <mxGeometry relative="1" as="geometry">
            <mxPoint x="491.5" y="837" as="sourcePoint" />
            <mxPoint x="444.5" y="867" as="targetPoint" />
          </mxGeometry>
        </mxCell>
        <mxCell id="_eZaiT229mg_16XrYwer-18" value="(1,N)" style="resizable=0;html=1;whiteSpace=wrap;align=right;verticalAlign=bottom;" parent="_eZaiT229mg_16XrYwer-17" connectable="0" vertex="1">
          <mxGeometry x="1" relative="1" as="geometry">
            <mxPoint x="34" as="offset" />
          </mxGeometry>
        </mxCell>
        <mxCell id="_eZaiT229mg_16XrYwer-19" value="" style="endArrow=none;html=1;rounded=0;exitX=1;exitY=0.5;exitDx=0;exitDy=0;" parent="1" source="_eZaiT229mg_16XrYwer-16" edge="1">
          <mxGeometry relative="1" as="geometry">
            <mxPoint x="491.5" y="837" as="sourcePoint" />
            <mxPoint x="664.5" y="867" as="targetPoint" />
          </mxGeometry>
        </mxCell>
        <mxCell id="_eZaiT229mg_16XrYwer-20" value="(1,1)" style="resizable=0;html=1;whiteSpace=wrap;align=right;verticalAlign=bottom;" parent="_eZaiT229mg_16XrYwer-19" connectable="0" vertex="1">
          <mxGeometry x="1" relative="1" as="geometry">
            <mxPoint as="offset" />
          </mxGeometry>
        </mxCell>
        <mxCell id="_eZaiT229mg_16XrYwer-21" value="Realiza" style="shape=rhombus;perimeter=rhombusPerimeter;whiteSpace=wrap;html=1;align=center;fillColor=#76608a;fontColor=#ffffff;strokeColor=#432D57;" parent="1" vertex="1">
          <mxGeometry x="354.5" y="924" width="90" height="40" as="geometry" />
        </mxCell>
        <mxCell id="_eZaiT229mg_16XrYwer-22" value="" style="endArrow=none;html=1;rounded=0;exitX=0;exitY=0.5;exitDx=0;exitDy=0;entryX=0;entryY=1;entryDx=0;entryDy=0;" parent="1" source="_eZaiT229mg_16XrYwer-21" target="sR0DKym92BfmkiZwiNyP-2" edge="1">
          <mxGeometry relative="1" as="geometry">
            <mxPoint x="331.5" y="914" as="sourcePoint" />
            <mxPoint x="284.5" y="944" as="targetPoint" />
          </mxGeometry>
        </mxCell>
        <mxCell id="_eZaiT229mg_16XrYwer-23" value="(1,N)" style="resizable=0;html=1;whiteSpace=wrap;align=right;verticalAlign=bottom;" parent="_eZaiT229mg_16XrYwer-22" connectable="0" vertex="1">
          <mxGeometry x="1" relative="1" as="geometry">
            <mxPoint x="34" as="offset" />
          </mxGeometry>
        </mxCell>
        <mxCell id="_eZaiT229mg_16XrYwer-24" value="" style="endArrow=none;html=1;rounded=0;exitX=1;exitY=0.5;exitDx=0;exitDy=0;entryX=1;entryY=0;entryDx=0;entryDy=0;" parent="1" source="_eZaiT229mg_16XrYwer-21" target="sR0DKym92BfmkiZwiNyP-6" edge="1">
          <mxGeometry relative="1" as="geometry">
            <mxPoint x="326" y="914" as="sourcePoint" />
            <mxPoint x="499" y="944" as="targetPoint" />
          </mxGeometry>
        </mxCell>
        <mxCell id="_eZaiT229mg_16XrYwer-25" value="(1,M)" style="resizable=0;html=1;whiteSpace=wrap;align=right;verticalAlign=bottom;" parent="_eZaiT229mg_16XrYwer-24" connectable="0" vertex="1">
          <mxGeometry x="1" relative="1" as="geometry">
            <mxPoint as="offset" />
          </mxGeometry>
        </mxCell>
        <mxCell id="DgEYZhZc2xWZN-XAUSVm-5" value="" style="endArrow=none;html=1;rounded=0;exitX=0;exitY=0.5;exitDx=0;exitDy=0;entryX=0.5;entryY=1;entryDx=0;entryDy=0;" edge="1" parent="1" source="sR0DKym92BfmkiZwiNyP-7" target="DgEYZhZc2xWZN-XAUSVm-3">
          <mxGeometry relative="1" as="geometry">
            <mxPoint x="393" y="1092" as="sourcePoint" />
            <mxPoint x="393" y="1052" as="targetPoint" />
          </mxGeometry>
        </mxCell>
        <mxCell id="DgEYZhZc2xWZN-XAUSVm-3" value="" style="ellipse;whiteSpace=wrap;html=1;aspect=fixed;" vertex="1" parent="1">
          <mxGeometry x="387.5" y="1067" width="10" height="10" as="geometry" />
        </mxCell>
        <mxCell id="DgEYZhZc2xWZN-XAUSVm-7" value="DiseÃ±o" style="shape=rhombus;perimeter=rhombusPerimeter;whiteSpace=wrap;html=1;align=center;fillColor=#76608a;fontColor=#ffffff;strokeColor=#432D57;" vertex="1" parent="1">
          <mxGeometry x="238" y="1254" width="90" height="40" as="geometry" />
        </mxCell>
        <mxCell id="DgEYZhZc2xWZN-XAUSVm-8" value="" style="endArrow=none;html=1;rounded=0;exitX=0;exitY=0.5;exitDx=0;exitDy=0;entryX=0;entryY=1;entryDx=0;entryDy=0;" edge="1" source="DgEYZhZc2xWZN-XAUSVm-7" parent="1" target="sR0DKym92BfmkiZwiNyP-4">
          <mxGeometry relative="1" as="geometry">
            <mxPoint x="215" y="1244" as="sourcePoint" />
            <mxPoint x="168" y="1274" as="targetPoint" />
          </mxGeometry>
        </mxCell>
        <mxCell id="DgEYZhZc2xWZN-XAUSVm-9" value="(1,N)" style="resizable=0;html=1;whiteSpace=wrap;align=right;verticalAlign=bottom;" connectable="0" vertex="1" parent="DgEYZhZc2xWZN-XAUSVm-8">
          <mxGeometry x="1" relative="1" as="geometry">
            <mxPoint x="34" as="offset" />
          </mxGeometry>
        </mxCell>
        <mxCell id="DgEYZhZc2xWZN-XAUSVm-10" value="" style="endArrow=none;html=1;rounded=0;exitX=1;exitY=0.5;exitDx=0;exitDy=0;entryX=0;entryY=0;entryDx=0;entryDy=0;" edge="1" source="DgEYZhZc2xWZN-XAUSVm-7" parent="1" target="DgEYZhZc2xWZN-XAUSVm-17">
          <mxGeometry relative="1" as="geometry">
            <mxPoint x="215" y="1244" as="sourcePoint" />
            <mxPoint x="388" y="1274" as="targetPoint" />
          </mxGeometry>
        </mxCell>
        <mxCell id="DgEYZhZc2xWZN-XAUSVm-11" value="(1,1)" style="resizable=0;html=1;whiteSpace=wrap;align=right;verticalAlign=bottom;" connectable="0" vertex="1" parent="DgEYZhZc2xWZN-XAUSVm-10">
          <mxGeometry x="1" relative="1" as="geometry">
            <mxPoint as="offset" />
          </mxGeometry>
        </mxCell>
        <mxCell id="DgEYZhZc2xWZN-XAUSVm-12" value="Particpa" style="shape=rhombus;perimeter=rhombusPerimeter;whiteSpace=wrap;html=1;align=center;fillColor=#76608a;fontColor=#ffffff;strokeColor=#432D57;" vertex="1" parent="1">
          <mxGeometry x="484" y="1243" width="90" height="40" as="geometry" />
        </mxCell>
        <mxCell id="DgEYZhZc2xWZN-XAUSVm-13" value="" style="endArrow=none;html=1;rounded=0;exitX=0;exitY=0.5;exitDx=0;exitDy=0;entryX=1;entryY=0;entryDx=0;entryDy=0;" edge="1" source="DgEYZhZc2xWZN-XAUSVm-12" parent="1" target="DgEYZhZc2xWZN-XAUSVm-17">
          <mxGeometry relative="1" as="geometry">
            <mxPoint x="461" y="1233" as="sourcePoint" />
            <mxPoint x="414" y="1263" as="targetPoint" />
          </mxGeometry>
        </mxCell>
        <mxCell id="DgEYZhZc2xWZN-XAUSVm-14" value="(1,N)" style="resizable=0;html=1;whiteSpace=wrap;align=right;verticalAlign=bottom;" connectable="0" vertex="1" parent="DgEYZhZc2xWZN-XAUSVm-13">
          <mxGeometry x="1" relative="1" as="geometry">
            <mxPoint x="34" as="offset" />
          </mxGeometry>
        </mxCell>
        <mxCell id="DgEYZhZc2xWZN-XAUSVm-15" value="" style="endArrow=none;html=1;rounded=0;exitX=1;exitY=0.5;exitDx=0;exitDy=0;entryX=1;entryY=1;entryDx=0;entryDy=0;" edge="1" source="DgEYZhZc2xWZN-XAUSVm-12" parent="1" target="sR0DKym92BfmkiZwiNyP-5">
          <mxGeometry relative="1" as="geometry">
            <mxPoint x="461" y="1233" as="sourcePoint" />
            <mxPoint x="634" y="1263" as="targetPoint" />
          </mxGeometry>
        </mxCell>
        <mxCell id="DgEYZhZc2xWZN-XAUSVm-16" value="(1,M)" style="resizable=0;html=1;whiteSpace=wrap;align=right;verticalAlign=bottom;" connectable="0" vertex="1" parent="DgEYZhZc2xWZN-XAUSVm-15">
          <mxGeometry x="1" relative="1" as="geometry">
            <mxPoint x="28" as="offset" />
          </mxGeometry>
        </mxCell>
        <mxCell id="DgEYZhZc2xWZN-XAUSVm-17" value="Profesor" style="whiteSpace=wrap;html=1;align=center;fillColor=#f0a30a;strokeColor=#BD7000;fontColor=#000000;" vertex="1" parent="1">
          <mxGeometry x="345" y="1320" width="100" height="40" as="geometry" />
        </mxCell>
        <mxCell id="DgEYZhZc2xWZN-XAUSVm-19" value="" style="endArrow=none;html=1;rounded=0;exitX=0;exitY=0;exitDx=0;exitDy=0;" edge="1" target="DgEYZhZc2xWZN-XAUSVm-20" parent="1" source="sR0DKym92BfmkiZwiNyP-2">
          <mxGeometry relative="1" as="geometry">
            <mxPoint x="323" y="774" as="sourcePoint" />
            <mxPoint x="383" y="774" as="targetPoint" />
          </mxGeometry>
        </mxCell>
        <mxCell id="DgEYZhZc2xWZN-XAUSVm-20" value="&lt;u&gt;NIF&lt;/u&gt;" style="ellipse;whiteSpace=wrap;html=1;align=center;" vertex="1" parent="1">
          <mxGeometry x="286" y="759" width="50" height="30" as="geometry" />
        </mxCell>
        <mxCell id="DgEYZhZc2xWZN-XAUSVm-21" value="" style="endArrow=none;html=1;rounded=0;exitX=0.25;exitY=0;exitDx=0;exitDy=0;" edge="1" target="DgEYZhZc2xWZN-XAUSVm-22" parent="1" source="sR0DKym92BfmkiZwiNyP-2">
          <mxGeometry relative="1" as="geometry">
            <mxPoint x="398" y="763" as="sourcePoint" />
            <mxPoint x="458" y="763" as="targetPoint" />
          </mxGeometry>
        </mxCell>
        <mxCell id="DgEYZhZc2xWZN-XAUSVm-22" value="Nombre" style="ellipse;whiteSpace=wrap;html=1;align=center;" vertex="1" parent="1">
          <mxGeometry x="328" y="737" width="60.5" height="30" as="geometry" />
        </mxCell>
        <mxCell id="DgEYZhZc2xWZN-XAUSVm-23" value="" style="endArrow=none;html=1;rounded=0;exitX=0.5;exitY=0;exitDx=0;exitDy=0;" edge="1" target="DgEYZhZc2xWZN-XAUSVm-24" parent="1" source="sR0DKym92BfmkiZwiNyP-2">
          <mxGeometry relative="1" as="geometry">
            <mxPoint x="398" y="774" as="sourcePoint" />
            <mxPoint x="458" y="774" as="targetPoint" />
          </mxGeometry>
        </mxCell>
        <mxCell id="DgEYZhZc2xWZN-XAUSVm-24" value="Apellidos" style="ellipse;whiteSpace=wrap;html=1;align=center;" vertex="1" parent="1">
          <mxGeometry x="394.5" y="729" width="56.5" height="30" as="geometry" />
        </mxCell>
        <mxCell id="DgEYZhZc2xWZN-XAUSVm-27" value="" style="endArrow=none;html=1;rounded=0;exitX=0.25;exitY=0;exitDx=0;exitDy=0;" edge="1" target="DgEYZhZc2xWZN-XAUSVm-28" parent="1" source="sR0DKym92BfmkiZwiNyP-3">
          <mxGeometry relative="1" as="geometry">
            <mxPoint x="655" y="774" as="sourcePoint" />
            <mxPoint x="715" y="774" as="targetPoint" />
          </mxGeometry>
        </mxCell>
        <mxCell id="DgEYZhZc2xWZN-XAUSVm-28" value="&lt;u&gt;A_Z&lt;/u&gt;" style="ellipse;whiteSpace=wrap;html=1;align=center;" vertex="1" parent="1">
          <mxGeometry x="690" y="759" width="50" height="30" as="geometry" />
        </mxCell>
        <mxCell id="DgEYZhZc2xWZN-XAUSVm-30" value="" style="endArrow=none;html=1;rounded=0;exitX=0.5;exitY=0;exitDx=0;exitDy=0;" edge="1" target="DgEYZhZc2xWZN-XAUSVm-31" parent="1" source="sR0DKym92BfmkiZwiNyP-4">
          <mxGeometry relative="1" as="geometry">
            <mxPoint x="154" y="1111" as="sourcePoint" />
            <mxPoint x="214" y="1111" as="targetPoint" />
          </mxGeometry>
        </mxCell>
        <mxCell id="DgEYZhZc2xWZN-XAUSVm-31" value="Titulo" style="ellipse;whiteSpace=wrap;html=1;align=center;" vertex="1" parent="1">
          <mxGeometry x="209" y="1096" width="50" height="30" as="geometry" />
        </mxCell>
        <mxCell id="DgEYZhZc2xWZN-XAUSVm-32" value="" style="endArrow=none;html=1;rounded=0;exitX=0.25;exitY=0;exitDx=0;exitDy=0;" edge="1" target="DgEYZhZc2xWZN-XAUSVm-33" parent="1" source="sR0DKym92BfmkiZwiNyP-4">
          <mxGeometry relative="1" as="geometry">
            <mxPoint x="110" y="1111" as="sourcePoint" />
            <mxPoint x="170" y="1111" as="targetPoint" />
          </mxGeometry>
        </mxCell>
        <mxCell id="DgEYZhZc2xWZN-XAUSVm-33" value="Numero_Preguntas" style="ellipse;whiteSpace=wrap;html=1;align=center;" vertex="1" parent="1">
          <mxGeometry x="132" y="1067" width="119" height="30" as="geometry" />
        </mxCell>
        <mxCell id="DgEYZhZc2xWZN-XAUSVm-34" value="" style="endArrow=none;html=1;rounded=0;exitX=0;exitY=0;exitDx=0;exitDy=0;" edge="1" target="DgEYZhZc2xWZN-XAUSVm-35" parent="1" source="sR0DKym92BfmkiZwiNyP-4">
          <mxGeometry relative="1" as="geometry">
            <mxPoint x="55" y="1170" as="sourcePoint" />
            <mxPoint x="115" y="1170" as="targetPoint" />
          </mxGeometry>
        </mxCell>
        <mxCell id="DgEYZhZc2xWZN-XAUSVm-35" value="&lt;u&gt;Identificador_Teorico&lt;/u&gt;" style="ellipse;whiteSpace=wrap;html=1;align=center;" vertex="1" parent="1">
          <mxGeometry x="44" y="1107" width="141" height="30" as="geometry" />
        </mxCell>
        <mxCell id="DgEYZhZc2xWZN-XAUSVm-36" value="" style="endArrow=none;html=1;rounded=0;exitX=0.5;exitY=0;exitDx=0;exitDy=0;" edge="1" target="DgEYZhZc2xWZN-XAUSVm-37" parent="1" source="sR0DKym92BfmkiZwiNyP-5">
          <mxGeometry relative="1" as="geometry">
            <mxPoint x="473" y="1081" as="sourcePoint" />
            <mxPoint x="533" y="1081" as="targetPoint" />
          </mxGeometry>
        </mxCell>
        <mxCell id="DgEYZhZc2xWZN-XAUSVm-37" value="&lt;u&gt;Identificaodr_Practico&lt;/u&gt;" style="ellipse;whiteSpace=wrap;html=1;align=center;" vertex="1" parent="1">
          <mxGeometry x="491.5" y="1076" width="136" height="30" as="geometry" />
        </mxCell>
        <mxCell id="DgEYZhZc2xWZN-XAUSVm-38" value="" style="endArrow=none;html=1;rounded=0;exitX=0.75;exitY=0;exitDx=0;exitDy=0;" edge="1" target="DgEYZhZc2xWZN-XAUSVm-39" parent="1" source="sR0DKym92BfmkiZwiNyP-5">
          <mxGeometry relative="1" as="geometry">
            <mxPoint x="570" y="1131" as="sourcePoint" />
            <mxPoint x="630" y="1131" as="targetPoint" />
          </mxGeometry>
        </mxCell>
        <mxCell id="DgEYZhZc2xWZN-XAUSVm-39" value="Titulo" style="ellipse;whiteSpace=wrap;html=1;align=center;" vertex="1" parent="1">
          <mxGeometry x="633" y="1086" width="50" height="30" as="geometry" />
        </mxCell>
        <mxCell id="DgEYZhZc2xWZN-XAUSVm-40" value="" style="endArrow=none;html=1;rounded=0;exitX=1;exitY=0;exitDx=0;exitDy=0;" edge="1" target="DgEYZhZc2xWZN-XAUSVm-41" parent="1" source="sR0DKym92BfmkiZwiNyP-5">
          <mxGeometry relative="1" as="geometry">
            <mxPoint x="616" y="1154" as="sourcePoint" />
            <mxPoint x="676" y="1154" as="targetPoint" />
          </mxGeometry>
        </mxCell>
        <mxCell id="DgEYZhZc2xWZN-XAUSVm-41" value="Dificultad" style="ellipse;whiteSpace=wrap;html=1;align=center;" vertex="1" parent="1">
          <mxGeometry x="690.5" y="1086" width="64" height="30" as="geometry" />
        </mxCell>
        <mxCell id="DgEYZhZc2xWZN-XAUSVm-43" value="" style="endArrow=none;html=1;rounded=0;exitX=1;exitY=0.5;exitDx=0;exitDy=0;" edge="1" target="DgEYZhZc2xWZN-XAUSVm-44" parent="1" source="DgEYZhZc2xWZN-XAUSVm-12">
          <mxGeometry relative="1" as="geometry">
            <mxPoint x="606" y="1279" as="sourcePoint" />
            <mxPoint x="666" y="1279" as="targetPoint" />
          </mxGeometry>
        </mxCell>
        <mxCell id="DgEYZhZc2xWZN-XAUSVm-44" value="Fecha" style="ellipse;whiteSpace=wrap;html=1;align=center;" vertex="1" parent="1">
          <mxGeometry x="654.5" y="1259" width="50" height="30" as="geometry" />
        </mxCell>
        <mxCell id="DgEYZhZc2xWZN-XAUSVm-45" value="" style="endArrow=none;html=1;rounded=0;exitX=0;exitY=0.5;exitDx=0;exitDy=0;" edge="1" target="DgEYZhZc2xWZN-XAUSVm-46" parent="1" source="DgEYZhZc2xWZN-XAUSVm-17">
          <mxGeometry relative="1" as="geometry">
            <mxPoint x="192" y="1357" as="sourcePoint" />
            <mxPoint x="252" y="1357" as="targetPoint" />
          </mxGeometry>
        </mxCell>
        <mxCell id="DgEYZhZc2xWZN-XAUSVm-46" value="&lt;u&gt;Identificador_Profesor&lt;/u&gt;" style="ellipse;whiteSpace=wrap;html=1;align=center;" vertex="1" parent="1">
          <mxGeometry x="123" y="1309" width="156" height="30" as="geometry" />
        </mxCell>
        <mxCell id="DgEYZhZc2xWZN-XAUSVm-47" value="" style="endArrow=none;html=1;rounded=0;exitX=0;exitY=0.75;exitDx=0;exitDy=0;" edge="1" target="DgEYZhZc2xWZN-XAUSVm-48" parent="1" source="DgEYZhZc2xWZN-XAUSVm-17">
          <mxGeometry relative="1" as="geometry">
            <mxPoint x="132" y="1354" as="sourcePoint" />
            <mxPoint x="192" y="1354" as="targetPoint" />
          </mxGeometry>
        </mxCell>
        <mxCell id="DgEYZhZc2xWZN-XAUSVm-48" value="NIF" style="ellipse;whiteSpace=wrap;html=1;align=center;" vertex="1" parent="1">
          <mxGeometry x="167" y="1339" width="50" height="30" as="geometry" />
        </mxCell>
        <mxCell id="DgEYZhZc2xWZN-XAUSVm-49" value="" style="endArrow=none;html=1;rounded=0;exitX=0;exitY=1;exitDx=0;exitDy=0;" edge="1" target="DgEYZhZc2xWZN-XAUSVm-50" parent="1" source="DgEYZhZc2xWZN-XAUSVm-17">
          <mxGeometry relative="1" as="geometry">
            <mxPoint x="133" y="1384" as="sourcePoint" />
            <mxPoint x="193" y="1384" as="targetPoint" />
          </mxGeometry>
        </mxCell>
        <mxCell id="DgEYZhZc2xWZN-XAUSVm-50" value="Nombre" style="ellipse;whiteSpace=wrap;html=1;align=center;" vertex="1" parent="1">
          <mxGeometry x="168" y="1369" width="50" height="30" as="geometry" />
        </mxCell>
        <mxCell id="DgEYZhZc2xWZN-XAUSVm-51" value="" style="endArrow=none;html=1;rounded=0;exitX=0.25;exitY=1;exitDx=0;exitDy=0;" edge="1" target="DgEYZhZc2xWZN-XAUSVm-52" parent="1" source="DgEYZhZc2xWZN-XAUSVm-17">
          <mxGeometry relative="1" as="geometry">
            <mxPoint x="134" y="1414" as="sourcePoint" />
            <mxPoint x="194" y="1414" as="targetPoint" />
          </mxGeometry>
        </mxCell>
        <mxCell id="DgEYZhZc2xWZN-XAUSVm-52" value="Apellidos" style="ellipse;whiteSpace=wrap;html=1;align=center;" vertex="1" parent="1">
          <mxGeometry x="168" y="1399" width="50" height="30" as="geometry" />
        </mxCell>
      </root>
    </mxGraphModel>
  </diagram>
</mxfile>
